<?xml version="1.0" encoding="utf-8"?>
<!-- Generator: Adobe Illustrator 19.0.0, SVG Export Plug-In . SVG Version: 6.00 Build 0)  -->
<svg version="1.1" id="Layer_1" xmlns="http://www.w3.org/2000/svg" xmlns:xlink="http://www.w3.org/1999/xlink" x="0px" y="0px"
	 viewBox="0 0 2041.5 540.5" style="enable-background:new 0 0 2041.5 540.5;" xml:space="preserve">
<style type="text/css">
	.st0{fill:#F37021;}
</style>
<g id="XMLID_17_">
	<path id="XMLID_12_" class="st0" d="M1438.7,190.1c-12.8,32.9-28.4,74-44.2,113.8c-25.6,64.5-50.7,130.7-56.9,146.2
		c-6.8-15-35.8-82.2-64.6-146.2c-18.4-40.8-36-82.6-50.1-113.8h-80.9l50.1,113.8l87.9,199.6c6.6,13.8,22.1,37.3,56.2,38.5
		c15.8,0.6,44.6-2.7,58.6-36.3l79.1-201.8l44-113.8H1438.7z"/>
	<path id="XMLID_11_" class="st0" d="M1039,303.9v67.7c0,52.4-42.2,95.1-94.2,95.1c-52.1,0-94.4-42.7-94.4-95.1v-67.7V190.3h-73.8
		v113.6v67.7c0,93.2,75.5,168.9,168.2,168.9c92.6,0,168-75.7,168-168.9v-67.7V190.3H1039V303.9z"/>
	<path id="XMLID_23_" class="st0" d="M176.7,185.6c-38.4,0-73.9,12.4-102.9,33.4V0H0v303.9v59.2c0,98,79.3,177.5,176.7,177.5
		c97.5,0,176.7-79.6,176.7-177.5c0-20.7-3.6-40.7-10.2-59.2C319,235,253.5,185.6,176.7,185.6 M176.7,466.8
		c-56.7,0-102.9-46.5-102.9-103.8c0-22,6.9-42.4,18.6-59.2c18.6-26.9,49.5-44.5,84.4-44.5c35,0,65.9,17.6,84.5,44.5
		c11.7,16.8,18.6,37.2,18.6,59.2C279.8,420.3,233.5,466.8,176.7,466.8"/>
	<path id="XMLID_20_" class="st0" d="M562.9,184.6c-77,0-142.8,50-166.8,119.3c-6.4,18.2-9.8,37.8-9.8,58.1
		c0,97.9,79.3,177.5,176.7,177.5c97.5,0,176.8-79.6,176.8-177.5c0-20.3-3.5-39.9-9.8-58.1C705.9,234.6,640.2,184.6,562.9,184.6
		 M562.9,465.8c-56.6,0-102.8-46.6-102.8-103.8c0-21.5,6.6-41.6,17.7-58.1c18.5-27.4,49.8-45.5,85-45.5c35.4,0,66.7,18.1,85.2,45.5
		c11.2,16.6,17.8,36.6,17.8,58.1C666,419.3,619.8,465.8,562.9,465.8"/>
	<path id="XMLID_6_" class="st0" d="M1691.7,466.7c-56.6,0-102.8-46.5-102.8-103.8c0-21.9,6.9-42.3,18.4-59.1
		c18.6-26.9,49.6-44.6,84.4-44.6c25.2,0,47.9,9.3,65.8,24.3l-0.3,0.1l-34.8,20.1l-48,27.7l-0.1-0.1c-17.6,10.2-23.6,32.7-13.5,50.4
		c10.2,17.6,32.8,23.7,50.4,13.5l121-69.5l-0.2-0.1c8.7-5,14.6-13,17.1-22c2.6-9.3,1.6-19.4-3.6-28.4c-6.1-10.7-13.4-20.4-21.4-29.6
		l-0.5-0.5c-32.4-36.6-79.4-59.9-131.9-59.9c-76.7,0-142.1,49.5-166.5,118.4c-6.5,18.5-10.1,38.4-10.1,59.1
		c0,98,79.4,177.5,176.7,177.5c73.4,0,136.4-45.1,163.2-109.1l-67.9-29.3C1771.7,440,1734.8,466.7,1691.7,466.7"/>
	<path id="XMLID_5_" class="st0" d="M1971.5,1.1h-73.7v302.8v101.6c0.2,74.1,60,134.4,133.5,135.4h0.6h0.5h0.7h0.3h8.1v-73.8h-8.4
		c-33.8,0-61.5-27.8-61.6-61.8V303.9v-39.8h70v-73.8h-70V1.1z"/>
</g>
</svg>
