<?xml version="1.0" encoding="utf-8"?>
<!-- Generator: Adobe Illustrator 19.0.0, SVG Export Plug-In . SVG Version: 6.00 Build 0)  -->
<svg version="1.1" id="Layer_1" xmlns="http://www.w3.org/2000/svg" xmlns:xlink="http://www.w3.org/1999/xlink" x="0px" y="0px"
	 viewBox="0 0 323.8 229.7" style="enable-background:new 0 0 323.8 229.7;" xml:space="preserve">
<style type="text/css">
	.st0{fill:#F27031;}
	.st1{fill:#010101;}
	.st2{fill:#FFFFFF;}
	.st3{fill:#F37124;}
	.st4{fill:#F37124;stroke:#F37124;stroke-width:0.2069;stroke-miterlimit:10;}
	.st5{fill:none;stroke:#F37124;stroke-width:0.5;stroke-miterlimit:10;}
	.st6{fill:none;}
</style>
<g id="XMLID_135_">
	<path id="XMLID_136_" class="st0" d="M98.8,96.2l-0.6,3.3c-1.3,7.4-8.4,13.5-15.9,13.5H54.5l8.9-50.7h24.3
		c7.4,0,12.4,6.1,11.1,13.5l-0.3,1.7c-0.5,2.8-1.8,5.5-3.5,7.7C98,87.6,99.6,91.7,98.8,96.2z M88.7,96.4c0.4-2.1-1-3.8-3.1-3.8H74.9
		l-1.2-10h10.1c2.1,0,4.1-1.7,4.4-3.8l0.5-2.9c0.4-2.1-1-3.8-3.1-3.8H71.6l-5.4,30.8h17.7c2.1,0,4.1-1.7,4.4-3.8L88.7,96.4z"/>
	<path id="XMLID_139_" class="st0" d="M145.3,75.8l-4.2,23.7c-1.3,7.4-8.4,13.5-15.9,13.5h-12.8c-7.4,0-12.5-6.1-11.2-13.5l4.2-23.7
		c1.3-7.4,8.5-13.5,15.9-13.5h12.8C141.6,62.3,146.6,68.4,145.3,75.8z M135.2,76.1c0.4-2.1-1-3.8-3.1-3.8h-12.4
		c-2,0-4.1,1.7-4.4,3.8l-4.1,23.3c-0.4,2,1.1,3.8,3.1,3.8h12.4c2.1,0,4.1-1.7,4.4-3.8L135.2,76.1z"/>
	<path id="XMLID_142_" class="st0" d="M183.3,99.5c-1.3,7.4-8.4,13.5-15.9,13.5h-10.5c-7.4,0-12.5-6.1-11.2-13.5l6.6-37.2h9.9
		l-6.5,37.1c-0.4,2,1.1,3.8,3.1,3.8h10.1c2.1,0,4.1-1.7,4.4-3.8l6.5-37.1h10L183.3,99.5z"/>
	<path id="XMLID_144_" class="st0" d="M233.7,62.3l-22.6,50.7h-15l-4.7-50.7h10.3l3.7,40.4l18-40.4H233.7z"/>
	<path id="XMLID_146_" class="st0" d="M268.5,82.7l-1.8,10h-25.4l-1.1,6.7c-0.4,2,1.1,3.8,3.1,3.8h21.7l-1.7,9.9h-21.8
		c-7.4,0-12.5-6.1-11.2-13.5l4.2-23.7c1.3-7.4,8.5-13.5,15.9-13.5h21.8l-4.8,10h-18.6c-2,0-4.1,1.7-4.4,3.8l-2,11.7l5.9-5H268.5z"/>
	<path id="XMLID_148_" class="st0" d="M311.8,72.3h-14.6l-7.1,40.7h-9.9l6.2-35.8l5.9-5h-19.5l1.8-10h39.1L311.8,72.3z"/>
</g>
<g id="XMLID_121_">
	<path id="XMLID_122_" class="st0" d="M41.8,157.8c-1.3,7.4-8.4,13.5-15.9,13.5H11.7c-7.4,0-12.5-6.1-11.2-13.5l4.2-23.7
		c1.3-7.4,8.5-13.5,15.9-13.5h21.8l-4.8,10H19c-2,0-4.1,1.7-4.4,3.8l-4.1,23.3c-0.4,2,1.1,3.8,3.1,3.8h13.9c2.1,0,4.1-1.7,4.4-3.8
		l1.1-6.7h-9.9l-1.2-10h22.9L41.8,157.8z"/>
	<path id="XMLID_124_" class="st0" d="M75.5,171.3l-6.2-15.3h-8.8l4.8-10h10.8c2.1,0,4.1-1.7,4.4-3.8l1.4-8c0.4-2.1-1-3.8-3.1-3.8
		H61.1L54,171.3h-9.9l8.9-50.7h27.8c7.4,0,12.3,5.9,11.1,13.3c0,0.1,0,0.1,0,0.2l-1.5,8.4c0,0.1,0,0.2,0,0.2
		c-1.1,5.3-5.1,10-10.1,12.1l6.7,16.5H75.5z M90.5,142.8v-0.2C90.5,142.6,90.5,142.7,90.5,142.8z M92,134.1v-0.2
		C92,134,92,134,92,134.1z"/>
	<path id="XMLID_128_" class="st0" d="M131.8,171.3h-10l2.6-15.3h-17.7l4.8-10h14.7l2-11.7c0.4-2.1-1-3.8-3.1-3.8h-13.9
		c-2,0-4.1,1.7-4.4,3.8l-6.5,37h-9.9l6.5-37.2c1.3-7.4,8.5-13.5,15.9-13.5h14.3c7.4,0,12.4,6.1,11.1,13.5L131.8,171.3z"/>
	<path id="XMLID_130_" class="st0" d="M175.5,171.3h-10l-13.6-31.6l-5.6,31.6h-9.9l8.9-50.7h9.9l13.5,31.6l5.6-31.6h10l-8.5,48
		L175.5,171.3z"/>
	<path id="XMLID_132_" class="st0" d="M225.6,134.1l-4.2,23.7c-1.3,7.4-8.4,13.5-15.9,13.5h-25.4l8.9-50.7h25.4
		C221.9,120.6,226.8,126.7,225.6,134.1z M215.5,134.3c0.4-2.1-1-3.8-3.1-3.8h-15.3l-4.6,25.9l-5.7,5H207c2.1,0,4.1-1.7,4.4-3.8
		L215.5,134.3z"/>
</g>
<g id="XMLID_108_">
	<path id="XMLID_109_" class="st0" d="M127.2,200.9c0,0.1,0,0.2,0,0.2c-1.5,7.4-8.6,13.3-15.9,13.3h-14l4.8-10h10.8
		c2.1,0,4.1-1.7,4.4-3.8l1.4-8c0.4-2.1-1-3.8-3.1-3.8H97.9l-7.1,40.7h-9.9l8.9-50.7h27.8c7.4,0,12.3,5.9,11.1,13.3
		c0,0.1,0,0.1,0,0.2L127.2,200.9z M127.2,201.1v-0.2C127.2,201,127.2,201.1,127.2,201.1z M128.7,192.5v-0.2
		C128.7,192.4,128.7,192.4,128.7,192.5z"/>
	<path id="XMLID_113_" class="st0" d="M157.8,229.7l-6.2-15.3h-8.8l4.8-10h10.8c2.1,0,4.1-1.7,4.4-3.8l1.4-8c0.4-2.1-1-3.8-3.1-3.8
		h-17.7l-7.1,40.7h-9.9l8.9-50.7h27.8c7.4,0,12.3,5.9,11.1,13.3c0,0.1,0,0.1,0,0.2l-1.5,8.4c0,0.1,0,0.2,0,0.2
		c-1.1,5.3-5.1,10-10.1,12.1l6.7,16.5H157.8z M172.8,201.1v-0.2C172.8,201,172.8,201.1,172.8,201.1z M174.3,192.5v-0.2
		C174.3,192.4,174.3,192.4,174.3,192.5z"/>
	<path id="XMLID_117_" class="st0" d="M172.8,229.7l8.9-50.7h9.9l-8.9,50.7H172.8z"/>
	<path id="XMLID_119_" class="st0" d="M218.3,229.7l-8.2-16.4l-13.8,16.4h-12l21.4-25.3L193.2,179h12l8,16.4l14-16.4h12l-17.3,20.4
		h-6.6l15,30.4H218.3z"/>
</g>
<g id="XMLID_161_">
	<g id="XMLID_265_">
		<g id="XMLID_364_">
			<path id="XMLID_365_" class="st1" d="M140.7,15.8c-0.8,0.1-1.7,0-2.6-0.2c-0.3-0.8-0.5-1.5-0.8-2.3c0.9,0.2,1.8,0.3,2.6,0.2
				C140.2,14.3,140.4,15.1,140.7,15.8z"/>
		</g>
		<g id="XMLID_362_">
			<path id="XMLID_363_" class="st2" d="M141.5,18.2c-0.8,0.1-1.7,0-2.6-0.2c-0.3-0.8-0.5-1.6-0.8-2.4c0.9,0.2,1.8,0.3,2.6,0.2
				C140.9,16.6,141.2,17.4,141.5,18.2z"/>
		</g>
		<g id="XMLID_360_">
			<path id="XMLID_361_" class="st1" d="M142.2,20.5c-0.8,0.1-1.7,0-2.6-0.2c-0.3-0.8-0.5-1.5-0.8-2.3c0.9,0.2,1.8,0.3,2.6,0.2
				C141.7,19,142,19.8,142.2,20.5z"/>
		</g>
		<g id="XMLID_358_">
			<path id="XMLID_359_" class="st2" d="M143,22.9c-0.8,0.1-1.7,0-2.6-0.2c-0.3-0.8-0.5-1.6-0.8-2.4c0.9,0.3,1.8,0.3,2.6,0.2
				C142.5,21.3,142.8,22.1,143,22.9z"/>
		</g>
		<g id="XMLID_356_">
			<path id="XMLID_357_" class="st1" d="M143.8,25.2c-0.8,0.1-1.7,0-2.6-0.2c-0.3-0.8-0.5-1.5-0.8-2.3c0.9,0.3,1.8,0.3,2.6,0.2
				C143.3,23.7,143.5,24.5,143.8,25.2z"/>
		</g>
		<g id="XMLID_354_">
			<path id="XMLID_355_" class="st2" d="M144.6,27.6c-0.8,0.1-1.7,0-2.6-0.2c-0.3-0.8-0.5-1.6-0.8-2.4c0.9,0.3,1.8,0.3,2.6,0.2
				C144.1,26,144.3,26.8,144.6,27.6z"/>
		</g>
		<g id="XMLID_352_">
			<path id="XMLID_353_" class="st2" d="M143.1,15.2c-0.8,0.3-1.6,0.6-2.4,0.7c-0.3-0.8-0.5-1.5-0.8-2.3c0.9-0.1,1.7-0.3,2.4-0.6
				C142.6,13.6,142.8,14.4,143.1,15.2z"/>
		</g>
		<g id="XMLID_350_">
			<path id="XMLID_351_" class="st1" d="M143.9,17.6c-0.8,0.3-1.6,0.6-2.4,0.7c-0.3-0.8-0.5-1.6-0.8-2.4c0.9-0.1,1.7-0.3,2.4-0.7
				C143.4,16,143.6,16.8,143.9,17.6z"/>
		</g>
		<g id="XMLID_348_">
			<path id="XMLID_349_" class="st2" d="M144.7,19.9c-0.8,0.3-1.6,0.6-2.4,0.7c-0.3-0.8-0.5-1.5-0.8-2.3c0.9-0.1,1.7-0.3,2.4-0.7
				C144.2,18.3,144.4,19.1,144.7,19.9z"/>
		</g>
		<g id="XMLID_346_">
			<path id="XMLID_347_" class="st1" d="M145.5,22.3c-0.8,0.3-1.6,0.6-2.4,0.6c-0.3-0.8-0.5-1.6-0.8-2.4c0.9-0.1,1.7-0.3,2.4-0.7
				C144.9,20.7,145.2,21.5,145.5,22.3z"/>
		</g>
		<g id="XMLID_344_">
			<path id="XMLID_345_" class="st2" d="M146.2,24.6c-0.8,0.3-1.6,0.6-2.4,0.6c-0.3-0.8-0.5-1.5-0.8-2.3c0.9-0.1,1.7-0.3,2.4-0.6
				C145.7,23,146,23.8,146.2,24.6z"/>
		</g>
		<g id="XMLID_342_">
			<path id="XMLID_343_" class="st1" d="M147,27c-0.8,0.3-1.6,0.6-2.4,0.6c-0.3-0.8-0.5-1.6-0.8-2.4c0.9-0.1,1.7-0.3,2.4-0.6
				C146.5,25.4,146.8,26.2,147,27z"/>
		</g>
		<g id="XMLID_340_">
			<path id="XMLID_341_" class="st1" d="M145.3,14c-0.7,0.5-1.4,0.9-2.2,1.2c-0.3-0.8-0.5-1.5-0.8-2.3c0.7-0.3,1.5-0.7,2.2-1.2
				C144.8,12.4,145,13.2,145.3,14z"/>
		</g>
		<g id="XMLID_338_">
			<path id="XMLID_339_" class="st2" d="M146.1,16.4c-0.7,0.5-1.4,0.9-2.2,1.2c-0.3-0.8-0.5-1.6-0.8-2.4c0.7-0.3,1.5-0.7,2.2-1.2
				C145.5,14.8,145.8,15.6,146.1,16.4z"/>
		</g>
		<g id="XMLID_336_">
			<path id="XMLID_337_" class="st1" d="M146.8,18.7c-0.7,0.5-1.4,0.9-2.2,1.2c-0.3-0.8-0.5-1.5-0.8-2.3c0.8-0.3,1.5-0.7,2.2-1.2
				C146.3,17.1,146.6,17.9,146.8,18.7z"/>
		</g>
		<g id="XMLID_334_">
			<path id="XMLID_335_" class="st2" d="M147.6,21.1c-0.7,0.5-1.4,0.9-2.2,1.2c-0.3-0.8-0.5-1.6-0.8-2.4c0.7-0.3,1.5-0.7,2.2-1.2
				C147.1,19.5,147.4,20.3,147.6,21.1z"/>
		</g>
		<g id="XMLID_332_">
			<path id="XMLID_333_" class="st1" d="M148.4,23.4c-0.7,0.5-1.4,0.9-2.2,1.2c-0.3-0.8-0.5-1.5-0.8-2.3c0.7-0.3,1.5-0.7,2.2-1.2
				C147.9,21.8,148.1,22.6,148.4,23.4z"/>
		</g>
		<g id="XMLID_330_">
			<path id="XMLID_331_" class="st2" d="M149.2,25.8c-0.7,0.5-1.4,0.9-2.2,1.2c-0.3-0.8-0.5-1.6-0.8-2.4c0.7-0.3,1.5-0.7,2.2-1.2
				C148.7,24.2,148.9,25,149.2,25.8z"/>
		</g>
		<g id="XMLID_328_">
			<path id="XMLID_329_" class="st2" d="M147.4,12.4c-0.7,0.5-1.4,1.1-2.1,1.5c-0.3-0.8-0.5-1.5-0.8-2.3c0.7-0.5,1.4-1,2.1-1.5
				C146.9,10.9,147.2,11.7,147.4,12.4z"/>
		</g>
		<g id="XMLID_326_">
			<path id="XMLID_327_" class="st1" d="M148.2,14.8c-0.7,0.5-1.4,1.1-2.1,1.5c-0.3-0.8-0.5-1.6-0.8-2.4c0.7-0.5,1.4-1,2.1-1.5
				C147.7,13.2,147.9,14,148.2,14.8z"/>
		</g>
		<g id="XMLID_324_">
			<path id="XMLID_325_" class="st2" d="M149,17.1c-0.7,0.5-1.4,1.1-2.1,1.5c-0.3-0.8-0.5-1.5-0.8-2.3c0.7-0.5,1.4-1,2.1-1.5
				C148.5,15.6,148.7,16.4,149,17.1z"/>
		</g>
		<g id="XMLID_322_">
			<path id="XMLID_323_" class="st1" d="M149.8,19.5c-0.7,0.5-1.4,1.1-2.1,1.5c-0.3-0.8-0.5-1.6-0.8-2.4c0.7-0.5,1.4-1,2.1-1.5
				C149.2,17.9,149.5,18.7,149.8,19.5z"/>
		</g>
		<g id="XMLID_320_">
			<path id="XMLID_321_" class="st2" d="M150.5,21.8c-0.7,0.5-1.4,1.1-2.1,1.5c-0.3-0.8-0.5-1.5-0.8-2.3c0.7-0.5,1.4-1,2.1-1.5
				C150,20.3,150.3,21.1,150.5,21.8z"/>
		</g>
		<g id="XMLID_318_">
			<path id="XMLID_319_" class="st1" d="M151.3,24.2c-0.7,0.5-1.4,1.1-2.1,1.5c-0.3-0.8-0.5-1.6-0.8-2.4c0.7-0.5,1.4-1,2.1-1.5
				C150.8,22.6,151.1,23.4,151.3,24.2z"/>
		</g>
		<g id="XMLID_316_">
			<path id="XMLID_317_" class="st1" d="M149.5,10.9c-0.7,0.5-1.4,1-2.1,1.5c-0.3-0.8-0.5-1.5-0.8-2.3c0.7-0.5,1.4-1,2.1-1.5
				C149,9.4,149.2,10.2,149.5,10.9z"/>
		</g>
		<g id="XMLID_314_">
			<path id="XMLID_315_" class="st2" d="M150.3,13.3c-0.7,0.5-1.4,1-2.1,1.5c-0.3-0.8-0.5-1.6-0.8-2.4c0.7-0.5,1.4-1,2.1-1.5
				C149.7,11.7,150,12.5,150.3,13.3z"/>
		</g>
		<g id="XMLID_312_">
			<path id="XMLID_313_" class="st1" d="M151,15.6c-0.7,0.5-1.4,1-2.1,1.5c-0.3-0.8-0.5-1.5-0.8-2.3c0.7-0.5,1.4-1,2.1-1.5
				C150.5,14.1,150.8,14.9,151,15.6z"/>
		</g>
		<g id="XMLID_310_">
			<path id="XMLID_311_" class="st2" d="M151.8,18c-0.7,0.5-1.4,1-2.1,1.5c-0.3-0.8-0.5-1.6-0.8-2.4c0.7-0.5,1.4-1,2.1-1.5
				C151.3,16.4,151.6,17.2,151.8,18z"/>
		</g>
		<g id="XMLID_308_">
			<path id="XMLID_309_" class="st1" d="M152.6,20.3c-0.7,0.5-1.4,1-2.1,1.5c-0.3-0.8-0.5-1.5-0.8-2.3c0.7-0.5,1.4-1,2.1-1.5
				C152.1,18.8,152.3,19.6,152.6,20.3z"/>
		</g>
		<g id="XMLID_306_">
			<path id="XMLID_307_" class="st2" d="M153.4,22.7c-0.7,0.5-1.4,1-2.1,1.5c-0.3-0.8-0.5-1.6-0.8-2.4c0.7-0.5,1.4-1,2.1-1.5
				C152.9,21.1,153.1,21.9,153.4,22.7z"/>
		</g>
		<g id="XMLID_304_">
			<path id="XMLID_305_" class="st2" d="M151.6,9.7c-0.7,0.3-1.5,0.8-2.2,1.2c-0.3-0.8-0.5-1.5-0.8-2.3c0.7-0.5,1.4-0.9,2.2-1.2
				C151.1,8.2,151.4,8.9,151.6,9.7z"/>
		</g>
		<g id="XMLID_302_">
			<path id="XMLID_303_" class="st1" d="M152.4,12.1c-0.7,0.3-1.5,0.8-2.2,1.2c-0.3-0.8-0.5-1.6-0.8-2.4c0.7-0.5,1.4-0.9,2.2-1.2
				C151.9,10.5,152.2,11.3,152.4,12.1z"/>
		</g>
		<g id="XMLID_300_">
			<path id="XMLID_301_" class="st2" d="M153.2,14.4c-0.7,0.3-1.5,0.8-2.2,1.2c-0.3-0.8-0.5-1.5-0.8-2.3c0.7-0.5,1.4-0.9,2.2-1.2
				C152.7,12.9,152.9,13.6,153.2,14.4z"/>
		</g>
		<g id="XMLID_298_">
			<path id="XMLID_299_" class="st1" d="M154,16.8c-0.7,0.3-1.5,0.8-2.2,1.2c-0.3-0.8-0.5-1.6-0.8-2.4c0.7-0.5,1.4-0.9,2.2-1.2
				C153.5,15.2,153.7,16,154,16.8z"/>
		</g>
		<g id="XMLID_296_">
			<path id="XMLID_297_" class="st2" d="M154.8,19.1c-0.7,0.3-1.5,0.8-2.2,1.2c-0.3-0.8-0.5-1.5-0.8-2.3c0.7-0.5,1.4-0.9,2.2-1.2
				C154.2,17.6,154.5,18.3,154.8,19.1z"/>
		</g>
		<g id="XMLID_294_">
			<path id="XMLID_295_" class="st1" d="M155.6,21.5c-0.7,0.3-1.5,0.8-2.2,1.2c-0.3-0.8-0.5-1.6-0.8-2.4c0.7-0.5,1.4-0.9,2.2-1.2
				C155,19.9,155.3,20.7,155.6,21.5z"/>
		</g>
		<g id="XMLID_292_">
			<path id="XMLID_293_" class="st1" d="M154.1,9c-0.9,0.1-1.7,0.3-2.5,0.7c-0.3-0.8-0.5-1.5-0.8-2.3c0.8-0.4,1.6-0.6,2.5-0.7
				C153.6,7.5,153.9,8.2,154.1,9z"/>
		</g>
		<g id="XMLID_290_">
			<path id="XMLID_291_" class="st2" d="M154.9,11.4c-0.9,0.1-1.7,0.3-2.5,0.7c-0.3-0.8-0.5-1.6-0.8-2.4c0.8-0.4,1.6-0.6,2.5-0.7
				C154.4,9.8,154.7,10.6,154.9,11.4z"/>
		</g>
		<g id="XMLID_288_">
			<path id="XMLID_289_" class="st1" d="M155.7,13.7c-0.9,0.1-1.7,0.3-2.5,0.7c-0.3-0.8-0.5-1.5-0.8-2.3c0.8-0.4,1.6-0.6,2.5-0.7
				C155.2,12.2,155.4,13,155.7,13.7z"/>
		</g>
		<g id="XMLID_286_">
			<path id="XMLID_287_" class="st2" d="M156.5,16.1c-0.9,0.1-1.7,0.3-2.5,0.7c-0.3-0.8-0.5-1.6-0.8-2.4c0.8-0.4,1.6-0.6,2.5-0.7
				C156,14.5,156.2,15.3,156.5,16.1z"/>
		</g>
		<g id="XMLID_284_">
			<path id="XMLID_285_" class="st1" d="M157.3,18.4c-0.9,0.1-1.7,0.3-2.5,0.7c-0.3-0.8-0.5-1.5-0.8-2.3c0.8-0.4,1.6-0.6,2.5-0.7
				C156.8,16.9,157,17.6,157.3,18.4z"/>
		</g>
		<g id="XMLID_282_">
			<path id="XMLID_283_" class="st2" d="M158.1,20.8c-0.9,0.1-1.7,0.3-2.5,0.7c-0.3-0.8-0.5-1.6-0.8-2.4c0.8-0.4,1.6-0.6,2.5-0.7
				C157.5,19.2,157.8,20,158.1,20.8z"/>
		</g>
		<g id="XMLID_280_">
			<path id="XMLID_281_" class="st2" d="M156.9,9.3c-1-0.3-1.9-0.3-2.7-0.3c-0.3-0.8-0.5-1.5-0.8-2.3c0.9-0.1,1.8,0,2.7,0.3
				C156.4,7.7,156.6,8.5,156.9,9.3z"/>
		</g>
		<g id="XMLID_278_">
			<path id="XMLID_279_" class="st1" d="M157.7,11.7c-1-0.3-1.9-0.3-2.7-0.3c-0.3-0.8-0.5-1.6-0.8-2.4c0.9-0.1,1.8,0,2.7,0.3
				C157.1,10.1,157.4,10.9,157.7,11.7z"/>
		</g>
		<g id="XMLID_276_">
			<path id="XMLID_277_" class="st2" d="M158.4,14c-1-0.3-1.9-0.3-2.7-0.3c-0.3-0.8-0.5-1.5-0.8-2.3c0.9-0.1,1.8,0,2.7,0.3
				C157.9,12.4,158.2,13.2,158.4,14z"/>
		</g>
		<g id="XMLID_274_">
			<path id="XMLID_275_" class="st1" d="M159.2,16.4c-1-0.3-1.9-0.3-2.7-0.3c-0.3-0.8-0.5-1.6-0.8-2.4c0.9-0.1,1.8,0,2.7,0.3
				C158.7,14.8,159,15.6,159.2,16.4z"/>
		</g>
		<g id="XMLID_272_">
			<path id="XMLID_273_" class="st2" d="M160,18.7c-1-0.3-1.9-0.3-2.7-0.3c-0.3-0.8-0.5-1.5-0.8-2.3c0.9-0.1,1.8,0,2.7,0.3
				C159.5,17.1,159.7,17.9,160,18.7z"/>
		</g>
		<g id="XMLID_270_">
			<path id="XMLID_271_" class="st1" d="M160.8,21.1c-1-0.3-1.9-0.3-2.7-0.3c-0.3-0.8-0.5-1.6-0.8-2.4c0.9-0.1,1.8,0,2.7,0.3
				C160.3,19.5,160.5,20.3,160.8,21.1z"/>
		</g>
		<g id="XMLID_266_">
			<path id="XMLID_267_" class="st3" d="M146.3,27.3c-1.5,0.5-2.9,0.5-4.4,0.1l0,0l-4.7-14.2l0.1,0c1.5,0.4,2.9,0.4,4.3-0.1
				c1.8-0.6,3.5-1.8,5.1-3c1.6-1.2,3.2-2.4,5.1-3c1.5-0.5,2.9-0.5,4.4-0.1l0,0l4.7,14.2l-0.1,0c-1.5-0.4-2.9-0.4-4.3,0.1
				c-1.8,0.6-3.5,1.8-5.1,3C149.8,25.5,148.1,26.7,146.3,27.3L146.3,27.3z M141.9,27.4c1.5,0.4,2.9,0.4,4.3-0.1l0,0
				c1.8-0.6,3.5-1.8,5.1-3c1.6-1.2,3.2-2.4,5.1-3.1c1.4-0.5,2.9-0.5,4.3-0.1L156,7c-1.5-0.4-2.9-0.4-4.3,0.1c-1.8,0.6-3.5,1.8-5.1,3
				c-1.6,1.2-3.2,2.4-5.1,3.1c-1.4,0.5-2.9,0.5-4.3,0.1L141.9,27.4z"/>
		</g>
	</g>
	<polygon id="XMLID_264_" class="st4" points="165,33.7 165.5,33.5 156.8,7.3 156.1,7.1 	"/>
	<g id="XMLID_163_">
		<g id="XMLID_262_">
			<path id="XMLID_263_" class="st1" d="M183.6,15.8c0.8,0.1,1.7,0,2.6-0.2c0.3-0.8,0.5-1.5,0.8-2.3c-0.9,0.2-1.8,0.3-2.6,0.2
				C184.1,14.3,183.9,15.1,183.6,15.8z"/>
		</g>
		<g id="XMLID_260_">
			<path id="XMLID_261_" class="st2" d="M182.8,18.2c0.8,0.1,1.7,0,2.6-0.2c0.3-0.8,0.5-1.6,0.8-2.4c-0.9,0.2-1.8,0.3-2.6,0.2
				C183.3,16.6,183.1,17.4,182.8,18.2z"/>
		</g>
		<g id="XMLID_258_">
			<path id="XMLID_259_" class="st1" d="M182,20.5c0.8,0.1,1.7,0,2.6-0.2c0.3-0.8,0.5-1.5,0.8-2.3c-0.9,0.2-1.8,0.3-2.6,0.2
				C182.6,19,182.3,19.8,182,20.5z"/>
		</g>
		<g id="XMLID_256_">
			<path id="XMLID_257_" class="st2" d="M181.2,22.9c0.8,0.1,1.7,0,2.6-0.2c0.3-0.8,0.5-1.6,0.8-2.4c-0.9,0.3-1.8,0.3-2.6,0.2
				C181.8,21.3,181.5,22.1,181.2,22.9z"/>
		</g>
		<g id="XMLID_254_">
			<path id="XMLID_255_" class="st1" d="M180.5,25.2c0.8,0.1,1.7,0,2.6-0.2c0.3-0.8,0.5-1.5,0.8-2.3c-0.9,0.3-1.8,0.3-2.6,0.2
				C181,23.7,180.7,24.5,180.5,25.2z"/>
		</g>
		<g id="XMLID_252_">
			<path id="XMLID_253_" class="st2" d="M179.7,27.6c0.8,0.1,1.7,0,2.6-0.2c0.3-0.8,0.5-1.6,0.8-2.4c-0.9,0.3-1.8,0.3-2.6,0.2
				C180.2,26,179.9,26.8,179.7,27.6z"/>
		</g>
		<g id="XMLID_250_">
			<path id="XMLID_251_" class="st2" d="M181.2,15.2c0.8,0.3,1.6,0.6,2.4,0.7c0.3-0.8,0.5-1.5,0.8-2.3c-0.9-0.1-1.7-0.3-2.4-0.6
				C181.7,13.6,181.4,14.4,181.2,15.2z"/>
		</g>
		<g id="XMLID_248_">
			<path id="XMLID_249_" class="st1" d="M180.4,17.6c0.8,0.3,1.6,0.6,2.4,0.7c0.3-0.8,0.5-1.6,0.8-2.4c-0.9-0.1-1.7-0.3-2.4-0.7
				C180.9,16,180.6,16.8,180.4,17.6z"/>
		</g>
		<g id="XMLID_246_">
			<path id="XMLID_247_" class="st2" d="M179.6,19.9c0.8,0.3,1.6,0.6,2.4,0.7c0.3-0.8,0.5-1.5,0.8-2.3c-0.9-0.1-1.7-0.3-2.4-0.7
				C180.1,18.3,179.9,19.1,179.6,19.9z"/>
		</g>
		<g id="XMLID_244_">
			<path id="XMLID_245_" class="st1" d="M178.8,22.3c0.8,0.3,1.6,0.6,2.4,0.6c0.3-0.8,0.5-1.6,0.8-2.4c-0.9-0.1-1.7-0.3-2.4-0.7
				C179.3,20.7,179.1,21.5,178.8,22.3z"/>
		</g>
		<g id="XMLID_242_">
			<path id="XMLID_243_" class="st2" d="M178,24.6c0.8,0.3,1.6,0.6,2.4,0.6c0.3-0.8,0.5-1.5,0.8-2.3c-0.9-0.1-1.7-0.3-2.4-0.6
				C178.6,23,178.3,23.8,178,24.6z"/>
		</g>
		<g id="XMLID_240_">
			<path id="XMLID_241_" class="st1" d="M177.3,27c0.8,0.3,1.6,0.6,2.4,0.6c0.3-0.8,0.5-1.6,0.8-2.4c-0.9-0.1-1.7-0.3-2.4-0.6
				C177.8,25.4,177.5,26.2,177.3,27z"/>
		</g>
		<g id="XMLID_238_">
			<path id="XMLID_239_" class="st1" d="M179,14c0.7,0.5,1.4,0.9,2.2,1.2c0.3-0.8,0.5-1.5,0.8-2.3c-0.7-0.3-1.5-0.7-2.2-1.2
				C179.5,12.4,179.3,13.2,179,14z"/>
		</g>
		<g id="XMLID_236_">
			<path id="XMLID_237_" class="st2" d="M178.2,16.4c0.7,0.5,1.4,0.9,2.2,1.2c0.3-0.8,0.5-1.6,0.8-2.4c-0.7-0.3-1.5-0.7-2.2-1.2
				C178.7,14.8,178.5,15.6,178.2,16.4z"/>
		</g>
		<g id="XMLID_234_">
			<path id="XMLID_235_" class="st1" d="M177.4,18.7c0.7,0.5,1.4,0.9,2.2,1.2c0.3-0.8,0.5-1.5,0.8-2.3c-0.7-0.3-1.5-0.7-2.2-1.2
				C178,17.1,177.7,17.9,177.4,18.7z"/>
		</g>
		<g id="XMLID_232_">
			<path id="XMLID_233_" class="st2" d="M176.6,21.1c0.7,0.5,1.4,0.9,2.2,1.2c0.3-0.8,0.5-1.6,0.8-2.4c-0.8-0.3-1.5-0.7-2.2-1.2
				C177.2,19.5,176.9,20.3,176.6,21.1z"/>
		</g>
		<g id="XMLID_230_">
			<path id="XMLID_231_" class="st1" d="M175.9,23.4c0.7,0.5,1.4,0.9,2.2,1.2c0.3-0.8,0.5-1.5,0.8-2.3c-0.7-0.3-1.5-0.7-2.2-1.2
				C176.4,21.8,176.1,22.6,175.9,23.4z"/>
		</g>
		<g id="XMLID_228_">
			<path id="XMLID_229_" class="st2" d="M175.1,25.8c0.7,0.5,1.4,0.9,2.2,1.2c0.3-0.8,0.5-1.6,0.8-2.4c-0.7-0.3-1.5-0.7-2.2-1.2
				C175.6,24.2,175.3,25,175.1,25.8z"/>
		</g>
		<g id="XMLID_226_">
			<path id="XMLID_227_" class="st2" d="M176.9,12.4c0.7,0.5,1.4,1.1,2.1,1.5c0.3-0.8,0.5-1.5,0.8-2.3c-0.7-0.5-1.4-1-2.1-1.5
				C177.4,10.9,177.1,11.7,176.9,12.4z"/>
		</g>
		<g id="XMLID_224_">
			<path id="XMLID_225_" class="st1" d="M176.1,14.8c0.7,0.5,1.4,1.1,2.1,1.5c0.3-0.8,0.5-1.6,0.8-2.4c-0.7-0.5-1.4-1-2.1-1.5
				C176.6,13.2,176.3,14,176.1,14.8z"/>
		</g>
		<g id="XMLID_222_">
			<path id="XMLID_223_" class="st2" d="M175.3,17.1c0.7,0.5,1.4,1.1,2.1,1.5c0.3-0.8,0.5-1.5,0.8-2.3c-0.7-0.5-1.4-1-2.1-1.5
				C175.8,15.6,175.6,16.4,175.3,17.1z"/>
		</g>
		<g id="XMLID_220_">
			<path id="XMLID_221_" class="st1" d="M174.5,19.5c0.7,0.5,1.4,1.1,2.1,1.5c0.3-0.8,0.5-1.6,0.8-2.4c-0.7-0.5-1.4-1-2.1-1.5
				C175,17.9,174.8,18.7,174.5,19.5z"/>
		</g>
		<g id="XMLID_218_">
			<path id="XMLID_219_" class="st2" d="M173.7,21.8c0.7,0.5,1.4,1.1,2.1,1.5c0.3-0.8,0.5-1.5,0.8-2.3c-0.7-0.5-1.4-1-2.1-1.5
				C174.3,20.3,174,21.1,173.7,21.8z"/>
		</g>
		<g id="XMLID_216_">
			<path id="XMLID_217_" class="st1" d="M172.9,24.2c0.7,0.5,1.4,1.1,2.1,1.5c0.3-0.8,0.5-1.6,0.8-2.4c-0.7-0.5-1.4-1-2.1-1.5
				C173.5,22.6,173.2,23.4,172.9,24.2z"/>
		</g>
		<g id="XMLID_214_">
			<path id="XMLID_215_" class="st1" d="M174.8,10.9c0.7,0.5,1.4,1,2.1,1.5c0.3-0.8,0.5-1.5,0.8-2.3c-0.7-0.5-1.4-1-2.1-1.5
				C175.3,9.4,175.1,10.2,174.8,10.9z"/>
		</g>
		<g id="XMLID_212_">
			<path id="XMLID_213_" class="st2" d="M174,13.3c0.7,0.5,1.4,1,2.1,1.5c0.3-0.8,0.5-1.6,0.8-2.4c-0.7-0.5-1.4-1-2.1-1.5
				C174.5,11.7,174.3,12.5,174,13.3z"/>
		</g>
		<g id="XMLID_210_">
			<path id="XMLID_211_" class="st1" d="M173.2,15.6c0.7,0.5,1.4,1,2.1,1.5c0.3-0.8,0.5-1.5,0.8-2.3c-0.7-0.5-1.4-1-2.1-1.5
				C173.7,14.1,173.5,14.9,173.2,15.6z"/>
		</g>
		<g id="XMLID_208_">
			<path id="XMLID_209_" class="st2" d="M172.4,18c0.7,0.5,1.4,1,2.1,1.5c0.3-0.8,0.5-1.6,0.8-2.4c-0.7-0.5-1.4-1-2.1-1.5
				C173,16.4,172.7,17.2,172.4,18z"/>
		</g>
		<g id="XMLID_206_">
			<path id="XMLID_207_" class="st1" d="M171.7,20.3c0.7,0.5,1.4,1,2.1,1.5c0.3-0.8,0.5-1.5,0.8-2.3c-0.7-0.5-1.4-1-2.1-1.5
				C172.2,18.8,171.9,19.6,171.7,20.3z"/>
		</g>
		<g id="XMLID_204_">
			<path id="XMLID_205_" class="st2" d="M170.9,22.7c0.7,0.5,1.4,1,2.1,1.5c0.3-0.8,0.5-1.6,0.8-2.4c-0.7-0.5-1.4-1-2.1-1.5
				C171.4,21.1,171.1,21.9,170.9,22.7z"/>
		</g>
		<g id="XMLID_202_">
			<path id="XMLID_203_" class="st2" d="M172.6,9.7c0.7,0.3,1.5,0.8,2.2,1.2c0.3-0.8,0.5-1.5,0.8-2.3c-0.7-0.5-1.4-0.9-2.2-1.2
				C173.1,8.2,172.9,8.9,172.6,9.7z"/>
		</g>
		<g id="XMLID_200_">
			<path id="XMLID_201_" class="st1" d="M171.8,12.1c0.7,0.3,1.5,0.8,2.2,1.2c0.3-0.8,0.5-1.6,0.8-2.4c-0.7-0.5-1.4-0.9-2.2-1.2
				C172.4,10.5,172.1,11.3,171.8,12.1z"/>
		</g>
		<g id="XMLID_198_">
			<path id="XMLID_199_" class="st2" d="M171.1,14.4c0.7,0.3,1.5,0.8,2.2,1.2c0.3-0.8,0.5-1.5,0.8-2.3c-0.7-0.5-1.4-0.9-2.2-1.2
				C171.6,12.9,171.3,13.6,171.1,14.4z"/>
		</g>
		<g id="XMLID_196_">
			<path id="XMLID_197_" class="st1" d="M170.3,16.8c0.7,0.3,1.5,0.8,2.2,1.2c0.3-0.8,0.5-1.6,0.8-2.4c-0.7-0.5-1.4-0.9-2.2-1.2
				C170.8,15.2,170.5,16,170.3,16.8z"/>
		</g>
		<g id="XMLID_194_">
			<path id="XMLID_195_" class="st2" d="M169.5,19.1c0.7,0.3,1.5,0.8,2.2,1.2c0.3-0.8,0.5-1.5,0.8-2.3c-0.7-0.5-1.4-0.9-2.2-1.2
				C170,17.6,169.8,18.3,169.5,19.1z"/>
		</g>
		<g id="XMLID_192_">
			<path id="XMLID_193_" class="st1" d="M168.7,21.5c0.7,0.3,1.5,0.8,2.2,1.2c0.3-0.8,0.5-1.6,0.8-2.4c-0.7-0.5-1.4-0.9-2.2-1.2
				C169.2,19.9,169,20.7,168.7,21.5z"/>
		</g>
		<g id="XMLID_190_">
			<path id="XMLID_191_" class="st1" d="M170.1,9c0.9,0.1,1.7,0.3,2.5,0.7c0.3-0.8,0.5-1.5,0.8-2.3c-0.8-0.4-1.6-0.6-2.5-0.7
				C170.6,7.5,170.4,8.2,170.1,9z"/>
		</g>
		<g id="XMLID_188_">
			<path id="XMLID_189_" class="st2" d="M169.3,11.4c0.9,0.1,1.7,0.3,2.5,0.7c0.3-0.8,0.5-1.6,0.8-2.4c-0.8-0.4-1.6-0.6-2.5-0.7
				C169.9,9.8,169.6,10.6,169.3,11.4z"/>
		</g>
		<g id="XMLID_186_">
			<path id="XMLID_187_" class="st1" d="M168.6,13.7c0.9,0.1,1.7,0.3,2.5,0.7c0.3-0.8,0.5-1.5,0.8-2.3c-0.8-0.4-1.6-0.6-2.5-0.7
				C169.1,12.2,168.8,13,168.6,13.7z"/>
		</g>
		<g id="XMLID_184_">
			<path id="XMLID_185_" class="st2" d="M167.8,16.1c0.9,0.1,1.7,0.3,2.5,0.7c0.3-0.8,0.5-1.6,0.8-2.4c-0.8-0.4-1.6-0.6-2.5-0.7
				C168.3,14.5,168,15.3,167.8,16.1z"/>
		</g>
		<g id="XMLID_182_">
			<path id="XMLID_183_" class="st1" d="M167,18.4c0.9,0.1,1.7,0.3,2.5,0.7c0.3-0.8,0.5-1.5,0.8-2.3c-0.8-0.4-1.6-0.6-2.5-0.7
				C167.5,16.9,167.3,17.6,167,18.4z"/>
		</g>
		<g id="XMLID_180_">
			<path id="XMLID_181_" class="st2" d="M166.2,20.8c0.9,0.1,1.7,0.3,2.5,0.7c0.3-0.8,0.5-1.6,0.8-2.4c-0.8-0.4-1.6-0.6-2.5-0.7
				C166.7,19.2,166.5,20,166.2,20.8z"/>
		</g>
		<g id="XMLID_178_">
			<path id="XMLID_179_" class="st2" d="M167.4,9.3c1-0.3,1.9-0.3,2.7-0.3c0.3-0.8,0.5-1.5,0.8-2.3c-0.9-0.1-1.8,0-2.7,0.3
				C167.9,7.7,167.6,8.5,167.4,9.3z"/>
		</g>
		<g id="XMLID_176_">
			<path id="XMLID_177_" class="st1" d="M166.6,11.7c1-0.3,1.9-0.3,2.7-0.3c0.3-0.8,0.5-1.6,0.8-2.4c-0.9-0.1-1.8,0-2.7,0.3
				C167.1,10.1,166.9,10.9,166.6,11.7z"/>
		</g>
		<g id="XMLID_174_">
			<path id="XMLID_175_" class="st2" d="M165.8,14c1-0.3,1.9-0.3,2.7-0.3c0.3-0.8,0.5-1.5,0.8-2.3c-0.9-0.1-1.8,0-2.7,0.3
				C166.3,12.4,166.1,13.2,165.8,14z"/>
		</g>
		<g id="XMLID_172_">
			<path id="XMLID_173_" class="st1" d="M165,16.4c1-0.3,1.9-0.3,2.7-0.3c0.3-0.8,0.5-1.6,0.8-2.4c-0.9-0.1-1.8,0-2.7,0.3
				C165.6,14.8,165.3,15.6,165,16.4z"/>
		</g>
		<g id="XMLID_170_">
			<path id="XMLID_171_" class="st2" d="M164.3,18.7c1-0.3,1.9-0.3,2.7-0.3c0.3-0.8,0.5-1.5,0.8-2.3c-0.9-0.1-1.8,0-2.7,0.3
				C164.8,17.1,164.5,17.9,164.3,18.7z"/>
		</g>
		<g id="XMLID_168_">
			<path id="XMLID_169_" class="st1" d="M163.5,21.1c1-0.3,1.9-0.3,2.7-0.3c0.3-0.8,0.5-1.6,0.8-2.4c-0.9-0.1-1.8,0-2.7,0.3
				C164,19.5,163.7,20.3,163.5,21.1z"/>
		</g>
		<g id="XMLID_164_">
			<path id="XMLID_165_" class="st3" d="M178,27.3c-1.8-0.6-3.5-1.9-5.1-3c-1.6-1.2-3.2-2.4-5.1-3c-1.4-0.5-2.9-0.5-4.3-0.1l-0.1,0
				L168.2,7l0,0c1.5-0.4,2.9-0.4,4.4,0.1c1.8,0.6,3.5,1.9,5.1,3c1.6,1.2,3.2,2.4,5.1,3c1.4,0.5,2.9,0.5,4.3,0.1l0.1,0l-4.7,14.2l0,0
				C180.9,27.9,179.4,27.8,178,27.3L178,27.3z M187,13.4c-1.5,0.4-2.9,0.3-4.3-0.1c-1.8-0.6-3.5-1.9-5.1-3.1c-1.6-1.2-3.2-2.4-5-3
				c-1.4-0.5-2.9-0.5-4.3-0.1l-4.7,14c1.5-0.4,2.9-0.3,4.3,0.1c1.8,0.6,3.5,1.8,5.1,3.1c1.6,1.2,3.2,2.4,5.1,3v0
				c1.4,0.5,2.8,0.5,4.3,0.1L187,13.4z"/>
		</g>
	</g>
	<polygon id="XMLID_162_" class="st4" points="159.3,33.7 158.8,33.5 167.4,7.3 168.1,7.1 	"/>
</g>
<line id="XMLID_368_" class="st5" x1="198.5" y1="15.6" x2="216.1" y2="15.6"/>
<line id="XMLID_371_" class="st5" x1="198.5" y1="22.3" x2="213.2" y2="22.3"/>
<line id="XMLID_370_" class="st5" x1="198.5" y1="18.9" x2="226.8" y2="18.9"/>
<line id="XMLID_374_" class="st5" x1="125.2" y1="15.6" x2="107.7" y2="15.6"/>
<line id="XMLID_373_" class="st5" x1="125.2" y1="22.3" x2="110.6" y2="22.3"/>
<line id="XMLID_372_" class="st5" x1="125.2" y1="18.9" x2="97" y2="18.9"/>
<polygon id="XMLID_367_" class="st6" points="249,43.5 67.5,43.5 67.5,0 248,0 "/>
</svg>
