<?xml version="1.0" encoding="utf-8"?>
<!-- Generator: Adobe Illustrator 19.0.0, SVG Export Plug-In . SVG Version: 6.00 Build 0)  -->
<svg version="1.1" id="Layer_1" xmlns="http://www.w3.org/2000/svg" xmlns:xlink="http://www.w3.org/1999/xlink" x="0px" y="0px"
	 viewBox="0 0 95 95" style="enable-background:new 0 0 95 95;" xml:space="preserve">
<style type="text/css">
	.st0{fill:#FFFFFF;}
</style>
<path class="st0" d="M46.8,11.7c-0.2-0.1-0.5-0.1-0.8-0.1c-0.5,0-1,0.2-1.4,0.6L22.9,34.3H12.1c-1.1,0-2,0.9-2,2v21c0,1.1,0.9,2,2,2
	h10.8l21.8,22.2c0.4,0.4,0.9,0.6,1.4,0.6c0.3,0,0.5,0,0.8-0.1c0.8-0.3,1.2-1,1.2-1.9V13.5C48.1,12.7,47.6,12,46.8,11.7z M89,33.3
	L84,28.4L71.2,41.2L58.3,28.4l-4.9,5l12.8,12.8L53.4,59l4.9,5l12.8-12.8L84,64l4.9-5L76.1,46.2L89,33.3z"/>
</svg>
