<?xml version="1.0" standalone="no"?>
<!DOCTYPE svg PUBLIC "-//W3C//DTD SVG 1.1//EN" "http://www.w3.org/Graphics/SVG/1.1/DTD/svg11.dtd" >
<svg xmlns="http://www.w3.org/2000/svg">
<metadata>
Created by FontPrep 20130207 at Wed Jan 11 13:47:52 2017
 By Zulfeekar Cheriyampurath
Copyright (c) 2015 by Nestor Delgado. All rights reserved.
</metadata>
<defs>
<font id="1e91e374818370144489d52258ad256e" horiz-adv-x='1024' >
  <font-face 
    font-family="DAGGERSQUARE_OBLIQUE"
    font-stretch="normal"
    units-per-em="2048"
    panose-1="0 0 0 0 0 0 0 0 0 0"
    ascent="1638"
    descent="-410"
    x-height="1194"
    cap-height="1382"
    bbox="-252 -549 2090.29 1901"
    underline-thickness="102"
    underline-position="-102"
    slope="-10"
    unicode-range="U+000D-2212"
  />
<missing-glyph horiz-adv-x="614" 
 />
    <glyph glyph-name=".notdef" horiz-adv-x="614" 
 />
    <glyph glyph-name=".null" horiz-adv-x="0" 
 />
    <glyph glyph-name="nonmarkingreturn" horiz-adv-x="681" 
 />
    <glyph glyph-name="NULL" horiz-adv-x="0" 
 />
    <glyph glyph-name="NULL" horiz-adv-x="0" 
 />
    <glyph glyph-name="CR" unicode="&#xd;" horiz-adv-x="614" 
 />
    <glyph glyph-name="space" unicode=" " horiz-adv-x="614" 
 />
    <glyph glyph-name="exclam" unicode="!" horiz-adv-x="528" 
d="M303 0h-272l47 272h272zM133 432l137 1104h334l-252 -1104h-219z" />
    <glyph glyph-name="quotedbl" unicode="&#x22;" horiz-adv-x="882" 
d="M862 1049h-272l92 522h272zM455 1049h-271l92 522h271z" />
    <glyph glyph-name="numbersign" unicode="#" horiz-adv-x="1837" 
d="M979 608l78 166h-172l-78 -166h172zM1696 774h-355l-77 -166h354l-129 -270h-354l-162 -338h-283l160 338h-172l-162 -338h-283l162 338h-336l129 270h334l78 166h-334l129 270h334l164 338h283l-162 -338h172l164 338h282l-164 -338h357z" />
    <glyph glyph-name="dollar" unicode="$" horiz-adv-x="1282" 
d="M864 827q154 1 242 -107t61 -261l-16 -90q-27 -153 -153 -261t-279 -108h-39l-37 -209h-272l37 209h-347l48 270h653q41 0 77 31t44 72l12 80q9 43 -17 73t-67 29h-346q-152 0 -241 109t-62 260l16 90q27 152 155 260t279 108h39l37 209h273l-37 -209h297l-50 -272h-604
q-41 0 -77 -30t-44 -72l-12 -78q-8 -43 18 -73t66 -30h346z" />
    <glyph glyph-name="percent" unicode="%" horiz-adv-x="1507" 
d="M1069 430q-47 0 -86 -33t-47 -80t20 -79t73 -33q46 1 86 33t48 79t-19 80q-28 33 -75 33zM993 0q-131 0 -208 93t-54 224t132 225q110 93 242 93q132 1 209 -93t54 -225q-24 -131 -134 -224t-241 -93zM524 1178q-47 0 -86 -34t-47 -80t20 -80q27 -34 73 -34t85 34t47 81
t-18 80q-27 33 -74 33zM561 1382q131 0 207 -93t53 -225t-133 -225t-240 -93t-207 94t-55 225q23 131 133 224q111 93 242 93zM1485 1382l-1168 -1382h-247l1169 1382h246z" />
    <glyph glyph-name="ampersand" unicode="&#x26;" horiz-adv-x="1470" 
d="M666 827h178l30 181q8 42 -16 72t-67 30h-76q-43 0 -78 -30t-43 -72l-12 -78q-8 -43 16 -73t68 -30zM610 555q-23 0 -55 4l-2 -4h57q-23 0 -55 4l-2 -4h-84q-41 0 -77 -30t-44 -72l-12 -80q-8 -41 18 -72t66 -31h162l-47 -270h-166q-152 0 -242 109t-64 260l17 90
q16 98 80 181t153 134q-20 76 -6 150l17 90q26 152 154 260t280 108h88q152 0 240 -108t63 -260l-33 -187h223l33 -272h-305l-96 -555h-273l97 555h-185z" />
    <glyph glyph-name="quotesingle" unicode="'" horiz-adv-x="464" 
d="M455 1049h-271l92 522h271z" />
    <glyph glyph-name="parenleft" unicode="(" horiz-adv-x="686" 
d="M369 0q-152 0 -242 109t-64 260l150 850q29 153 156 261t278 107h123l-47 -272h-119q-41 0 -77 -30t-44 -73l-147 -839q-8 -41 18 -72t66 -31h119l-47 -270h-123z" />
    <glyph glyph-name="parenright" unicode=")" horiz-adv-x="686" 
d="M166 270q41 0 77 31t44 72l147 839q8 43 -17 73q-26 30 -67 30h-119l48 272h122q152 -1 241 -109t63 -259l-150 -850q-27 -153 -154 -261t-278 -108h-123l47 270h119z" />
    <glyph glyph-name="asterisk" unicode="*" horiz-adv-x="1388" 
d="M1290 555h-362l125 -313l-256 -136l-127 314l-236 -314l-211 136l236 313h-363l49 270h363l-125 316l256 135l125 -315l237 315l211 -135l-235 -316h362z" />
    <glyph glyph-name="plus" unicode="+" horiz-adv-x="1388" 
d="M1321 731l-47 -270h-463l-80 -461h-270l80 461h-461l47 270h461l82 463h270l-82 -463h463z" />
    <glyph glyph-name="comma" unicode="," horiz-adv-x="464" 
d="M317 270l-12 -63q-16 -98 -59 -207q-51 -117 -125 -215l-115 65q49 66 92 150h-98l47 270h270z" />
    <glyph glyph-name="hyphen" unicode="-" horiz-adv-x="964" 
d="M127 731h770l-47 -270h-770z" />
    <glyph glyph-name="period" unicode="." horiz-adv-x="464" 
d="M47 270h270l-47 -270h-270z" />
    <glyph glyph-name="slash" unicode="/" horiz-adv-x="1353" 
d="M0 0l1169 1382h326l-1169 -1382h-326z" />
    <glyph glyph-name="zero" unicode="0" horiz-adv-x="1218" 
d="M844 1110h-277q-41 0 -77 -30t-44 -72l-110 -635q-8 -41 18 -72t66 -31h276q43 0 78 31t43 72l111 635q8 42 -17 72t-67 30zM899 1382q152 0 241 -108t62 -260l-115 -645q-27 -153 -153 -261t-279 -108h-286q-152 0 -242 109t-64 260l115 645q27 152 155 260t279 108h287
z" />
    <glyph glyph-name="one" unicode="1" horiz-adv-x="634" 
d="M684 1382l-244 -1382h-272l194 1110h-167l131 272h358z" />
    <glyph glyph-name="two" unicode="2" horiz-adv-x="1320" 
d="M897 827q43 0 78 30t43 73l12 78q8 42 -16 72t-68 30h-567l-33 272h655q152 0 241 -108t63 -260l-17 -90q-26 -152 -154 -260t-280 -109h-385q-41 1 -77 -29t-44 -73l-31 -183h857l-48 -270h-1126l80 459q26 153 154 261t280 107h383z" />
    <glyph glyph-name="three" unicode="3" horiz-adv-x="1218" 
d="M655 0h-716l129 270h628q43 0 78 31t43 72l21 121q8 42 -17 72t-67 30h-394l388 514h-553l49 272h1024l-394 -520q125 -25 193 -126t45 -236l-25 -131q-27 -153 -153 -261t-279 -108z" />
    <glyph glyph-name="four" unicode="4" horiz-adv-x="1300" 
d="M1231 543l-47 -273h-230l-47 -270h-272l47 270h-717l531 1112h282l-401 -839h352l66 372h272l-66 -372h230z" />
    <glyph glyph-name="five" unicode="5" horiz-adv-x="1290" 
d="M758 0h-758l129 270h670q43 0 78 31t43 72l12 80q8 43 -17 73t-67 29h-383q-152 0 -241 109t-62 260l82 458h977l-131 -272h-625l-31 -180q-8 -43 18 -73t66 -30h385q152 0 241 -108t62 -260l-16 -90q-27 -153 -154 -261t-278 -108z" />
    <glyph glyph-name="six" unicode="6" horiz-adv-x="1290" 
d="M848 555h-481l-31 -182q-8 -41 18 -72t66 -31h379q43 0 78 31t43 72l12 80q8 43 -17 73t-67 29zM903 827q152 -1 241 -109t62 -259l-16 -90q-27 -153 -154 -261t-278 -108h-389q-152 0 -242 109t-64 260l115 645q27 152 155 260t279 108h568l-131 -272h-482
q-41 0 -77 -30t-44 -72l-55 -318l162 137h350z" />
    <glyph glyph-name="seven" unicode="7" horiz-adv-x="1171" 
d="M1251 1382l-659 -1382h-283l527 1110h-641l49 272h1007z" />
    <glyph glyph-name="eight" unicode="8" horiz-adv-x="1351" 
d="M909 555h-440q-41 0 -77 -30t-44 -72l-12 -80q-8 -41 18 -72t66 -31h440q43 0 78 31t43 72l12 80q7 43 -17 73t-67 29zM598 827h283q41 0 77 30t43 73l13 78q8 42 -18 72t-66 30h-283q-41 0 -77 -30t-44 -72l-12 -78q-8 -43 18 -73t66 -30zM819 0h-450q-152 0 -242 109
t-64 260l17 90q31 172 178 280q-35 88 -16 185l16 90q27 152 154 260t280 108h291q154 0 242 -108t61 -260l-16 -90q-19 -103 -82 -185q111 -113 80 -280l-17 -90q-27 -153 -153 -261t-279 -108z" />
    <glyph glyph-name="nine" unicode="9" horiz-adv-x="1320" 
d="M946 1110h-379q-41 0 -77 -30t-44 -72l-12 -78q-8 -43 18 -73t66 -30h346l111 -137l55 318q8 42 -16 72t-68 30zM1001 1382q152 0 241 -108t63 -260l-115 -645q-27 -153 -154 -261t-278 -108h-568l127 270h482q43 0 78 31t43 72l30 182h-485q-152 0 -241 109t-62 260
l16 90q27 152 155 260t279 108h389z" />
    <glyph glyph-name="colon" unicode=":" horiz-adv-x="464" 
d="M209 1192h270l-47 -270h-270zM47 270h270l-47 -270h-270z" />
    <glyph glyph-name="semicolon" unicode=";" horiz-adv-x="464" 
d="M317 270l-12 -63q-16 -98 -59 -207q-51 -117 -125 -215l-115 65q49 66 92 150h-98l47 270h270zM209 1192h270l-47 -270h-270z" />
    <glyph glyph-name="less" unicode="&#x3c;" horiz-adv-x="1054" 
d="M1104 1382l-643 -692l399 -690h-340l-399 690l643 692h340z" />
    <glyph glyph-name="equal" unicode="=" horiz-adv-x="1388" 
d="M76 438h1194l-47 -270h-1194zM180 1026h1194l-47 -270h-1194z" />
    <glyph glyph-name="greater" unicode="&#x3e;" horiz-adv-x="1054" 
d="M244 1382h340l397 -692l-641 -690h-340l641 690z" />
    <glyph glyph-name="question" unicode="?" horiz-adv-x="1155" 
d="M477 0h-270l43 254l256 -82zM760 981q41 0 77 30t44 72l14 80q6 41 -19 72q-26 31 -67 31h-526l-33 270h612q152 0 241 -108t62 -261l-16 -90q-27 -153 -154 -261t-278 -107h-115l-65 -367h-271l113 639h381z" />
    <glyph glyph-name="at" unicode="@" horiz-adv-x="1550" 
d="M854 502h317l105 598q4 23 -8 38t-35 15h-705q-23 0 -42 -15t-23 -38l-176 -1006q-4 -23 9 -38t36 -15h948l35 -272h-1086q-113 -1 -179 79t-44 193l197 1112q20 113 112 193t205 79h813q113 1 179 -79t47 -193l-164 -922h-643q-113 0 -179 79t-45 192l33 190
q19 113 113 192t207 79h245l-129 -271h-110q-23 0 -41 -16t-23 -39l-14 -80q-4 -23 9 -39t36 -16z" />
    <glyph glyph-name="A" unicode="A" horiz-adv-x="1320" 
d="M946 1110h-379q-41 0 -77 -30t-44 -72l-176 -1008h-270l178 1014q27 152 155 260t279 108h389q151 0 241 -108t63 -260l-179 -1014h-272l72 416h-482l131 272h400l55 320q8 42 -16 72t-68 30z" />
    <glyph glyph-name="B" unicode="B" 
d="M848 555h-291l-33 272h277q43 0 78 30t43 73l12 78q8 42 -16 72t-68 30h-385l-148 -840h482q43 0 78 31t43 72l12 80q8 43 -17 73t-67 29zM758 0h-758l244 1382h661q152 0 241 -108t62 -260l-8 -45q-20 -111 -94 -211q61 -51 89 -130t11 -169l-16 -90q-27 -153 -154 -261
t-278 -108z" />
    <glyph glyph-name="C" unicode="C" horiz-adv-x="1107" 
d="M420 270h571l-47 -270h-575q-152 0 -242 109t-64 260l115 645q27 152 155 260t279 108h576l-131 -272h-490q-41 0 -77 -30t-44 -72l-110 -635q-8 -41 18 -72t66 -31z" />
    <glyph glyph-name="D" unicode="D" horiz-adv-x="1255" 
d="M881 1110h-416l-125 -704l-156 -136h549q43 0 78 31t43 72l111 635q8 42 -17 72t-67 30zM936 1382q152 0 241 -108t62 -260l-115 -645q-28 -153 -154 -261t-278 -108h-692l244 1382h692z" />
    <glyph glyph-name="E" unicode="E" horiz-adv-x="1157" 
d="M420 270h590l-47 -270h-594q-152 0 -242 109t-64 260l115 645q27 152 155 260t279 108h594l-131 -272h-508q-41 0 -77 -30t-44 -72l-55 -318l162 137h555l-49 -272h-692l-31 -182q-8 -41 18 -72t66 -31z" />
    <glyph glyph-name="F" unicode="F" horiz-adv-x="1085" 
d="M567 1110q-41 0 -77 -30t-44 -72l-55 -318l162 137h444l-49 -272h-581l-97 -555h-270l178 1014q27 152 155 260t279 108h594l-131 -272h-508z" />
    <glyph glyph-name="G" unicode="G" horiz-adv-x="1320" 
d="M758 0h-389q-152 0 -242 109t-64 260l115 645q27 152 155 260t279 108h594l-131 -272h-508q-41 0 -77 -30t-44 -72l-110 -635q-8 -41 18 -72t66 -31h379q43 0 78 31t43 72l30 182h-270l-33 272h625l-82 -458q-27 -153 -154 -261t-278 -108z" />
    <glyph glyph-name="H" unicode="H" horiz-adv-x="1218" 
d="M1268 1382l-244 -1382h-272l96 555h-481l-97 -555h-270l244 1382h270l-123 -692l162 137h344l98 555h273z" />
    <glyph glyph-name="I" unicode="I" horiz-adv-x="464" 
d="M270 0h-270l244 1382h270z" />
    <glyph glyph-name="J" unicode="J" horiz-adv-x="937" 
d="M375 0h-451l127 270h365q43 0 78 31t43 72l129 737h-189l129 272h381l-180 -1013q-27 -153 -154 -261t-278 -108z" />
    <glyph glyph-name="K" unicode="K" horiz-adv-x="1214" 
d="M1376 1382l-645 -692l402 -690h-340l-401 689l-122 -689h-270l244 1382h270l-122 -691l644 691h340z" />
    <glyph glyph-name="L" unicode="L" horiz-adv-x="974" 
d="M369 0q-152 0 -242 109t-64 260l181 1013h270l-178 -1009q-8 -41 18 -72t66 -31h418l34 -270h-503z" />
    <glyph glyph-name="M" unicode="M" horiz-adv-x="1460" 
d="M1239 1382h270l-243 -1382h-271l152 860l-334 -424h-209l-182 424l-152 -860h-270l244 1382h270l256 -596z" />
    <glyph glyph-name="N" unicode="N" horiz-adv-x="1259" 
d="M1077 76l-12 -76h-272l-371 860l-152 -860h-270l244 1382h270l369 -860l153 860h273z" />
    <glyph glyph-name="O" unicode="O" 
d="M905 1110h-338q-41 0 -77 -30t-44 -72l-110 -635q-8 -41 18 -72t66 -31h338q43 0 78 31t43 72l110 635q7 42 -17 72t-67 30zM961 1382q153 0 241 -108t62 -260l-115 -645q-27 -153 -154 -261t-278 -108h-348q-152 0 -242 109t-64 260l115 645q27 152 155 260t279 108h349
z" />
    <glyph glyph-name="P" unicode="P" horiz-adv-x="1310" 
d="M829 416h-380l131 272h292q43 0 78 30t43 73l37 217q8 42 -16 72t-68 30h-481l-195 -1110h-270l244 1382h757q150 0 239 -105t65 -257v-6l-41 -230v-6q-31 -152 -158 -257t-277 -105z" />
    <glyph glyph-name="Q" unicode="Q" 
d="M905 1110h-338q-41 0 -77 -30t-44 -72l-110 -635q-8 -41 18 -72t66 -31h61l-47 -270h-65q-152 0 -242 109t-64 260l115 645q27 152 155 260t279 108h349q152 0 241 -108t62 -260l-115 -645q-20 -115 -101 -208t-192 -134l25 -187h-285l-72 592h283l16 -141q47 33 56 82
l110 635q7 42 -17 72t-67 30z" />
    <glyph glyph-name="R" unicode="R" horiz-adv-x="1333" 
d="M872 688q43 0 78 30t43 73l37 217q8 42 -16 72t-68 30h-481l-195 -1110h-270l244 1382h757q150 0 239 -105t65 -257v-6l-41 -230v-6q-20 -110 -96 -198t-181 -131l182 -449h-313l-168 416h-239l131 272h292z" />
    <glyph glyph-name="S" unicode="S" horiz-adv-x="1269" 
d="M758 0h-758l129 270h670q43 0 78 31t43 72l12 80q8 43 -17 73t-67 29h-383q-152 0 -241 109t-62 260l16 90q27 152 155 260t279 108h656l-131 -272h-570q-41 0 -77 -30t-44 -72l-12 -78q-8 -43 18 -73t66 -30h385q152 0 241 -108t62 -260l-16 -90q-27 -153 -154 -261
t-278 -108z" />
    <glyph glyph-name="T" unicode="T" horiz-adv-x="1146" 
d="M1247 1382l-49 -272h-397l-195 -1110h-270l170 975l160 135h-533l49 272h1065z" />
    <glyph glyph-name="U" unicode="U" horiz-adv-x="1218" 
d="M655 0h-286q-152 0 -242 109t-64 260l181 1013h270l-178 -1009q-8 -41 18 -72t66 -31h276q43 0 78 31t43 72l178 1009h273l-181 -1013q-27 -153 -153 -261t-279 -108z" />
    <glyph glyph-name="V" unicode="V" horiz-adv-x="1222" 
d="M1032 1382h281l-615 -1382h-409l-127 1382h280l101 -1099z" />
    <glyph glyph-name="W" unicode="W" horiz-adv-x="1722" 
d="M846 1382h284l31 -852l334 852h277l-539 -1382h-328l-22 793l-299 -793h-328l-53 1382h276l33 -852z" />
    <glyph glyph-name="X" unicode="X" horiz-adv-x="1292" 
d="M1169 0h-325l-223 446l-377 -446h-326l584 690l-340 692h325l220 -446l380 446h326l-471 -555h-180z" />
    <glyph glyph-name="Y" unicode="Y" horiz-adv-x="1251" 
d="M1393 1382l-621 -733l-113 -649h-272l129 733l80 94h-182l-273 555h326l219 -446l381 446h326z" />
    <glyph glyph-name="Z" unicode="Z" 
d="M1280 1110l-874 -840h727l-48 -270h-1085l47 270l875 840h-727l131 272h1003z" />
    <glyph glyph-name="bracketleft" unicode="[" horiz-adv-x="743" 
d="M571 135l-47 -270h-549l328 1857h549l-47 -270h-279l-233 -1317h278z" />
    <glyph glyph-name="backslash" unicode="\" horiz-adv-x="1353" 
d="M1251 0h-325l-682 1382h325z" />
    <glyph glyph-name="bracketright" unicode="]" horiz-adv-x="743" 
d="M535 1452h-279l47 270h549l-328 -1857h-549l48 270h278z" />
    <glyph glyph-name="asciicircum" unicode="^" horiz-adv-x="1042" 
d="M889 1851l221 -364h-344l-59 96l-93 -96h-346l350 364h271z" />
    <glyph glyph-name="underscore" unicode="_" horiz-adv-x="1388" 
d="M47 270h1194l-47 -270h-1194z" />
    <glyph glyph-name="grave" unicode="`" horiz-adv-x="778" 
d="M811 1298h-205l-311 379h385z" />
    <glyph glyph-name="a" unicode="a" 
d="M270 0q-112 0 -178 79t-45 191l33 191q20 113 114 193t205 79h363l31 -272h-387q-23 1 -41 -15t-23 -38l-14 -82q-4 -23 9 -39t36 -17h487l105 598q3 23 -9 38t-34 16h-652l129 272h623q115 0 180 -80t45 -192l-162 -922h-272l23 135l-158 -135h-408z" />
    <glyph glyph-name="b" unicode="b" 
d="M813 0h-405l-115 135l-23 -135h-270l270 1536h271l-224 -1266h490q23 0 41 16t22 40l95 542q3 23 -9 38t-34 16h-406l129 272h377q115 0 180 -80t45 -192l-114 -652q-19 -114 -113 -192t-207 -78z" />
    <glyph glyph-name="c" unicode="c" horiz-adv-x="1085" 
d="M270 0q-112 0 -178 79t-45 191l115 652q20 112 112 192t205 80h631l-129 -272h-494q-23 0 -42 -16t-23 -38l-94 -542q-4 -23 9 -39t36 -17h575l-47 -270h-631z" />
    <glyph glyph-name="d" unicode="d" 
d="M270 0q-112 0 -178 79t-45 191l115 652q20 112 112 192t205 80h379l35 -272h-406q-23 0 -42 -16t-23 -38l-94 -542q-4 -23 9 -39t36 -17h487l223 1266h273l-271 -1536h-272l23 135l-158 -135h-408z" />
    <glyph glyph-name="e" unicode="e" 
d="M487 922q-23 0 -42 -16t-23 -38l-94 -542q-4 -23 9 -39t36 -17h704l-127 -270h-680q-112 0 -178 79t-45 191l115 652q20 112 112 192t205 80h543q114 0 180 -80t45 -192l-82 -461h-678l131 272h324l23 135q3 23 -9 38t-34 16h-435z" />
    <glyph glyph-name="f" unicode="f" horiz-adv-x="864" 
d="M541 1536h460l-131 -272h-323q-23 0 -42 -16t-22 -38l-61 -342l162 136h270l-47 -271h-408l-129 -733h-270l221 1264q19 112 113 192t207 80z" />
    <glyph glyph-name="g" unicode="g" 
d="M487 922q-23 0 -42 -16t-23 -38l-94 -542q-4 -23 9 -39t36 -17h405l-129 -270h-379q-112 0 -178 79t-45 191l115 652q20 112 112 192t205 80h408l112 -135l23 135h272l-174 -987q-41 -244 -215 -443l-4 -6l-213 -211l-160 193l187 182q104 127 133 285l127 715h-488z" />
    <glyph glyph-name="h" unicode="h" horiz-adv-x="1218" 
d="M961 1194q115 0 180 -80t45 -192l-162 -922h-272l151 868q4 23 -8 38t-35 16h-428l-162 -922h-270l270 1536h271l-84 -477l159 135h345z" />
    <glyph glyph-name="i" unicode="i" horiz-adv-x="464" 
d="M270 1536h271l-31 -172l-285 -82zM0 0l209 1194h270l-209 -1194h-270z" />
    <glyph glyph-name="j" unicode="j" horiz-adv-x="499" 
d="M242 1194h272l-174 -987q-41 -244 -215 -443l-4 -6l-213 -211l-160 193l184 182q106 125 136 285zM575 1536l-30 -172l-287 -82l45 254h272z" />
    <glyph glyph-name="k" unicode="k" horiz-adv-x="1189" 
d="M0 0l270 1536h271l-271 -1536h-270zM723 596l364 -596h-346l-362 596l571 598h346z" />
    <glyph glyph-name="l" unicode="l" horiz-adv-x="464" 
d="M270 0h-270l270 1536h271z" />
    <glyph glyph-name="m" unicode="m" horiz-adv-x="1970" 
d="M961 1194q82 0 141 -44t80 -116l186 160h346q113 0 178 -80t45 -192l-161 -922h-271l152 868q4 23 -9 38t-36 16h-426l-162 -922h-272l151 868q4 23 -8 38t-35 16h-428l-162 -922h-270l209 1194h270l-22 -135l159 135h345z" />
    <glyph glyph-name="n" unicode="n" horiz-adv-x="1218" 
d="M961 1194q115 0 180 -80t45 -192l-162 -922h-272l151 868q4 23 -8 38t-35 16h-428l-162 -922h-270l209 1194h270l-22 -135l159 135h345z" />
    <glyph glyph-name="o" unicode="o" 
d="M487 922q-23 0 -42 -16t-23 -38l-94 -542q-4 -23 9 -39t36 -17h434q23 0 41 16t22 40l95 542q3 23 -9 38t-34 16h-435zM1022 1194q114 0 180 -80t45 -192l-114 -652q-19 -114 -113 -192t-207 -78h-543q-112 0 -178 79t-45 191l115 652q20 112 112 192t205 80h543z" />
    <glyph glyph-name="p" unicode="p" 
d="M813 0h-377l-35 270h406q23 0 41 16t22 40l95 542q3 23 -9 38t-34 16h-490l-223 -1264h-270l270 1536h270l-22 -135l159 135h406q115 0 180 -80t45 -192l-114 -652q-19 -114 -113 -192t-207 -78z" />
    <glyph glyph-name="q" unicode="q" 
d="M487 922q-23 0 -42 -16t-23 -38l-94 -542q-4 -23 9 -39t36 -17h405l-129 -270h-379q-112 0 -178 79t-45 191l115 652q20 112 112 192t205 80h408l112 -135l23 135h272l-270 -1536h-272l223 1264h-488z" />
    <glyph glyph-name="r" unicode="r" horiz-adv-x="768" 
d="M487 922q-23 0 -42 -16t-23 -38l-152 -868h-270l209 1194h270l-22 -135l159 135h238l-127 -272h-240z" />
    <glyph glyph-name="s" unicode="s" horiz-adv-x="1269" 
d="M813 0h-813l129 270h678q23 0 41 16t22 40l15 82q4 24 -9 38t-36 15h-490q-114 0 -178 80t-43 192l33 189q20 112 112 192t205 80h733l-129 -272h-596q-23 0 -42 -16t-23 -38l-14 -82q-4 -24 10 -38t37 -15h487q113 1 178 -79t45 -193l-32 -191q-19 -114 -113 -192
t-207 -78z" />
    <glyph glyph-name="t" unicode="t" horiz-adv-x="817" 
d="M373 270h327l-47 -270h-383q-112 0 -178 79t-45 191l211 1194h270l-49 -270h383l-129 -272h-301l-104 -596q-4 -24 9 -40t36 -16z" />
    <glyph glyph-name="u" unicode="u" horiz-adv-x="1218" 
d="M752 0h-482q-112 0 -178 79t-45 191l162 924h270l-151 -868q-4 -23 9 -39t36 -17h372q23 0 41 16t23 40l152 868h272l-162 -924q-19 -114 -113 -192t-206 -78z" />
    <glyph glyph-name="v" unicode="v" horiz-adv-x="1177" 
d="M961 1194h303l-568 -1194h-409l-150 1194h303l101 -913z" />
    <glyph glyph-name="w" unicode="w" horiz-adv-x="1785" 
d="M844 1194h291l73 -762l342 762h281l-535 -1194h-325l-62 735l-319 -735h-326l-117 1194h281l76 -762z" />
    <glyph glyph-name="x" unicode="x" horiz-adv-x="1253" 
d="M1110 0h-334l-194 362l-322 -362h-332l529 596l-320 598h332l195 -363l321 363h334l-408 -461h-192z" />
    <glyph glyph-name="y" unicode="y" horiz-adv-x="1146" 
d="M1253 1194l-731 -1536h-282l163 342h-127l-149 1194h283l116 -934l445 934h282z" />
    <glyph glyph-name="z" unicode="z" horiz-adv-x="1136" 
d="M1104 922l-694 -652h579l-47 -270h-942l47 270l694 652h-579l129 272h860l-45 -262z" />
    <glyph glyph-name="braceleft" unicode="{" horiz-adv-x="870" 
d="M553 135h145l-47 -270h-151q-152 -1 -241 107t-62 261l55 322q8 43 -16 73q-25 30 -68 29h-53l49 273h53q43 0 77 30t42 72l57 322q27 154 155 262t279 106h152l-47 -270h-146q-42 0 -78 -31t-42 -71l-58 -324q-25 -133 -125 -233q63 -100 43 -232l-57 -323
q-7 -41 17 -72t67 -31z" />
    <glyph glyph-name="bar" unicode="|" horiz-adv-x="464" 
d="M246 -135h-271l328 1857h270z" />
    <glyph glyph-name="braceright" unicode="}" horiz-adv-x="870" 
d="M401 1452h-145l47 270h152q153 0 241 -108t62 -260l-58 -322q-8 -43 18 -73t68 -29h54l-49 -273h-54q-43 1 -78 -29t-43 -73l-55 -322q-27 -153 -155 -261t-279 -107h-152l48 270h145q43 0 78 31t43 72l57 323q20 131 125 232q-68 100 -43 233l57 324q7 42 -17 72t-67 30
z" />
    <glyph glyph-name="asciitilde" unicode="~" horiz-adv-x="937" 
d="M946 1784l80 -170l-108 -64q-94 -57 -197 -37l-219 48l-127 -74l-82 172l108 61q100 59 197 37l219 -47z" />
    <glyph glyph-name="exclamdown" unicode="&#xa1;" horiz-adv-x="528" 
d="M573 1536l-49 -272h-272l49 272h272zM0 0l252 1104h219l-137 -1104h-334z" />
    <glyph glyph-name="sterling" unicode="&#xa3;" horiz-adv-x="1153" 
d="M426 0q-154 0 -243 109t-62 260l33 186h-99l49 272h99l33 187q28 152 154 260t280 108h20q146 0 234 -99t71 -245h-274q-2 32 -27 52t-59 20h-10q-41 0 -77 -30t-44 -72l-31 -181h250l-49 -272h-250l-31 -182q-8 -41 18 -72t66 -31h447l34 -270h-532z" />
    <glyph glyph-name="dieresis" unicode="&#xa8;" horiz-adv-x="870" 
d="M903 1298h-270l49 273h270zM498 1298h-271l49 273h271z" />
    <glyph glyph-name="copyright" unicode="&#xa9;" horiz-adv-x="1499" 
d="M680 174q213 0 391 152t217 364q37 213 -87 366q-124 152 -337 152t-392 -152t-217 -366q-38 -212 87 -364t338 -152zM658 39q-270 0 -429 190q-157 191 -109 461t271 462t493 191q270 0 431 -190q157 -193 110 -464t-274 -460q-223 -190 -493 -190zM618 346
q-76 0 -120 54t-31 130l57 322q14 76 78 130t139 54h308l-66 -135h-262q-23 1 -40 -15t-19 -36l-58 -318q-4 -22 9 -36t34 -15h303l-24 -135h-308z" />
    <glyph glyph-name="guillemotleft" unicode="&#xab;" horiz-adv-x="1685" 
d="M1735 1382l-643 -692l399 -690h-340l-399 690l643 692h340zM1104 1382l-643 -692l399 -690h-340l-399 690l643 692h340z" />
    <glyph glyph-name="registered" unicode="&#xae;" horiz-adv-x="1499" 
d="M680 174q213 0 391 152t217 364q37 213 -87 366q-124 152 -337 152t-392 -152t-217 -366q-38 -212 87 -364t338 -152zM658 39q-270 0 -429 190q-157 191 -109 461t271 462t493 191q270 0 431 -190q157 -193 110 -464t-274 -460q-223 -190 -493 -190zM872 690q20 0 38 16
t22 35l20 109q2 20 -10 36t-33 15h-241l-99 -555h-135l123 690h379q76 0 120 -52t31 -128v-4l-20 -115v-2q-26 -119 -137 -166l88 -223h-156l-84 207h-119l66 137h147z" />
    <glyph glyph-name="degree" unicode="&#xb0;" horiz-adv-x="829" 
d="M542 1280q-46 0 -85 -34t-47 -80t20 -79t73 -33q46 0 85 35q39 33 47 79q9 46 -19 79t-74 33zM578 1485q132 0 208 -93q76 -92 54 -224t-132 -225t-242 -93t-208 93t-53 224t132 225q110 93 241 93z" />
    <glyph glyph-name="plusminus" unicode="&#xb1;" horiz-adv-x="1388" 
d="M10 63h1194l-47 -270h-1194zM1362 961l-47 -271h-463l-82 -461h-270l82 461h-461l47 271h461l82 462h270l-82 -462h463z" />
    <glyph glyph-name="guillemotright" unicode="&#xbb;" horiz-adv-x="1685" 
d="M641 690l-397 692h340l397 -692l-641 -690h-340zM1272 690l-398 692h340l398 -692l-641 -690h-340z" />
    <glyph glyph-name="questiondown" unicode="&#xbf;" horiz-adv-x="1124" 
d="M754 1536h270l-45 -254l-256 82zM469 555q-41 0 -77 -30t-44 -72l-12 -80q-8 -41 18 -72t66 -31h526l35 -270h-612q-152 0 -242 109t-64 260l17 90q26 153 154 261t280 107h115l63 367h271l-113 -639h-381z" />
    <glyph glyph-name="Agrave" unicode="&#xc0;" horiz-adv-x="1320" 
d="M946 1110h-379q-41 0 -77 -30t-44 -72l-176 -1008h-270l178 1014q27 152 155 260t279 108h389q151 0 241 -108t63 -260l-179 -1014h-272l72 416h-482l131 272h400l55 320q8 42 -16 72t-68 30zM971 1487h-205l-313 379h385z" />
    <glyph glyph-name="Aacute" unicode="&#xc1;" horiz-adv-x="1320" 
d="M946 1110h-379q-41 0 -77 -30t-44 -72l-176 -1008h-270l178 1014q27 152 155 260t279 108h389q151 0 241 -108t63 -260l-179 -1014h-272l72 416h-482l131 272h400l55 320q8 42 -16 72t-68 30zM846 1487h-205l264 379h385z" />
    <glyph glyph-name="Acircumflex" unicode="&#xc2;" horiz-adv-x="1320" 
d="M946 1110h-379q-41 0 -77 -30t-44 -72l-176 -1008h-270l178 1014q27 152 155 260t279 108h389q151 0 241 -108t63 -260l-179 -1014h-272l72 416h-482l131 272h400l55 320q8 42 -16 72t-68 30zM1243 1487h-344l-59 96l-92 -96h-347l351 364h270z" />
    <glyph glyph-name="Atilde" unicode="&#xc3;" horiz-adv-x="1320" 
d="M946 1110h-379q-41 0 -77 -30t-44 -72l-176 -1008h-270l178 1014q27 152 155 260t279 108h389q151 0 241 -108t63 -260l-179 -1014h-272l72 416h-482l131 272h400l55 320q8 42 -16 72t-68 30zM1212 1614l-108 -64q-94 -57 -197 -37l-219 48l-127 -74l-82 172l109 61
q100 59 196 37l220 -47l129 74z" />
    <glyph glyph-name="Adieresis" unicode="&#xc4;" horiz-adv-x="1320" 
d="M946 1110h-379q-41 0 -77 -30t-44 -72l-176 -1008h-270l178 1014q27 152 155 260t279 108h389q151 0 241 -108t63 -260l-179 -1014h-272l72 416h-482l131 272h400l55 320q8 42 -16 72t-68 30zM1163 1487h-270l47 272h270zM758 1487h-271l48 272h270z" />
    <glyph glyph-name="Aring" unicode="&#xc5;" horiz-adv-x="1320" 
d="M946 1110h-379q-41 0 -77 -30t-44 -72l-176 -1008h-270l178 1014q27 152 155 260t279 108h389q151 0 241 -108t63 -260l-179 -1014h-272l72 416h-482l131 272h400l55 320q8 42 -16 72t-68 30zM874 1737q-26 -1 -48 -19t-26 -45t11 -45q14 -18 41 -18q28 0 50 18t26 45
t-12 45t-42 19zM823 1446q-94 0 -148 66t-38 161q14 94 93 161t173 67q93 0 149 -67t40 -161q-16 -95 -96 -161t-173 -66z" />
    <glyph glyph-name="AE" unicode="&#xc6;" horiz-adv-x="2011" 
d="M1276 270h588l-47 -270h-594q-51 0 -95 12l-2 -12h-272l72 416h-482l131 272h400l55 320q8 42 -16 72t-68 30h-379q-41 0 -77 -30t-44 -72l-176 -1008h-270l178 1014q27 152 155 260t279 108h389q133 0 218 -84q117 84 247 84h594l-129 -272h-508q-43 0 -77 -30t-43 -72
l-56 -318l160 137h555l-49 -272h-690l-31 -182q-8 -41 16 -72t68 -31z" />
    <glyph glyph-name="Ccedilla" unicode="&#xc7;" horiz-adv-x="1146" 
d="M420 270h610l-47 -270h-317l-37 -72q96 -82 71 -213q-18 -104 -105 -181t-194 -83h-14q-82 0 -135 41l84 176q16 -55 70 -55t93 34q40 34 40 78q0 45 -25 69q-24 24 -58 24t-55 -13l84 177l11 18h-127q-152 0 -242 109t-64 260l115 645q27 152 155 260t279 108h615
l-131 -272h-529q-41 0 -77 -30t-44 -72l-110 -635q-8 -41 18 -72t66 -31z" />
    <glyph glyph-name="Egrave" unicode="&#xc8;" horiz-adv-x="1157" 
d="M420 270h590l-47 -270h-594q-152 0 -242 109t-64 260l115 645q27 152 155 260t279 108h594l-131 -272h-508q-41 0 -77 -30t-44 -72l-55 -318l162 137h555l-49 -272h-692l-31 -182q-8 -41 18 -72t66 -31zM971 1487h-205l-313 379h385z" />
    <glyph glyph-name="Eacute" unicode="&#xc9;" horiz-adv-x="1157" 
d="M420 270h590l-47 -270h-594q-152 0 -242 109t-64 260l115 645q27 152 155 260t279 108h594l-131 -272h-508q-41 0 -77 -30t-44 -72l-55 -318l162 137h555l-49 -272h-692l-31 -182q-8 -41 18 -72t66 -31zM846 1487h-205l264 379h385z" />
    <glyph glyph-name="Ecircumflex" unicode="&#xca;" horiz-adv-x="1157" 
d="M420 270h590l-47 -270h-594q-152 0 -242 109t-64 260l115 645q27 152 155 260t279 108h594l-131 -272h-508q-41 0 -77 -30t-44 -72l-55 -318l162 137h555l-49 -272h-692l-31 -182q-8 -41 18 -72t66 -31zM1225 1487h-344l-60 96l-92 -96h-346l350 364h271z" />
    <glyph glyph-name="Edieresis" unicode="&#xcb;" horiz-adv-x="1157" 
d="M420 270h590l-47 -270h-594q-152 0 -242 109t-64 260l115 645q27 152 155 260t279 108h594l-131 -272h-508q-41 0 -77 -30t-44 -72l-55 -318l162 137h555l-49 -272h-692l-31 -182q-8 -41 18 -72t66 -31zM1081 1487h-270l47 272h270zM676 1487h-270l47 272h270z" />
    <glyph glyph-name="Igrave" unicode="&#xcc;" horiz-adv-x="468" 
d="M270 0h-270l244 1382h270zM537 1487h-205l-314 379h385z" />
    <glyph glyph-name="Iacute" unicode="&#xcd;" horiz-adv-x="475" 
d="M270 0h-270l244 1382h270zM467 1487h-205l264 379h385z" />
    <glyph glyph-name="Icircumflex" unicode="&#xce;" horiz-adv-x="475" 
d="M270 0h-270l244 1382h270zM821 1487h-344l-59 96l-92 -96h-346l350 364h270z" />
    <glyph glyph-name="Idieresis" unicode="&#xcf;" horiz-adv-x="475" 
d="M270 0h-270l244 1382h270zM735 1487h-270l47 272h270zM330 1487h-271l47 272h271z" />
    <glyph glyph-name="Ntilde" unicode="&#xd1;" horiz-adv-x="1259" 
d="M1077 76l-12 -76h-272l-371 860l-152 -860h-270l244 1382h270l369 -860l153 860h273zM1186 1614l-109 -64q-94 -57 -196 -37l-219 48l-127 -74l-82 172l108 61q100 59 197 37l219 -47l129 74z" />
    <glyph glyph-name="Ograve" unicode="&#xd2;" 
d="M905 1110h-338q-41 0 -77 -30t-44 -72l-110 -635q-8 -41 18 -72t66 -31h338q43 0 78 31t43 72l110 635q7 42 -17 72t-67 30zM961 1382q153 0 241 -108t62 -260l-115 -645q-27 -153 -154 -261t-278 -108h-348q-152 0 -242 109t-64 260l115 645q27 152 155 260t279 108h349
zM971 1487h-205l-313 379h385z" />
    <glyph glyph-name="Oacute" unicode="&#xd3;" 
d="M905 1110h-338q-41 0 -77 -30t-44 -72l-110 -635q-8 -41 18 -72t66 -31h338q43 0 78 31t43 72l110 635q7 42 -17 72t-67 30zM961 1382q153 0 241 -108t62 -260l-115 -645q-27 -153 -154 -261t-278 -108h-348q-152 0 -242 109t-64 260l115 645q27 152 155 260t279 108h349
zM846 1487h-205l264 379h385z" />
    <glyph glyph-name="Ocircumflex" unicode="&#xd4;" 
d="M905 1110h-338q-41 0 -77 -30t-44 -72l-110 -635q-8 -41 18 -72t66 -31h338q43 0 78 31t43 72l110 635q7 42 -17 72t-67 30zM961 1382q153 0 241 -108t62 -260l-115 -645q-27 -153 -154 -261t-278 -108h-348q-152 0 -242 109t-64 260l115 645q27 152 155 260t279 108h349
zM1225 1487h-344l-60 96l-92 -96h-346l350 364h271z" />
    <glyph glyph-name="Otilde" unicode="&#xd5;" 
d="M905 1110h-338q-41 0 -77 -30t-44 -72l-110 -635q-8 -41 18 -72t66 -31h338q43 0 78 31t43 72l110 635q7 42 -17 72t-67 30zM961 1382q153 0 241 -108t62 -260l-115 -645q-27 -153 -154 -261t-278 -108h-348q-152 0 -242 109t-64 260l115 645q27 152 155 260t279 108h349
zM1194 1614l-109 -64q-94 -57 -196 -37l-219 48l-127 -74l-82 172l108 61q100 59 197 37l219 -47l129 74z" />
    <glyph glyph-name="Odieresis" unicode="&#xd6;" 
d="M905 1110h-338q-41 0 -77 -30t-44 -72l-110 -635q-8 -41 18 -72t66 -31h338q43 0 78 31t43 72l110 635q7 42 -17 72t-67 30zM961 1382q153 0 241 -108t62 -260l-115 -645q-27 -153 -154 -261t-278 -108h-348q-152 0 -242 109t-64 260l115 645q27 152 155 260t279 108h349
zM1143 1487h-271l48 272h270zM737 1487h-270l47 272h270z" />
    <glyph glyph-name="multiply" unicode="&#xd7;" horiz-adv-x="1230" 
d="M1198 924l-385 -328l270 -326l-227 -190l-268 326l-385 -326l-156 190l383 326l-268 328l223 190l270 -326l383 326z" />
    <glyph glyph-name="Oslash" unicode="&#xd8;" 
d="M758 270q43 0 78 31t43 72l84 479l-492 -582h287zM567 1110q-41 0 -77 -30t-44 -72l-84 -478l492 580h-287zM717 0h-348q-61 0 -111 18q-131 45 -180 175q-31 76 -15 176l115 645q27 152 155 260t279 108h349q59 0 108 -18q131 -45 180 -174q31 -76 15 -176l-115 -645
q-27 -153 -154 -261t-278 -108z" />
    <glyph glyph-name="Ugrave" unicode="&#xd9;" horiz-adv-x="1218" 
d="M655 0h-286q-152 0 -242 109t-64 260l181 1013h270l-178 -1009q-8 -41 18 -72t66 -31h276q43 0 78 31t43 72l178 1009h273l-181 -1013q-27 -153 -153 -261t-279 -108zM971 1487h-205l-313 379h385z" />
    <glyph glyph-name="Uacute" unicode="&#xda;" horiz-adv-x="1218" 
d="M655 0h-286q-152 0 -242 109t-64 260l181 1013h270l-178 -1009q-8 -41 18 -72t66 -31h276q43 0 78 31t43 72l178 1009h273l-181 -1013q-27 -153 -153 -261t-279 -108zM846 1487h-205l264 379h385z" />
    <glyph glyph-name="Ucircumflex" unicode="&#xdb;" horiz-adv-x="1218" 
d="M655 0h-286q-152 0 -242 109t-64 260l181 1013h270l-178 -1009q-8 -41 18 -72t66 -31h276q43 0 78 31t43 72l178 1009h273l-181 -1013q-27 -153 -153 -261t-279 -108zM1225 1487h-344l-60 96l-92 -96h-346l350 364h271z" />
    <glyph glyph-name="Udieresis" unicode="&#xdc;" horiz-adv-x="1218" 
d="M655 0h-286q-152 0 -242 109t-64 260l181 1013h270l-178 -1009q-8 -41 18 -72t66 -31h276q43 0 78 31t43 72l178 1009h273l-181 -1013q-27 -153 -153 -261t-279 -108zM1143 1487h-271l48 272h270zM737 1487h-270l47 272h270z" />
    <glyph glyph-name="Yacute" unicode="&#xdd;" horiz-adv-x="1251" 
d="M1393 1382l-621 -733l-113 -649h-272l129 733l80 94h-182l-273 555h326l219 -446l381 446h326zM877 1487h-205l264 379h385z" />
    <glyph glyph-name="germandbls" unicode="&#xdf;" horiz-adv-x="1320" 
d="M758 0h-303l47 270h297q43 0 78 31t43 72l12 80q8 43 -17 73t-67 29h-291l-33 272h277q43 0 78 30t43 73l12 78q8 42 -16 72t-68 30h-283q-41 0 -77 -30t-44 -72l-176 -1008h-270l178 1014q27 152 155 260t279 108h293q152 0 241 -108t62 -260l-8 -45q-20 -111 -94 -211
q60 -51 88 -130t12 -169l-16 -90q-27 -153 -154 -261t-278 -108z" />
    <glyph glyph-name="agrave" unicode="&#xe0;" 
d="M270 0q-112 0 -178 79t-45 191l33 191q20 113 114 193t205 79h363l31 -272h-387q-23 1 -41 -15t-23 -38l-14 -82q-4 -23 9 -39t36 -17h487l105 598q3 23 -9 38t-34 16h-652l129 272h623q115 0 180 -80t45 -192l-162 -922h-272l23 135l-158 -135h-408zM946 1298h-205
l-311 379h385z" />
    <glyph glyph-name="aacute" unicode="&#xe1;" 
d="M270 0q-112 0 -178 79t-45 191l33 191q20 113 114 193t205 79h363l31 -272h-387q-23 1 -41 -15t-23 -38l-14 -82q-4 -23 9 -39t36 -17h487l105 598q3 23 -9 38t-34 16h-652l129 272h623q115 0 180 -80t45 -192l-162 -922h-272l23 135l-158 -135h-408zM862 1298h-205
l267 379h385z" />
    <glyph glyph-name="acircumflex" unicode="&#xe2;" 
d="M270 0q-112 0 -178 79t-45 191l33 191q20 113 114 193t205 79h363l31 -272h-387q-23 1 -41 -15t-23 -38l-14 -82q-4 -23 9 -39t36 -17h487l105 598q3 23 -9 38t-34 16h-652l129 272h623q115 0 180 -80t45 -192l-162 -922h-272l23 135l-158 -135h-408zM1190 1298h-344
l-58 97l-94 -97h-346l352 365h271z" />
    <glyph glyph-name="atilde" unicode="&#xe3;" 
d="M270 0q-112 0 -178 79t-45 191l33 191q20 113 114 193t205 79h363l31 -272h-387q-23 1 -41 -15t-23 -38l-14 -82q-4 -23 9 -39t36 -17h487l105 598q3 23 -9 38t-34 16h-652l129 272h623q115 0 180 -80t45 -192l-162 -922h-272l23 135l-158 -135h-408zM1198 1425l-108 -63
q-94 -57 -197 -37l-219 47l-129 -74l-80 172l106 62q104 57 199 37l219 -47l129 73z" />
    <glyph glyph-name="adieresis" unicode="&#xe4;" 
d="M270 0q-112 0 -178 79t-45 191l33 191q20 113 114 193t205 79h363l31 -272h-387q-23 1 -41 -15t-23 -38l-14 -82q-4 -23 9 -39t36 -17h487l105 598q3 23 -9 38t-34 16h-652l129 272h623q115 0 180 -80t45 -192l-162 -922h-272l23 135l-158 -135h-408zM1108 1298h-270
l49 273h270zM702 1298h-270l49 273h271z" />
    <glyph glyph-name="aring" unicode="&#xe5;" 
d="M270 0q-112 0 -178 79t-45 191l33 191q20 113 114 193t205 79h363l31 -272h-387q-23 1 -41 -15t-23 -38l-14 -82q-4 -23 9 -39t36 -17h487l105 598q3 23 -9 38t-34 16h-652l129 272h623q115 0 180 -80t45 -192l-162 -922h-272l23 135l-158 -135h-408zM860 1556
q-28 0 -50 -18t-26 -45t12 -45t42 -18t48 18t25 45q4 27 -10 45t-41 18zM807 1266q-94 0 -149 66q-54 67 -37 161q16 94 95 161q79 66 173 66t148 -66t38 -161t-95 -161t-173 -66z" />
    <glyph glyph-name="ae" unicode="&#xe6;" horiz-adv-x="2093" 
d="M1085 0q-168 0 -221 160l-186 -160h-408q-112 0 -178 79t-45 191l33 191q20 113 114 193t205 79h363l31 -272h-387q-23 1 -41 -15t-23 -38l-14 -82q-4 -23 9 -39t36 -17h487l105 598q3 23 -9 38t-34 16h-652l129 272h623q72 0 131 -37q70 37 141 37h543q113 0 179 -80
t44 -192l-82 -461h-678l132 272h325l23 135q4 23 -10 38t-35 16h-435q-22 0 -40 -16t-23 -38l-94 -542q-4 -23 8 -39t35 -17h706l-129 -270h-678z" />
    <glyph glyph-name="ccedilla" unicode="&#xe7;" horiz-adv-x="1095" 
d="M350 -549q-82 0 -135 41l84 176q16 -55 80 -55q41 0 78 32t43 70v37q0 20 -24 42q-24 24 -58 24t-53 -13l84 177l8 18h-187q-112 0 -178 79t-45 191l115 652q20 112 112 192t205 80h631l-129 -272h-494q-23 0 -42 -16t-23 -38l-94 -542q-4 -23 9 -39t36 -17h575l-47 -270
h-272l-37 -72q94 -80 70 -213q-18 -106 -104 -182t-193 -82h-15z" />
    <glyph glyph-name="egrave" unicode="&#xe8;" 
d="M487 922q-23 0 -42 -16t-23 -38l-94 -542q-4 -23 9 -39t36 -17h704l-127 -270h-680q-112 0 -178 79t-45 191l115 652q20 112 112 192t205 80h543q114 0 180 -80t45 -192l-82 -461h-678l131 272h324l23 135q3 23 -9 38t-34 16h-435zM946 1298h-205l-311 379h385z" />
    <glyph glyph-name="eacute" unicode="&#xe9;" 
d="M487 922q-23 0 -42 -16t-23 -38l-94 -542q-4 -23 9 -39t36 -17h704l-127 -270h-680q-112 0 -178 79t-45 191l115 652q20 112 112 192t205 80h543q114 0 180 -80t45 -192l-82 -461h-678l131 272h324l23 135q3 23 -9 38t-34 16h-435zM862 1298h-205l267 379h385z" />
    <glyph glyph-name="ecircumflex" unicode="&#xea;" 
d="M487 922q-23 0 -42 -16t-23 -38l-94 -542q-4 -23 9 -39t36 -17h704l-127 -270h-680q-112 0 -178 79t-45 191l115 652q20 112 112 192t205 80h543q114 0 180 -80t45 -192l-82 -461h-678l131 272h324l23 135q3 23 -9 38t-34 16h-435z" />
    <glyph glyph-name="edieresis" unicode="&#xeb;" 
d="M487 922q-23 0 -42 -16t-23 -38l-94 -542q-4 -23 9 -39t36 -17h704l-127 -270h-680q-112 0 -178 79t-45 191l115 652q20 112 112 192t205 80h543q114 0 180 -80t45 -192l-82 -461h-678l131 272h324l23 135q3 23 -9 38t-34 16h-435zM1108 1298h-270l49 273h270zM702 1298
h-270l49 273h271z" />
    <glyph glyph-name="igrave" unicode="&#xec;" horiz-adv-x="466" 
d="M0 0l209 1194h270l-209 -1194h-270zM500 1298h-205l-311 379h385z" />
    <glyph glyph-name="iacute" unicode="&#xed;" horiz-adv-x="464" 
d="M0 0l209 1194h270l-209 -1194h-270zM436 1298h-205l267 379h385z" />
    <glyph glyph-name="icircumflex" unicode="&#xee;" horiz-adv-x="499" 
d="M270 0h-270l209 1194h270zM788 1298h-344l-57 97l-94 -97h-346l352 365h270z" />
    <glyph glyph-name="idieresis" unicode="&#xef;" horiz-adv-x="493" 
d="M0 0l209 1194h270l-209 -1194h-270zM700 1298h-270l49 273h271zM295 1298h-270l49 273h270z" />
    <glyph glyph-name="ntilde" unicode="&#xf1;" horiz-adv-x="1218" 
d="M961 1194q115 0 180 -80t45 -192l-162 -922h-272l151 868q4 23 -8 38t-35 16h-428l-162 -922h-270l209 1194h270l-22 -135l159 135h345zM1133 1425l-109 -63q-94 -57 -197 -37l-219 47l-129 -74l-80 172l107 62q104 57 199 37l219 -47l129 73z" />
    <glyph glyph-name="ograve" unicode="&#xf2;" 
d="M487 922q-23 0 -42 -16t-23 -38l-94 -542q-4 -23 9 -39t36 -17h434q23 0 41 16t22 40l95 542q3 23 -9 38t-34 16h-435zM1022 1194q114 0 180 -80t45 -192l-114 -652q-19 -114 -113 -192t-207 -78h-543q-112 0 -178 79t-45 191l115 652q20 112 112 192t205 80h543z
M946 1298h-205l-311 379h385z" />
    <glyph glyph-name="oacute" unicode="&#xf3;" 
d="M487 922q-23 0 -42 -16t-23 -38l-94 -542q-4 -23 9 -39t36 -17h434q23 0 41 16t22 40l95 542q3 23 -9 38t-34 16h-435zM1022 1194q114 0 180 -80t45 -192l-114 -652q-19 -114 -113 -192t-207 -78h-543q-112 0 -178 79t-45 191l115 652q20 112 112 192t205 80h543z
M862 1298h-205l267 379h385z" />
    <glyph glyph-name="ocircumflex" unicode="&#xf4;" 
d="M487 922q-23 0 -42 -16t-23 -38l-94 -542q-4 -23 9 -39t36 -17h434q23 0 41 16t22 40l95 542q3 23 -9 38t-34 16h-435zM1022 1194q114 0 180 -80t45 -192l-114 -652q-19 -114 -113 -192t-207 -78h-543q-112 0 -178 79t-45 191l115 652q20 112 112 192t205 80h543z
M1190 1298h-344l-58 97l-94 -97h-346l352 365h271z" />
    <glyph glyph-name="otilde" unicode="&#xf5;" 
d="M487 922q-23 0 -42 -16t-23 -38l-94 -542q-4 -23 9 -39t36 -17h434q23 0 41 16t22 40l95 542q3 23 -9 38t-34 16h-435zM1022 1194q114 0 180 -80t45 -192l-114 -652q-19 -114 -113 -192t-207 -78h-543q-112 0 -178 79t-45 191l115 652q20 112 112 192t205 80h543z
M1073 1595l80 -170l-109 -63q-94 -57 -196 -37l-219 47l-129 -74l-80 172l106 62q104 57 199 37l219 -47z" />
    <glyph glyph-name="odieresis" unicode="&#xf6;" 
d="M487 922q-23 0 -42 -16t-23 -38l-94 -542q-4 -23 9 -39t36 -17h434q23 0 41 16t22 40l95 542q3 23 -9 38t-34 16h-435zM1022 1194q114 0 180 -80t45 -192l-114 -652q-19 -114 -113 -192t-207 -78h-543q-112 0 -178 79t-45 191l115 652q20 112 112 192t205 80h543z
M1108 1298h-270l49 273h270zM702 1298h-270l49 273h271z" />
    <glyph glyph-name="divide" unicode="&#xf7;" horiz-adv-x="1388" 
d="M127 731h1194l-47 -270h-1194zM942 1194l-47 -272h-272l47 272h272zM461 0l47 270h272l-47 -270h-272z" />
    <glyph glyph-name="oslash" unicode="&#xf8;" 
d="M807 270q23 0 41 16t22 40l76 432l-411 -488h272zM487 922q-23 0 -42 -16t-23 -38l-76 -432l414 486h-273zM813 0h-543q-137 0 -198 109q-39 76 -25 161l115 652q20 112 112 192t205 80h543q142 0 201 -111q39 -72 24 -161l-114 -652q-19 -114 -113 -192t-207 -78z" />
    <glyph glyph-name="ugrave" unicode="&#xf9;" horiz-adv-x="1218" 
d="M752 0h-482q-112 0 -178 79t-45 191l162 924h270l-151 -868q-4 -23 9 -39t36 -17h372q23 0 41 16t23 40l152 868h272l-162 -924q-19 -114 -113 -192t-206 -78zM946 1298h-205l-311 379h385z" />
    <glyph glyph-name="uacute" unicode="&#xfa;" horiz-adv-x="1218" 
d="M752 0h-482q-112 0 -178 79t-45 191l162 924h270l-151 -868q-4 -23 9 -39t36 -17h372q23 0 41 16t23 40l152 868h272l-162 -924q-19 -114 -113 -192t-206 -78zM862 1298h-205l267 379h385z" />
    <glyph glyph-name="ucircumflex" unicode="&#xfb;" horiz-adv-x="1218" 
d="M752 0h-482q-112 0 -178 79t-45 191l162 924h270l-151 -868q-4 -23 9 -39t36 -17h372q23 0 41 16t23 40l152 868h272l-162 -924q-19 -114 -113 -192t-206 -78zM1165 1298h-344l-57 97l-94 -97h-346l352 365h270z" />
    <glyph glyph-name="udieresis" unicode="&#xfc;" horiz-adv-x="1218" 
d="M752 0h-482q-112 0 -178 79t-45 191l162 924h270l-151 -868q-4 -23 9 -39t36 -17h372q23 0 41 16t23 40l152 868h272l-162 -924q-19 -114 -113 -192t-206 -78zM1077 1298h-270l49 273h270zM672 1298h-271l50 273h270z" />
    <glyph glyph-name="yacute" unicode="&#xfd;" horiz-adv-x="1146" 
d="M1253 1194l-731 -1536h-282l163 342h-127l-149 1194h283l116 -934l445 934h282zM821 1298h-205l267 379h385z" />
    <glyph glyph-name="ydieresis" unicode="&#xff;" horiz-adv-x="1146" 
d="M1253 1194l-731 -1536h-282l163 342h-127l-149 1194h283l116 -934l445 934h282zM1051 1298h-271l49 273h271zM645 1298h-270l49 273h270z" />
    <glyph glyph-name="OE" unicode="&#x152;" horiz-adv-x="1970" 
d="M905 1110h-338q-41 0 -77 -30t-44 -72l-110 -635q-8 -41 18 -72t66 -31h338q43 0 78 31t43 72l110 635q7 42 -17 72t-67 30zM1235 270h588l-47 -270h-594q-131 0 -217 82q-119 -82 -248 -82h-348q-152 0 -242 109t-64 260l115 645q27 152 155 260t279 108h349
q133 0 217 -84q117 84 247 84h594l-129 -272h-508q-44 0 -78 -30t-42 -72l-56 -318l160 137h555l-49 -272h-690l-31 -182q-7 -41 17 -72t67 -31z" />
    <glyph glyph-name="oe" unicode="&#x153;" horiz-adv-x="2093" 
d="M487 922q-23 0 -42 -16t-23 -38l-94 -542q-4 -23 9 -39t36 -17h434q23 0 41 16t22 40l95 542q3 23 -9 38t-34 16h-435zM1300 922q-22 0 -40 -16t-23 -38l-94 -542q-4 -23 8 -39t35 -17h706l-129 -270h-678q-78 0 -129 37q-68 -37 -143 -37h-543q-112 0 -178 79t-45 191
l115 652q20 112 112 192t205 80h543q76 0 131 -37q63 37 141 37h543q113 0 179 -80t44 -192l-82 -461h-678l132 272h325l23 135q4 23 -10 38t-35 16h-435z" />
    <glyph glyph-name="Scaron" unicode="&#x160;" horiz-adv-x="1269" 
d="M758 0h-758l129 270h670q43 0 78 31t43 72l12 80q8 43 -17 73t-67 29h-383q-152 0 -241 109t-62 260l16 90q27 152 155 260t279 108h656l-131 -272h-570q-41 0 -77 -30t-44 -72l-12 -78q-8 -43 18 -73t66 -30h385q152 0 241 -108t62 -260l-16 -90q-27 -153 -154 -261
t-278 -108zM1352 1851l-348 -364h-271l-223 364h346l59 -96l93 96h344z" />
    <glyph glyph-name="scaron" unicode="&#x161;" 
d="M813 0h-813l129 270h678q23 0 41 16t22 40l15 82q4 24 -9 38t-36 15h-490q-114 0 -178 80t-43 192l33 189q20 112 112 192t205 80h733l-129 -272h-596q-23 0 -42 -16t-23 -38l-14 -82q-4 -24 10 -38t37 -15h487q113 1 178 -79t45 -193l-32 -191q-19 -114 -113 -192
t-207 -78zM1245 1663l-350 -365h-270l-222 365h347l57 -96l94 96h344z" />
    <glyph glyph-name="Ydieresis" unicode="&#x178;" horiz-adv-x="1251" 
d="M1393 1382l-621 -733l-113 -649h-272l129 733l80 94h-182l-273 555h326l219 -446l381 446h326zM1128 1487h-270l47 272h271zM723 1487h-270l47 272h270z" />
    <glyph glyph-name="Zcaron" unicode="&#x17d;" 
d="M1280 1110l-874 -840h727l-48 -270h-1085l47 270l875 840h-727l131 272h1003zM1341 1851l-348 -364h-270l-223 364h346l59 -96l92 96h344z" />
    <glyph glyph-name="zcaron" unicode="&#x17e;" horiz-adv-x="1136" 
d="M1104 922l-694 -652h579l-47 -270h-942l47 270l694 652h-579l129 272h860l-45 -262zM1223 1663l-351 -365h-270l-221 365h346l57 -96l95 96h344z" />
    <glyph glyph-name="circumflex" unicode="&#x2c6;" horiz-adv-x="1036" 
d="M850 1663l219 -365h-344l-57 97l-95 -97h-346l353 365h270z" />
    <glyph glyph-name="caron" unicode="&#x2c7;" horiz-adv-x="1042" 
d="M1174 1851l-349 -364h-270l-223 364h346l59 -96l92 96h345z" />
    <glyph glyph-name="ring" unicode="&#x2da;" horiz-adv-x="645" 
d="M528 1737q-26 -1 -48 -19t-26 -45t11 -45q14 -18 41 -18q28 0 50 18t26 45t-12 45t-42 19zM477 1446q-94 0 -148 66t-38 161q14 94 93 161t173 67q93 0 149 -67t40 -161q-16 -95 -96 -161q-79 -66 -173 -66z" />
    <glyph glyph-name="tilde" unicode="&#x2dc;" horiz-adv-x="942" 
d="M918 1595l79 -170l-108 -63q-94 -57 -197 -37l-219 47l-129 -74l-80 172l107 62q104 57 198 37l219 -47z" />
    <glyph glyph-name="endash" unicode="&#x2013;" horiz-adv-x="1099" 
d="M127 731h905l-47 -270h-905z" />
    <glyph glyph-name="emdash" unicode="&#x2014;" 
d="M127 731h1085l-47 -270h-1085z" />
    <glyph glyph-name="quoteleft" unicode="&#x2018;" horiz-adv-x="464" 
d="M195 1112l12 66q18 109 61 204q45 111 123 217l117 -65q-59 -80 -90 -152h96l-49 -270h-270z" />
    <glyph glyph-name="quoteright" unicode="&#x2019;" horiz-adv-x="464" 
d="M551 1599l-10 -65q-36 -220 -187 -422l-114 66q57 82 90 151h-97l48 270h270z" />
    <glyph glyph-name="quotesinglbase" unicode="&#x201a;" horiz-adv-x="464" 
d="M47 270h270l-12 -63q-16 -98 -59 -207q-51 -117 -125 -215l-115 65q49 66 92 150h-98z" />
    <glyph glyph-name="quotedblleft" unicode="&#x201c;" horiz-adv-x="825" 
d="M555 1112l12 66q18 109 62 204q45 111 123 217l116 -65q-59 -80 -90 -152h96l-49 -270h-270zM195 1112l12 66q18 109 61 204q45 111 123 217l117 -65q-59 -80 -90 -152h96l-49 -270h-270z" />
    <glyph glyph-name="quotedblright" unicode="&#x201d;" horiz-adv-x="825" 
d="M281 1599h270l-10 -65q-36 -220 -187 -422l-114 66q57 82 90 151h-97zM641 1599h270l-10 -65q-37 -221 -186 -422l-115 66q57 82 90 151h-96z" />
    <glyph glyph-name="quotedblbase" unicode="&#x201e;" horiz-adv-x="815" 
d="M397 270h271l-13 -63q-16 -98 -59 -207q-51 -117 -125 -215l-115 65q49 66 93 150h-99zM47 270h270l-12 -63q-16 -98 -59 -207q-51 -117 -125 -215l-115 65q49 66 92 150h-98z" />
    <glyph glyph-name="bullet" unicode="&#x2022;" horiz-adv-x="1136" 
d="M508 219q-194 0 -308 138t-79 333q33 195 195 333q163 138 358 138q196 0 310 -138t80 -333t-198 -333t-358 -138z" />
    <glyph glyph-name="ellipsis" unicode="&#x2026;" horiz-adv-x="1415" 
d="M997 270h271l-47 -270h-271zM522 270h271l-48 -270h-270zM47 270h270l-47 -270h-270z" />
    <glyph glyph-name="perthousand" unicode="&#x2030;" horiz-adv-x="2224" 
d="M1786 430q-47 0 -86 -33t-47 -80q-9 -47 19 -79t74 -33q46 1 86 33t48 79t-19 80q-28 33 -75 33zM1710 0q-131 0 -208 93t-54 224t132 225q110 93 242 93q132 1 209 -93t54 -225t-133 -224t-242 -93zM1069 430q-47 0 -86 -33t-47 -80t20 -79t73 -33q46 1 86 33t48 79
t-19 80q-28 33 -75 33zM993 0q-131 0 -208 93t-54 224t132 225q110 93 242 93q132 1 209 -93t54 -225q-24 -131 -134 -224t-241 -93zM524 1178q-47 0 -86 -34t-47 -80t20 -80q27 -34 73 -34t85 34t47 81t-18 80q-27 33 -74 33zM561 1382q131 0 207 -93t53 -225t-133 -225
t-240 -93t-207 94t-55 225q23 131 133 224q111 93 242 93zM1239 1382h246l-1168 -1382h-247z" />
    <glyph glyph-name="guilsinglleft" unicode="&#x2039;" horiz-adv-x="1054" 
d="M1104 1382l-643 -692l399 -690h-340l-399 690l643 692h340z" />
    <glyph glyph-name="guilsinglright" unicode="&#x203a;" horiz-adv-x="1054" 
d="M244 1382h340l397 -692l-641 -690h-340l641 690z" />
    <glyph glyph-name="fraction" unicode="&#x2044;" horiz-adv-x="1353" 
d="M0 0l1169 1382h326l-1169 -1382h-326z" />
    <glyph glyph-name="Euro" unicode="&#x20ac;" horiz-adv-x="1468" 
d="M680 270h559l33 -268q-12 -2 -35 -2h-610q-152 0 -242 109t-63 260l14 77h-258l98 207h197l12 76h-258l98 207h197l14 78q27 152 155 260t279 108h611q25 0 35 -2l-127 -270h-562q-43 0 -77 -30t-43 -72l-13 -72h594l-100 -207h-531l-12 -76h516l-98 -207h-455l-12 -73
q-8 -41 16 -72t68 -31z" />
    <glyph glyph-name="minus" unicode="&#x2212;" horiz-adv-x="1705" 
d="M127 731h1194l-47 -270h-1194z" />
    </font>
</defs>
</svg>
