<?xml version="1.0" standalone="no"?>
<!DOCTYPE svg PUBLIC "-//W3C//DTD SVG 1.1//EN" "http://www.w3.org/Graphics/SVG/1.1/DTD/svg11.dtd" >
<svg xmlns="http://www.w3.org/2000/svg">
<metadata>
Created by FontPrep 20130207 at Wed Jan 11 13:06:14 2017
 By Zulfeekar Cheriyampurath
Copyright 2015 Indian Type Foundry. All rights reserved.
</metadata>
<defs>
<font id="bbce4d667c58f15ca19219bb39d0a219" horiz-adv-x='1024' >
  <font-face 
    font-family="KohinoorBangla-Regular"
    font-weight="400"
    font-stretch="normal"
    units-per-em="2048"
    panose-1="2 0 0 0 0 0 0 0 0 0"
    ascent="1638"
    descent="-410"
    x-height="1114"
    cap-height="1436"
    bbox="-1118 -776 3058 2292"
    underline-thickness="102"
    underline-position="-102"
    unicode-range="U+0020-FB02"
  />
<missing-glyph horiz-adv-x="1271" 
d="M936 1184h-600v-1053h600v1053zM205 0v1315h862v-1315h-862z" />
    <glyph glyph-name="fi" unicode="fi" horiz-adv-x="1220" 
d="M403 1114h648v-1114h-160v989h-490v-989h-159v989h-185v125h187v125q0 332 422 332q106 1 206 -19t146 -45l-43 -127q-133 56 -296 56t-219 -47t-57 -150v-125z" />
    <glyph glyph-name="fl" unicode="fl" horiz-adv-x="1300" 
d="M1051 264q0 -141 108 -141q55 0 101 22v-135q-55 -24 -154 -24t-157 62t-58 173v1184q-95 31 -235 31t-196 -47t-57 -150v-125h259v-125h-261v-989h-159v989h-185v125h187v125q0 332 422 332q252 0 385 -84v-1223z" />
    <glyph glyph-name="f_f" unicode="ff" horiz-adv-x="1384" 
d="M1053 1114h288v-125h-290v-989h-160v989h-490v-989h-159v989h-185v125h187v125q0 332 422 332q201 0 327 -60q79 61 197 61t192 -24l-32 -135q-60 21 -144 21t-119 -37t-34 -113v-170zM893 1114v168q0 61 18 115q-125 39 -260 39t-191 -47t-57 -150v-125h490z" />
    <glyph glyph-name="f_f_i" unicode="ffi" horiz-adv-x="1869" 
d="M1053 1239v-125h647v-1114h-158v989h-491v-989h-160v989h-490v-989h-159v989h-185v125h187v125q0 332 422 332q219 0 348 -74q109 74 301 74q105 1 205 -19t147 -45l-43 -127q-127 55 -326 56q-133 0 -189 -47t-56 -150zM893 1114v125q0 84 31 152q-120 45 -264 45
t-200 -47t-57 -150v-125h490z" />
    <glyph glyph-name="f_f_l" unicode="ffl" horiz-adv-x="1949" 
d="M1700 264q0 -141 110 -141q54 0 99 22v-135q-51 -24 -152 -24t-158 61t-57 174v1184q-96 31 -236 31t-197 -47q-56 -47 -56 -150v-125h258v-125h-260v-989h-160v989h-490v-989h-159v989h-185v125h187v125q0 332 422 332q219 0 348 -74q109 74 331 74t355 -84v-1223z
M893 1114v125q0 84 31 152q-120 45 -264 45t-200 -47t-57 -150v-125h490z" />
    <glyph glyph-name=".notdef" horiz-adv-x="1271" 
d="M936 1184h-600v-1053h600v1053zM205 0v1315h862v-1315h-862z" />
    <glyph glyph-name=".null" 
 />
    <glyph glyph-name="nonmarkingreturn" horiz-adv-x="681" 
 />
    <glyph glyph-name="space" unicode=" " horiz-adv-x="589" 
 />
    <glyph glyph-name="exclam" unicode="!" horiz-adv-x="595" 
d="M182 123q0 51 35 88t87 37t88 -37t36 -88t-36 -87t-88 -36t-87 36t-35 87zM365 504h-127l-41 946h206z" />
    <glyph glyph-name="quotedbl" unicode="&#x22;" horiz-adv-x="663" 
d="M543 1016h-117l-33 452h182zM238 1016h-117l-33 452h182z" />
    <glyph glyph-name="numbersign" unicode="#" horiz-adv-x="1370" 
d="M532 891l-61 -348h401l60 348h-400zM86 543h242l61 348h-233l6 131h248l67 393h144l-68 -393h399l68 393h145l-69 -393h196l-8 -131h-209l-59 -348h198l-6 -131h-213l-69 -412h-146l70 412h-399l-70 -412h-143l69 412h-227z" />
    <glyph glyph-name="dollar" unicode="$" horiz-adv-x="1081" 
d="M846 1176q-96 96 -300 96q-102 0 -172 -56t-71 -150q0 -93 59 -148t183 -113l117 -53q245 -114 297 -239q24 -56 24 -128q0 -139 -97 -245t-282 -130l4 -293h-149l4 289q-238 12 -402 144l99 133q152 -133 362 -133q152 0 224 61t71 155q0 94 -62 150q-62 55 -194 115
l-125 55q-141 64 -219 148t-78 225q1 141 101 235t254 117l-5 283h148l-4 -279q195 -14 319 -112z" />
    <glyph glyph-name="percent" unicode="%" horiz-adv-x="1693" 
d="M96 1040q0 192 87 294t227 102t223 -98q82 -98 82 -290t-86 -292q-85 -100 -227 -100t-224 96t-82 288zM410 770q84 0 126 65t42 209q0 274 -177 275q-165 -1 -165 -275t174 -274zM1290 96q168 0 168 274t-176 275q-166 -1 -166 -275t174 -274zM1595 374q0 -192 -86 -293
t-227 -101t-223 97t-82 289t87 293t227 101t222 -96q82 -98 82 -290zM403 43l-98 80l1016 1266l98 -80z" />
    <glyph glyph-name="ampersand" unicode="&#x26;" horiz-adv-x="1390" 
d="M436 1079q0 -145 135 -274q162 43 222 110q59 68 59 160q0 91 -55 149t-149 58t-154 -54q-58 -54 -58 -149zM573 102q223 0 363 136q-285 262 -420 415q-283 -72 -283 -276q0 -111 88 -193t252 -82zM82 367q0 283 344 395q-139 154 -139 307t101 251t261 97
q160 0 255 -96t95 -238q0 -285 -335 -381q137 -150 366 -354q104 162 105 391h145q-8 -285 -145 -481q80 -72 284 -235v-23h-200q-102 80 -181 147q-176 -176 -475 -176q-237 0 -359 120t-122 276z" />
    <glyph glyph-name="quotesingle" unicode="'" horiz-adv-x="358" 
d="M238 1016h-117l-33 452h182z" />
    <glyph glyph-name="parenleft" unicode="(" horiz-adv-x="651" 
d="M166 607q0 204 50 395q50 192 124 322q141 248 242 329h170v-15q-188 -176 -314 -443t-125 -587q0 -320 125 -588t314 -444v-14h-168q-104 86 -244 330q-74 130 -124 320t-50 395z" />
    <glyph glyph-name="parenright" unicode=")" horiz-adv-x="651" 
d="M485 607q0 -204 -50 -394q-50 -189 -124 -321q-140 -249 -241 -330h-170v14q188 176 313 443t125 588t-125 588t-313 443v15h170q101 -83 241 -329q74 -130 124 -322t50 -395z" />
    <glyph glyph-name="asterisk" unicode="*" horiz-adv-x="821" 
d="M340 1430h139v-117l-14 -168l158 65l108 37l45 -131l-112 -39l-164 -37l112 -129l68 -94l-113 -80l-71 94l-86 142l-86 -144l-70 -94l-111 82l68 96l108 125l-163 39l-111 37l43 131l113 -35l151 -63l-12 166v117z" />
    <glyph glyph-name="plus" unicode="+" horiz-adv-x="1077" 
d="M61 625v141h404v408h145v-408h406v-141h-406v-406h-145v406h-404z" />
    <glyph glyph-name="comma" unicode="," horiz-adv-x="491" 
d="M258 -46q0 76 -69 119q-24 15 -68 40v10q0 55 36 92q37 37 99 37t104 -50t43 -139q0 -129 -81 -224t-179 -130l-41 76q72 29 114 77t42 92z" />
    <glyph glyph-name="hyphen" unicode="-" horiz-adv-x="690" 
d="M641 539h-592v143h592v-143z" />
    <glyph glyph-name="period" unicode="." horiz-adv-x="452" 
d="M100 125q0 53 36 90t89 37t90 -37t37 -90t-37 -89t-89 -36t-89 36t-37 89z" />
    <glyph glyph-name="slash" unicode="/" horiz-adv-x="692" 
d="M551 1495h145l-557 -1771h-143z" />
    <glyph glyph-name="zero" unicode="0" horiz-adv-x="1110" 
d="M548 1210q-150 0 -210 -128q-62 -128 -62 -407q0 -280 67 -415t217 -135t211 128q63 129 63 407t-68 414t-218 136zM547 -18q-227 0 -331 163q-103 164 -103 514q0 694 448 695q227 0 331 -165t105 -515q1 -692 -450 -692z" />
    <glyph glyph-name="one" unicode="1" horiz-adv-x="833" 
d="M590 1335v-1335h-158v809l6 360h-8l-149 -112l-158 -109l-94 129l391 258h170z" />
    <glyph glyph-name="two" unicode="2" horiz-adv-x="966" 
d="M864 143v-143h-774l-27 143q39 35 246 267t226 260q139 160 139 321q0 99 -58 157t-157 58q-168 0 -209 -192l-162 37q29 129 127 212t262 83t263 -92t100 -246q0 -211 -191 -437q-147 -171 -171 -195t-72 -75q-50 -51 -96 -99t-54 -55v-8l209 4h399z" />
    <glyph glyph-name="three" unicode="3" horiz-adv-x="987" 
d="M440 -16q-135 0 -234 59t-145 145l140 88q86 -152 258 -151q256 0 256 248q0 125 -73 176t-228 51h-86v137h86q256 -1 258 237q0 112 -56 174t-161 62q-180 0 -215 -176l-158 29q25 125 125 207t263 82t264 -91q102 -91 102 -239t-58 -231q-58 -82 -147 -105v-6
q104 -14 171 -85t66 -214q0 -190 -111 -294q-112 -103 -317 -103z" />
    <glyph glyph-name="four" unicode="4" horiz-adv-x="1015" 
d="M635 459v420l10 290h-8l-139 -245l-281 -465h418zM635 322h-549l-37 137l537 876h202v-876h191v-137h-191v-322h-153v322z" />
    <glyph glyph-name="five" unicode="5" horiz-adv-x="1028" 
d="M502 -16q-272 0 -393 229l157 76q72 -164 252 -164q123 0 185 76t63 213q0 268 -248 268q-115 0 -188 -78l-166 58l57 673h647v-141h-508l-38 -444h10q88 66 217 65q184 0 282 -97q99 -97 99 -296q0 -198 -116 -318t-312 -120z" />
    <glyph glyph-name="six" unicode="6" horiz-adv-x="1036" 
d="M526 719q-133 0 -233 -62q-16 -68 -17 -174q0 -190 71 -277t188 -87q245 0 245 300t-254 300zM580 860q158 0 260 -106t102 -314t-116 -334q-116 -125 -304 -124q-403 0 -403 497q0 283 136 510t325 346h223v-18q-171 -100 -283 -219t-180 -283l6 -6q76 51 234 51z" />
    <glyph glyph-name="seven" unicode="7" horiz-adv-x="874" 
d="M412 1184h-402v151h772l33 -155l-242 -490q-170 -346 -170 -635v-55h-157v55q0 307 180 688l106 230q16 33 58 107t57 102v8q-94 -6 -235 -6z" />
    <glyph glyph-name="eight" unicode="8" horiz-adv-x="1101" 
d="M552 610q-272 0 -273 -245q-1 -119 69 -185t203 -65q272 0 272 247q1 248 -271 248zM547 -18q-430 0 -430 372q0 135 66 215q67 80 169 111v8q-84 18 -139 94t-55 207q0 176 110 271q111 94 289 94q179 0 283 -89t104 -259q0 -244 -199 -312v-8q102 -18 170 -95t68 -220
q1 -189 -115 -289t-321 -100zM549 743q113 0 176 65t63 176q0 112 -62 172t-176 60t-176 -56q-62 -58 -62 -171t62 -179t175 -67z" />
    <glyph glyph-name="nine" unicode="9" horiz-adv-x="1017" 
d="M502 631q125 0 229 67q12 72 12 156q0 358 -254 358q-245 0 -245 -290t258 -291zM463 492q-174 0 -278 103q-103 103 -103 308t118 328t304 123q401 0 401 -494q0 -281 -135 -512t-317 -348h-228v18q348 206 465 519l-6 4q-90 -49 -221 -49z" />
    <glyph glyph-name="colon" unicode=":" horiz-adv-x="452" 
d="M100 139q0 53 36 90t89 37t90 -37t37 -90t-37 -89t-89 -36t-89 36t-37 89zM100 957q0 53 37 91t89 38t89 -38t37 -92t-37 -89q-37 -36 -90 -36t-89 37t-36 89z" />
    <glyph glyph-name="semicolon" unicode=";" horiz-adv-x="491" 
d="M250 -53q0 41 -11 66q-14 34 -126 98v10q0 55 37 92q36 37 98 37t104 -50t43 -139q0 -129 -81 -224t-179 -130l-41 76q74 29 115 76t41 88zM121 958q0 52 36 90t89 38t90 -38q37 -36 37 -90t-37 -89t-90 -35t-89 36t-36 88z" />
    <glyph glyph-name="less" unicode="&#x3c;" horiz-adv-x="1077" 
d="M227 705l295 -121l494 -222v-165l-955 438v147l955 439v-166l-494 -221l-295 -121v-8z" />
    <glyph glyph-name="equal" unicode="=" horiz-adv-x="1077" 
d="M61 395v142h955v-142h-955zM61 854v141h955v-141h-955z" />
    <glyph glyph-name="greater" unicode="&#x3e;" horiz-adv-x="1077" 
d="M848 711l-293 123l-494 221v166l955 -437v-149l-955 -438v165l492 220l295 120v9z" />
    <glyph glyph-name="question" unicode="?" horiz-adv-x="1003" 
d="M397 122q0 52 36 89t88 37t88 -36t36 -89t-36 -88t-88 -35t-88 35t-36 87zM518 1325q-147 0 -250 -102l-106 127q131 121 362 120q172 0 272 -84t99 -225q0 -141 -53 -229t-164 -191l-242 -221q-74 27 -74 95t130 177q53 44 107 92q130 116 130 242q0 94 -55 147
q-56 52 -156 52z" />
    <glyph glyph-name="at" unicode="@" horiz-adv-x="1875" 
d="M885 244q68 0 124 36t78 89q6 86 11 106l47 332q-43 16 -111 16q-139 0 -229 -103t-90 -261q0 -215 170 -215zM129 426q0 379 263 648t642 269q322 0 518 -175t195 -463q0 -250 -124 -418t-323 -168q-152 0 -190 106h-8q-90 -111 -240 -111t-222 89q-73 88 -73 227
q1 242 141 383t339 141q158 0 253 -59l-59 -387q-16 -115 -16 -162q0 -96 94 -96q127 0 203 127t75 311q0 250 -155 385q-156 135 -444 135t-503 -229q-216 -229 -216 -525q1 -296 151 -442q150 -147 438 -147q213 0 357 98l61 -119q-174 -115 -442 -114q-340 0 -528 186
q-187 186 -187 510z" />
    <glyph glyph-name="A" unicode="A" horiz-adv-x="1216" 
d="M481 1436h254l465 -1436h-172l-133 418h-578l-133 -418h-168zM520 1051l-155 -488h483l-154 484q-10 33 -84 276h-8q-21 -71 -82 -272z" />
    <glyph glyph-name="B" unicode="B" horiz-adv-x="1236" 
d="M641 143q159 1 231 61t72 191q0 256 -311 256h-281v-508h289zM877 1053q0 240 -277 239h-248v-497h256q137 -1 203 61t66 197zM1110 406q0 -186 -118 -296t-363 -110h-436v1436h438q182 0 295 -88t112 -279q0 -129 -53 -215t-141 -109v-8q118 -14 192 -99t74 -232z" />
    <glyph glyph-name="C" unicode="C" horiz-adv-x="1165" 
d="M125 713q0 350 151 547q152 197 437 196q244 0 381 -119l-103 -125q-115 96 -301 96t-292 -144q-105 -146 -105 -440t106 -444t304 -151q198 0 290 88l90 -117q-125 -120 -403 -120t-416 192q-139 192 -139 541z" />
    <glyph glyph-name="D" unicode="D" horiz-adv-x="1320" 
d="M356 1290v-1145h209q239 1 351 133t112 439t-118 440t-355 133h-199zM193 0v1436h376q323 0 475 -171t152 -534q0 -731 -629 -731h-374z" />
    <glyph glyph-name="E" unicode="E" horiz-adv-x="1079" 
d="M983 0h-790v1436h761v-146h-598v-489h527v-146h-527v-510h627v-145z" />
    <glyph glyph-name="F" unicode="F" horiz-adv-x="1009" 
d="M358 0h-165v1436h757v-146h-592v-528h521v-146h-521v-616z" />
    <glyph glyph-name="G" unicode="G" horiz-adv-x="1302" 
d="M738 1456q269 0 399 -123l-107 -125q-102 98 -287 98t-308 -112q-142 -129 -142 -456q0 -326 108 -471q109 -144 326 -144q168 0 252 57v549h164v-620q-158 -129 -444 -129q-574 0 -574 733q0 371 172 557t441 186z" />
    <glyph glyph-name="H" unicode="H" horiz-adv-x="1406" 
d="M1051 1436h163v-1436h-163v653h-695v-653h-163v1436h163v-637h695v637z" />
    <glyph glyph-name="I" unicode="I" horiz-adv-x="589" 
d="M213 0v1436h164v-1436h-164z" />
    <glyph glyph-name="J" unicode="J" horiz-adv-x="794" 
d="M255 121q103 0 143 43t40 137v1135h162v-1139q0 -145 -84 -235t-244 -89q-160 0 -254 45l54 150q80 -47 183 -47z" />
    <glyph glyph-name="K" unicode="K" horiz-adv-x="1183" 
d="M410 719l505 717h191l-510 -717l557 -719h-209l-534 711v8zM356 1436v-1436h-163v1436h163z" />
    <glyph glyph-name="L" unicode="L" horiz-adv-x="1005" 
d="M193 1436h163v-1291h617v-145h-780v1436z" />
    <glyph glyph-name="M" unicode="M" horiz-adv-x="1746" 
d="M350 1243v-1243h-155v1436h262l411 -1024h13l411 1024h260v-1436h-157v1243h-13q-220 -541 -424 -1036h-174l-422 1036h-12z" />
    <glyph glyph-name="N" unicode="N" horiz-adv-x="1431" 
d="M350 860v-860h-155v1436h229l483 -910q113 -213 166 -323h14q-4 131 -4 385v848h154v-1436h-225l-488 915q-68 123 -164 326h-16q6 -184 6 -381z" />
    <glyph glyph-name="O" unicode="O" horiz-adv-x="1363" 
d="M690 1456q549 0 549 -738t-565 -738q-266 0 -408 174q-141 174 -141 557q0 745 565 745zM293 722q0 -320 101 -457q100 -138 290 -138t289 133q98 133 98 453q0 319 -101 457q-100 138 -290 138t-289 -132q-98 -134 -98 -454z" />
    <glyph glyph-name="P" unicode="P" horiz-adv-x="1146" 
d="M569 1290h-213v-579h219q174 -1 250 73t76 223t-82 216t-250 67zM606 1436q465 0 465 -416q0 -215 -126 -334t-370 -119h-219v-567h-163v1436h413z" />
    <glyph glyph-name="Q" unicode="Q" horiz-adv-x="1376" 
d="M299 722q0 -320 101 -457q102 -138 292 -138t289 133q98 133 98 454q0 322 -100 458q-101 136 -291 136t-290 -132q-99 -134 -99 -454zM131 711q0 745 565 745q268 0 410 -174t141 -557q0 -567 -319 -694v-8l397 -240l-170 -94l-422 295q-334 -20 -473 189
q-129 192 -129 538z" />
    <glyph glyph-name="R" unicode="R" horiz-adv-x="1218" 
d="M356 1290v-553h185q324 0 323 277q0 147 -83 212t-251 64h-174zM193 1436h360q479 0 479 -404q0 -168 -93 -272t-230 -119v-8q90 -41 174 -184l264 -449h-195l-260 459q-80 137 -223 137h-113v-596h-163v1436z" />
    <glyph glyph-name="S" unicode="S" horiz-adv-x="1091" 
d="M526 127q141 0 220 68t79 181t-136 193q-60 35 -133 68q-191 86 -278 153q-137 105 -137 275t126 281q126 110 334 110t355 -121l-100 -127q-124 98 -264 98t-212 -62t-73 -163q0 -124 136 -208q59 -37 133 -69t146 -69t133 -82q60 -45 98 -115t38 -161q0 -170 -128 -284
t-351 -113q-281 0 -449 151l97 131q163 -135 366 -135z" />
    <glyph glyph-name="T" unicode="T" horiz-adv-x="976" 
d="M408 0v1290h-383v146h927v-146h-381v-1290h-163z" />
    <glyph glyph-name="U" unicode="U" horiz-adv-x="1392" 
d="M702 127q340 0 340 352v957h164v-936q0 -254 -138 -387t-381 -133t-372 131t-129 364v961h164v-936q0 -188 93 -280t259 -93z" />
    <glyph glyph-name="V" unicode="V" horiz-adv-x="1228" 
d="M489 0l-469 1436h179l329 -1033q78 -250 86 -278h9q17 63 86 278l331 1033h168l-469 -1436h-250z" />
    <glyph glyph-name="W" unicode="W" horiz-adv-x="1896" 
d="M510 156h8q16 76 88 366l225 914h236l233 -924q45 -172 86 -354h9q53 236 88 370l231 908h162l-369 -1436h-237l-230 918q-33 129 -90 370h-8q-41 -193 -84 -358l-233 -930h-236l-371 1436h170l230 -889q61 -239 92 -391z" />
    <glyph glyph-name="X" unicode="X" horiz-adv-x="1204" 
d="M600 606h-10l-369 -606h-186l469 737l-443 699h195l344 -564h10l340 564h185l-439 -695l473 -741h-194z" />
    <glyph glyph-name="Y" unicode="Y" horiz-adv-x="1107" 
d="M635 0h-162v518l-475 918h186l371 -750h8l371 750h176l-475 -918v-518z" />
    <glyph glyph-name="Z" unicode="Z" horiz-adv-x="1056" 
d="M254 147h727v-147h-897l-27 147l725 1133v8h-659v148h825l27 -148l-721 -1132v-9z" />
    <glyph glyph-name="bracketleft" unicode="[" horiz-adv-x="630" 
d="M346 1530v-1847h244v-123h-393v2091h393v-121h-244z" />
    <glyph glyph-name="backslash" unicode="\" horiz-adv-x="692" 
d="M141 1495l555 -1771h-143l-557 1771h145z" />
    <glyph glyph-name="bracketright" unicode="]" horiz-adv-x="630" 
d="M285 1530h-244v121h393v-2091h-393v123h244v1847z" />
    <glyph glyph-name="asciicircum" unicode="^" horiz-adv-x="1083" 
d="M537 1325l-119 -295l-170 -393h-162l358 799h197l356 -797h-161l-170 393l-121 293h-8z" />
    <glyph glyph-name="underscore" unicode="_" horiz-adv-x="995" 
d="M995 -242h-995v138h995v-138z" />
    <glyph glyph-name="grave" unicode="`" horiz-adv-x="1028" 
d="M262 1528l154 86l350 -262l-98 -74z" />
    <glyph glyph-name="a" unicode="a" horiz-adv-x="1116" 
d="M514 1130q379 0 379 -337v-504q0 -168 108 -168h29v-117q-23 -12 -57 -12q-156 0 -203 135h-8q-129 -150 -332 -150q-147 1 -234 89t-87 208q0 182 167 274q168 91 469 87v121q0 131 -59 183t-176 52q-170 0 -254 -135l-117 92q133 182 375 182zM266 287q0 -76 53 -127
t145 -51t164 44q74 44 117 107v250q-213 8 -346 -47t-133 -176z" />
    <glyph glyph-name="b" unicode="b" horiz-adv-x="1140" 
d="M508 119q168 1 265 115t97 336t-87 318t-220 97q-69 0 -133 -30t-100 -81v-724q72 -31 178 -31zM170 1554h158v-516h8q104 86 281 86t295 -131t118 -407t-139 -441q-139 -166 -408 -165q-198 0 -313 59v1515z" />
    <glyph glyph-name="c" unicode="c" horiz-adv-x="966" 
d="M111 541q0 295 129 443t344 148t317 -116l-106 -117q-88 92 -220 92q-301 0 -301 -434t301 -434q139 0 218 88l98 -111q-104 -119 -330 -118q-450 0 -450 559z" />
    <glyph glyph-name="d" unicode="d" horiz-adv-x="1144" 
d="M557 115q186 0 260 180v653q-80 27 -170 27q-375 0 -375 -449q0 -217 80 -314t205 -97zM817 1554h158v-1554h-119l-35 113h-8q-37 -55 -114 -95t-177 -41q-196 1 -304 133t-108 412t144 436q143 156 385 156q86 0 178 -18v458z" />
    <glyph glyph-name="e" unicode="e" horiz-adv-x="1112" 
d="M569 995q-121 0 -205 -86t-94 -274h559q2 29 2 67q0 293 -262 293zM586 -14q-232 0 -354 136t-122 431t136 437q135 142 334 142t304 -116q105 -117 105 -320q0 -86 -12 -192h-709q10 -203 96 -291t257 -88q79 1 149 25t109 59l71 -123q-132 -100 -364 -100z" />
    <glyph glyph-name="f" unicode="f" horiz-adv-x="735" 
d="M403 1284v-170h289v-125h-291v-989h-159v989h-185v125h187v168q0 133 80 212t237 79q98 0 172 -25l-33 -135q-59 21 -143 21t-119 -37t-35 -113z" />
    <glyph glyph-name="g" unicode="g" horiz-adv-x="1140" 
d="M631 985q-166 0 -262 -111t-97 -325q0 -403 306 -404q152 0 235 109v700q-78 31 -182 31zM971 -8q0 -215 -122 -327q-121 -111 -353 -111t-351 118l93 127q104 -104 273 -104t237 73t67 224v102h-8q-100 -88 -279 -88t-299 127q-119 127 -119 399t138 432
q137 160 405 160q199 0 318 -57v-1075z" />
    <glyph glyph-name="h" unicode="h" horiz-adv-x="1175" 
d="M659 1133q162 -1 257 -97t96 -266v-770h-160v745q0 109 -58 178t-166 69t-186 -59q-80 -58 -112 -138v-795h-160v1554h160v-563h8q118 142 321 142z" />
    <glyph glyph-name="i" unicode="i" horiz-adv-x="591" 
d="M178 1441q0 50 34 83q34 32 83 32t83 -32t34 -83q0 -50 -34 -83t-83 -33t-83 33t-34 83zM223 0v1114h160v-1114h-160z" />
    <glyph glyph-name="j" unicode="j" horiz-adv-x="518" 
d="M137 1441q0 50 33 83q33 32 83 32t83 -32t33 -83q0 -50 -33 -83t-83 -33t-83 33t-33 83zM180 74v1040h160v-1044q0 -419 -338 -523l-55 134q113 39 173 121t60 272z" />
    <glyph glyph-name="k" unicode="k" horiz-adv-x="1026" 
d="M360 571v9l400 534h198l-411 -530v-9l436 -575h-203zM330 1554v-1554h-160v1554h160z" />
    <glyph glyph-name="l" unicode="l" horiz-adv-x="589" 
d="M340 264q0 -141 110 -141q54 0 99 22v-135q-55 -24 -153 -24t-156 61q-57 61 -58 174v1333h158v-1290z" />
    <glyph glyph-name="m" unicode="m" horiz-adv-x="1759" 
d="M1595 768v-768h-157v735q0 127 -58 194t-157 67q-100 0 -168 -56q-68 -55 -92 -131v-809h-160v723q1 133 -57 203t-160 70t-170 -60q-68 -59 -86 -139v-797h-160v1114h123l33 -119h8q92 141 302 141t282 -175h8q34 75 118 125t207 51q168 1 256 -93t88 -276z" />
    <glyph glyph-name="n" unicode="n" horiz-adv-x="1175" 
d="M1012 0h-160v731q0 127 -61 196t-169 69t-185 -57q-77 -56 -107 -142v-797h-160v1114h121l33 -117h8q37 45 120 93t197 47q171 1 265 -93t98 -276v-768z" />
    <glyph glyph-name="o" unicode="o" horiz-adv-x="1144" 
d="M565 -18q-455 0 -455 576t468 577q457 0 456 -570q0 -272 -113 -428q-114 -155 -356 -155zM274 564q0 -224 73 -334t231 -110t226 105q68 103 66 329q0 226 -72 335q-73 109 -231 109q-157 0 -225 -106q-68 -104 -68 -328z" />
    <glyph glyph-name="p" unicode="p" horiz-adv-x="1144" 
d="M496 139q377 0 376 445q0 217 -81 315q-82 98 -207 98q-172 0 -256 -155v-678q70 -25 168 -25zM1034 592q0 -276 -143 -436q-143 -158 -387 -158q-92 0 -176 18v-413h-158v1511h119l35 -113h8q98 133 292 133t302 -132q108 -134 108 -410z" />
    <glyph glyph-name="q" unicode="q" horiz-adv-x="1140" 
d="M629 985q-166 0 -261 -117q-96 -117 -96 -339t86 -316t220 -94q68 -1 132 29t103 79v725q-71 33 -184 33zM971 -397h-156v463h-8q-105 -86 -283 -86t-296 131t-118 407t138 440q137 166 405 166q199 0 318 -59v-1462z" />
    <glyph glyph-name="r" unicode="r" horiz-adv-x="739" 
d="M328 0h-158v1114h121l35 -123h8q38 63 112 103t157 38q83 0 124 -10v-166q-55 16 -134 16t-153 -35q-74 -36 -112 -108v-829z" />
    <glyph glyph-name="s" unicode="s" horiz-adv-x="970" 
d="M694 292q0 73 -58 118q-58 46 -140 74t-165 62t-142 103q-58 69 -58 185t103 207t297 91t307 -118l-103 -111q-86 90 -211 90t-180 -47t-55 -117q0 -71 58 -115t140 -73t165 -63q84 -34 142 -104t58 -186t-104 -211t-293 -95q-129 0 -233 41t-161 100l99 119
q119 -123 303 -123q111 0 171 50t60 123z" />
    <glyph glyph-name="t" unicode="t" horiz-adv-x="780" 
d="M489 -10q-285 0 -284 307v688h-166v102l166 31l49 289h108v-293h308v-129h-308v-680q0 -176 162 -176q109 0 170 39l45 -127q-90 -51 -250 -51z" />
    <glyph glyph-name="u" unicode="u" horiz-adv-x="1177" 
d="M164 1114h160v-729q0 -270 243 -270q123 -1 201 69t80 199v731h160v-1114h-125l-31 117h-8q-35 -49 -115 -94t-203 -46q-354 0 -362 375v762z" />
    <glyph glyph-name="v" unicode="v" horiz-adv-x="989" 
d="M197 1114l217 -668q45 -135 82 -292h8q20 90 84 292l213 668h166l-377 -1114h-184l-383 1114h174z" />
    <glyph glyph-name="w" unicode="w" horiz-adv-x="1548" 
d="M782 950h-8l-237 -950h-215l-295 1114h163l156 -614q53 -209 84 -359h8q41 197 72 316l168 657h205l164 -657q51 -215 71 -316h8q45 207 86 361l158 612h154l-299 -1114h-215z" />
    <glyph glyph-name="x" unicode="x" horiz-adv-x="983" 
d="M760 0l-268 453h-9l-260 -453h-186l360 580l-340 534h185l250 -414h8l237 414h187l-338 -539l358 -575h-184z" />
    <glyph glyph-name="y" unicode="y" horiz-adv-x="1019" 
d="M182 -428q-74 0 -127 20l25 142q51 -18 104 -19q104 1 166 59t99 187l-404 1153h172l180 -547q84 -256 125 -405h8q31 137 115 405l172 547h166l-393 -1192q-58 -170 -152 -260t-256 -90z" />
    <glyph glyph-name="z" unicode="z" horiz-adv-x="919" 
d="M250 139h575v-139h-727l-24 158l557 809v8h-514v139h659l33 -158l-559 -809v-8z" />
    <glyph glyph-name="braceleft" unicode="{" horiz-adv-x="675" 
d="M319 880q-1 80 -25 232t-24 240q0 309 283 309q66 0 117 -21l-25 -116q-45 16 -88 16q-137 0 -137 -192q0 -74 24 -229t23 -220q0 -231 -188 -287v-8q188 -57 188 -289q0 -67 -24 -223t-23 -229q0 -193 137 -193q43 0 88 17l25 -117q-51 -20 -113 -21q-287 0 -287 310
q0 89 25 243t24 222q0 176 -184 206v156q184 27 184 194z" />
    <glyph glyph-name="bar" unicode="|" horiz-adv-x="555" 
d="M340 -508h-125v2224h125v-2224z" />
    <glyph glyph-name="braceright" unicode="}" horiz-adv-x="675" 
d="M254 -137q0 75 -24 231t-23 221q0 229 190 289v8q-190 55 -190 287q-1 67 23 221t24 228q0 193 -137 192q-41 0 -86 -16l-25 116q51 20 115 21q283 0 282 -309q1 -88 -23 -241t-24 -231q0 -167 185 -194v-156q-184 -31 -185 -206q0 -68 24 -223t23 -242q0 -309 -284 -310
q-61 0 -113 21l25 117q45 -16 86 -17q137 0 137 193z" />
    <glyph glyph-name="asciitilde" unicode="~" horiz-adv-x="1083" 
d="M47 580q-1 111 61 174t165 63t279 -77t247 -76q100 0 100 110q0 25 -6 53l139 -18q2 -18 2 -61q-2 -106 -63 -166t-163 -62q-102 0 -280 78q-176 78 -245 78q-100 0 -101 -111q0 -25 6 -53l-139 18q-2 14 -2 50z" />
    <glyph glyph-name="exclamdown" unicode="&#xa1;" horiz-adv-x="579" 
d="M414 1013q0 -52 -36 -88t-87 -36t-88 36t-37 88t37 87t88 35t87 -35t36 -87zM231 584h127l41 -899h-209z" />
    <glyph glyph-name="cent" unicode="&#xa2;" horiz-adv-x="964" 
d="M272 561q0 -285 127 -385h2l289 797q-43 20 -117 20q-301 0 -301 -432zM575 123q137 0 218 90l96 -113q-96 -119 -330 -118q-49 0 -104 10l-93 -254h-120l104 289q-236 111 -235 514q0 295 130 443t343 149q86 0 157 -21l90 248h121l-108 -295q23 -14 57 -51l-117 -115
l-280 -770q33 -6 71 -6z" />
    <glyph glyph-name="sterling" unicode="&#xa3;" horiz-adv-x="1118" 
d="M303 141h748v-141h-906l-28 147q141 76 151 277l17 211h-158v135h166l20 256q14 195 128 297q115 102 309 102t307 -129l-109 -114q-86 102 -239 102q-213 0 -232 -252l-20 -262h438v-135h-449l-14 -207q-16 -206 -129 -278v-9z" />
    <glyph glyph-name="currency" unicode="&#xa4;" horiz-adv-x="1081" 
d="M236 671q0 -132 86 -219t219 -87t219 86t86 218t-86 220t-219 88t-219 -87t-86 -219zM96 662q0 148 82 264l-123 125l103 100l123 -125q117 84 263 84t261 -76l119 117l102 -100l-119 -119q78 -111 78 -256t-86 -264l127 -125l-102 -101l-127 125q-115 -80 -262 -80
t-256 74l-121 -119l-103 101l119 119q-78 108 -78 256z" />
    <glyph glyph-name="yen" unicode="&#xa5;" horiz-adv-x="1058" 
d="M43 666h326l-367 749h186l215 -457l125 -301h9l129 306l215 452h176l-371 -749h326v-140h-402v-526h-161v526h-406v140z" />
    <glyph glyph-name="brokenbar" unicode="&#xa6;" horiz-adv-x="559" 
d="M342 -311h-125v700h125v-700zM342 811h-125v700h125v-700z" />
    <glyph glyph-name="section" unicode="&#xa7;" horiz-adv-x="1173" 
d="M426 -158q168 0 247 71t79 163t-64 168t-152 142q-89 66 -180 138q-90 74 -153 183t-64 237q0 231 164 398t430 167q94 0 166 -18l-25 -131q-76 23 -145 22q-147 0 -227 -63t-80 -168q0 -75 46 -145t117 -125q159 -123 303 -257q71 -67 117 -162t46 -202
q0 -229 -173 -388t-460 -159q-101 0 -187 23l25 135q76 -29 170 -29zM930 244q0 122 -62 214t-152 162q-89 70 -179 138t-155 156t-67 190q0 35 11 82h-9q-61 -94 -61 -215q0 -206 213 -369q88 -68 177 -136q88 -68 152 -158q95 -134 52 -285h10q70 99 70 221z" />
    <glyph glyph-name="dieresis" unicode="&#xa8;" horiz-adv-x="1028" 
d="M608 1454q0 43 30 72q30 28 73 28t71 -28t29 -72q0 -43 -29 -72q-30 -28 -72 -28t-72 28t-30 72zM217 1454q0 43 28 72q27 28 71 28t73 -28t29 -72q0 -43 -29 -72q-29 -28 -73 -28t-72 28t-27 72z" />
    <glyph glyph-name="copyright" unicode="&#xa9;" horiz-adv-x="1705" 
d="M532 700q0 201 96 313q96 111 255 111q160 0 223 -84l-74 -96q-59 66 -155 66q-97 0 -153 -74t-56 -225q0 -299 213 -299q92 0 151 63l70 -96q-86 -82 -239 -82t-242 101t-89 302zM113 702q0 320 211 528q212 208 534 208t528 -205t207 -523q0 -318 -211 -526
q-212 -208 -534 -209q-322 0 -529 204q-206 204 -206 523zM252 709q0 -263 170 -435t432 -172t431 169t169 432t-169 435t-433 171q-264 0 -432 -169t-168 -431z" />
    <glyph glyph-name="guillemotleft" unicode="&#xab;" horiz-adv-x="1007" 
d="M90 553l313 434l105 -82l-242 -352l242 -350l-105 -80zM498 553l313 434l104 -82l-241 -352l241 -350l-104 -80z" />
    <glyph glyph-name="logicalnot" unicode="&#xac;" horiz-adv-x="1081" 
d="M1038 393h-141v383h-856v135h997v-518z" />
    <glyph glyph-name="registered" unicode="&#xae;" horiz-adv-x="1044" 
d="M473 1055h51q70 1 70 67t-64 66h-57v-133zM473 981v-166h-86v447h143q152 0 152 -132q0 -106 -82 -126l109 -189h-103l-86 166h-47zM520 600q-188 0 -308 117t-120 306t122 310t310 121t310 -117t120 -306q0 -189 -123 -310t-311 -121zM522 684q145 0 242 96
q96 96 96 246t-96 246t-242 96t-242 -94t-96 -245t96 -248t242 -97z" />
    <glyph glyph-name="macron" unicode="&#xaf;" horiz-adv-x="1028" 
d="M825 1368h-624v127h624v-127z" />
    <glyph glyph-name="degree" unicode="&#xb0;" horiz-adv-x="712" 
d="M180 1153q0 -78 52 -131t129 -53t124 52t47 130t-51 131t-128 53t-125 -52t-48 -130zM68 1148q0 126 83 207t211 81t206 -77q79 -77 79 -203t-84 -207t-211 -81t-206 77q-78 77 -78 203z" />
    <glyph glyph-name="plusminus" unicode="&#xb1;" horiz-adv-x="1077" 
d="M61 625v141h404v408h145v-408h406v-141h-406v-398h406v-141h-955v141h404v398h-404z" />
    <glyph glyph-name="twosuperior" unicode="&#xb2;" horiz-adv-x="714" 
d="M635 915v-108h-567l-19 100l137 137q137 137 215 223t78 171q0 129 -135 129q-59 0 -96 -36t-47 -87l-131 31q23 86 92 141q70 55 190 55t191 -60q70 -60 69 -163q0 -129 -129 -268q-71 -78 -143 -150l-125 -117h23l139 2h258z" />
    <glyph glyph-name="threesuperior" unicode="&#xb3;" horiz-adv-x="718" 
d="M616 1446q0 -152 -122 -207q147 -33 147 -192q0 -125 -80 -192t-229 -67q-188 0 -271 138l105 65q63 -98 180 -98q166 0 166 147q0 74 -48 108t-153 34h-69v96h69q174 0 174 156q0 57 -36 95q-37 38 -109 38q-115 0 -145 -113l-123 25q16 84 89 138t191 54t192 -58
q72 -58 72 -167z" />
    <glyph glyph-name="acute" unicode="&#xb4;" horiz-adv-x="1028" 
d="M766 1528l-406 -250l-98 74l348 262z" />
    <glyph glyph-name="uni00B5" unicode="&#xb5;" horiz-adv-x="1241" 
d="M1135 131q6 0 26 4v-129q-37 -10 -67 -10q-164 0 -205 156h-8q-86 -170 -316 -170q-147 0 -237 90v-469h-158v1511h160v-708q0 -146 59 -216t186 -70t203 75q76 74 76 217v702h158v-784q0 -109 28 -154t95 -45z" />
    <glyph glyph-name="paragraph" unicode="&#xb6;" horiz-adv-x="1159" 
d="M575 1436v-1305q0 -311 -221 -483l-92 90q96 78 141 161t46 246v502l-50 -2q-160 4 -251 98t-91 290t111 299t309 104h98zM907 1436v-1436h-125v1436h125z" />
    <glyph glyph-name="periodcentered" unicode="&#xb7;" horiz-adv-x="468" 
d="M109 721q0 53 35 90q36 37 89 37t91 -37t36 -90q0 -53 -36 -89t-90 -36q-52 0 -89 36q-36 36 -36 89z" />
    <glyph glyph-name="cedilla" unicode="&#xb8;" horiz-adv-x="1028" 
d="M641 -236q0 -180 -201 -249l-55 86q119 57 119 157q0 66 -47 129v9h147q37 -54 37 -132z" />
    <glyph glyph-name="onesuperior" unicode="&#xb9;" horiz-adv-x="591" 
d="M442 1653v-846h-133v514l6 209h-6l-90 -68l-127 -78l-67 105l280 164h137z" />
    <glyph glyph-name="guillemotright" unicode="&#xbb;" horiz-adv-x="1007" 
d="M915 553l-313 -430l-104 80l241 350l-241 352l104 82zM508 553l-313 -430l-105 80l242 350l-242 352l105 82z" />
    <glyph glyph-name="questiondown" unicode="&#xbf;" horiz-adv-x="823" 
d="M588 1013q0 -52 -35 -88t-87 -36t-88 36t-36 88t36 87t88 35t87 -35t35 -87zM467 -190q152 0 252 104l106 -127q-137 -123 -362 -123q-172 0 -272 84q-99 84 -99 226t53 229q53 88 164 190l240 223q76 -31 76 -99t-129 -173q-54 -43 -108 -91q-130 -115 -130 -245
q0 -94 54 -146t155 -52z" />
    <glyph glyph-name="Agrave" unicode="&#xc0;" horiz-adv-x="1216" 
d="M182 1829l154 86l350 -262l-98 -74zM481 1436h254l465 -1436h-172l-133 418h-578l-133 -418h-168zM520 1051l-155 -488h483l-154 484q-10 33 -84 276h-8q-21 -71 -82 -272z" />
    <glyph glyph-name="Aacute" unicode="&#xc1;" horiz-adv-x="1216" 
d="M1008 1862l-406 -250l-98 74l348 262zM481 1436h254l465 -1436h-172l-133 418h-578l-133 -418h-168zM520 1051l-155 -488h483l-154 484q-10 33 -84 276h-8q-21 -71 -82 -272z" />
    <glyph glyph-name="Acircumflex" unicode="&#xc2;" horiz-adv-x="1216" 
d="M1001 1704l-59 -94l-336 194l-334 -194l-59 94l393 256zM481 1436h254l465 -1436h-172l-133 418h-578l-133 -418h-168zM520 1051l-155 -488h483l-154 484q-10 33 -84 276h-8q-21 -71 -82 -272z" />
    <glyph glyph-name="Atilde" unicode="&#xc3;" horiz-adv-x="1216" 
d="M467 1862q57 0 150 -36t133 -36q84 0 131 61l63 -100q-12 -27 -62 -59t-112 -31q-62 0 -158 37t-137 37q-84 0 -141 -60l-64 103q84 84 197 84zM481 1436h254l465 -1436h-172l-133 418h-578l-133 -418h-168zM520 1051l-155 -488h483l-154 484q-10 33 -84 276h-8
q-21 -71 -82 -272z" />
    <glyph glyph-name="Adieresis" unicode="&#xc4;" horiz-adv-x="1216" 
d="M702 1788q0 43 30 72q30 28 73 28t72 -28t29 -72q0 -43 -30 -72q-28 -28 -71 -28t-73 28t-30 72zM311 1788q0 43 28 72q28 28 72 28q45 0 73 -28t28 -72q0 -43 -29 -72q-29 -28 -73 -28t-71 28q-28 28 -28 72zM481 1436h254l465 -1436h-172l-133 418h-578l-133 -418h-168
zM520 1051l-155 -488h483l-154 484q-10 33 -84 276h-8q-21 -71 -82 -272z" />
    <glyph glyph-name="Aring" unicode="&#xc5;" horiz-adv-x="1216" 
d="M727 1797q0 56 -33 90t-89 34t-88 -33t-32 -88t34 -90t90 -35t87 33t31 89zM385 1793q0 97 62 159q63 62 163 63q100 0 160 -57q60 -56 61 -154q0 -98 -63 -160q-64 -62 -164 -62t-160 56q-59 58 -59 155zM481 1436h254l465 -1436h-172l-133 418h-578l-133 -418h-168z
M520 1051l-155 -488h483l-154 484q-10 33 -84 276h-8q-21 -71 -82 -272z" />
    <glyph glyph-name="AE" unicode="&#xc6;" horiz-adv-x="1740" 
d="M889 1313h-8l-398 -727h406v727zM1645 0h-756v442h-481l-244 -442h-174l790 1436h834v-146h-572v-489h500v-146h-500v-510h603v-145z" />
    <glyph glyph-name="Ccedilla" unicode="&#xc7;" horiz-adv-x="1165" 
d="M807 -236q0 -180 -201 -249l-55 86q119 57 119 157q0 66 -47 129v9h147q37 -54 37 -132zM125 713q0 350 151 547q152 197 437 196q244 0 381 -119l-103 -125q-115 96 -301 96t-292 -144q-105 -146 -105 -440t106 -444t304 -151q198 0 290 88l90 -117q-125 -120 -403 -120
t-416 192q-139 192 -139 541z" />
    <glyph glyph-name="Egrave" unicode="&#xc8;" horiz-adv-x="1079" 
d="M170 1862l154 86l350 -262l-99 -74zM983 0h-790v1436h761v-146h-598v-489h527v-146h-527v-510h627v-145z" />
    <glyph glyph-name="Eacute" unicode="&#xc9;" horiz-adv-x="1079" 
d="M987 1862l-405 -250l-99 74l348 262zM983 0h-790v1436h761v-146h-598v-489h527v-146h-527v-510h627v-145z" />
    <glyph glyph-name="Ecircumflex" unicode="&#xca;" horiz-adv-x="1079" 
d="M954 1704l-59 -94l-336 194l-334 -194l-59 94l393 256zM983 0h-790v1436h761v-146h-598v-489h527v-146h-527v-510h627v-145z" />
    <glyph glyph-name="Edieresis" unicode="&#xcb;" horiz-adv-x="1079" 
d="M666 1788q0 43 29 72q30 28 73 28t72 -28q28 -28 28 -72q0 -43 -28 -72q-28 -28 -72 -28q-43 0 -73 28q-29 29 -29 72zM274 1788q0 43 28 72q28 28 72 28t72 -28t29 -72q0 -43 -29 -72q-28 -28 -72 -28t-72 28t-28 72zM983 0h-790v1436h761v-146h-598v-489h527v-146h-527
v-510h627v-145z" />
    <glyph glyph-name="Igrave" unicode="&#xcc;" horiz-adv-x="589" 
d="M-106 1862l153 86l350 -262l-98 -74zM213 0v1436h164v-1436h-164z" />
    <glyph glyph-name="Iacute" unicode="&#xcd;" horiz-adv-x="589" 
d="M686 1862l-405 -250l-99 74l348 262zM213 0v1436h164v-1436h-164z" />
    <glyph glyph-name="Icircumflex" unicode="&#xce;" horiz-adv-x="589" 
d="M688 1704l-59 -94l-336 194l-334 -194l-59 94l393 256zM213 0v1436h164v-1436h-164z" />
    <glyph glyph-name="Idieresis" unicode="&#xcf;" horiz-adv-x="589" 
d="M389 1788q0 43 30 72q30 28 73 28q44 0 72 -28t28 -72q0 -43 -29 -72q-29 -28 -71 -28t-73 28q-30 28 -30 72zM-2 1788q0 43 28 72q28 28 72 28t72 -28q29 -28 29 -72q0 -43 -29 -72q-29 -28 -73 -28q-43 0 -71 28t-28 72zM213 0v1436h164v-1436h-164z" />
    <glyph glyph-name="Eth" unicode="&#xd0;" horiz-adv-x="1335" 
d="M369 1290v-493h329v-121h-329v-531h211q240 1 352 133t110 439q0 307 -117 440q-118 133 -356 133h-200zM207 0v676h-154v121h154v639h377q324 0 476 -171t150 -534q0 -731 -630 -731h-373z" />
    <glyph glyph-name="Ntilde" unicode="&#xd1;" horiz-adv-x="1431" 
d="M575 1862q57 0 151 -36t132 -36q84 0 131 61l64 -100q-13 -27 -63 -59t-110 -31q-60 0 -157 37q-96 37 -139 37q-84 0 -142 -60l-63 103q83 84 196 84zM350 860v-860h-155v1436h229l483 -910q113 -213 166 -323h14q-4 131 -4 385v848h154v-1436h-225l-488 915
q-68 123 -164 326h-16q6 -184 6 -381z" />
    <glyph glyph-name="Ograve" unicode="&#xd2;" horiz-adv-x="1363" 
d="M285 1862l153 86l350 -262l-98 -74zM690 1456q549 0 549 -738t-565 -738q-266 0 -408 174q-141 174 -141 557q0 745 565 745zM293 722q0 -320 101 -457q100 -138 290 -138t289 133q98 133 98 453q0 319 -101 457q-100 138 -290 138t-289 -132q-98 -134 -98 -454z" />
    <glyph glyph-name="Oacute" unicode="&#xd3;" horiz-adv-x="1363" 
d="M1087 1862l-405 -250l-98 74l348 262zM690 1456q549 0 549 -738t-565 -738q-266 0 -408 174q-141 174 -141 557q0 745 565 745zM293 722q0 -320 101 -457q100 -138 290 -138t289 133q98 133 98 453q0 319 -101 457q-100 138 -290 138t-289 -132q-98 -134 -98 -454z" />
    <glyph glyph-name="Ocircumflex" unicode="&#xd4;" horiz-adv-x="1363" 
d="M1081 1704l-59 -94l-336 194l-334 -194l-59 94l393 256zM690 1456q549 0 549 -738t-565 -738q-266 0 -408 174q-141 174 -141 557q0 745 565 745zM293 722q0 -320 101 -457q100 -138 290 -138t289 133q98 133 98 453q0 319 -101 457q-100 138 -290 138t-289 -132
q-98 -134 -98 -454z" />
    <glyph glyph-name="Otilde" unicode="&#xd5;" horiz-adv-x="1363" 
d="M547 1862q57 0 150 -36t132 -36q84 0 132 61l63 -100q-12 -27 -62 -59t-110 -31q-60 0 -158 37q-96 37 -139 37q-84 0 -141 -60l-64 103q84 84 197 84zM690 1456q549 0 549 -738t-565 -738q-266 0 -408 174q-141 174 -141 557q0 745 565 745zM293 722q0 -320 101 -457
q100 -138 290 -138t289 133q98 133 98 453q0 319 -101 457q-100 138 -290 138t-289 -132q-98 -134 -98 -454z" />
    <glyph glyph-name="Odieresis" unicode="&#xd6;" horiz-adv-x="1363" 
d="M782 1788q0 43 30 72q30 28 73 28t71 -28t29 -72q0 -43 -29 -72q-30 -28 -72 -28t-72 28t-30 72zM391 1788q0 43 28 72q28 28 72 28q45 0 73 -28t28 -72q0 -43 -29 -72q-29 -28 -73 -28t-71 28q-28 28 -28 72zM690 1456q549 0 549 -738t-565 -738q-266 0 -408 174
q-141 174 -141 557q0 745 565 745zM293 722q0 -320 101 -457q100 -138 290 -138t289 133q98 133 98 453q0 319 -101 457q-100 138 -290 138t-289 -132q-98 -134 -98 -454z" />
    <glyph glyph-name="multiply" unicode="&#xd7;" horiz-adv-x="1077" 
d="M125 1012l100 96l312 -317l317 319l98 -100l-317 -314l317 -315l-98 -96l-315 315l-314 -317l-100 100l319 313z" />
    <glyph glyph-name="Oslash" unicode="&#xd8;" horiz-adv-x="1374" 
d="M1081 711q0 244 -65 387l-578 -879q92 -92 267 -92t276 133q100 134 100 451zM684 1309q-391 -1 -391 -551q0 -284 65 -420l580 879q-92 92 -254 92zM1249 725q0 -745 -571 -745q-207 0 -334 100l-61 -98h-158v2l127 190q-127 176 -127 537q0 745 571 745q201 0 332 -100
l68 100h153v-2l-127 -194q127 -185 127 -535z" />
    <glyph glyph-name="Ugrave" unicode="&#xd9;" horiz-adv-x="1392" 
d="M291 1862l153 86l351 -262l-99 -74zM702 127q340 0 340 352v957h164v-936q0 -254 -138 -387t-381 -133t-372 131t-129 364v961h164v-936q0 -188 93 -280t259 -93z" />
    <glyph glyph-name="Uacute" unicode="&#xda;" horiz-adv-x="1392" 
d="M1122 1862l-405 -250l-99 74l349 262zM702 127q340 0 340 352v957h164v-936q0 -254 -138 -387t-381 -133t-372 131t-129 364v961h164v-936q0 -188 93 -280t259 -93z" />
    <glyph glyph-name="Ucircumflex" unicode="&#xdb;" horiz-adv-x="1392" 
d="M1090 1704l-60 -94l-336 194l-334 -194l-59 94l393 256zM702 127q340 0 340 352v957h164v-936q0 -254 -138 -387t-381 -133t-372 131t-129 364v961h164v-936q0 -188 93 -280t259 -93z" />
    <glyph glyph-name="Udieresis" unicode="&#xdc;" horiz-adv-x="1392" 
d="M791 1788q0 43 29 72q30 28 73 28t72 -28t29 -72q0 -43 -30 -72q-28 -28 -71 -28t-73 28q-29 29 -29 72zM399 1788q0 43 28 72q28 28 72 28q45 0 73 -28t28 -72q0 -43 -29 -72q-29 -28 -73 -28t-71 28q-28 28 -28 72zM702 127q340 0 340 352v957h164v-936
q0 -254 -138 -387t-381 -133t-372 131t-129 364v961h164v-936q0 -188 93 -280t259 -93z" />
    <glyph glyph-name="Yacute" unicode="&#xdd;" horiz-adv-x="1107" 
d="M979 1862l-406 -250l-98 74l348 262zM635 0h-162v518l-475 918h186l371 -750h8l371 750h176l-475 -918v-518z" />
    <glyph glyph-name="Thorn" unicode="&#xde;" horiz-adv-x="1042" 
d="M498 416q289 0 288 309q1 293 -284 295q-39 0 -150 -21v-565q88 -18 146 -18zM350 1436v-291q104 25 195 24q186 0 298 -105q111 -105 111 -331q0 -225 -116 -345t-326 -120q-72 0 -162 17v-285h-157v1436h157z" />
    <glyph glyph-name="germandbls" unicode="&#xdf;" horiz-adv-x="1202" 
d="M549 766q0 62 39 116q39 56 85 97t85 104t39 145q-1 82 -61 132q-60 49 -169 49t-175 -72t-64 -217v-1120h-158v1118q0 213 116 322q116 108 293 108t275 -89t98 -234q0 -86 -37 -161t-81 -117q-118 -112 -119 -155q0 -42 42 -78t101 -70q60 -34 120 -75t102 -109
t42 -155q0 -135 -99 -228t-283 -93t-294 77l68 127q106 -68 220 -68t173 48q59 46 59 118q1 126 -147 210q-61 36 -123 70t-104 86q-43 52 -43 114z" />
    <glyph glyph-name="agrave" unicode="&#xe0;" horiz-adv-x="1116" 
d="M121 1528l153 86l351 -262l-99 -74zM514 1130q379 0 379 -337v-504q0 -168 108 -168h29v-117q-23 -12 -57 -12q-156 0 -203 135h-8q-129 -150 -332 -150q-147 1 -234 89t-87 208q0 182 167 274q168 91 469 87v121q0 131 -59 183t-176 52q-170 0 -254 -135l-117 92
q133 182 375 182zM266 287q0 -76 53 -127t145 -51t164 44q74 44 117 107v250q-213 8 -346 -47t-133 -176z" />
    <glyph glyph-name="aacute" unicode="&#xe1;" horiz-adv-x="1116" 
d="M942 1528l-405 -250l-99 74l348 262zM514 1130q379 0 379 -337v-504q0 -168 108 -168h29v-117q-23 -12 -57 -12q-156 0 -203 135h-8q-129 -150 -332 -150q-147 1 -234 89t-87 208q0 182 167 274q168 91 469 87v121q0 131 -59 183t-176 52q-170 0 -254 -135l-117 92
q133 182 375 182zM266 287q0 -76 53 -127t145 -51t164 44q74 44 117 107v250q-213 8 -346 -47t-133 -176z" />
    <glyph glyph-name="acircumflex" unicode="&#xe2;" horiz-adv-x="1116" 
d="M932 1370l-60 -94l-335 194l-334 -194l-60 94l394 256zM514 1130q379 0 379 -337v-504q0 -168 108 -168h29v-117q-23 -12 -57 -12q-156 0 -203 135h-8q-129 -150 -332 -150q-147 1 -234 89t-87 208q0 182 167 274q168 91 469 87v121q0 131 -59 183t-176 52
q-170 0 -254 -135l-117 92q133 182 375 182zM266 287q0 -76 53 -127t145 -51t164 44q74 44 117 107v250q-213 8 -346 -47t-133 -176z" />
    <glyph glyph-name="atilde" unicode="&#xe3;" horiz-adv-x="1116" 
d="M418 1528q57 0 150 -36t132 -36q84 0 131 62l64 -101q-12 -27 -62 -59q-49 -32 -111 -31q-62 0 -158 37t-138 37q-84 0 -141 -60l-64 103q84 84 197 84zM514 1130q379 0 379 -337v-504q0 -168 108 -168h29v-117q-23 -12 -57 -12q-156 0 -203 135h-8q-129 -150 -332 -150
q-147 1 -234 89t-87 208q0 182 167 274q168 91 469 87v121q0 131 -59 183t-176 52q-170 0 -254 -135l-117 92q133 182 375 182zM266 287q0 -76 53 -127t145 -51t164 44q74 44 117 107v250q-213 8 -346 -47t-133 -176z" />
    <glyph glyph-name="adieresis" unicode="&#xe4;" horiz-adv-x="1116" 
d="M649 1454q0 43 30 72q30 28 73 28q44 0 72 -28t28 -72q0 -43 -29 -72q-29 -28 -71 -28t-73 28q-30 28 -30 72zM258 1454q0 43 28 72q28 28 72 28t72 -28q29 -28 29 -72q0 -43 -29 -72q-29 -28 -73 -28q-43 0 -71 28t-28 72zM514 1130q379 0 379 -337v-504
q0 -168 108 -168h29v-117q-23 -12 -57 -12q-156 0 -203 135h-8q-129 -150 -332 -150q-147 1 -234 89t-87 208q0 182 167 274q168 91 469 87v121q0 131 -59 183t-176 52q-170 0 -254 -135l-117 92q133 182 375 182zM266 287q0 -76 53 -127t145 -51t164 44q74 44 117 107v250
q-213 8 -346 -47t-133 -176z" />
    <glyph glyph-name="aring" unicode="&#xe5;" horiz-adv-x="1116" 
d="M678 1463q0 56 -33 90t-89 34t-88 -33t-32 -88t34 -90t90 -35t87 33t31 89zM336 1459q0 97 62 159t162 63q100 0 162 -57q60 -56 60 -154t-63 -160t-163 -62t-160 56q-60 58 -60 155zM514 1130q379 0 379 -337v-504q0 -168 108 -168h29v-117q-23 -12 -57 -12
q-156 0 -203 135h-8q-129 -150 -332 -150q-147 1 -234 89t-87 208q0 182 167 274q168 91 469 87v121q0 131 -59 183t-176 52q-170 0 -254 -135l-117 92q133 182 375 182zM266 287q0 -76 53 -127t145 -51t164 44q74 44 117 107v250q-213 8 -346 -47t-133 -176z" />
    <glyph glyph-name="ae" unicode="&#xe6;" horiz-adv-x="1738" 
d="M1195 995q-124 0 -205 -84t-93 -278h559q2 27 2 63q0 145 -69 223q-70 76 -194 76zM465 102q281 0 280 283v139q-259 0 -377 -51t-118 -174q0 -85 60 -141t155 -56zM446 -25q-182 -1 -269 89t-87 217q0 208 193 294q157 72 462 72v113q0 231 -241 231q-168 0 -254 -129
l-115 105q133 163 390 163t333 -169h8q121 172 329 172q207 0 315 -118t108 -323q0 -76 -12 -190h-709q12 -203 98 -290t255 -87t278 100l78 -125q-125 -115 -375 -114q-289 -1 -393 194h-9q-86 -205 -383 -205z" />
    <glyph glyph-name="ccedilla" unicode="&#xe7;" horiz-adv-x="966" 
d="M672 -236q0 -180 -201 -249l-55 86q119 57 119 157q0 66 -48 129v9h148q37 -54 37 -132zM111 541q0 295 129 443t344 148t317 -116l-106 -117q-88 92 -220 92q-301 0 -301 -434t301 -434q139 0 218 88l98 -111q-104 -119 -330 -118q-450 0 -450 559z" />
    <glyph glyph-name="egrave" unicode="&#xe8;" horiz-adv-x="1112" 
d="M170 1528l154 86l350 -262l-99 -74zM569 995q-121 0 -205 -86t-94 -274h559q2 29 2 67q0 293 -262 293zM586 -14q-232 0 -354 136t-122 431t136 437q135 142 334 142t304 -116q105 -117 105 -320q0 -86 -12 -192h-709q10 -203 96 -291t257 -88q79 1 149 25t109 59
l71 -123q-132 -100 -364 -100z" />
    <glyph glyph-name="eacute" unicode="&#xe9;" horiz-adv-x="1112" 
d="M993 1528l-405 -250l-99 74l349 262zM569 995q-121 0 -205 -86t-94 -274h559q2 29 2 67q0 293 -262 293zM586 -14q-232 0 -354 136t-122 431t136 437q135 142 334 142t304 -116q105 -117 105 -320q0 -86 -12 -192h-709q10 -203 96 -291t257 -88q79 1 149 25t109 59
l71 -123q-132 -100 -364 -100z" />
    <glyph glyph-name="ecircumflex" unicode="&#xea;" horiz-adv-x="1112" 
d="M948 1370l-59 -94l-336 194l-334 -194l-59 94l393 256zM569 995q-121 0 -205 -86t-94 -274h559q2 29 2 67q0 293 -262 293zM586 -14q-232 0 -354 136t-122 431t136 437q135 142 334 142t304 -116q105 -117 105 -320q0 -86 -12 -192h-709q10 -203 96 -291t257 -88
q79 1 149 25t109 59l71 -123q-132 -100 -364 -100z" />
    <glyph glyph-name="edieresis" unicode="&#xeb;" horiz-adv-x="1112" 
d="M649 1454q0 43 30 72q30 28 73 28q44 0 72 -28t28 -72q0 -43 -29 -72q-29 -28 -71 -28t-73 28q-30 28 -30 72zM258 1454q0 43 28 72q28 28 72 28t72 -28q29 -28 29 -72q0 -43 -29 -72q-29 -28 -73 -28q-43 0 -71 28t-28 72zM569 995q-121 0 -205 -86t-94 -274h559
q2 29 2 67q0 293 -262 293zM586 -14q-232 0 -354 136t-122 431t136 437q135 142 334 142t304 -116q105 -117 105 -320q0 -86 -12 -192h-709q10 -203 96 -291t257 -88q79 1 149 25t109 59l71 -123q-132 -100 -364 -100z" />
    <glyph glyph-name="igrave" unicode="&#xec;" horiz-adv-x="591" 
d="M-98 1528l153 86l351 -262l-99 -74zM223 0v1114h160v-1114h-160z" />
    <glyph glyph-name="iacute" unicode="&#xed;" horiz-adv-x="591" 
d="M692 1528l-405 -250l-99 74l349 262zM223 0v1114h160v-1114h-160z" />
    <glyph glyph-name="icircumflex" unicode="&#xee;" horiz-adv-x="591" 
d="M690 1370l-59 -94l-336 194l-334 -194l-59 94l393 256zM223 0v1114h160v-1114h-160z" />
    <glyph glyph-name="idieresis" unicode="&#xef;" horiz-adv-x="591" 
d="M391 1454q0 43 30 72q30 28 73 28q44 0 72 -28t28 -72q0 -43 -29 -72q-29 -28 -71 -28t-73 28q-30 28 -30 72zM0 1454q0 43 28 72q28 28 72 28t72 -28q29 -28 29 -72q0 -43 -29 -72q-29 -28 -73 -28q-43 0 -71 28t-28 72zM223 0v1114h160v-1114h-160z" />
    <glyph glyph-name="eth" unicode="&#xf0;" horiz-adv-x="1077" 
d="M797 528q0 96 -15 168q-104 76 -242 76q-286 0 -286 -313q0 -160 73 -241t201 -81q269 0 269 391zM952 551q0 -260 -112 -408q-114 -147 -316 -147t-315 121t-113 335t122 334q122 121 300 121q129 0 221 -49l6 4q-49 156 -157 283l-305 -170v127l223 127
q-115 102 -275 192v15h234q86 -49 174 -138l258 146v-127l-180 -103q235 -294 235 -663z" />
    <glyph glyph-name="ntilde" unicode="&#xf1;" horiz-adv-x="1175" 
d="M446 1528q56 0 150 -36t133 -36q84 0 131 62l64 -101q-12 -27 -62 -59t-112 -31q-62 0 -158 37t-137 37q-84 0 -142 -60l-63 103q83 84 196 84zM1012 0h-160v731q0 127 -61 196t-169 69t-185 -57q-77 -56 -107 -142v-797h-160v1114h121l33 -117h8q37 45 120 93t197 47
q171 1 265 -93t98 -276v-768z" />
    <glyph glyph-name="ograve" unicode="&#xf2;" horiz-adv-x="1144" 
d="M168 1528l154 86l350 -262l-99 -74zM565 -18q-455 0 -455 576t468 577q457 0 456 -570q0 -272 -113 -428q-114 -155 -356 -155zM274 564q0 -224 73 -334t231 -110t226 105q68 103 66 329q0 226 -72 335q-73 109 -231 109q-157 0 -225 -106q-68 -104 -68 -328z" />
    <glyph glyph-name="oacute" unicode="&#xf3;" horiz-adv-x="1144" 
d="M969 1528l-406 -250l-98 74l348 262zM565 -18q-455 0 -455 576t468 577q457 0 456 -570q0 -272 -113 -428q-114 -155 -356 -155zM274 564q0 -224 73 -334t231 -110t226 105q68 103 66 329q0 226 -72 335q-73 109 -231 109q-157 0 -225 -106q-68 -104 -68 -328z" />
    <glyph glyph-name="ocircumflex" unicode="&#xf4;" horiz-adv-x="1144" 
d="M967 1370l-60 -94l-336 194l-333 -194l-60 94l393 256zM565 -18q-455 0 -455 576t468 577q457 0 456 -570q0 -272 -113 -428q-114 -155 -356 -155zM274 564q0 -224 73 -334t231 -110t226 105q68 103 66 329q0 226 -72 335q-73 109 -231 109q-157 0 -225 -106
q-68 -104 -68 -328z" />
    <glyph glyph-name="otilde" unicode="&#xf5;" horiz-adv-x="1144" 
d="M432 1528q56 0 150 -36t133 -36q84 0 131 62l63 -101q-12 -27 -62 -59q-51 -32 -111 -31q-60 0 -156 37t-140 37q-84 0 -141 -60l-63 103q83 84 196 84zM565 -18q-455 0 -455 576t468 577q457 0 456 -570q0 -272 -113 -428q-114 -155 -356 -155zM274 564q0 -224 73 -334
t231 -110t226 105q68 103 66 329q0 226 -72 335q-73 109 -231 109q-157 0 -225 -106q-68 -104 -68 -328z" />
    <glyph glyph-name="odieresis" unicode="&#xf6;" horiz-adv-x="1144" 
d="M668 1454q0 43 29 72q30 28 73 28t72 -28q28 -28 28 -72q0 -43 -28 -72q-28 -28 -72 -28q-43 0 -73 28q-29 29 -29 72zM276 1454q0 43 28 72q28 28 72 28t73 -28t29 -72q0 -43 -30 -72q-28 -28 -72 -28t-72 28t-28 72zM565 -18q-455 0 -455 576t468 577q457 0 456 -570
q0 -272 -113 -428q-114 -155 -356 -155zM274 564q0 -224 73 -334t231 -110t226 105q68 103 66 329q0 226 -72 335q-73 109 -231 109q-157 0 -225 -106q-68 -104 -68 -328z" />
    <glyph glyph-name="divide" unicode="&#xf7;" horiz-adv-x="1077" 
d="M418 328q0 49 34 84q34 34 84 34t85 -34t35 -85q0 -50 -36 -84q-34 -34 -84 -34t-84 35t-34 84zM418 1066q0 50 34 85t84 35t85 -35t35 -85t-36 -85q-34 -35 -84 -35t-84 35t-34 85zM61 625v141h955v-141h-955z" />
    <glyph glyph-name="oslash" unicode="&#xf8;" horiz-adv-x="1144" 
d="M565 997q-157 -1 -225 -105t-68 -304t45 -299l437 647q-68 61 -189 61zM578 121q158 1 226 105t68 298t-45 301l-436 -645q68 -59 187 -59zM565 -18q-160 0 -260 71l-49 -71h-143v6l100 147q-102 141 -102 420q0 580 467 580q162 0 264 -72l47 72h141v-7l-100 -147
q104 -141 104 -415t-113 -429q-114 -155 -356 -155z" />
    <glyph glyph-name="ugrave" unicode="&#xf9;" horiz-adv-x="1177" 
d="M182 1528l154 86l350 -262l-98 -74zM164 1114h160v-729q0 -270 243 -270q123 -1 201 69t80 199v731h160v-1114h-125l-31 117h-8q-35 -49 -115 -94t-203 -46q-354 0 -362 375v762z" />
    <glyph glyph-name="uacute" unicode="&#xfa;" horiz-adv-x="1177" 
d="M1010 1528l-406 -250l-98 74l348 262zM164 1114h160v-729q0 -270 243 -270q123 -1 201 69t80 199v731h160v-1114h-125l-31 117h-8q-35 -49 -115 -94t-203 -46q-354 0 -362 375v762z" />
    <glyph glyph-name="ucircumflex" unicode="&#xfb;" horiz-adv-x="1177" 
d="M983 1370l-59 -94l-336 194l-334 -194l-59 94l393 256zM164 1114h160v-729q0 -270 243 -270q123 -1 201 69t80 199v731h160v-1114h-125l-31 117h-8q-35 -49 -115 -94t-203 -46q-354 0 -362 375v762z" />
    <glyph glyph-name="udieresis" unicode="&#xfc;" horiz-adv-x="1177" 
d="M682 1454q0 43 30 72q30 28 72 28t72 -28q29 -28 29 -72q0 -43 -29 -72q-29 -28 -72 -28q-42 0 -72 28t-30 72zM291 1454q0 43 27 72q28 28 72 28t73 -28t29 -72q0 -43 -29 -72q-29 -28 -73 -28t-72 28q-27 29 -27 72zM164 1114h160v-729q0 -270 243 -270q123 -1 201 69
t80 199v731h160v-1114h-125l-31 117h-8q-35 -49 -115 -94t-203 -46q-354 0 -362 375v762z" />
    <glyph glyph-name="yacute" unicode="&#xfd;" horiz-adv-x="1019" 
d="M946 1528l-405 -250l-99 74l349 262zM182 -428q-74 0 -127 20l25 142q51 -18 104 -19q104 1 166 59t99 187l-404 1153h172l180 -547q84 -256 125 -405h8q31 137 115 405l172 547h166l-393 -1192q-58 -170 -152 -260t-256 -90z" />
    <glyph glyph-name="thorn" unicode="&#xfe;" horiz-adv-x="1142" 
d="M514 123q164 0 260 114q96 113 96 337t-86 318t-217 95q-65 0 -133 -31t-106 -84v-720q80 -29 186 -29zM1032 582q0 -278 -137 -439q-137 -162 -387 -161q-106 0 -180 24v-395h-158v1931h158v-514h8q92 98 276 98t302 -133t118 -411z" />
    <glyph glyph-name="ydieresis" unicode="&#xff;" horiz-adv-x="1019" 
d="M604 1454q0 43 30 72q30 28 73 28t71 -28t29 -72q0 -43 -29 -72q-30 -28 -72 -28t-72 28t-30 72zM213 1454q0 43 28 72q27 28 71 28t73 -28t29 -72q0 -43 -29 -72q-29 -28 -73 -28t-72 28t-27 72zM182 -428q-74 0 -127 20l25 142q51 -18 104 -19q104 1 166 59t99 187
l-404 1153h172l180 -547q84 -256 125 -405h8q31 137 115 405l172 547h166l-393 -1192q-58 -170 -152 -260t-256 -90z" />
    <glyph glyph-name="Amacron" unicode="&#x100;" horiz-adv-x="1216" 
d="M922 1702h-625v127h625v-127zM481 1436h254l465 -1436h-172l-133 418h-578l-133 -418h-168zM520 1051l-155 -488h483l-154 484q-10 33 -84 276h-8q-21 -71 -82 -272z" />
    <glyph glyph-name="amacron" unicode="&#x101;" horiz-adv-x="1116" 
d="M842 1368h-625v127h625v-127zM514 1130q379 0 379 -337v-504q0 -168 108 -168h29v-117q-23 -12 -57 -12q-156 0 -203 135h-8q-129 -150 -332 -150q-147 1 -234 89t-87 208q0 182 167 274q168 91 469 87v121q0 131 -59 183t-176 52q-170 0 -254 -135l-117 92
q133 182 375 182zM266 287q0 -76 53 -127t145 -51t164 44q74 44 117 107v250q-213 8 -346 -47t-133 -176z" />
    <glyph glyph-name="Abreve" unicode="&#x102;" horiz-adv-x="1216" 
d="M608 1642q-229 0 -346 199l107 68q19 -37 55 -73q68 -68 184 -71q162 0 240 144l106 -68q-117 -199 -346 -199zM481 1436h254l465 -1436h-172l-133 418h-578l-133 -418h-168zM520 1051l-155 -488h483l-154 484q-10 33 -84 276h-8q-21 -71 -82 -272z" />
    <glyph glyph-name="abreve" unicode="&#x103;" horiz-adv-x="1116" 
d="M532 1309q-229 0 -346 198l107 68q19 -37 55 -73q70 -70 184 -70q162 0 240 143l107 -68q-118 -198 -347 -198zM514 1130q379 0 379 -337v-504q0 -168 108 -168h29v-117q-23 -12 -57 -12q-156 0 -203 135h-8q-129 -150 -332 -150q-147 1 -234 89t-87 208q0 182 167 274
q168 91 469 87v121q0 131 -59 183t-176 52q-170 0 -254 -135l-117 92q133 182 375 182zM266 287q0 -76 53 -127t145 -51t164 44q74 44 117 107v250q-213 8 -346 -47t-133 -176z" />
    <glyph glyph-name="Aogonek" unicode="&#x104;" horiz-adv-x="1216" 
d="M1066 -496q-112 0 -174 62t-63 160q0 160 195 288l-129 404h-578l-133 -418h-168l465 1436h254l465 -1436q-88 -45 -160 -114t-71 -144q0 -119 149 -119q57 0 99 21l24 -115q-63 -25 -175 -25zM520 1051l-155 -488h483l-154 484q-10 33 -84 276h-8q-21 -71 -82 -272z" />
    <glyph glyph-name="aogonek" unicode="&#x105;" horiz-adv-x="1116" 
d="M514 1130q379 0 379 -337v-504q0 -168 108 -168h29v-107l6 -8q-88 -45 -160 -114t-71 -144q0 -119 149 -119q57 0 99 21l24 -115q-63 -25 -175 -25t-174 62q-62 61 -62 160q0 162 192 288q-61 33 -88 107h-8q-129 -150 -332 -150q-147 1 -234 89t-87 208q0 182 167 274
q168 91 469 87v121q0 131 -59 183t-176 52q-170 0 -254 -135l-117 92q133 182 375 182zM266 287q0 -76 53 -127t145 -51t164 44q74 44 117 107v250q-213 8 -346 -47t-133 -176z" />
    <glyph glyph-name="Cacute" unicode="&#x106;" horiz-adv-x="1165" 
d="M1096 1862l-406 -250l-98 74l348 262zM125 713q0 350 151 547q152 197 437 196q244 0 381 -119l-103 -125q-115 96 -301 96t-292 -144q-105 -146 -105 -440t106 -444t304 -151q198 0 290 88l90 -117q-125 -120 -403 -120t-416 192q-139 192 -139 541z" />
    <glyph glyph-name="cacute" unicode="&#x107;" horiz-adv-x="966" 
d="M954 1528l-405 -250l-98 74l348 262zM111 541q0 295 129 443t344 148t317 -116l-106 -117q-88 92 -220 92q-301 0 -301 -434t301 -434q139 0 218 88l98 -111q-104 -119 -330 -118q-450 0 -450 559z" />
    <glyph glyph-name="Ccircumflex" unicode="&#x108;" horiz-adv-x="1165" 
d="M1094 1704l-60 -94l-336 194l-333 -194l-60 94l393 256zM125 713q0 350 151 547q152 197 437 196q244 0 381 -119l-103 -125q-115 96 -301 96t-292 -144q-105 -146 -105 -440t106 -444t304 -151q198 0 290 88l90 -117q-125 -120 -403 -120t-416 192q-139 192 -139 541z
" />
    <glyph glyph-name="ccircumflex" unicode="&#x109;" horiz-adv-x="966" 
d="M932 1370l-60 -94l-335 194l-334 -194l-60 94l394 256zM111 541q0 295 129 443t344 148t317 -116l-106 -117q-88 92 -220 92q-301 0 -301 -434t301 -434q139 0 218 88l98 -111q-104 -119 -330 -118q-450 0 -450 559z" />
    <glyph glyph-name="Cdotaccent" unicode="&#x10a;" horiz-adv-x="1165" 
d="M580 1779q0 50 33 84q34 33 84 33t84 -34t34 -83q0 -50 -34 -84t-84 -34t-84 34q-33 34 -33 84zM125 713q0 350 151 547q152 197 437 196q244 0 381 -119l-103 -125q-115 96 -301 96t-292 -144q-105 -146 -105 -440t106 -444t304 -151q198 0 290 88l90 -117
q-125 -120 -403 -120t-416 192q-139 192 -139 541z" />
    <glyph glyph-name="cdotaccent" unicode="&#x10b;" horiz-adv-x="966" 
d="M455 1445q0 50 33 84q34 34 84 34t84 -34t34 -84t-34 -84t-84 -34t-84 34q-33 34 -33 84zM111 541q0 295 129 443t344 148t317 -116l-106 -117q-88 92 -220 92q-301 0 -301 -434t301 -434q139 0 218 88l98 -111q-104 -119 -330 -118q-450 0 -450 559z" />
    <glyph glyph-name="Ccaron" unicode="&#x10c;" horiz-adv-x="1165" 
d="M1077 1866l-395 -256l-393 256l59 94l334 -195l336 195zM125 713q0 350 151 547q152 197 437 196q244 0 381 -119l-103 -125q-115 96 -301 96t-292 -144q-105 -146 -105 -440t106 -444t304 -151q198 0 290 88l90 -117q-125 -120 -403 -120t-416 192q-139 192 -139 541z
" />
    <glyph glyph-name="ccaron" unicode="&#x10d;" horiz-adv-x="966" 
d="M950 1532l-395 -256l-393 256l59 94l334 -194l336 194zM111 541q0 295 129 443t344 148t317 -116l-106 -117q-88 92 -220 92q-301 0 -301 -434t301 -434q139 0 218 88l98 -111q-104 -119 -330 -118q-450 0 -450 559z" />
    <glyph glyph-name="Dcaron" unicode="&#x10e;" horiz-adv-x="1320" 
d="M1022 1866l-395 -256l-394 256l60 94l334 -195l336 195zM356 1290v-1145h209q239 1 351 133t112 439t-118 440t-355 133h-199zM193 0v1436h376q323 0 475 -171t152 -534q0 -731 -629 -731h-374z" />
    <glyph glyph-name="dcaron" unicode="&#x10f;" horiz-adv-x="1325" 
d="M557 115q186 0 260 180v653q-80 27 -170 27q-375 0 -375 -449q0 -217 80 -314t205 -97zM817 1554h158v-1554h-119l-35 113h-8q-37 -55 -114 -95t-177 -41q-196 1 -304 133t-108 412t144 436q143 156 385 156q86 0 178 -18v458zM1253 1276q0 92 -112 147v13q0 51 34 85
q34 33 90 33t97 -46t41 -146t-76 -192q-76 -90 -170 -123l-49 77q145 60 145 152z" />
    <glyph glyph-name="Dcroat" unicode="&#x110;" horiz-adv-x="1337" 
d="M369 1290v-481h329v-133h-329v-531h211q240 1 352 133t110 439q0 307 -117 440q-118 133 -356 133h-200zM207 0v676h-160v133h160v627h377q324 0 476 -171t150 -534q0 -731 -630 -731h-373z" />
    <glyph glyph-name="dcroat" unicode="&#x111;" horiz-adv-x="1148" 
d="M549 115q117 0 189 63t79 189v581q-80 27 -170 27q-375 0 -375 -449q0 -217 80 -314t197 -97zM817 1274h-366v112h366v168h158v-168h123v-112h-123v-1274l-117 -6l-37 119h-8q-37 -55 -114 -95t-177 -41q-196 1 -304 133t-108 412t144 436q143 156 385 156q86 0 178 -18
v178z" />
    <glyph glyph-name="Emacron" unicode="&#x112;" horiz-adv-x="1079" 
d="M893 1702h-625v127h625v-127zM983 0h-790v1436h761v-146h-598v-489h527v-146h-527v-510h627v-145z" />
    <glyph glyph-name="emacron" unicode="&#x113;" horiz-adv-x="1112" 
d="M868 1368h-624v127h624v-127zM569 995q-121 0 -205 -86t-94 -274h559q2 29 2 67q0 293 -262 293zM586 -14q-232 0 -354 136t-122 431t136 437q135 142 334 142t304 -116q105 -117 105 -320q0 -86 -12 -192h-709q10 -203 96 -291t257 -88q79 1 149 25t109 59l71 -123
q-132 -100 -364 -100z" />
    <glyph glyph-name="Ebreve" unicode="&#x114;" horiz-adv-x="1079" 
d="M573 1642q-229 0 -346 199l107 68q18 -37 54 -73q68 -68 185 -71q162 0 240 144l107 -68q-118 -199 -347 -199zM983 0h-790v1436h761v-146h-598v-489h527v-146h-527v-510h627v-145z" />
    <glyph glyph-name="ebreve" unicode="&#x115;" horiz-adv-x="1112" 
d="M555 1309q-229 0 -346 198l106 68q19 -37 55 -73q70 -70 185 -70q162 0 240 143l106 -68q-117 -198 -346 -198zM569 995q-121 0 -205 -86t-94 -274h559q2 29 2 67q0 293 -262 293zM586 -14q-232 0 -354 136t-122 431t136 437q135 142 334 142t304 -116q105 -117 105 -320
q0 -86 -12 -192h-709q10 -203 96 -291t257 -88q79 1 149 25t109 59l71 -123q-132 -100 -364 -100z" />
    <glyph glyph-name="Edotaccent" unicode="&#x116;" horiz-adv-x="1079" 
d="M455 1779q0 50 33 84q34 33 84 33t84 -34t34 -83q0 -50 -34 -84t-84 -34t-84 34q-33 34 -33 84zM983 0h-790v1436h761v-146h-598v-489h527v-146h-527v-510h627v-145z" />
    <glyph glyph-name="edotaccent" unicode="&#x117;" horiz-adv-x="1112" 
d="M438 1445q0 50 34 84t84 34t84 -34t34 -84t-34 -84t-84 -34t-84 34t-34 84zM569 995q-121 0 -205 -86t-94 -274h559q2 29 2 67q0 293 -262 293zM586 -14q-232 0 -354 136t-122 431t136 437q135 142 334 142t304 -116q105 -117 105 -320q0 -86 -12 -192h-709
q10 -203 96 -291t257 -88q79 1 149 25t109 59l71 -123q-132 -100 -364 -100z" />
    <glyph glyph-name="Eogonek" unicode="&#x118;" horiz-adv-x="1079" 
d="M849 -496q-112 0 -174 62t-63 160q0 150 172 274h-591v1436h761v-146h-598v-489h527v-146h-527v-510h627v-145q-88 -45 -160 -114t-71 -144q0 -119 149 -119q57 0 98 21l25 -115q-63 -25 -175 -25z" />
    <glyph glyph-name="eogonek" unicode="&#x119;" horiz-adv-x="1112" 
d="M569 995q-121 0 -205 -86t-94 -274h559q2 29 2 67q0 293 -262 293zM813 -326q57 0 98 21l25 -115q-63 -24 -175 -24t-174 61q-63 61 -63 167t97 202h-21q-246 0 -368 136t-122 431t136 437q135 142 334 142t304 -116q105 -117 105 -320q0 -86 -12 -192h-709
q10 -203 96 -291t257 -88q79 1 149 25t109 59l71 -123q-23 -18 -61 -39q-88 -45 -157 -113t-68 -141q0 -119 149 -119z" />
    <glyph glyph-name="Ecaron" unicode="&#x11a;" horiz-adv-x="1079" 
d="M934 1866l-395 -256l-394 256l60 94l334 -195l335 195zM983 0h-790v1436h761v-146h-598v-489h527v-146h-527v-510h627v-145z" />
    <glyph glyph-name="ecaron" unicode="&#x11b;" horiz-adv-x="1112" 
d="M948 1532l-395 -256l-393 256l59 94l334 -194l336 194zM569 995q-121 0 -205 -86t-94 -274h559q2 29 2 67q0 293 -262 293zM586 -14q-232 0 -354 136t-122 431t136 437q135 142 334 142t304 -116q105 -117 105 -320q0 -86 -12 -192h-709q10 -203 96 -291t257 -88
q79 1 149 25t109 59l71 -123q-132 -100 -364 -100z" />
    <glyph glyph-name="Gcircumflex" unicode="&#x11c;" horiz-adv-x="1302" 
d="M1118 1704l-59 -94l-336 194l-334 -194l-59 94l393 256zM738 1456q269 0 399 -123l-107 -125q-102 98 -287 98t-308 -112q-142 -129 -142 -456q0 -326 108 -471q109 -144 326 -144q168 0 252 57v549h164v-620q-158 -129 -444 -129q-574 0 -574 733q0 371 172 557t441 186
z" />
    <glyph glyph-name="gcircumflex" unicode="&#x11d;" horiz-adv-x="1140" 
d="M991 1370l-59 -94l-336 194l-334 -194l-59 94l393 256zM631 985q-166 0 -262 -111t-97 -325q0 -403 306 -404q152 0 235 109v700q-78 31 -182 31zM971 -8q0 -215 -122 -327q-121 -111 -353 -111t-351 118l93 127q104 -104 273 -104t237 73t67 224v102h-8
q-100 -88 -279 -88t-299 127q-119 127 -119 399t138 432q137 160 405 160q199 0 318 -57v-1075z" />
    <glyph glyph-name="Gbreve" unicode="&#x11e;" horiz-adv-x="1302" 
d="M705 1642q-229 0 -347 199l107 68q19 -37 55 -73q68 -68 185 -71q162 0 239 144l107 -68q-117 -199 -346 -199zM738 1456q269 0 399 -123l-107 -125q-102 98 -287 98t-308 -112q-142 -129 -142 -456q0 -326 108 -471q109 -144 326 -144q168 0 252 57v549h164v-620
q-158 -129 -444 -129q-574 0 -574 733q0 371 172 557t441 186z" />
    <glyph glyph-name="gbreve" unicode="&#x11f;" horiz-adv-x="1140" 
d="M596 1309q-229 0 -346 198l106 68q18 -37 54 -73q70 -70 186 -70q162 0 240 143l106 -68q-117 -198 -346 -198zM631 985q-166 0 -262 -111t-97 -325q0 -403 306 -404q152 0 235 109v700q-78 31 -182 31zM971 -8q0 -215 -122 -327q-121 -111 -353 -111t-351 118l93 127
q104 -104 273 -104t237 73t67 224v102h-8q-100 -88 -279 -88t-299 127q-119 127 -119 399t138 432q137 160 405 160q199 0 318 -57v-1075z" />
    <glyph glyph-name="Gdotaccent" unicode="&#x120;" horiz-adv-x="1302" 
d="M594 1779q0 50 34 84q34 33 84 33t84 -34t34 -83q0 -50 -34 -84t-84 -34t-84 34t-34 84zM738 1456q269 0 399 -123l-107 -125q-102 98 -287 98t-308 -112q-142 -129 -142 -456q0 -326 108 -471q109 -144 326 -144q168 0 252 57v549h164v-620q-158 -129 -444 -129
q-574 0 -574 733q0 371 172 557t441 186z" />
    <glyph glyph-name="gdotaccent" unicode="&#x121;" horiz-adv-x="1140" 
d="M617 1321q-49 0 -83 34t-34 84t34 84q34 33 84 33t83 -34q34 -34 34 -83q0 -50 -34 -84t-84 -34zM631 985q-166 0 -262 -111t-97 -325q0 -403 306 -404q152 0 235 109v700q-78 31 -182 31zM971 -8q0 -215 -122 -327q-121 -111 -353 -111t-351 118l93 127
q104 -104 273 -104t237 73t67 224v102h-8q-100 -88 -279 -88t-299 127q-119 127 -119 399t138 432q137 160 405 160q199 0 318 -57v-1075z" />
    <glyph glyph-name="uni0122" unicode="&#x122;" horiz-adv-x="1302" 
d="M738 1456q269 0 399 -123l-107 -125q-102 98 -287 98t-308 -112q-142 -129 -142 -456q0 -326 108 -471q109 -144 326 -144q168 0 252 57v549h164v-620q-158 -129 -444 -129q-574 0 -574 733q0 371 172 557t441 186zM731 -469q0 33 -19 59q-20 26 -40 40q-20 13 -60 34v10
q0 49 31 81t85 32t92 -44t38 -132t-57 -165t-135 -116l-41 64q106 53 106 137z" />
    <glyph glyph-name="uni0123" unicode="&#x123;" horiz-adv-x="1140" 
d="M631 985q-166 0 -262 -111t-97 -325q0 -403 306 -404q152 0 235 109v700q-78 31 -182 31zM971 -8q0 -215 -122 -327q-121 -111 -353 -111t-351 118l93 127q104 -104 273 -104t237 73t67 224v102h-8q-100 -88 -279 -88t-299 127q-119 127 -119 399t138 432
q137 160 405 160q199 0 318 -57v-1075zM762 1413q0 -51 -34 -85t-90 -34t-96 45t-40 147t74 191q74 90 167 123l50 -80q-143 -59 -144 -157q0 -45 28 -77t85 -61v-12z" />
    <glyph glyph-name="Hcircumflex" unicode="&#x124;" horiz-adv-x="1406" 
d="M1098 1704l-60 -94l-336 194l-333 -194l-60 94l393 256zM1051 1436h163v-1436h-163v653h-695v-653h-163v1436h163v-637h695v637z" />
    <glyph glyph-name="hcircumflex" unicode="&#x125;" horiz-adv-x="1175" 
d="M641 1690l-59 -95l-336 195l-334 -195l-59 95l393 256zM659 1133q162 -1 257 -97t96 -266v-770h-160v745q0 109 -58 178t-166 69t-186 -59q-80 -58 -112 -138v-795h-160v1554h160v-563h8q118 142 321 142z" />
    <glyph glyph-name="Hbar" unicode="&#x126;" horiz-adv-x="1433" 
d="M369 799h694v256h-694v-256zM1370 1055h-143v-1055h-164v653h-694v-653h-164v1055h-142v112h142v269h164v-269h694v269h164v-269h143v-112z" />
    <glyph glyph-name="hbar" unicode="&#x127;" horiz-adv-x="1181" 
d="M690 1274h-356v-283h8q119 141 322 142q162 -1 257 -97t95 -266v-770h-160v745q0 109 -58 178t-166 69t-186 -59q-80 -58 -112 -138v-795h-160v1274h-131v112h131v168h160v-168h356v-112z" />
    <glyph glyph-name="Itilde" unicode="&#x128;" horiz-adv-x="589" 
d="M154 1862q57 0 150 -36t132 -36q84 0 131 61l64 -100q-13 -27 -63 -59t-110 -31q-60 0 -157 37q-96 37 -139 37q-84 0 -142 -60l-63 103q84 84 197 84zM213 0v1436h164v-1436h-164z" />
    <glyph glyph-name="itilde" unicode="&#x129;" horiz-adv-x="591" 
d="M156 1528q57 0 150 -36t132 -36q84 0 131 62l64 -101q-13 -27 -63 -59t-110 -31q-60 0 -158 37q-97 37 -138 37q-84 0 -141 -60l-64 103q84 84 197 84zM223 0v1114h160v-1114h-160z" />
    <glyph glyph-name="Imacron" unicode="&#x12a;" horiz-adv-x="589" 
d="M608 1702h-624v127h624v-127zM213 0v1436h164v-1436h-164z" />
    <glyph glyph-name="imacron" unicode="&#x12b;" horiz-adv-x="591" 
d="M608 1368h-624v127h624v-127zM223 0v1114h160v-1114h-160z" />
    <glyph glyph-name="Ibreve" unicode="&#x12c;" horiz-adv-x="589" 
d="M295 1642q-229 0 -346 199l106 68q19 -37 55 -73q69 -69 185 -71q162 0 240 144l106 -68q-117 -199 -346 -199zM213 0v1436h164v-1436h-164z" />
    <glyph glyph-name="ibreve" unicode="&#x12d;" horiz-adv-x="591" 
d="M297 1309q-229 0 -346 198l106 68q19 -37 55 -73q70 -70 185 -70q162 0 240 143l106 -68q-117 -198 -346 -198zM223 0v1114h160v-1114h-160z" />
    <glyph glyph-name="Iogonek" unicode="&#x12e;" horiz-adv-x="589" 
d="M243 -496q-112 0 -174 62t-63 160q0 166 207 297v1413h164v-1436q-88 -45 -160 -114t-72 -144q0 -119 150 -119q57 0 98 21l25 -115q-63 -25 -175 -25z" />
    <glyph glyph-name="iogonek" unicode="&#x12f;" horiz-adv-x="591" 
d="M249 -496q-112 0 -174 62t-63 160q0 170 211 299v1089h160v-1114q-88 -45 -160 -114t-71 -144q0 -119 149 -119q57 0 98 21l25 -115q-63 -25 -175 -25zM178 1441q0 50 34 83q34 32 83 32t83 -32t34 -83q0 -50 -34 -83t-83 -33t-83 33t-34 83z" />
    <glyph glyph-name="Idotaccent" unicode="&#x130;" horiz-adv-x="589" 
d="M178 1779q0 50 34 84q34 33 84 33t84 -34t34 -83q0 -50 -34 -84t-84 -34t-84 34t-34 84zM213 0v1436h164v-1436h-164z" />
    <glyph glyph-name="dotlessi" unicode="&#x131;" horiz-adv-x="591" 
d="M223 0v1114h160v-1114h-160z" />
    <glyph glyph-name="IJ" unicode="&#x132;" horiz-adv-x="1382" 
d="M845 121q103 0 143 43t40 137v1135h162v-1139q0 -145 -84 -235t-244 -89q-160 0 -254 45l54 150q80 -47 183 -47zM213 0v1436h164v-1436h-164z" />
    <glyph glyph-name="ij" unicode="&#x133;" horiz-adv-x="1110" 
d="M729 1441q0 50 33 83q33 32 83 32t83 -32t33 -83q0 -50 -33 -83t-83 -33t-83 33t-33 83zM772 74v1040h160v-1044q0 -419 -338 -523l-55 134q113 39 173 121t60 272zM178 1441q0 50 34 83q34 32 83 32t83 -32t34 -83q0 -50 -34 -83t-83 -33t-83 33t-34 83zM223 0v1114h160
v-1114h-160z" />
    <glyph glyph-name="Jcircumflex" unicode="&#x134;" horiz-adv-x="794" 
d="M909 1704l-59 -94l-336 194l-334 -194l-59 94l393 256zM255 121q103 0 143 43t40 137v1135h162v-1139q0 -145 -84 -235t-244 -89q-160 0 -254 45l54 150q80 -47 183 -47z" />
    <glyph glyph-name="jcircumflex" unicode="&#x135;" horiz-adv-x="550" 
d="M674 1370l-60 -94l-335 194l-334 -194l-60 94l394 256zM197 1114h159v-1059q0 -418 -338 -522l-55 133q113 39 173 122t61 271v1055z" />
    <glyph glyph-name="uni0136" unicode="&#x136;" horiz-adv-x="1183" 
d="M410 719l505 717h191l-510 -717l557 -719h-209l-534 711v8zM356 1436v-1436h-163v1436h163zM506 -322q0 49 31 81t85 32t92 -44t38 -132t-56 -165t-135 -116l-43 64q106 51 107 139q1 31 -19 57t-40 40q-20 13 -60 34v10z" />
    <glyph glyph-name="uni0137" unicode="&#x137;" horiz-adv-x="1026" 
d="M360 571v9l400 534h198l-411 -530v-9l436 -575h-203zM330 1554v-1554h-160v1554h160zM543 -463q0 45 -31 74t-90 57v10q0 47 32 80t86 33t91 -44t37 -132t-56 -165t-135 -116l-43 64q109 53 109 139z" />
    <glyph glyph-name="kgreenlandic" unicode="&#x138;" horiz-adv-x="1026" 
d="M371 532v9l389 573h192l-397 -565v-8l428 -541h-203zM170 1114h160v-1114h-160v1114z" />
    <glyph glyph-name="Lacute" unicode="&#x139;" horiz-adv-x="1005" 
d="M692 1862l-405 -250l-99 74l349 262zM193 1436h163v-1291h617v-145h-780v1436z" />
    <glyph glyph-name="lacute" unicode="&#x13a;" horiz-adv-x="589" 
d="M664 1888l-406 -250l-98 74l348 262zM340 264q0 -141 110 -141q54 0 99 22v-135q-55 -24 -153 -24t-156 61q-57 61 -58 174v1333h158v-1290z" />
    <glyph glyph-name="uni013B" unicode="&#x13b;" horiz-adv-x="1005" 
d="M193 1436h163v-1291h617v-145h-780v1436zM449 -322q0 47 31 80q32 33 86 33t91 -44t37 -132t-56 -165t-134 -116l-43 64q109 53 108 139q0 45 -30 74q-31 29 -90 57v10z" />
    <glyph glyph-name="uni013C" unicode="&#x13c;" horiz-adv-x="593" 
d="M340 264q0 -141 110 -141q54 0 99 22v-135q-55 -24 -153 -24t-156 61q-57 61 -58 174v1333h158v-1290zM213 -322q0 49 31 81t85 32t92 -44t38 -132q-1 -88 -57 -165t-134 -116l-43 64q106 51 107 139q0 31 -20 57t-40 40q-20 13 -59 34v10z" />
    <glyph glyph-name="Lcaron" unicode="&#x13d;" horiz-adv-x="1005" 
d="M193 1436h163v-1291h617v-145h-780v1436zM645 1208q0 47 -27 78t-86 60v14q0 49 35 84t91 35t96 -46q40 -45 41 -147q0 -102 -75 -193t-169 -124l-51 80q145 61 145 159z" />
    <glyph glyph-name="lcaron" unicode="&#x13e;" horiz-adv-x="739" 
d="M340 264q0 -141 110 -141q54 0 99 22v-135q-55 -24 -153 -24t-156 61q-57 61 -58 174v1333h158v-1290zM643 1280q0 81 -113 137v15q0 51 35 85q35 33 91 33t96 -46t41 -146q0 -100 -76 -193q-76 -92 -168 -125l-51 80q145 61 145 160z" />
    <glyph glyph-name="Ldot" unicode="&#x13f;" horiz-adv-x="1005" 
d="M193 1436h163v-1291h617v-145h-780v1436zM598 773q0 50 35 86t86 36t87 -36t36 -86t-37 -85t-87 -35t-85 35t-35 85z" />
    <glyph glyph-name="ldot" unicode="&#x140;" horiz-adv-x="786" 
d="M340 264q0 -141 110 -141q54 0 99 22v-135q-55 -24 -153 -24t-156 61q-57 61 -58 174v1333h158v-1290zM555 820q0 50 35 86t85 36t86 -35t36 -86t-36 -86t-86 -35t-85 35t-35 85z" />
    <glyph glyph-name="Lslash" unicode="&#x141;" horiz-adv-x="1015" 
d="M369 145h616v-145h-780v594l-127 -92v139l127 92v703h164v-584l288 211v-137l-288 -211v-570z" />
    <glyph glyph-name="lslash" unicode="&#x142;" horiz-adv-x="614" 
d="M350 264q0 -141 110 -141q54 0 99 22v-135q-55 -24 -153 -24t-156 61q-57 61 -57 174v422l-115 -88v137l115 88v774h157v-651l203 158v-137l-203 -158v-502z" />
    <glyph glyph-name="Nacute" unicode="&#x143;" horiz-adv-x="1431" 
d="M1145 1862l-406 -250l-98 74l348 262zM350 860v-860h-155v1436h229l483 -910q113 -213 166 -323h14q-4 131 -4 385v848h154v-1436h-225l-488 915q-68 123 -164 326h-16q6 -184 6 -381z" />
    <glyph glyph-name="nacute" unicode="&#x144;" horiz-adv-x="1175" 
d="M1020 1528l-406 -250l-98 74l348 262zM1012 0h-160v731q0 127 -61 196t-169 69t-185 -57q-77 -56 -107 -142v-797h-160v1114h121l33 -117h8q37 45 120 93t197 47q171 1 265 -93t98 -276v-768z" />
    <glyph glyph-name="uni0145" unicode="&#x145;" horiz-adv-x="1431" 
d="M350 860v-860h-155v1436h229l483 -910q113 -213 166 -323h14q-4 131 -4 385v848h154v-1436h-225l-488 915q-68 123 -164 326h-16q6 -184 6 -381zM715 -463q0 45 -31 74t-90 57v10q0 47 32 80t86 33t91 -44t37 -132t-56 -165t-135 -116l-43 64q109 53 109 139z" />
    <glyph glyph-name="uni0146" unicode="&#x146;" horiz-adv-x="1175" 
d="M1012 0h-160v731q0 127 -61 196t-169 69t-185 -57q-77 -56 -107 -142v-797h-160v1114h121l33 -117h8q37 45 120 93t197 47q171 1 265 -93t98 -276v-768zM467 -322q0 49 31 81t85 32t92 -44t38 -132q-1 -88 -57 -165t-134 -116l-43 64q106 51 107 139q0 31 -20 57t-40 40
q-20 13 -59 34v10z" />
    <glyph glyph-name="Ncaron" unicode="&#x147;" horiz-adv-x="1431" 
d="M1110 1866l-395 -256l-393 256l59 94l334 -195l336 195zM350 860v-860h-155v1436h229l483 -910q113 -213 166 -323h14q-4 131 -4 385v848h154v-1436h-225l-488 915q-68 123 -164 326h-16q6 -184 6 -381z" />
    <glyph glyph-name="ncaron" unicode="&#x148;" horiz-adv-x="1175" 
d="M981 1532l-395 -256l-393 256l59 94l334 -194l336 194zM1012 0h-160v731q0 127 -61 196t-169 69t-185 -57q-77 -56 -107 -142v-797h-160v1114h121l33 -117h8q37 45 120 93t197 47q171 1 265 -93t98 -276v-768z" />
    <glyph glyph-name="napostrophe" unicode="&#x149;" horiz-adv-x="1398" 
d="M1235 0h-160v731q0 127 -61 196q-60 69 -168 69t-186 -57q-78 -56 -107 -142v-797h-160v1114h121l33 -117h8q37 45 120 93t197 47q170 1 264 -93t99 -276v-768zM18 1372q0 53 36 88t96 35t101 -48q42 -49 42 -153t-79 -200t-177 -129l-53 82q152 66 151 167q0 49 -27 81
q-28 32 -90 63v14z" />
    <glyph glyph-name="Eng" unicode="&#x14a;" horiz-adv-x="1431" 
d="M350 858v-858h-155v1436h229l483 -910q113 -213 166 -323h14q-4 131 -4 381v852h154v-1381q0 -418 -338 -522l-55 133q102 35 164 108q61 73 71 226h-67l-488 915q-68 123 -164 326h-16q6 -184 6 -383z" />
    <glyph glyph-name="eng" unicode="&#x14b;" horiz-adv-x="1181" 
d="M852 59v672q0 129 -60 197t-169 68t-187 -58q-78 -57 -106 -141v-797h-160v1114h121l33 -117h8q37 45 120 93t197 47q170 1 264 -93t99 -276v-713q0 -418 -338 -522l-56 133q113 39 174 122q60 83 60 271z" />
    <glyph glyph-name="Omacron" unicode="&#x14c;" horiz-adv-x="1363" 
d="M999 1702h-624v127h624v-127zM690 1456q549 0 549 -738t-565 -738q-266 0 -408 174q-141 174 -141 557q0 745 565 745zM293 722q0 -320 101 -457q100 -138 290 -138t289 133q98 133 98 453q0 319 -101 457q-100 138 -290 138t-289 -132q-98 -134 -98 -454z" />
    <glyph glyph-name="omacron" unicode="&#x14d;" horiz-adv-x="1144" 
d="M885 1368h-625v127h625v-127zM565 -18q-455 0 -455 576t468 577q457 0 456 -570q0 -272 -113 -428q-114 -155 -356 -155zM274 564q0 -224 73 -334t231 -110t226 105q68 103 66 329q0 226 -72 335q-73 109 -231 109q-157 0 -225 -106q-68 -104 -68 -328z" />
    <glyph glyph-name="Obreve" unicode="&#x14e;" horiz-adv-x="1363" 
d="M688 1642q-229 0 -346 199l107 68q19 -37 55 -73q68 -68 184 -71q162 0 240 144l106 -68q-117 -199 -346 -199zM690 1456q549 0 549 -738t-565 -738q-266 0 -408 174q-141 174 -141 557q0 745 565 745zM293 722q0 -320 101 -457q100 -138 290 -138t289 133q98 133 98 453
q0 319 -101 457q-100 138 -290 138t-289 -132q-98 -134 -98 -454z" />
    <glyph glyph-name="obreve" unicode="&#x14f;" horiz-adv-x="1144" 
d="M573 1309q-229 0 -346 198l107 68q18 -37 54 -73q70 -70 185 -70q162 0 240 143l107 -68q-118 -198 -347 -198zM565 -18q-455 0 -455 576t468 577q457 0 456 -570q0 -272 -113 -428q-114 -155 -356 -155zM274 564q0 -224 73 -334t231 -110t226 105q68 103 66 329
q0 226 -72 335q-73 109 -231 109q-157 0 -225 -106q-68 -104 -68 -328z" />
    <glyph glyph-name="Ohungarumlaut" unicode="&#x150;" horiz-adv-x="1363" 
d="M881 1860l-392 -258l-94 77l353 273zM1319 1839l-408 -237l-84 86l369 251zM690 1456q549 0 549 -738t-565 -738q-266 0 -408 174q-141 174 -141 557q0 745 565 745zM293 722q0 -320 101 -457q100 -138 290 -138t289 133q98 133 98 453q0 319 -101 457q-100 138 -290 138
t-289 -132q-98 -134 -98 -454z" />
    <glyph glyph-name="ohungarumlaut" unicode="&#x151;" horiz-adv-x="1144" 
d="M727 1526l-391 -258l-94 78l352 272zM1165 1505l-407 -237l-84 86l368 252zM565 -18q-455 0 -455 576t468 577q457 0 456 -570q0 -272 -113 -428q-114 -155 -356 -155zM274 564q0 -224 73 -334t231 -110t226 105q68 103 66 329q0 226 -72 335q-73 109 -231 109
q-157 0 -225 -106q-68 -104 -68 -328z" />
    <glyph glyph-name="OE" unicode="&#x152;" horiz-adv-x="1972" 
d="M293 724q0 -318 103 -458q102 -140 294 -139q192 0 295 133q102 134 102 452t-105 457q-104 139 -296 139t-293 -132q-100 -134 -100 -452zM1876 0h-778v180h-8q-119 -201 -412 -200q-553 0 -553 731q0 383 150 564q151 181 427 181t388 -188h8v168h749v-146h-602v-489
h529v-146h-529v-510h631v-145z" />
    <glyph glyph-name="oe" unicode="&#x153;" horiz-adv-x="1871" 
d="M1331 995q-123 0 -205 -81t-96 -269v-12h559q2 27 2 63q0 145 -68 223q-69 76 -192 76zM565 997q-155 -1 -223 -105t-68 -328t73 -334t233 -110t228 106q68 105 66 339q0 432 -309 432zM565 -18q-455 0 -455 576t468 577q281 0 372 -217h11q111 215 380 215
q197 0 303 -118t107 -323q0 -76 -12 -190h-711l2 -10q14 -197 102 -282t254 -85t275 100l78 -125q-125 -115 -373 -114q-310 0 -412 215h-8q-109 -219 -381 -219z" />
    <glyph glyph-name="Racute" unicode="&#x154;" horiz-adv-x="1218" 
d="M983 1862l-405 -250l-99 74l348 262zM356 1290v-553h185q324 0 323 277q0 147 -83 212t-251 64h-174zM193 1436h360q479 0 479 -404q0 -168 -93 -272t-230 -119v-8q90 -41 174 -184l264 -449h-195l-260 459q-80 137 -223 137h-113v-596h-163v1436z" />
    <glyph glyph-name="racute" unicode="&#x155;" horiz-adv-x="739" 
d="M635 1528l-406 -250l-98 74l348 262zM328 0h-158v1114h121l35 -123h8q38 63 112 103t157 38q83 0 124 -10v-166q-55 16 -134 16t-153 -35q-74 -36 -112 -108v-829z" />
    <glyph glyph-name="uni0156" unicode="&#x156;" horiz-adv-x="1218" 
d="M356 1290v-553h185q324 0 323 277q0 147 -83 212t-251 64h-174zM193 1436h360q479 0 479 -404q0 -168 -93 -272t-230 -119v-8q90 -41 174 -184l264 -449h-195l-260 459q-80 137 -223 137h-113v-596h-163v1436zM643 -463q0 31 -19 57q-20 26 -40 40q-20 13 -60 34v10
q0 49 31 81t85 32t92 -44t38 -132t-57 -165t-135 -116l-41 64q106 53 106 139z" />
    <glyph glyph-name="uni0157" unicode="&#x157;" horiz-adv-x="729" 
d="M328 0h-158v1114h121l35 -123h8q38 63 112 103t157 38q83 0 124 -10v-166q-55 16 -134 16t-153 -35q-74 -36 -112 -108v-829zM246 -463q0 45 -31 74t-90 57v10q0 47 32 80t86 33t92 -44t38 -131q1 -87 -57 -165t-136 -117l-43 64q109 53 109 139z" />
    <glyph glyph-name="Rcaron" unicode="&#x158;" horiz-adv-x="1218" 
d="M1004 1866l-396 -256l-393 256l59 94l334 -195l336 195zM356 1290v-553h185q324 0 323 277q0 147 -83 212t-251 64h-174zM193 1436h360q479 0 479 -404q0 -168 -93 -272t-230 -119v-8q90 -41 174 -184l264 -449h-195l-260 459q-80 137 -223 137h-113v-596h-163v1436z" />
    <glyph glyph-name="rcaron" unicode="&#x159;" horiz-adv-x="739" 
d="M772 1532l-395 -256l-393 256l59 94l334 -194l336 194zM328 0h-158v1114h121l35 -123h8q38 63 112 103t157 38q83 0 124 -10v-166q-55 16 -134 16t-153 -35q-74 -36 -112 -108v-829z" />
    <glyph glyph-name="Sacute" unicode="&#x15a;" horiz-adv-x="1091" 
d="M993 1862l-405 -250l-99 74l349 262zM526 127q141 0 220 68t79 181t-136 193q-60 35 -133 68q-191 86 -278 153q-137 105 -137 275t126 281q126 110 334 110t355 -121l-100 -127q-124 98 -264 98t-212 -62t-73 -163q0 -124 136 -208q59 -37 133 -69t146 -69t133 -82
q60 -45 98 -115t38 -161q0 -170 -128 -284t-351 -113q-281 0 -449 151l97 131q163 -135 366 -135z" />
    <glyph glyph-name="sacute" unicode="&#x15b;" horiz-adv-x="970" 
d="M915 1528l-405 -250l-98 74l348 262zM694 292q0 73 -58 118q-58 46 -140 74t-165 62t-142 103q-58 69 -58 185t103 207t297 91t307 -118l-103 -111q-86 90 -211 90t-180 -47t-55 -117q0 -71 58 -115t140 -73t165 -63q84 -34 142 -104t58 -186t-104 -211t-293 -95
q-129 0 -233 41t-161 100l99 119q119 -123 303 -123q111 0 171 50t60 123z" />
    <glyph glyph-name="Scircumflex" unicode="&#x15c;" horiz-adv-x="1091" 
d="M944 1704l-59 -94l-336 194l-334 -194l-59 94l393 256zM526 127q141 0 220 68t79 181t-136 193q-60 35 -133 68q-191 86 -278 153q-137 105 -137 275t126 281q126 110 334 110t355 -121l-100 -127q-124 98 -264 98t-212 -62t-73 -163q0 -124 136 -208q59 -37 133 -69
t146 -69t133 -82q60 -45 98 -115t38 -161q0 -170 -128 -284t-351 -113q-281 0 -449 151l97 131q163 -135 366 -135z" />
    <glyph glyph-name="scircumflex" unicode="&#x15d;" horiz-adv-x="970" 
d="M881 1370l-60 -94l-336 194l-333 -194l-60 94l393 256zM694 292q0 73 -58 118q-58 46 -140 74t-165 62t-142 103q-58 69 -58 185t103 207t297 91t307 -118l-103 -111q-86 90 -211 90t-180 -47t-55 -117q0 -71 58 -115t140 -73t165 -63q84 -34 142 -104t58 -186t-104 -211
t-293 -95q-129 0 -233 41t-161 100l99 119q119 -123 303 -123q111 0 171 50t60 123z" />
    <glyph glyph-name="uni015E" unicode="&#x15e;" horiz-adv-x="1091" 
d="M653 -236q0 -180 -200 -249l-56 86q119 57 119 157q0 66 -47 129v9h147q37 -54 37 -132zM526 127q141 0 220 68t79 181t-136 193q-60 35 -133 68q-191 86 -278 153q-137 105 -137 275t126 281q126 110 334 110t355 -121l-100 -127q-124 98 -264 98t-212 -62t-73 -163
q0 -124 136 -208q59 -37 133 -69t146 -69t133 -82q60 -45 98 -115t38 -161q0 -170 -128 -284t-351 -113q-281 0 -449 151l97 131q163 -135 366 -135z" />
    <glyph glyph-name="uni015F" unicode="&#x15f;" horiz-adv-x="970" 
d="M598 -236q0 -180 -201 -249l-55 86q119 57 119 157q0 66 -47 129v9h147q37 -54 37 -132zM694 292q0 73 -58 118q-58 46 -140 74t-165 62t-142 103q-58 69 -58 185t103 207t297 91t307 -118l-103 -111q-86 90 -211 90t-180 -47t-55 -117q0 -71 58 -115t140 -73t165 -63
q84 -34 142 -104t58 -186t-104 -211t-293 -95q-129 0 -233 41t-161 100l99 119q119 -123 303 -123q111 0 171 50t60 123z" />
    <glyph glyph-name="Scaron" unicode="&#x160;" horiz-adv-x="1091" 
d="M963 1866l-396 -256l-393 256l59 94l334 -195l336 195zM526 127q141 0 220 68t79 181t-136 193q-60 35 -133 68q-191 86 -278 153q-137 105 -137 275t126 281q126 110 334 110t355 -121l-100 -127q-124 98 -264 98t-212 -62t-73 -163q0 -124 136 -208q59 -37 133 -69
t146 -69t133 -82q60 -45 98 -115t38 -161q0 -170 -128 -284t-351 -113q-281 0 -449 151l97 131q163 -135 366 -135z" />
    <glyph glyph-name="scaron" unicode="&#x161;" horiz-adv-x="970" 
d="M879 1532l-396 -256l-393 256l60 94l333 -194l336 194zM694 292q0 73 -58 118q-58 46 -140 74t-165 62t-142 103q-58 69 -58 185t103 207t297 91t307 -118l-103 -111q-86 90 -211 90t-180 -47t-55 -117q0 -71 58 -115t140 -73t165 -63q84 -34 142 -104t58 -186t-104 -211
t-293 -95q-129 0 -233 41t-161 100l99 119q119 -123 303 -123q111 0 171 50t60 123z" />
    <glyph glyph-name="uni0162" unicode="&#x162;" horiz-adv-x="976" 
d="M408 0v1290h-383v146h927v-146h-381v-1290h-163zM485 -463q0 31 -19 57q-20 26 -40 40q-20 13 -59 34v10q0 49 30 81q31 32 85 32t92 -44t38 -132t-56 -165t-134 -116l-43 64q106 51 106 139z" />
    <glyph glyph-name="uni0163" unicode="&#x163;" horiz-adv-x="780" 
d="M489 -10q-285 0 -284 307v688h-166v102l166 31l49 289h108v-293h308v-129h-308v-680q0 -176 162 -176q109 0 170 39l45 -127q-90 -51 -250 -51zM387 -463q0 31 -19 57q-20 26 -40 40q-20 13 -60 34v10q0 49 31 81t85 32t92 -44t38 -132t-56 -165t-134 -116l-43 64
q106 51 106 139z" />
    <glyph glyph-name="Tcaron" unicode="&#x164;" horiz-adv-x="976" 
d="M883 1866l-396 -256l-393 256l60 94l333 -195l336 195zM408 0v1290h-383v146h927v-146h-381v-1290h-163z" />
    <glyph glyph-name="tcaron" unicode="&#x165;" horiz-adv-x="784" 
d="M489 -10q-285 0 -284 307v688h-166v102l166 31l49 289h108v-293h308v-129h-308v-680q0 -176 162 -176q109 0 170 39l45 -127q-90 -51 -250 -51zM522 1632q0 49 35 84t91 35t96 -46q40 -45 40 -147t-74 -193t-169 -124l-52 80q145 61 146 158q0 47 -27 79t-86 60v14z" />
    <glyph glyph-name="Tbar" unicode="&#x166;" horiz-adv-x="985" 
d="M817 664h-242v-664h-163v664h-244v122h244v504h-383v146h927v-146h-381v-504h242v-122z" />
    <glyph glyph-name="tbar" unicode="&#x167;" horiz-adv-x="780" 
d="M489 -10q-285 0 -284 307v309h-166v103l166 32v244h-166v102l166 31l49 289h108v-293h308v-129h-308v-248h304v-131h-304v-301q0 -176 162 -176q109 0 170 39l45 -127q-90 -51 -250 -51z" />
    <glyph glyph-name="Utilde" unicode="&#x168;" horiz-adv-x="1392" 
d="M555 1862q57 0 151 -36t132 -36q84 0 131 61l63 -100q-12 -27 -62 -59t-110 -31q-60 0 -158 37q-96 37 -139 37q-84 0 -141 -60l-64 103q84 84 197 84zM702 127q340 0 340 352v957h164v-936q0 -254 -138 -387t-381 -133t-372 131t-129 364v961h164v-936q0 -188 93 -280
t259 -93z" />
    <glyph glyph-name="utilde" unicode="&#x169;" horiz-adv-x="1177" 
d="M449 1528q57 0 150 -36t132 -36q84 0 131 62l64 -101q-12 -27 -62 -59t-112 -31q-60 0 -156 37t-139 37q-84 0 -142 -60l-63 103q84 84 197 84zM164 1114h160v-729q0 -270 243 -270q123 -1 201 69t80 199v731h160v-1114h-125l-31 117h-8q-35 -49 -115 -94t-203 -46
q-354 0 -362 375v762z" />
    <glyph glyph-name="Umacron" unicode="&#x16a;" horiz-adv-x="1392" 
d="M1008 1702h-625v127h625v-127zM702 127q340 0 340 352v957h164v-936q0 -254 -138 -387t-381 -133t-372 131t-129 364v961h164v-936q0 -188 93 -280t259 -93z" />
    <glyph glyph-name="umacron" unicode="&#x16b;" horiz-adv-x="1177" 
d="M899 1368h-625v127h625v-127zM164 1114h160v-729q0 -270 243 -270q123 -1 201 69t80 199v731h160v-1114h-125l-31 117h-8q-35 -49 -115 -94t-203 -46q-354 0 -362 375v762z" />
    <glyph glyph-name="Ubreve" unicode="&#x16c;" horiz-adv-x="1392" 
d="M696 1642q-229 0 -346 199l107 68q19 -37 55 -73q68 -68 184 -71q162 0 240 144l106 -68q-117 -199 -346 -199zM702 127q340 0 340 352v957h164v-936q0 -254 -138 -387t-381 -133t-372 131t-129 364v961h164v-936q0 -188 93 -280t259 -93z" />
    <glyph glyph-name="ubreve" unicode="&#x16d;" horiz-adv-x="1177" 
d="M588 1309q-229 0 -346 198l106 68q18 -37 54 -73q70 -70 186 -70q162 0 239 143l107 -68q-117 -198 -346 -198zM164 1114h160v-729q0 -270 243 -270q123 -1 201 69t80 199v731h160v-1114h-125l-31 117h-8q-35 -49 -115 -94t-203 -46q-354 0 -362 375v762z" />
    <glyph glyph-name="Uring" unicode="&#x16e;" horiz-adv-x="1392" 
d="M815 1797q0 56 -33 90t-89 34t-88 -33t-32 -88t34 -90t90 -35t87 33t31 89zM473 1793q1 97 63 159t162 63q100 0 160 -57q60 -56 62 -154q0 -98 -64 -160t-164 -62t-160 56q-59 58 -59 155zM702 127q340 0 340 352v957h164v-936q0 -254 -138 -387t-381 -133t-372 131
t-129 364v961h164v-936q0 -188 93 -280t259 -93z" />
    <glyph glyph-name="uring" unicode="&#x16f;" horiz-adv-x="1177" 
d="M709 1463q0 56 -33 90t-89 34t-88 -33t-32 -88t34 -90t90 -35t87 33t31 89zM367 1459q0 97 62 159q63 62 163 63q100 0 160 -57q60 -56 61 -154q0 -98 -63 -160q-64 -62 -164 -62t-160 56q-60 58 -59 155zM164 1114h160v-729q0 -270 243 -270q123 -1 201 69t80 199v731
h160v-1114h-125l-31 117h-8q-35 -49 -115 -94t-203 -46q-354 0 -362 375v762z" />
    <glyph glyph-name="Uhungarumlaut" unicode="&#x170;" horiz-adv-x="1392" 
d="M864 1860l-391 -258l-94 77l352 273zM1303 1839l-408 -237l-84 86l369 251zM702 127q340 0 340 352v957h164v-936q0 -254 -138 -387t-381 -133t-372 131t-129 364v961h164v-936q0 -188 93 -280t259 -93z" />
    <glyph glyph-name="uhungarumlaut" unicode="&#x171;" horiz-adv-x="1177" 
d="M764 1526l-391 -258l-94 78l352 272zM1202 1505l-407 -237l-84 86l368 252zM164 1114h160v-729q0 -270 243 -270q123 -1 201 69t80 199v731h160v-1114h-125l-31 117h-8q-35 -49 -115 -94t-203 -46q-354 0 -362 375v762z" />
    <glyph glyph-name="Uogonek" unicode="&#x172;" horiz-adv-x="1392" 
d="M702 127q340 0 340 352v957h164v-936q0 -369 -282 -480q-90 -46 -159 -114t-69 -142q0 -119 150 -118q57 0 98 20l25 -115q-63 -25 -175 -25t-174 62q-62 61 -62 172t118 220q-236 2 -363 133t-127 362v961h164v-936q0 -188 93 -280t259 -93z" />
    <glyph glyph-name="uogonek" unicode="&#x173;" horiz-adv-x="1177" 
d="M874 -496q-112 0 -174 62t-63 160q0 174 235 315l-20 76h-8q-35 -49 -115 -94t-203 -46q-354 0 -362 375v762h160v-729q0 -270 243 -270q123 -1 201 69t80 199v731h160v-1114q-88 -45 -160 -114t-72 -144q0 -119 150 -119q57 0 98 21l25 -115q-63 -25 -175 -25z" />
    <glyph glyph-name="Wcircumflex" unicode="&#x174;" horiz-adv-x="1896" 
d="M1341 1704l-59 -94l-336 194l-334 -194l-59 94l393 256zM510 156h8q16 76 88 366l225 914h236l233 -924q45 -172 86 -354h9q53 236 88 370l231 908h162l-369 -1436h-237l-230 918q-33 129 -90 370h-8q-41 -193 -84 -358l-233 -930h-236l-371 1436h170l230 -889
q61 -239 92 -391z" />
    <glyph glyph-name="wcircumflex" unicode="&#x175;" horiz-adv-x="1548" 
d="M1167 1370l-59 -94l-336 194l-334 -194l-59 94l393 256zM782 950h-8l-237 -950h-215l-295 1114h163l156 -614q53 -209 84 -359h8q41 197 72 316l168 657h205l164 -657q51 -215 71 -316h8q45 207 86 361l158 612h154l-299 -1114h-215z" />
    <glyph glyph-name="Ycircumflex" unicode="&#x176;" horiz-adv-x="1107" 
d="M948 1704l-59 -94l-336 194l-334 -194l-59 94l393 256zM635 0h-162v518l-475 918h186l371 -750h8l371 750h176l-475 -918v-518z" />
    <glyph glyph-name="ycircumflex" unicode="&#x177;" horiz-adv-x="1019" 
d="M903 1370l-59 -94l-336 194l-334 -194l-59 94l393 256zM182 -428q-74 0 -127 20l25 142q51 -18 104 -19q104 1 166 59t99 187l-404 1153h172l180 -547q84 -256 125 -405h8q31 137 115 405l172 547h166l-393 -1192q-58 -170 -152 -260t-256 -90z" />
    <glyph glyph-name="Ydieresis" unicode="&#x178;" horiz-adv-x="1107" 
d="M649 1788q0 43 30 72q30 28 73 28q44 0 72 -28t28 -72q0 -43 -29 -72q-29 -28 -71 -28t-73 28q-30 28 -30 72zM258 1788q0 43 28 72q28 28 72 28t72 -28q29 -28 29 -72q0 -43 -29 -72q-29 -28 -73 -28q-43 0 -71 28t-28 72zM635 0h-162v518l-475 918h186l371 -750h8
l371 750h176l-475 -918v-518z" />
    <glyph glyph-name="Zacute" unicode="&#x179;" horiz-adv-x="1056" 
d="M932 1862l-406 -250l-98 74l348 262zM254 147h727v-147h-897l-27 147l725 1133v8h-659v148h825l27 -148l-721 -1132v-9z" />
    <glyph glyph-name="zacute" unicode="&#x17a;" horiz-adv-x="919" 
d="M860 1528l-405 -250l-99 74l349 262zM250 139h575v-139h-727l-24 158l557 809v8h-514v139h659l33 -158l-559 -809v-8z" />
    <glyph glyph-name="Zdotaccent" unicode="&#x17b;" horiz-adv-x="1056" 
d="M410 1779q0 50 33 84q34 33 84 33t84 -34t34 -83q0 -50 -34 -84t-84 -34t-84 34q-33 34 -33 84zM254 147h727v-147h-897l-27 147l725 1133v8h-659v148h825l27 -148l-721 -1132v-9z" />
    <glyph glyph-name="zdotaccent" unicode="&#x17c;" horiz-adv-x="919" 
d="M344 1445q0 50 34 84t84 34t84 -34t34 -84t-34 -84t-84 -34t-84 34t-34 84zM250 139h575v-139h-727l-24 158l557 809v8h-514v139h659l33 -158l-559 -809v-8z" />
    <glyph glyph-name="Zcaron" unicode="&#x17d;" horiz-adv-x="1056" 
d="M922 1866l-396 -256l-393 256l60 94l333 -195l336 195zM254 147h727v-147h-897l-27 147l725 1133v8h-659v148h825l27 -148l-721 -1132v-9z" />
    <glyph glyph-name="zcaron" unicode="&#x17e;" horiz-adv-x="919" 
d="M854 1532l-395 -256l-393 256l59 94l334 -194l336 194zM250 139h575v-139h-727l-24 158l557 809v8h-514v139h659l33 -158l-559 -809v-8z" />
    <glyph glyph-name="longs" unicode="&#x17f;" horiz-adv-x="735" 
d="M401 1284v-1284h-159v1282q0 133 82 212t232 79t232 -41l-43 -135q-84 37 -178 37t-130 -37t-36 -113z" />
    <glyph glyph-name="florin" unicode="&#x192;" horiz-adv-x="1038" 
d="M193 682v135h219l32 260q18 158 114 253t253 95q119 0 172 -30l-53 -140q-47 29 -135 29q-166 0 -193 -207l-31 -260h267v-135h-283l-94 -727q-19 -158 -115 -253t-236 -95t-190 31l53 141q55 -33 136 -33q165 0 194 209l92 727h-202z" />
    <glyph glyph-name="uni0218" unicode="&#x218;" horiz-adv-x="1091" 
d="M526 127q141 0 220 68t79 181t-136 193q-60 35 -133 68q-191 86 -278 153q-137 105 -137 275t126 281q126 110 334 110t355 -121l-100 -127q-124 98 -264 98t-212 -62t-73 -163q0 -124 136 -208q59 -37 133 -69t146 -69t133 -82q60 -45 98 -115t38 -161q0 -170 -128 -284
t-351 -113q-281 0 -449 151l97 131q163 -135 366 -135zM449 -322q0 47 31 80q32 33 86 33t91 -44t37 -132t-56 -165t-134 -116l-43 64q109 53 108 139q0 45 -30 74q-31 29 -90 57v10z" />
    <glyph glyph-name="uni0219" unicode="&#x219;" horiz-adv-x="970" 
d="M694 292q0 73 -58 118q-58 46 -140 74t-165 62t-142 103q-58 69 -58 185t103 207t297 91t307 -118l-103 -111q-86 90 -211 90t-180 -47t-55 -117q0 -71 58 -115t140 -73t165 -63q84 -34 142 -104t58 -186t-104 -211t-293 -95q-129 0 -233 41t-161 100l99 119
q119 -123 303 -123q111 0 171 50t60 123zM483 -463q0 31 -19 57q-20 26 -40 40q-20 13 -59 34v10q0 49 30 81q31 32 85 32t92 -44t38 -132t-56 -165t-134 -116l-43 64q106 51 106 139z" />
    <glyph glyph-name="uni021A" unicode="&#x21a;" horiz-adv-x="976" 
d="M408 0v1290h-383v146h927v-146h-381v-1290h-163zM369 -322q0 47 31 80q32 33 86 33t92 -44t38 -131t-57 -165t-135 -117l-43 64q109 53 108 139q0 45 -30 74q-31 29 -90 57v10z" />
    <glyph glyph-name="uni021B" unicode="&#x21b;" horiz-adv-x="780" 
d="M489 -10q-285 0 -284 307v688h-166v102l166 31l49 289h108v-293h308v-129h-308v-680q0 -176 162 -176q109 0 170 39l45 -127q-90 -51 -250 -51zM385 -463q0 31 -19 57q-20 26 -40 40q-20 13 -60 34v10q0 49 31 81t85 32t92 -44t38 -132t-56 -165t-134 -116l-43 64
q106 51 106 139z" />
    <glyph glyph-name="uni0237" unicode="&#x237;" horiz-adv-x="518" 
d="M180 59v1055h160v-1059q0 -418 -338 -522l-55 133q113 39 173 122t60 271z" />
    <glyph glyph-name="uni02BC" unicode="&#x2bc;" horiz-adv-x="473" 
d="M111 1372q0 53 34 88q35 35 96 35t103 -48t41 -134q0 -125 -80 -220t-178 -128l-51 82q152 66 151 167q0 49 -27 81q-28 32 -89 63v14z" />
    <glyph glyph-name="circumflex" unicode="&#x2c6;" horiz-adv-x="1028" 
d="M907 1370l-59 -94l-336 194l-334 -194l-59 94l393 256z" />
    <glyph glyph-name="caron" unicode="&#x2c7;" horiz-adv-x="1028" 
d="M907 1532l-395 -256l-393 256l59 94l334 -194l336 194z" />
    <glyph glyph-name="breve" unicode="&#x2d8;" horiz-adv-x="1028" 
d="M514 1309q-229 0 -346 198l106 68q18 -37 54 -73q70 -70 186 -70q162 0 240 143l106 -68q-117 -198 -346 -198z" />
    <glyph glyph-name="dotaccent" unicode="&#x2d9;" horiz-adv-x="1028" 
d="M395 1445q0 50 34 84t84 34t84 -34t34 -84t-34 -84t-84 -34t-84 34t-34 84z" />
    <glyph glyph-name="ring" unicode="&#x2da;" horiz-adv-x="1028" 
d="M633 1463q0 56 -33 90t-89 34t-88 -33t-32 -88t34 -90t90 -35t87 33t31 89zM291 1459q0 97 62 159q63 62 163 63q100 0 160 -57q60 -56 61 -154q0 -98 -63 -160q-64 -62 -164 -62t-160 56q-60 58 -59 155z" />
    <glyph glyph-name="ogonek" unicode="&#x2db;" horiz-adv-x="1028" 
d="M446 -236q0 -119 150 -118q57 0 98 20l25 -115q-63 -25 -175 -25t-174 62q-62 61 -63 160q0 205 307 352l64 -77q-88 -45 -160 -114t-72 -145z" />
    <glyph glyph-name="tilde" unicode="&#x2dc;" horiz-adv-x="1028" 
d="M373 1528q57 0 150 -36t132 -36q84 0 131 62l64 -101q-12 -27 -62 -59t-112 -31q-62 0 -158 37t-137 37q-84 0 -141 -60l-64 103q84 84 197 84z" />
    <glyph glyph-name="hungarumlaut" unicode="&#x2dd;" horiz-adv-x="1028" 
d="M537 1526l-392 -258l-94 78l352 272zM975 1505l-408 -237l-84 86l369 252z" />
    <glyph glyph-name="pi" unicode="&#x3c0;" horiz-adv-x="1263" 
d="M285 985h-148v139h1008v-139h-148v-985h-157v985h-398v-551q0 -305 -120 -448l-132 77q55 80 75 151q19 71 20 226v545z" />
    <glyph glyph-name="danda" unicode="&#x964;" horiz-adv-x="702" 
d="M498 1315v-1315h-150v1315h150z" />
    <glyph glyph-name="doubledanda" unicode="&#x965;" horiz-adv-x="1261" 
d="M1057 1315v-1315h-150v1315h150zM498 1315v-1315h-150v1315h150z" />
    <glyph glyph-name="bnAnji" unicode="&#x980;" horiz-adv-x="1157" 
d="M471 510q-158 0 -263 85q-106 85 -106 267t134 317q134 136 344 136q156 0 238 -84t83 -234v-686q-1 -88 19 -129t86 -41t118 60l86 -115q-78 -86 -209 -86q-252 0 -251 289v704q0 178 -177 178q-129 0 -223 -96t-94 -227q0 -195 233 -195q66 1 132 21l28 -129
q-88 -35 -178 -35z" />
    <glyph glyph-name="bnCandrabindu" unicode="&#x981;" 
d="M-373 1850q0 42 25.5 69t66.5 27t68 -28t27 -69t-27 -67.5t-68 -26.5t-66.5 26.5t-25.5 68.5zM-280 1602q200 0 305 170l112 -68q-61 -106 -169.5 -168.5t-247 -62.5t-247 62t-169.5 169l112 68q104 -170 304 -170z" />
    <glyph glyph-name="bnAnusvara" unicode="&#x982;" horiz-adv-x="894" 
d="M447 723q-133 0 -225 82q-91 82 -91 212t94 219q95 89 227 89t223 -83t91 -213t-93 -218t-226 -88zM446 1204q-76 0 -124 -51t-48 -128q-2 -77 48 -129t128 -52q76 0 124 50t48 126t-50 130t-126 54zM74 469l139 94l592 -508l-105 -75z" />
    <glyph glyph-name="bnVisarga" unicode="&#x983;" horiz-adv-x="876" 
d="M725 266q0 -118 -84 -198t-205 -80t-203 74q-81 74 -81 193q0 118 84 199t204 81t203 -76q82 -76 82 -193zM437 418q-67 0 -109 -44t-43 -111q0 -67 44 -113t110 -46t109 44q42 44 42 110t-43 113t-110 47zM725 1043q0 -119 -84 -199t-205 -80t-203 75q-81 75 -81 193
t84 198q84 81 204 81t203 -75q82 -75 82 -193zM437 1194q-67 0 -109 -44t-43 -111q0 -67 44 -113t110 -45q66 0 109 44q42 43 42 109t-43 113t-110 47z" />
    <glyph glyph-name="bnA" unicode="&#x985;" horiz-adv-x="1828" 
d="M903 915q-170 0 -170 -165q0 -84 88 -134l-108 -79q-61 33 -96 96t-35 137q0 123 83 205t232.5 82t249.5 -114t100 -288q0 -117 -49 -219l283 -215l8 2q-12 164 -12 408v553h-1518v131h1911v-131h-244v-1063l78 -55l-113 -93l-473 351q-137 -133 -348 -134
q-289 0 -466 211t-249 572l138 61q61 -326 202.5 -518t374.5 -192q152 0 240 94t88 228t-55.5 201.5t-139.5 67.5z" />
    <glyph glyph-name="bnAA" unicode="&#x986;" horiz-adv-x="2390" 
d="M903 915q-170 0 -170 -165q0 -84 88 -134l-108 -79q-61 33 -96 96t-35 137q0 123 83 205t232.5 82t249.5 -114t100 -288q0 -117 -49 -219l283 -215l8 2q-12 164 -12 408v553h-1518v131h1935q109 0 160 -72h10q-29 76 -28 215v60h147v-203h246v-131h-246v-1184h-149v1014
q0 170 -164 170h-244v-1063l78 -55l-113 -93l-473 351q-137 -133 -348 -134q-289 0 -466 211t-249 572l138 61q61 -326 202.5 -518t374.5 -192q152 0 240 94t88 228t-55.5 201.5t-139.5 67.5z" />
    <glyph glyph-name="bnI" unicode="&#x987;" horiz-adv-x="1011" 
d="M174 1843q0 -68 42 -108.5t155 -40.5h131q158 0 257 -75t99 -212q0 -27 -8 -92h203v-131h-1094v131h741q8 39 9 82q0 88 -54.5 126t-175.5 38h-119q-176 0 -250.5 73.5t-74.5 188.5q0 41 4 61l141 31q-6 -68 -6 -72zM145 736.5q0 146.5 94.5 233.5t253 87t263 -100.5
t104.5 -265.5t-107.5 -267t-297.5 -125v-8q82 -23 286 -148l217 -131l-104 -100q-393 238 -492.5 288t-220.5 66v129h133q227 0 333 85t106 222q0 96 -62.5 156t-157 60t-146.5 -48.5t-52 -134.5t88 -141l-109 -82q-129 78 -129 224.5z" />
    <glyph glyph-name="bnII" unicode="&#x988;" horiz-adv-x="1347" 
d="M270 1847q0 -154 201 -153h360q158 0 257.5 -75t99.5 -212q0 -37 -10 -92h211v-131h-1430v131h1071q8 39 8 82q0 88 -54 126t-175 38h-350q-176 0 -253 74.5t-77 189.5q0 39 4 59l143 31q-6 -35 -6 -68zM133 769.5q0 135.5 83 210.5t226.5 75t227.5 -92.5t102 -251.5
l344 307l129 -72q-121 -229 -121 -586q0 -168 41 -362h-143q-43 164 -43 388t65 388l-270 -246q-20 -170 -107 -279.5t-245 -109.5q-121 0 -205 64.5t-115 144.5l115 80q66 -152 207 -152q111 0 162 96.5t51 245.5q0 305 -199 306q-74 0 -116.5 -40t-42.5 -117t65 -120
l-106 -76q-105 63 -105 198.5z" />
    <glyph glyph-name="bnU" unicode="&#x989;" horiz-adv-x="1368" 
d="M512 852v332h-528v131h1077q8 57 8 82q0 88 -54 126t-175 38h-443q-178 0 -254.5 74.5t-76.5 189.5q0 39 4 59l143 31q-6 -35 -6 -68q0 -154 201 -153h454q158 0 257.5 -75t99.5 -212q0 -37 -11 -92h176v-131h-720v-324q0 -113 96 -112q59 0 155.5 43t194.5 135
q59 -39 106.5 -126t47.5 -194q0 -215 -143.5 -348t-383.5 -133q-295 0 -470 211t-189 522l143 31q10 -291 152.5 -458t365.5 -167q170 0 273.5 93.5t103.5 244.5q0 88 -35 133q-152 -127 -331 -127q-111 0 -174.5 69t-63.5 175z" />
    <glyph glyph-name="bnUU" unicode="&#x98a;" horiz-adv-x="1398" 
d="M563 868v316h-604v131h1149q10 47 10 82q0 86 -55 125t-174 39h-461q-176 0 -253 74.5t-77 189.5q0 39 4 59l142 31l-6 -68q0 -154 200 -153h473q158 0 256.5 -75t98.5 -212q0 -49 -9 -92h183v-131h-725v-310q0 -113 115.5 -112.5t310.5 174.5q154 -123 153.5 -337
t-137.5 -346t-373 -132q-178 0 -319 61.5t-224 160.5q-165 197 -180 431l109 29q8 -153 75 -296q36 -77 104.5 -142.5t162.5 -106.5l8 8q-135 76 -211 253t-57 401l119 24q-31 -289 77.5 -487.5t339.5 -198.5q170 0 265.5 93t95.5 241q0 102 -35 156q-152 -125 -303 -125
q-117 0 -182.5 67t-65.5 178z" />
    <glyph glyph-name="bnvR" unicode="&#x98b;" horiz-adv-x="1540" 
d="M731 616v191q-129 -33 -260 -113t-211 -166l477 -311h8q-14 195 -14 399zM129 1181q1 -120 133 -120q154 0 234 258h57q102 -86 188 -166q-10 82 -10 258v107h146v-844l352 -244l6 4q-16 98 -16 311v773h147v-203h215v-131h-215v-850l-139 -72l-350 240v-371l86 -55
l-105 -103l-749 484v141q115 117 289.5 219.5t349.5 145.5v8q-182 154 -193 164q-104 -205 -311 -205q-119 0 -188.5 66.5t-69.5 160.5t34 158h150q-41 -78 -41 -134z" />
    <glyph glyph-name="bnvL" unicode="&#x98c;" horiz-adv-x="1257" 
d="M281 1415q0 39 10 70l147 26q-10 -37 -10 -69q0 -153 142 -242q62 -39 139 -73.5t154 -81t139.5 -106.5t102.5 -162.5t40 -239.5q0 -248 -162 -392.5t-424 -150.5l-82 106q162 170 162 392q0 102 -51 160.5t-143.5 58.5t-145.5 -46.5t-53 -132.5q0 -145 172 -172
l-45 -129q-121 20 -198 97.5t-77 218.5t96.5 222t245 81t244.5 -100.5t96 -274.5t-98 -330q156 33 234.5 137.5t78.5 237t-38.5 215t-102 131.5t-139.5 89t-153 77q-76 37 -140 83q-140 102 -141 300z" />
    <glyph glyph-name="bnE" unicode="&#x98f;" horiz-adv-x="1447" 
d="M1096 659v449q0 88 -92 88q-127 0 -250 -125t-123 -246t125 -120q80 0 133 47l59 -119q-84 -63 -203.5 -63.5t-192.5 70.5t-73 185q0 174 166 342t365 168q113 0 173 -60.5t60 -168.5v-1106h-135q-8 84 -76.5 126t-218.5 42l-256 -6q-209 0 -326.5 94t-117.5 235.5
t67 231.5l144 -59q-59 -66 -59.5 -160t76.5 -149.5t241 -55.5l249 6q193 0 269 -69h8q-12 86 -12 423z" />
    <glyph glyph-name="bnAI" unicode="&#x990;" horiz-adv-x="1552" 
d="M1096 659v449q0 88 -92 88q-127 0 -250 -125t-123 -246t125 -120q80 0 133 47l59 -119q-84 -63 -203.5 -63.5t-192.5 70.5t-73 185q0 174 166 342t365 168q113 0 173 -60.5t60 -168.5v-107q84 12 139.5 67.5t55.5 143.5q0 176 -262 258l-414 127q-158 51 -245 141.5
t-87 204t64 185.5l139 -51q-49 -53 -49 -129t62.5 -132.5t215.5 -105.5l330 -102q397 -127 397 -398q0 -133 -95 -231t-251 -113v-864h-135q-8 84 -76.5 126t-218.5 42l-256 -6q-209 0 -326.5 94t-117.5 235.5t67 231.5l144 -59q-59 -66 -59.5 -160t76.5 -149.5t241 -55.5
l249 6q193 0 269 -69h8q-12 86 -12 423z" />
    <glyph glyph-name="bnO" unicode="&#x993;" horiz-adv-x="1230" 
d="M719 176q113 0 175 64.5t62 160.5q0 162 -192 265q-66 -31 -152 -52l-73 127q319 55 319 275q0 82 -53 132t-143 50q-127 0 -236 -121l-107 103q143 154 340 153q145 0 247 -89t102 -239.5t-119 -256.5q219 -135 219 -351q0 -154 -103.5 -258t-285.5 -104
q-125 0 -237.5 63.5t-194.5 171.5q-164 215 -238 482l135 55q68 -266 212.5 -448.5t322.5 -182.5z" />
    <glyph glyph-name="bnAU" unicode="&#x994;" horiz-adv-x="1456" 
d="M588 1944q0 80 45 149l145 -51q-37 -47 -37 -117t68 -137.5t164 -124.5t191.5 -120.5t163 -163t67.5 -222.5q0 -193 -133.5 -296t-321.5 -103h-39q-8 -8 -12 -10q219 -135 219 -351q0 -154 -103.5 -258t-285.5 -104q-125 0 -237.5 63.5t-194.5 171.5q-164 215 -238 482
l135 55q68 -266 212.5 -448.5t322.5 -182.5q113 0 175 64.5t62 160.5q0 162 -192 265q-66 -31 -152 -52l-73 127q319 55 319 275q0 82 -53 132t-143 50q-127 0 -236 -121l-107 103q143 154 340 153q145 0 247 -89t102 -228q0 -76 -25 -137q119 18 190.5 90.5t71.5 202.5
q1 130 -129 231q-58 45 -128 88q-202 125 -270 182q-130 108 -130 271z" />
    <glyph glyph-name="bnKA" unicode="&#x995;" horiz-adv-x="1415" 
d="M254 629l455 -383h8q-14 172 -15 411v187q-225 -33 -448 -215zM1165 614.5q0 96.5 -83 168t-232 73.5v-719l84 -67l-117 -90l-713 587v131q287 246 598 289v197h-743v131h1497v-131h-606v-189q213 -4 338 -120.5t125 -276.5q0 -115 -57.5 -208t-149.5 -142l-105 108
q70 29 117 95.5t47 163z" />
    <glyph glyph-name="bnKHA" unicode="&#x996;" horiz-adv-x="1345" 
d="M563 1130q-101 -219 -317 -219q-108 0 -181 66.5t-73 163t43 174.5h153q-47 -79 -47 -145q0 -126 121 -126q76 0 135.5 61.5t108.5 209.5h67q197 -141 197 -323q0 -353 -444 -443v-8l671 -344l9 2q-13 188 -13 446v873h150v-203h243v-131h-243v-1057l88 -45l-98 -109
l-1041 523v145q268 18 402.5 108.5t134.5 231.5q0 90 -66 149z" />
    <glyph glyph-name="bnGA" unicode="&#x997;" horiz-adv-x="1294" 
d="M537 733q1 158 -195 158q-96 0 -192 -51l-107 108q45 154 182 260.5t317 106.5t281 -80t140 -148h8q-14 34 -23.5 139t-9.5 181v111h152v-203h245v-131h-245v-1184h-150v758q0 168 -109.5 292t-287.5 124q-119 0 -205 -60.5t-129 -138.5q78 39 194.5 39t201.5 -76
t85 -205t-82 -242.5t-219 -197.5l-117 108q264 152 265 332z" />
    <glyph glyph-name="bnGHA" unicode="&#x998;" horiz-adv-x="1277" 
d="M922 1184h-560q-88 -72 -88 -165t59.5 -140.5t158 -47.5t210.5 66l64 -121l-459 -274l623 -305h8q-16 182 -16 413v574zM125 1000.5q0 109.5 63 183.5h-229v131h1360v-131h-246v-1055l88 -43l-92 -113l-934 453v135l117 72q79 52 126.5 71t49.5 21v8q-150 14 -226.5 86
t-76.5 181.5z" />
    <glyph glyph-name="bnNGA" unicode="&#x999;" horiz-adv-x="1406" 
d="M-41 1184v131h406q47 -166 159 -283q4 139 81 214t205 75t214 -78q86 -77 86 -197t-86 -192t-223 -72q-76 0 -137 21v-84q0 -119 114 -119q150 0 379 193q61 -43 106.5 -128t45.5 -194q0 -197 -148.5 -335t-388.5 -138q-297 0 -485.5 209t-196.5 500l143 28
q8 -279 165 -436.5t376 -157.5q174 0 280.5 96.5t106.5 227.5q0 88 -31 133q-195 -137 -356 -137q-119 0 -187.5 69.5t-68.5 184.5v155q-168 113 -256 314h-303zM664 1012v-76q68 -27 135 -27q170 0 170 148q0 57 -42 97t-114 40q-149 0 -149 -182z" />
    <glyph glyph-name="bnCA" unicode="&#x99a;" horiz-adv-x="1075" 
d="M350 541v-283q0 -123 131 -123q113 0 224.5 117t111.5 258q0 66 -38 113t-138 84l-133 49q-100 37 -160 106h-8q10 -47 10 -321zM969 508q0 -190 -148.5 -350t-341.5 -160q-129 0 -202.5 69.5t-73.5 186.5v930h-244v131h1157v-131h-772v-56q0 -158 180 -225l168 -63
q139 -51 208 -130t69 -202z" />
    <glyph glyph-name="bnCHA" unicode="&#x99b;" horiz-adv-x="1218" 
d="M588 819.5q0 62.5 -49.5 91.5t-126 52.5t-113.5 54.5v-268q0 -102 107 -103q78 0 130 55t52 117.5zM1083 692q0 -399 -557 -424v-8q88 -25 279 -123l321 -168l-98 -110q-463 254 -605 317.5t-265 75.5v129h237q541 0 541 311q0 102 -63.5 160.5t-163.5 65.5
q18 -41 18 -91q0 -123 -92 -216t-220.5 -93t-193.5 63.5t-65 166.5v436h-197v131h1301v-131h-977q16 -33 60 -56.5t120 -49t112 -44.5q70 16 132 17q160 0 268 -99.5t108 -259.5z" />
    <glyph glyph-name="bnJA" unicode="&#x99c;" horiz-adv-x="1630" 
d="M700 254q119 0 182.5 59.5t63.5 133t-33 116.5l-180 4q-113 4 -180.5 58.5t-67.5 154.5q0 201 342 404h-868v131h1712v-131h-649q23 -135 117 -231.5t286 -96.5h41l68 -106q-111 -199 -111 -426v-330h-149v336q0 96 26 209t68 186q-178 6 -304 111.5t-155 246.5
q-266 -170 -266 -295q0 -86 113 -90l243 -6q100 -84 100.5 -230t-107 -249.5t-290.5 -103.5q-264 0 -442 218t-188 527l143 41q4 -268 141.5 -454.5t343.5 -186.5z" />
    <glyph glyph-name="bnJHA" unicode="&#x99d;" horiz-adv-x="1574" 
d="M1221 1518h149v-203h246v-131h-246v-848l-139 -70l-350 240v-373l84 -57l-105 -103l-762 514v138q111 113 282 220t353 154v185h-774v131h922v-639l348 -240h8q-16 180 -16 412v670zM739 223h9q-14 160 -15 412v215q-133 -39 -267 -123t-216 -168z" />
    <glyph glyph-name="bnNYA" unicode="&#x99e;" horiz-adv-x="1941" 
d="M1642 1056q0 134 -162 134q-85 0 -163 -89t-78 -253t72.5 -264.5t197.5 -100.5q74 0 115 41t41 107t-48 105.5t-136 39.5h-45v131h39q78 0 122.5 42.5t44.5 106.5zM971 1319q102 0 162.5 -46t78.5 -118q31 59 109 113.5t196.5 54.5t196.5 -71.5t78 -184.5q0 -78 -42 -134
t-108 -81v-8q72 -20 123.5 -77.5t51.5 -160t-81 -179.5t-216 -77q-94 0 -174 48t-111 98q10 -37 10 -224v-272h-143q0 123 -99.5 186.5t-336.5 67.5q-299 4 -443.5 104.5t-144.5 274.5q0 100 53 203l150 -39q-49 -86 -50 -170q0 -113 99.5 -173.5t343.5 -62.5
q141 -2 239.5 -27.5t133 -50t69.5 -61.5h8q-29 186 -28 414v362q0 76 -31 113t-102 37q-129 0 -239 -105.5t-110 -220.5q0 -59 34 -93t105.5 -34t125.5 47l59 -119q-78 -61 -203 -61t-198.5 70.5t-73.5 185.5q0 172 154.5 321.5t353.5 149.5z" />
    <glyph glyph-name="bnTTA" unicode="&#x99f;" horiz-adv-x="1118" 
d="M844 602q0 184 -150 184q-78 0 -123 -65l-84 119q82 90 213 90t213 -91t82 -237q0 -193 -141 -344.5t-350 -151.5q-137 0 -219 80t-82 211v787h-242v131h850q8 39 8 82q0 88 -54 126t-175 38h-256q-176 0 -253 74.5t-77 189.5q0 39 4 59l142 31l-7 -68q0 -154 201 -153
h268q158 0 257.5 -75t99.5 -212q0 -37 -11 -92h201v-131h-809v-776q0 -74 40 -118t118 -44q137 0 236.5 106.5t99.5 249.5z" />
    <glyph glyph-name="bnTTHA" unicode="&#x9a0;" horiz-adv-x="1112" 
d="M569 193q133 0 211 83.5t78 209.5q0 162 -158 340q-76 86 -92 102t-20 21t-8 9q8 -125 -25 -223q-33 -97 -91 -155q-96 -96 -208 -134q8 -86 94 -169.5t219 -83.5zM1006 483q0 -180 -119 -304t-319.5 -124t-340 140.5t-145.5 332.5q188 51 277.5 149.5t89.5 274.5v156
l-64 76h-426v131h334q-121 135 -121 283.5t97.5 233.5t248.5 79l29 -139q-100 10 -162.5 -39.5t-62.5 -137.5q0 -119 139 -280h692v-131h-594q135 -143 193.5 -209t130 -162t97.5 -171t26 -159z" />
    <glyph glyph-name="bnDDA" unicode="&#x9a1;" horiz-adv-x="1368" 
d="M739 264q170 0 273.5 93.5t103.5 244.5q0 88 -35 133q-152 -127 -331 -127q-111 0 -174.5 68.5t-63.5 175.5v332h-553v131h1450v-131h-745v-324q0 -113 96 -112q59 0 155.5 43t194.5 135q59 -39 106.5 -126t47.5 -194q0 -215 -143.5 -348t-383.5 -133q-295 0 -470 211
t-189 522l143 31q10 -291 152.5 -458t365.5 -167z" />
    <glyph glyph-name="bnDDHA" unicode="&#x9a2;" horiz-adv-x="1120" 
d="M350 1184v-781q0 -72 41 -116.5t121 -44.5q135 0 235.5 106.5t100.5 251.5q0 84 -39 135t-117 51t-125 -34l-55 125q74 53 180 53q141 0 222 -91t81 -239q0 -197 -137 -347.5t-348 -150.5q-141 0 -224 80t-83 209v793h-244v131h1200v-131h-809z" />
    <glyph glyph-name="bnNNA" unicode="&#x9a3;" horiz-adv-x="1245" 
d="M238 905q0 -119 67.5 -181t165.5 -62t166 49l49 -131q-82 -57 -209 -58q-176 0 -282.5 107.5t-106.5 280.5t113.5 289t310.5 116q147 0 245.5 -67.5t145.5 -153.5h8q-20 98 -20 311v113h149v-203h246v-131h-246v-1184h-149v659q0 231 -97.5 375t-275.5 144
q-133 0 -206.5 -77t-73.5 -196z" />
    <glyph glyph-name="bnTA" unicode="&#x9a4;" horiz-adv-x="1394" 
d="M1436 1315v-131h-1477v131h1477zM625 762q0 127 81.5 208t236.5 81t250 -122t95 -322.5t-135 -340t-342 -139.5t-354.5 113.5t-231.5 292t-131 421.5l139 62q137 -756 568 -756q152 0 245 105.5t93 249t-52.5 220t-138.5 76.5t-130 -42t-44 -115q0 -102 88 -154l-102 -88
q-135 82 -135 250z" />
    <glyph glyph-name="bnTHA" unicode="&#x9a5;" horiz-adv-x="1384" 
d="M129 1012q0 137 94 224t244 87t256 -92t106 -253t-117.5 -286t-359.5 -168v-8l684 -326h8q-14 172 -14 416v912h152v-203h243v-131h-243v-1057l88 -43l-99 -111l-1042 488v164q285 14 418 113.5t133 242.5q0 88 -58.5 145.5t-146.5 57.5t-142 -47t-54 -129t71 -144
l-121 -69q-100 80 -100 217z" />
    <glyph glyph-name="bnDA" unicode="&#x9a6;" horiz-adv-x="1120" 
d="M905 0h-153v422q0 195 57 393q-254 -166 -471 -469l-152 68v770h-227v131h1202v-131h-825v-611q86 109 233.5 235t270.5 177l137 -76q-72 -221 -72 -491v-418z" />
    <glyph glyph-name="bnDHA" unicode="&#x9a7;" horiz-adv-x="1243" 
d="M889 621v217l-586 -332l596 -305h8q-18 217 -18 420zM447 1184q-87 0 -135 -43t-48 -124t63.5 -126t195.5 -45t366 149v320h395v-131h-246v-1053l86 -45l-90 -113l-897 457v139l115 66q87 55 166 84l24 10v8q-141 4 -233 80t-92 207t86 213t224 82t235 -55l-52 -121
q-76 41 -163 41z" />
    <glyph glyph-name="bnNA" unicode="&#x9a8;" horiz-adv-x="1288" 
d="M90 604q0 138 93 226t264 88t299 -106t200 -259h8q-20 164 -20 408v223h-975v131h1370v-131h-244v-1184h-151v43q0 257 -128 487q-60 109 -154 178q-94 68 -200 68t-159 -50t-53 -131t61 -142l-133 -60q-78 73 -78 211z" />
    <glyph glyph-name="bnPA" unicode="&#x9aa;" horiz-adv-x="1339" 
d="M552 1327q175 0 287.5 -78t170.5 -186l6 2q-8 27 -19.5 142.5t-11.5 224.5v86h152v-203h243v-131h-243v-1184h-152v668q0 82 -14 145l-641 -418l-76 115l213 139q-80 254 -291 266q-29 4 -47 5l-86 118q74 119 204 204t305 85zM561 1190q-115 0 -201 -49.5t-127 -104.5
q256 -25 351 -313l344 225q-113 242 -367 242z" />
    <glyph glyph-name="bnPHA" unicode="&#x9ab;" horiz-adv-x="1538" 
d="M147 1184h-188v131h1620v-131h-1270v-8l260 -275v-115l-307 -237l522 -338h9q-16 236 -17 403v379q111 49 242 49q176 0 296 -100t120 -272q0 -131 -70 -219.5t-170 -133.5l-92 117q84 31 135 92.5t51 141.5q0 115 -72.5 175t-179.5 60q-51 0 -110 -16v-764l80 -51
l-101 -103l-780 500v152l299 229l-277 293v41z" />
    <glyph glyph-name="bnBA" unicode="&#x9ac;" horiz-adv-x="1124" 
d="M770 633v248q-123 -45 -281.5 -143.5t-234.5 -174.5l524 -342h8q-16 182 -16 412zM770 1184h-811v131h1206v-131h-243v-1053l84 -55l-105 -105l-797 523v137q98 98 296 221t370 178v154z" />
    <glyph glyph-name="bnBHA" unicode="&#x9ad;" horiz-adv-x="1474" 
d="M1516 1184h-1557v131h1557v-131zM709 816q0 -124 130 -124q65 0 124 64.5t124 226.5h119q68 -63 116 -173t48 -230q0 -209 -142.5 -345.5t-381.5 -136.5q-170 0 -305 70t-223 192q-165 226 -236 562l137 57q143 -737 629 -737q172 0 273.5 96t101.5 229.5t-64 243.5h-8
q-115 -256 -320 -256q-123 0 -196.5 71.5t-73.5 166t45 159.5l148 -26q-45 -50 -45 -110z" />
    <glyph glyph-name="bnMA" unicode="&#x9ae;" horiz-adv-x="1198" 
d="M1239 1184h-246v-1184h-143q-20 166 -135 321t-266 199q-27 -82 -73 -121t-97 -39t-85 33t-34 91t45 108t121 65v31q0 160 -82 292t-168 177v27h-117v131h1280v-131zM844 715v469h-568v-8q68 -68 130 -199t63 -291v-35q123 -27 225 -115t158 -192l4 2q-12 289 -12 369z
" />
    <glyph glyph-name="bnYA" unicode="&#x9af;" horiz-adv-x="1153" 
d="M309 1184v-8l260 -275v-115l-307 -237l547 -342h8q-18 266 -18 405v572h-490zM147 1184h-188v131h1235v-131h-246v-1061l82 -51l-102 -103l-803 500v152l299 229l-277 293v41z" />
    <glyph glyph-name="bnRA" unicode="&#x9b0;" horiz-adv-x="1124" 
d="M770 633v248q-123 -45 -281.5 -143.5t-234.5 -174.5l524 -342h8q-16 182 -16 412zM770 1184h-811v131h1206v-131h-243v-1053l84 -55l-105 -105l-797 523v137q98 98 296 221t370 178v154zM203 -16q0 45 28.5 72.5t72.5 27.5t73 -27.5t29 -72.5t-29 -74t-73 -29t-72.5 29
t-28.5 74z" />
    <glyph glyph-name="bnLA" unicode="&#x9b2;" horiz-adv-x="1511" 
d="M968 979q108 0 181 -88h8v293h-1198v131h1593v-131h-245v-1184h-150v717q-14 45 -65 84t-125 39t-125 -54t-51 -147v-80h-146v78q0 94 -51 144t-132 50t-138 -59q-58 -59 -58 -174q0 -114 75 -186t187 -72q66 0 121 25l23 -138q-72 -23 -146 -22q-182 -1 -296 109
t-114 284t100 274q98 100 224 100t192 -52q66 -53 85 -115h8q15 68 75 121t168 53z" />
    <glyph glyph-name="bnSHA" unicode="&#x9b6;" horiz-adv-x="1427" 
d="M147 1184h-188v131h188q225 0 338 -162q117 160 314 160q115 0 188.5 -42t102.5 -89h8q-23 80 -23 256v80h148v-203h245v-131h-245v-1184h-150v895q0 135 -75.5 208t-183.5 73t-182.5 -68t-74.5 -180t74 -175t180 -63q37 0 68 6v-135q-43 -6 -70 -6q-104 0 -192.5 43
t-137.5 121q-92 -168 -319 -168q-53 0 -113 16v140q35 -19 131 -19t164 65.5t68 183.5t-72 182.5t-191 64.5z" />
    <glyph glyph-name="bnSSA" unicode="&#x9b7;" horiz-adv-x="1157" 
d="M815 205q-10 166 -14 342l-269 233l-274 -233l549 -342h8zM270 1184v-8l531 -463v471h-531zM106 1184h-147v131h1239v-131h-250v-1063l82 -49l-106 -101l-807 498v143l303 256l-314 275v41z" />
    <glyph glyph-name="bnSA" unicode="&#x9b8;" horiz-adv-x="1349" 
d="M993 1051v133h-645v-8l103 -121q55 -66 84 -105t56 -103t30 -181q117 172 249 172q76 0 129 -45q-6 121 -6 258zM308 295q-100 0 -176 57q-77 57 -107 135l112 82q61 -137 187 -137q82 0 126 58t44 154t-40 169q-40 74 -143 186l-129 144v41h-223v131h1430v-131h-244
v-1184h-152v569q0 123 -114 123q-74 0 -183 -127q0 -1 -70 -83t-144 -134t-174 -53z" />
    <glyph glyph-name="bnHA" unicode="&#x9b9;" horiz-adv-x="1011" 
d="M-41 1184v131h1094v-131h-1094zM147 395h132q227 0 332.5 85t105.5 222q0 96 -61.5 156t-156.5 60t-150.5 -48.5t-55.5 -136.5t88 -135l-109 -82q-129 76 -129 234q0 131 97.5 219t256 88t264 -100.5t105.5 -266.5t-108.5 -269.5t-298.5 -125.5v-8q106 -29 291 -142
l217 -131l-109 -102q-389 236 -489.5 287t-221.5 67v129z" />
    <glyph glyph-name="bnNukta" unicode="&#x9bc;" 
d="M-1008 -176q0 45 29 73.5t73 28.5t72.5 -28.5t28.5 -73.5t-28.5 -74t-72.5 -29t-73 29t-29 74z" />
    <glyph glyph-name="bnAvagraha" unicode="&#x9bd;" horiz-adv-x="946" 
d="M109 485h129q229 0 327 67t99 196q0 94 -60 152t-152 58q-94 0 -147 -48t-53 -135t84 -132l-103 -76q-127 70 -127 226q0 94 54 168t149 106q-63 117 -233 117h-72v131h55q303 0 396 -225q158 -4 256 -102t98 -249q0 -305 -397 -352v-8q57 -14 282 -139l240 -138
l-94 -100q-393 226 -505 282t-226 70v131z" />
    <glyph glyph-name="bnmAA" unicode="&#x9be;" horiz-adv-x="559" 
d="M207 1458v60h147v-203h246v-131h-246v-1184h-149v1014q0 170 -164 170h-82v131h107q109 0 159 -72h11q-29 76 -29 215z" />
    <glyph glyph-name="bnmI" unicode="&#x9bf;" horiz-adv-x="559" 
d="M699 1786q-169 0 -257 -91t-88 -227v-153h246v-131h-246v-1184h-149v1184h-246v131h246v172q0 182 131 310t349 128q219 0 407 -84t309 -192l-90 -107q-119 104 -281 174t-331 70z" />
    <glyph glyph-name="bnmII" unicode="&#x9c0;" horiz-adv-x="559" 
d="M-203 1315h-139v164q-129 -43 -287.5 -43t-262 73.5t-103.5 198.5t122.5 206t342.5 81q385 0 622.5 -185.5t259.5 -494.5h246v-131h-244v-1184h-149v1184h-246v131h242q-18 260 -215 404.5t-513.5 144.5t-316.5 -162q0 -139 250 -139q174 0 369 82l22 -11v-319z" />
    <glyph glyph-name="bnmU" unicode="&#x9c1;" 
d="M-557.5 -659q-151.5 0 -242.5 83.5t-91 214.5t91 216.5t215.5 85.5t230.5 -45v167h149v-251q154 -106 367 -357l-107 -82q-147 182 -266 285q-18 -150 -106.5 -233.5t-240 -83.5zM-549 -535q90 0 142.5 74t52.5 195v24q-104 57 -199.5 57.5t-145 -50t-49.5 -127.5
t54.5 -125t144.5 -48z" />
    <glyph glyph-name="bnmUU" unicode="&#x9c2;" 
d="M-451 -655q-150 0 -239.5 85t-89.5 212t90 214t229 91q49 0 107 -8v124h149v-276q-102 37 -210.5 37t-165 -52.5t-56.5 -129t52.5 -125.5t135.5 -49q184 0 295 190q129 -74 320 -272l-103 -84q-47 61 -190 176q-125 -133 -324 -133z" />
    <glyph glyph-name="bnmvR" unicode="&#x9c3;" 
d="M-205 0l-227 -238l498 -249l-93 -105l-637 320l334 342z" />
    <glyph glyph-name="bnmvRR" unicode="&#x9c4;" 
d="M-475 -94l113 -78l-201 -199l381 -241l-103 -97l-503 314zM12 -39l113 -67l-162 -162l240 -148l-94 -90l-351 217z" />
    <glyph glyph-name="bnmE" unicode="&#x9c7;" horiz-adv-x="555" 
d="M109 600q0 317 157 584h-307v131h637v-131h-160q-82 -104 -130 -263t-48 -321q0 -381 274 -506l-75 -121q-168 66 -258 232t-90 395z" />
    <glyph glyph-name="bnmAI" unicode="&#x9c8;" horiz-adv-x="555" 
d="M109 600q0 317 157 584h-307v131h371q10 45 10 71q0 76 -56 113t-180 51q-385 45 -385 275q0 39 5 59l147 31l-6 -68q0 -63 54 -103t204 -58q365 -39 364 -291q0 -41 -8 -80h117v-131h-160q-82 -104 -130 -263t-48 -321q0 -381 274 -506l-75 -121q-168 66 -258 232
t-90 395z" />
    <glyph glyph-name="bnmO" unicode="&#x9cb;" horiz-adv-x="2465" 
d="M2114 1458v60h147v-203h246v-131h-246v-1184h-150v1014q0 170 -163 170h-82v131h106q109 0 160 -72h10q-28 76 -28 215zM1081 1147q0 41 25 65q26 24 66 25q40 0 65 -25q25 -26 25 -66t-25 -65t-66 -25t-65 26q-24 24 -25 65zM1520 1118q0 -40 -26 -66t-64 -26t-64 26
q-27 26 -27 65q0 38 27 65q27 26 66 26q40 0 64 -26t24 -64zM1534 977q0 39 26 65t64 27q38 0 65 -26q25 -25 25 -65t-26 -66t-64 -26t-64 26t-26 65zM1636 735q0 39 26 65t64 26t65 -26q26 -26 26 -65t-26 -65t-65 -25q-38 -1 -64 25t-26 65zM1616 461q0 39 26 65t64 27
q38 0 64 -27q26 -28 26 -66t-26 -64t-64 -26t-64 26t-26 65zM1466 260q0 39 26 65q26 25 64 25t66 -26q27 -26 27 -64t-27 -64t-66 -26q-38 0 -64 26t-26 64zM1219 152q-1 42 25 66t66 24t66 -26t25 -64q0 -38 -26 -65q-25 -26 -65 -26t-66 25q-25 25 -25 66zM1141 182
q0 -40 -26 -66q-27 -26 -65 -26t-65 26t-27 66q0 39 27 66q27 26 66 26t65 -26t25 -66zM752 338q0 38 26 64t64 26t64 -26t26 -64t-26 -65q-26 -25 -64 -25t-65 25q-25 26 -25 65zM645 575q0 39 26 66q27 27 65 27t64 -26t26 -66t-26 -64t-65 -25q-39 1 -65 25t-25 63z
M672 834q0 38 26 64t66 26t66 -26t26 -64t-27 -65q-27 -26 -65 -26t-66 26q-26 26 -26 65zM840 1058q0 40 26 66t64 25q38 0 64 -26q26 -25 26 -65t-26 -66t-64 -26t-65 26q-25 26 -25 66zM109 600q0 317 157 584h-307v131h637v-131h-160q-82 -104 -130 -263t-48 -321
q0 -381 274 -506l-75 -121q-168 66 -258 232t-90 395z" />
    <glyph glyph-name="bnmAU" unicode="&#x9cc;" horiz-adv-x="2465" 
d="M2111 1378q0 186 -235 187h-98q-178 1 -255 75t-77 189q0 41 4 59l143 31l-6 -68q0 -154 201 -153h106q162 0 264 -84t103 -228v-71h246v-131h-246v-1184h-150v1184h-245v131h245v63zM1081 1147q0 41 25 65q26 24 66 25q40 0 65 -25q25 -26 25 -66t-25 -65t-66 -25
t-65 26q-24 24 -25 65zM1520 1118q0 -40 -26 -66t-64 -26t-64 26q-27 26 -27 65q0 38 27 65q27 26 66 26q40 0 64 -26t24 -64zM1534 977q0 39 26 65t64 27q38 0 65 -26q25 -25 25 -65t-26 -66t-64 -26t-64 26t-26 65zM1636 735q0 39 26 65t64 26t65 -26q26 -26 26 -65
t-26 -65t-65 -25q-38 -1 -64 25t-26 65zM1616 461q0 39 26 65t64 27q38 0 64 -27q26 -28 26 -66t-26 -64t-64 -26t-64 26t-26 65zM1466 260q0 39 26 65q26 25 64 25t66 -26q27 -26 27 -64t-27 -64t-66 -26q-38 0 -64 26t-26 64zM1219 152q-1 42 25 66t66 24t66 -26t25 -64
q0 -38 -26 -65q-25 -26 -65 -26t-66 25q-25 25 -25 66zM1141 182q0 -40 -26 -66q-27 -26 -65 -26t-65 26t-27 66q0 39 27 66q27 26 66 26t65 -26t25 -66zM752 338q0 38 26 64t64 26t64 -26t26 -64t-26 -65q-26 -25 -64 -25t-65 25q-25 26 -25 65zM645 575q0 39 26 66
q27 27 65 27t64 -26t26 -66t-26 -64t-65 -25q-39 1 -65 25t-25 63zM672 834q0 38 26 64t66 26t66 -26t26 -64t-27 -65q-27 -26 -65 -26t-66 26q-26 26 -26 65zM840 1058q0 40 26 66t64 25q38 0 64 -26q26 -25 26 -65t-26 -66t-64 -26t-65 26q-25 26 -25 66zM109 600
q0 317 157 584h-307v131h637v-131h-160q-82 -104 -130 -263t-48 -321q0 -381 274 -506l-75 -121q-168 66 -258 232t-90 395z" />
    <glyph glyph-name="bnVirama" unicode="&#x9cd;" 
d="M-291 -145l465 -326l-80 -113l-465 324z" />
    <glyph glyph-name="bnTAkhanda" unicode="&#x9ce;" horiz-adv-x="1069" 
d="M997 72q0 -51 -4 -76l-147 -29q4 41 4 89t-17 87t-71 71t-91 46t-135 48q-331 115 -414 328q-36 89 -36 200q0 213 116 345t310 132q152 0 253 -81t101 -219t-92 -215t-239 -77q-86 0 -167 34t-135 93v-14q0 -212 186 -318q89 -51 245 -103t244 -128t89 -213zM529 854
q89 0 141 43q51 43 51 116t-55 120q-56 47 -146 47t-156 -48t-100 -131q36 -67 106 -107t159 -40z" />
    <glyph glyph-name="bnAUlengthmark" unicode="&#x9d7;" horiz-adv-x="559" 
d="M205 1378q0 186 -236 187h-98q-178 0 -255 74.5t-77 189.5q0 41 4 59l144 31l-6 -68q0 -154 200 -153h107q162 0 264 -84t102 -228v-71h246v-131h-246v-1184h-149v1184h-246v131h246v63z" />
    <glyph glyph-name="bnDDxA" unicode="&#x9dc;" horiz-adv-x="1368" 
d="M739 264q170 0 273.5 93.5t103.5 244.5q0 88 -35 133q-152 -127 -331 -127q-111 0 -174.5 68.5t-63.5 175.5v332h-553v131h1450v-131h-745v-324q0 -113 96 -112q59 0 155.5 43t194.5 135q59 -39 106.5 -126t47.5 -194q0 -215 -143.5 -348t-383.5 -133q-295 0 -470 211
t-189 522l143 31q10 -291 152.5 -458t365.5 -167zM631 -160q0 45 28.5 73t72.5 28t73 -28t29 -73t-29 -73.5t-73 -28.5t-72.5 28.5t-28.5 73.5z" />
    <glyph glyph-name="bnDDHxA" unicode="&#x9dd;" horiz-adv-x="1120" 
d="M350 1184v-781q0 -72 41 -116.5t121 -44.5q135 0 235.5 106.5t100.5 251.5q0 84 -39 135t-117 51t-125 -34l-55 125q74 53 180 53q141 0 222 -91t81 -239q0 -197 -137 -347.5t-348 -150.5q-141 0 -224 80t-83 209v793h-244v131h1200v-131h-809zM412 -160q0 45 28.5 73
t73.5 28t72.5 -28t27.5 -73t-27.5 -73.5t-72.5 -28.5t-73.5 28.5t-28.5 73.5z" />
    <glyph glyph-name="bnYxA" unicode="&#x9df;" horiz-adv-x="1153" 
d="M309 1184v-8l260 -275v-115l-307 -237l547 -342h8q-18 266 -18 405v572h-490zM147 1184h-188v131h1235v-131h-246v-1061l82 -51l-102 -103l-803 500v152l299 229l-277 293v41zM197 -14q0 45 27.5 72.5t70.5 27.5t70.5 -27.5t27.5 -72.5t-27.5 -73t-70.5 -28t-70.5 28
t-27.5 73z" />
    <glyph glyph-name="bnvRR" unicode="&#x9e0;" horiz-adv-x="1540" 
d="M731 616v191q-129 -33 -260 -113t-211 -166l477 -311h8q-14 195 -14 399zM129 1181q1 -120 133 -120q154 0 234 258h57q102 -86 188 -166q-10 82 -10 258v107h146v-844l352 -244l6 4q-16 98 -16 311v773h147v-203h215v-131h-215v-850l-139 -72l-350 240v-371l86 -55
l-105 -103l-237 154l-142 -137l412 -269l-100 -100l-531 340l246 240l-397 256v141q115 117 289.5 219.5t349.5 145.5v8q-182 154 -193 164q-104 -205 -311 -205q-119 0 -188.5 66.5t-69.5 160.5t34 158h150q-41 -78 -41 -134z" />
    <glyph glyph-name="bnvLL" unicode="&#x9e1;" horiz-adv-x="1257" 
d="M1051 2.5q0 63.5 51 126.5l102 -51q-29 -37 -28.5 -81t52.5 -141.5t52 -181.5q0 -152 -102.5 -230.5t-284.5 -78.5q-74 0 -139 17l-15 112q205 29 205 184q0 94 -88 95q-37 0 -58.5 -22.5t-21.5 -63.5t31 -72l-90 -53q-59 63 -59.5 143t55 133t145.5 53t146.5 -60
t56.5 -148q0 -125 -90 -197q186 25 186 192q0 72 -53 166.5t-53 158zM995 519.5q0 132.5 -38.5 215t-102 131.5t-139.5 89t-153 77q-76 37 -140 83q-140 102 -141 300q0 39 10 70l147 26q-10 -37 -10 -69q0 -153 142 -242q62 -39 139 -73.5t154 -81t139.5 -106.5
t102.5 -162.5t40 -239.5q0 -248 -162 -392.5t-424 -150.5l-82 106q162 170 162 392q0 102 -51 160.5t-143.5 58.5t-145.5 -46.5t-53 -132.5q0 -145 172 -172l-45 -129q-121 20 -198 97.5t-77 218.5t96.5 222t245 81t244.5 -100.5t96 -274.5t-98 -330q156 33 234.5 137.5
t78.5 237z" />
    <glyph glyph-name="bnmvL" unicode="&#x9e2;" 
d="M-131 -138.5q0 63.5 51 126.5l103 -51q-27 -35 -27 -80t51 -142.5t51 -181.5q0 -152 -102 -230.5t-283 -78.5q-76 0 -141 16l-14 111q207 31 206 186q0 94 -88 94q-37 0 -59.5 -22.5t-22.5 -63.5t31 -71l-90 -54q-57 59 -57 141.5t54 135.5t145 53t147.5 -60.5
t56.5 -148.5q0 -123 -92 -198q186 25 186 194q0 70 -53 165.5t-53 159z" />
    <glyph glyph-name="bnmvLL" unicode="&#x9e3;" 
d="M336 -152q0 47 39 97l76 -41q-20 -27 -20.5 -59.5t39.5 -106.5t40 -135q0 -102 -68.5 -163t-208.5 -61q-47 0 -71 3v8h-2l-6 73q102 31 102 127q0 74 -76 74q-55 0 -92 -51q10 -41 10 -80q0 -152 -102 -230.5t-283 -78.5q-76 0 -141 16l-14 111q207 31 206 186
q0 94 -88 94q-37 0 -59.5 -22.5t-22.5 -63.5t31 -71l-90 -54q-57 59 -57 141.5t54 135.5t145 53t147.5 -60.5t56.5 -148.5q0 -123 -92 -198q186 25 186 194q0 70 -53 165t-53 159t51 127l103 -51q-27 -35 -27 -65.5t3 -46t10 -34t12.5 -29t17.5 -33t16 -30.5q53 53 126 53
t118 -49t45 -118t-43 -115q115 27 115 135q0 53 -40 124.5t-40 118.5z" />
    <glyph glyph-name="bnZero" unicode="&#x9e6;" horiz-adv-x="1216" 
d="M603 156q-226 0 -340 135q-113 135 -113 366t118 369q119 137 345 137t339 -134q113 -135 113 -367t-118 -369t-344 -137zM602 1024q-297 0 -297 -364t309 -365q297 1 297 365t-309 364z" />
    <glyph glyph-name="bnOne" unicode="&#x9e7;" horiz-adv-x="1077" 
d="M213 1233q0 37 8 70l150 24q-8 -49 -9 -72q0 -87 44 -157t106 -117q63 -47 139 -103q75 -56 139 -112t107 -145q43 -90 43 -201q0 -180 -111 -300t-314 -120t-316 93t-113 245t133 213l88 -100q-71 -31 -71 -116t70 -139t202 -54q131 0 208 75q77 76 77 217t-115 245
q-50 46 -112 88q-170 116 -238 181q-115 110 -115 285z" />
    <glyph glyph-name="bnTwo" unicode="&#x9e8;" horiz-adv-x="978" 
d="M342 1255q0 -53 52 -98t126 -86t148 -90t126 -131t52 -188q0 -144 -108 -236t-306 -88v-8q147 -68 287 -152l196 -125l-100 -106l-754 459l93 120l36 -20q98 -49 222 -49t204 51q80 52 80 142t-51 152t-125 105t-148 85t-124 104q-74 89 -45 207l147 24q-8 -49 -8 -72z
" />
    <glyph glyph-name="bnThree" unicode="&#x9e9;" horiz-adv-x="1484" 
d="M606 852q0 131 81 222t220 91t228 -76q89 -77 121 -183t32 -238q0 -246 -135 -408t-385 -162q-135 0 -243 52q-199 95 -299 353q-87 224 -89 564l139 43q0 -379 105 -616q55 -125 153 -193t234 -68q174 0 273 119q99 118 99 294q1 379 -220 380q-76 0 -121 -49t-45 -129
q0 -113 94 -176l-111 -84q-131 86 -131 264z" />
    <glyph glyph-name="bnFour" unicode="&#x9ea;" horiz-adv-x="1026" 
d="M521 115q122 0 197 57q75 56 75 148t-73 164t-192 110q-162 -70 -206 -107q-80 -67 -81 -163t78 -153q80 -56 202 -56zM768 991q0 89 -69 143t-179 54t-178 -53q-70 -53 -70 -143t66 -156t162 -101q128 55 198 111t70 145zM942 326q0 -166 -117 -258t-305 -91t-308 95
q-122 94 -122 256q0 124 69 202t191 140q-223 115 -223 325q0 150 109 239q108 89 282 89t285 -93q111 -92 111 -222t-62 -206q-61 -76 -176 -136q266 -115 266 -340z" />
    <glyph glyph-name="bnFive" unicode="&#x9eb;" horiz-adv-x="1247" 
d="M102 631q0 262 180 446t476 244l63 -107q-6 -35 -6 -65q0 -125 76 -181t219 -77l39 -137q-263 -96 -263 -307t201 -332l-26 -115q-467 0 -713 167t-246 464zM254 631q0 -215 169 -339t458 -153q-141 131 -141 330t204 340q-135 31 -201 123t-67 219q-210 -68 -316 -206
t-106 -314z" />
    <glyph glyph-name="bnSix" unicode="&#x9ec;" horiz-adv-x="1302" 
d="M432 1315q250 0 250 -289v-223q0 -111 96 -111q104 0 297 176q59 -37 107 -128t49 -205q0 -215 -139 -349t-379 -133q-287 0 -477 209t-201 502l151 33q8 -283 164 -442t365 -158q168 0 266 92t98 243q0 102 -32 148q-131 -129 -279 -129q-112 0 -176 69t-64 175v209
q0 88 -18 128t-86 40t-117 -58l-86 115q82 86 211 86z" />
    <glyph glyph-name="bnSeven" unicode="&#x9ed;" horiz-adv-x="1157" 
d="M244 827q0 -101 62 -155t189 -54t246 82v293q0 178 -184 178q-129 0 -221 -101t-92 -243zM741 289v262q-127 -76 -283 -76t-261 91q-106 91 -107 261q0 205 132 347t341 141q158 0 244 -84t86 -234v-686q0 -88 19 -129t86 -41t118 60l86 -115q-78 -86 -211 -86
q-250 0 -250 289z" />
    <glyph glyph-name="bnEight" unicode="&#x9ee;" horiz-adv-x="1419" 
d="M526 143q127 0 212 111t85 262q0 94 -59 146t-183 53q-124 0 -237 -78v-315q0 -179 182 -179zM344 1026v-242q131 74 262 74q178 0 275 -94q45 66 153 65h41q76 0 107 26t30 95l-6 49l140 -34q4 -29 4 -62q0 -217 -224 -217h-43q-88 0 -118 -63q14 -49 14 -117
q0 -210 -126 -358t-333 -148q-154 0 -240 85t-87 230v689q1 88 -19 128t-88 40t-117 -58l-86 115q82 86 211 86q250 0 250 -289z" />
    <glyph glyph-name="bnNine" unicode="&#x9ef;" horiz-adv-x="1292" 
d="M827 319q0 -90 -26 -172q233 82 233 326q0 102 -65 181q-66 79 -164 124t-214 93q-116 47 -214 89t-164 114t-66 163q0 37 9 70l149 26q-8 -29 -8 -79t49 -98t127 -83t172 -69q226 -81 363 -180q78 -56 127 -147t49 -206q0 -211 -127 -336t-332 -141l-92 94q53 90 53 218
t-66 196q-68 68 -176 68t-170 -66q-61 -66 -61 -172q0 -191 166 -211l-51 -131q-119 16 -190 106q-70 90 -70 250t101 261t274 101t279 -102q106 -104 105 -287z" />
    <glyph glyph-name="asRA" unicode="&#x9f0;" horiz-adv-x="1132" 
d="M784 887q-129 -47 -270 -133l268 -174q0 207 2 307zM254 563l537 -348h8q-8 72 -13 221l-378 250q-95 -64 -154 -123zM782 1184h-823v131h1215v-131h-246v-1055l84 -53l-107 -107l-801 525v135q98 98 299 224t379 181v150z" />
    <glyph glyph-name="asWA" unicode="&#x9f1;" horiz-adv-x="1124" 
d="M434 -74l-274 174l96 107l274 -176zM770 633v248q-123 -45 -281.5 -143.5t-234.5 -174.5l524 -342h8q-16 182 -16 412zM770 1184h-811v131h1206v-131h-243v-1053l84 -55l-105 -105l-797 523v137q98 98 296 221t370 178v154z" />
    <glyph glyph-name="bnTaka" unicode="&#x9f2;" horiz-adv-x="847" 
d="M35 907l24 144q175 -10 311 -84q250 -136 360 -473q50 -154 67 -342l-142 -33q-92 755 -620 788z" />
    <glyph glyph-name="bnBangladeshitaka" unicode="&#x9f3;" horiz-adv-x="1220" 
d="M944 602q0 82 -37 128t-103 46t-112 -41l-80 117q76 66 196 66t202 -85t82 -229q0 -248 -134 -426t-370 -178q-147 0 -233 79q-85 79 -85 220v457h-180v131h180v133q0 82 -32 120q-33 38 -115 38h-33v137q20 2 62 2q136 0 202 -78t66 -213v-139h121v-131h-121v-457
q0 -160 165 -160t262 133t97 330z" />
    <glyph glyph-name="bnNumeratorone" unicode="&#x9f4;" horiz-adv-x="815" 
d="M154 70l-88 104q207 199 341 433t242 556l129 -47q-218 -698 -624 -1046z" />
    <glyph glyph-name="bnNumeratortwo" unicode="&#x9f5;" horiz-adv-x="1396" 
d="M219 461q0 -88 88 -137l-110 -80q-127 76 -127 222t88 233t248 87t256 -103t96 -286q0 -31 -2 -47q139 170 235 362t187 451l129 -47q-217 -698 -627 -1046l-109 94q51 86 51 215t-58 198t-154 69t-144 -49q-47 -48 -47 -136z" />
    <glyph glyph-name="bnNumeratorthree" unicode="&#x9f6;" horiz-adv-x="1294" 
d="M174 782q0 108 73 183q73 73 205 73t201 -82q70 -82 70 -212t-74 -218t-221 -92q-178 -6 -178 -127q0 -67 63 -103t173 -36t209 64t162 168q175 291 175 835l133 -18q0 -539 -171 -861q-171 -321 -521 -321q-160 1 -263 69t-104 203q0 231 275 248q205 12 205 199
q0 66 -34 108t-106 41q-129 0 -129 -131q0 -55 41 -106l-118 -64q-66 72 -66 180z" />
    <glyph glyph-name="bnNumeratorfour" unicode="&#x9f7;" horiz-adv-x="559" 
d="M354 1315v-1315h-149v1315h149z" />
    <glyph glyph-name="bnNumeratoroneless" unicode="&#x9f8;" horiz-adv-x="1159" 
d="M186 1169h150v-624l504 440l135 -76v-780h-156v643l-487 -426l-146 68v755z" />
    <glyph glyph-name="bnDenominatorsixteen" unicode="&#x9f9;" horiz-adv-x="1085" 
d="M332 664q0 -104 60 -166t160 -62t158 62q60 62 60 168t-59 166t-159 61q-100 -1 -160 -63t-60 -166zM182 666q0 168 102 267t266 99q165 0 267 -99q103 -99 103 -267t-104 -270t-266 -101q-164 -1 -266 101t-102 270z" />
    <glyph glyph-name="bnIsshar" unicode="&#x9fa;" horiz-adv-x="1296" 
d="M524 334q-152 0 -281 89q-128 89 -194 230l123 68q123 -248 375 -248q218 0 348 171t217 427l131 -55q-41 -119 -72 -194t-91 -178t-127 -163q-166 -147 -429 -147zM444 849q0 44 29 73q29 28 73 28t72 -28t29 -73q0 -44 -29 -72q-28 -27 -72 -27t-73 28t-29 71z" />
    <glyph glyph-name="bnGanda" unicode="&#x9fb;" horiz-adv-x="552" 
d="M37 338q0 150 96 247t283 113l37 -137q-268 -31 -269 -225q0 -78 41 -133t117 -109l422 -303l-86 -117l-430 310q-211 152 -211 354z" />
    <glyph glyph-name="Wgrave" unicode="&#x1e80;" horiz-adv-x="1896" 
d="M549 1862l153 86l351 -262l-99 -74zM510 156h8q16 76 88 366l225 914h236l233 -924q45 -172 86 -354h9q53 236 88 370l231 908h162l-369 -1436h-237l-230 918q-33 129 -90 370h-8q-41 -193 -84 -358l-233 -930h-236l-371 1436h170l230 -889q61 -239 92 -391z" />
    <glyph glyph-name="wgrave" unicode="&#x1e81;" horiz-adv-x="1548" 
d="M360 1528l154 86l350 -262l-98 -74zM782 950h-8l-237 -950h-215l-295 1114h163l156 -614q53 -209 84 -359h8q41 197 72 316l168 657h205l164 -657q51 -215 71 -316h8q45 207 86 361l158 612h154l-299 -1114h-215z" />
    <glyph glyph-name="Wacute" unicode="&#x1e82;" horiz-adv-x="1896" 
d="M1331 1862l-405 -250l-99 74l349 262zM510 156h8q16 76 88 366l225 914h236l233 -924q45 -172 86 -354h9q53 236 88 370l231 908h162l-369 -1436h-237l-230 918q-33 129 -90 370h-8q-41 -193 -84 -358l-233 -930h-236l-371 1436h170l230 -889q61 -239 92 -391z" />
    <glyph glyph-name="wacute" unicode="&#x1e83;" horiz-adv-x="1548" 
d="M1171 1528l-405 -250l-98 74l348 262zM782 950h-8l-237 -950h-215l-295 1114h163l156 -614q53 -209 84 -359h8q41 197 72 316l168 657h205l164 -657q51 -215 71 -316h8q45 207 86 361l158 612h154l-299 -1114h-215z" />
    <glyph glyph-name="Wdieresis" unicode="&#x1e84;" horiz-adv-x="1896" 
d="M1042 1788q0 43 30 72q30 28 73 28t72 -28t29 -72q0 -43 -30 -72q-28 -28 -71 -28t-73 28t-30 72zM651 1788q0 43 28 72q28 28 72 28q45 0 73 -28t28 -72q0 -43 -29 -72q-29 -28 -73 -28t-71 28q-28 28 -28 72zM510 156h8q16 76 88 366l225 914h236l233 -924
q45 -172 86 -354h9q53 236 88 370l231 908h162l-369 -1436h-237l-230 918q-33 129 -90 370h-8q-41 -193 -84 -358l-233 -930h-236l-371 1436h170l230 -889q61 -239 92 -391z" />
    <glyph glyph-name="wdieresis" unicode="&#x1e85;" horiz-adv-x="1548" 
d="M868 1454q0 43 30 72q30 28 73 28t71 -28t29 -72q0 -43 -29 -72q-30 -28 -72 -28t-72 28t-30 72zM477 1454q0 43 28 72q28 28 72 28q45 0 73 -28t28 -72q0 -43 -29 -72q-29 -28 -73 -28t-71 28q-28 28 -28 72zM782 950h-8l-237 -950h-215l-295 1114h163l156 -614
q53 -209 84 -359h8q41 197 72 316l168 657h205l164 -657q51 -215 71 -316h8q45 207 86 361l158 612h154l-299 -1114h-215z" />
    <glyph glyph-name="Ygrave" unicode="&#x1ef2;" horiz-adv-x="1107" 
d="M137 1862l154 86l350 -262l-98 -74zM635 0h-162v518l-475 918h186l371 -750h8l371 750h176l-475 -918v-518z" />
    <glyph glyph-name="ygrave" unicode="&#x1ef3;" horiz-adv-x="1019" 
d="M104 1528l154 86l350 -262l-98 -74zM182 -428q-74 0 -127 20l25 142q51 -18 104 -19q104 1 166 59t99 187l-404 1153h172l180 -547q84 -256 125 -405h8q31 137 115 405l172 547h166l-393 -1192q-58 -170 -152 -260t-256 -90z" />
    <glyph glyph-name="uni200C" unicode="&#x200c;" 
d="M-51 -512v2048h102v-2048h-102z" />
    <glyph glyph-name="uni200D" unicode="&#x200d;" 
d="M51 -512h-102v1933l-99 -98l-63 63l150 150l-150 152l63 61l150 -150l150 150l61 -66l-148 -147l150 -150l-66 -61l-96 96v-1933z" />
    <glyph glyph-name="endash" unicode="&#x2013;" horiz-adv-x="841" 
d="M842 539h-842v143h842v-143z" />
    <glyph glyph-name="emdash" unicode="&#x2014;" horiz-adv-x="1372" 
d="M1372 539h-1372v143h1372v-143z" />
    <glyph glyph-name="quoteleft" unicode="&#x2018;" horiz-adv-x="534" 
d="M231 1252q0 -44 23 -74q24 -30 46 -45q22 -14 69 -41v-11q0 -55 -37 -92q-36 -37 -98 -37t-105 50t-43 139q0 129 81 224t179 130l41 -76q-74 -29 -115 -76t-41 -91z" />
    <glyph glyph-name="quoteright" unicode="&#x2019;" horiz-adv-x="534" 
d="M305 1197q0 44 -23 75q-24 31 -46 45t-68 39v12q0 55 36 91t98 36t105 -49q44 -49 44 -137q0 -129 -81 -227q-82 -97 -182 -130l-41 78q74 29 116 76t42 91z" />
    <glyph glyph-name="quotesinglbase" unicode="&#x201a;" horiz-adv-x="493" 
d="M238 -37q0 49 -28 81t-89 62v15q0 53 35 88q36 35 96 35t102 -48t41 -153q0 -105 -80 -201t-178 -131l-51 84q152 68 152 168z" />
    <glyph glyph-name="quotedblleft" unicode="&#x201c;" horiz-adv-x="946" 
d="M643 1252q0 -44 23 -74q24 -30 46 -45q22 -14 68 -41v-11q0 -55 -37 -92t-99 -37t-104 50t-42 139q0 129 81 224t179 130l41 -76q-74 -29 -115 -76t-41 -91zM231 1252q0 -44 23 -74q24 -30 46 -45q22 -14 69 -41v-11q0 -55 -37 -92q-36 -37 -98 -37t-105 50t-43 139
q0 129 81 224t179 130l41 -76q-74 -29 -115 -76t-41 -91z" />
    <glyph glyph-name="quotedblright" unicode="&#x201d;" horiz-adv-x="946" 
d="M305 1197q0 44 -23 75q-24 31 -46 45t-68 39v12q0 55 36 91t98 36t105 -49q44 -49 44 -137q0 -129 -81 -227q-82 -97 -182 -130l-41 78q74 29 116 76t42 91zM717 1197q0 44 -24 75q-23 31 -45 45t-68 39v12q0 55 35 91q36 36 98 36q61 0 105 -49t44 -137q0 -129 -81 -227
t-181 -130l-41 78q74 29 116 76t42 91z" />
    <glyph glyph-name="quotedblbase" unicode="&#x201e;" horiz-adv-x="905" 
d="M236 -37q0 86 -117 143v15q0 53 36 88t95 35t101 -48t42 -154t-79 -201t-177 -130l-53 84q152 66 152 168zM530 121q0 53 36 88t95 35t101 -48t43 -154q0 -106 -79 -201t-177 -130l-53 84q152 66 151 168q0 86 -117 143v15z" />
    <glyph glyph-name="dagger" unicode="&#x2020;" horiz-adv-x="1071" 
d="M449 -272l18 1245l-377 -25v176l377 -24l-25 444h185l-27 -444l381 24v-176l-381 25l23 -1245h-174z" />
    <glyph glyph-name="daggerdbl" unicode="&#x2021;" horiz-adv-x="1071" 
d="M465 973l-375 -25v176l377 -24l-25 444h185l-27 -444l381 24v-176l-377 25l10 -338l-10 -338l377 25v-177l-379 23l27 -442h-185l25 442l-379 -23v177l375 -27l-8 340z" />
    <glyph glyph-name="bullet" unicode="&#x2022;" horiz-adv-x="921" 
d="M733 727q0 -115 -78 -193q-77 -78 -195 -79t-195 77t-77 194t78 194t195 78t195 -78t77 -193z" />
    <glyph glyph-name="ellipsis" unicode="&#x2026;" horiz-adv-x="1599" 
d="M1247 125q0 53 36 90t89 37t90 -37t37 -90t-37 -89t-90 -36t-89 36t-36 89zM672 125q0 53 37 90t90 37t90 -37t37 -90t-37 -89t-90 -36t-90 36t-37 89zM100 125q0 53 36 90t89 37t90 -37t37 -90t-37 -89t-89 -36t-89 36t-37 89z" />
    <glyph glyph-name="perthousand" unicode="&#x2030;" horiz-adv-x="2461" 
d="M2056 96q86 0 128 65t42 208q0 276 -178 276q-166 -1 -166 -275t174 -274zM2363 374q0 -192 -86 -293t-227 -101t-223 97t-82 289t87 293t227 101t222 -96q82 -98 82 -290zM1292 96q168 0 168 274t-176 275q-166 -1 -166 -275t174 -274zM1597 374q0 -192 -86 -293
t-227 -101t-223 97t-82 289t87 293t227 101t223 -96q81 -98 81 -290zM406 43l-99 80l1016 1266l96 -80zM412 770q84 0 126 65t42 209q0 274 -177 275q-165 -1 -165 -275t174 -274zM98 1040q0 192 87 294t227 102t223 -98q82 -98 82 -290t-86 -292q-87 -100 -229 -100
t-223 96t-81 288z" />
    <glyph glyph-name="guilsinglleft" unicode="&#x2039;" horiz-adv-x="604" 
d="M94 553l314 434l106 -82l-244 -352l244 -350l-106 -80z" />
    <glyph glyph-name="guilsinglright" unicode="&#x203a;" horiz-adv-x="604" 
d="M514 553l-313 -430l-107 80l244 350l-244 352l107 82z" />
    <glyph glyph-name="fraction" unicode="&#x2044;" horiz-adv-x="362" 
d="M721 1356l-983 -1338l-92 60l981 1343z" />
    <glyph glyph-name="four.superior" unicode="&#x2074;" horiz-adv-x="747" 
d="M463 1102v262q0 96 12 170h-4q-43 -70 -90 -143l-195 -289h277zM463 993h-393l-27 101l389 559h158v-551h110v-109h-110v-186h-127v186z" />
    <glyph glyph-name="rupee" unicode="&#x20a8;" horiz-adv-x="2189" 
d="M1681 119q111 0 171 50t61 123q-1 73 -59 118q-58 46 -141 74t-165 62t-140 104t-58 184q0 116 103 207t297 91t306 -118l-102 -111q-86 90 -212 90t-180 -47t-54 -117q0 -71 58 -115t141 -73t165 -63t140 -104t58 -186t-104 -211t-293 -95q-129 0 -232 41t-161 100
l98 119q119 -123 303 -123zM356 1290v-553h185q324 0 323 277q0 147 -83 212t-251 64h-174zM193 1436h360q479 0 479 -404q0 -168 -93 -272t-230 -119v-8q90 -41 174 -184l264 -449h-195l-260 459q-80 137 -223 137h-113v-596h-163v1436z" />
    <glyph glyph-name="Euro" unicode="&#x20ac;" horiz-adv-x="1220" 
d="M401 705q0 -61 2 -82h431l-31 -127h-385q59 -367 368 -367q150 0 263 94l90 -119q-121 -121 -375 -120q-444 0 -510 512h-176v127h166v163h-166v129h180q43 248 178 382q135 135 371 135t348 -119l-102 -129q-111 102 -265 102q-310 0 -372 -371h489l-33 -129h-469
q-2 -20 -2 -81z" />
    <glyph glyph-name="indianrupee" unicode="&#x20b9;" horiz-adv-x="980" 
d="M739 0h-184l-371 463l-114 123l39 125q174 -39 297 15t137 204h-459v131h446q-25 73 -87 109t-144 36h-215v131h887l-62 -131h-325v-8q70 -45 98 -137h289l-62 -131h-213q-12 -172 -141 -264t-287 -84l-2 -7q23 -23 158 -180l315 -379v-16z" />
    <glyph glyph-name="trademark" unicode="&#x2122;" horiz-adv-x="1224" 
d="M10 1356v80h424v-80h-160v-482h-100v482h-164zM621 872h-95v564h158l139 -410l138 410h157v-564h-94v291l2 174h-8l-152 -424h-88l-151 433h-9l3 -183v-291z" />
    <glyph glyph-name="uni2126" unicode="&#x2126;" horiz-adv-x="1550" 
d="M782 1454q293 0 462 -180t169 -520q0 -238 -96 -397t-244 -220v-8l357 16v-145h-541v174q354 98 354 563q0 285 -129 429t-341 144t-336 -138q-124 -140 -124 -405q1 -265 101 -407t254 -186v-174h-543v145l358 -16v8q-155 61 -247 212t-93 392q0 337 173 525t466 188z
" />
    <glyph glyph-name="estimated" unicode="&#x212e;" horiz-adv-x="1366" 
d="M983 614v353q-113 80 -285 80t-288 -93v-340h573zM410 526v-366q126 -90 288 -90t275 58t170 165l78 -45q-152 -268 -508 -268q-268 0 -431 160t-163 416q0 255 162 418t423 163t406 -154t145 -408l-2 -49h-843z" />
    <glyph glyph-name="partialdiff" unicode="&#x2202;" horiz-adv-x="1095" 
d="M819 518q0 109 -18 172q-88 84 -254 84q-274 0 -275 -321q0 -158 73 -244t200 -86q274 0 274 395zM250 1415h244q190 -111 336 -342t146 -511t-115 -426q-116 -148 -323 -148q-208 0 -316 116t-108 333q0 218 119 346t285 128t244 -57l4 4q-66 182 -199 311t-317 232v14z
" />
    <glyph glyph-name="uni2206" unicode="&#x2206;" horiz-adv-x="1355" 
d="M674 1274l-137 -332l-236 -532l-129 -273h1008l-127 273l-236 530l-135 334h-8zM1251 0h-1147l-88 121l582 1315h162l577 -1315z" />
    <glyph glyph-name="product" unicode="&#x220f;" horiz-adv-x="1343" 
d="M272 137v1299h818v-1753h-160v1613h-498v-1165q0 -319 -119 -459l-133 76q55 80 74 155q18 75 18 234z" />
    <glyph glyph-name="summation" unicode="&#x2211;" horiz-adv-x="1064" 
d="M971 -205v-141h-817l-56 119l441 774l-441 774l56 115h817v-140h-486l-211 9v-9l105 -176l330 -573l-332 -582l-103 -170v-8l213 8h484z" />
    <glyph glyph-name="minus" unicode="&#x2212;" horiz-adv-x="1077" 
d="M61 625v141h955v-141h-955z" />
    <glyph glyph-name="uni2215" unicode="&#x2215;" horiz-adv-x="362" 
d="M721 1356l-983 -1338l-92 60l981 1343z" />
    <glyph glyph-name="uni2219" unicode="&#x2219;" horiz-adv-x="475" 
d="M111 723q0 53 36 90q37 37 91 37t90 -37q37 -37 37 -90t-37 -89t-90 -36t-91 36q-36 36 -36 89z" />
    <glyph glyph-name="radical" unicode="&#x221a;" horiz-adv-x="1323" 
d="M664 -190h8l149 546l447 1598h145l-639 -2280h-209l-418 1135h-231l18 131h322l231 -631z" />
    <glyph glyph-name="infinity" unicode="&#x221e;" horiz-adv-x="1710" 
d="M1468 708q0 93 -59 154t-162 62q-154 0 -307 -217q78 -102 147 -156q70 -53 169 -53t156 58q56 59 56 152zM449 371q-166 0 -258 91q-91 91 -91 243q0 153 98 247t263 95q121 -1 213 -63t182 -179q88 115 182 179t238 65q144 -1 240 -91q94 -90 94 -240t-98 -249
q-98 -98 -263 -98q-125 0 -215 61t-182 176q-90 -111 -184 -174t-219 -63zM240 713q0 -95 58 -157t163 -62q152 0 307 215q-74 96 -146 154q-73 59 -170 59q-96 0 -154 -58t-58 -151z" />
    <glyph glyph-name="integral" unicode="&#x222b;" horiz-adv-x="792" 
d="M784 1892q142 0 222 -37l-56 -133q-61 29 -149 29q-201 0 -230 -223l-198 -1536q-23 -174 -126 -267t-241 -93t-225 36l55 133q61 -29 152 -28q199 0 227 225l201 1536q20 174 124 266q102 92 244 92z" />
    <glyph glyph-name="approxequal" unicode="&#x2248;" horiz-adv-x="1091" 
d="M322 487q-102 0 -144 -133l-137 31q57 244 295 244q74 0 221 -64q147 -59 207 -59t94 28q33 28 53 103l138 -25q-53 -248 -275 -247q-82 0 -234 61t-218 61zM774 756q-88 0 -240 61t-212 62q-100 0 -144 -134l-137 29q57 244 295 244q78 0 221 -62t205 -61t95 29
q34 28 54 102l138 -22q-53 -248 -275 -248z" />
    <glyph glyph-name="notequal" unicode="&#x2260;" horiz-adv-x="1077" 
d="M61 395v142h357l123 317h-480v141h533l90 232h135l-90 -232h287v-141h-342l-123 -317h465v-142h-518l-92 -235h-134l90 235h-301z" />
    <glyph glyph-name="lessequal" unicode="&#x2264;" horiz-adv-x="1077" 
d="M1016 43h-955v141h955v-141zM225 727v-8l297 -123l494 -221v-162l-955 438v148l955 438v-164l-494 -223z" />
    <glyph glyph-name="greaterequal" unicode="&#x2265;" horiz-adv-x="1077" 
d="M61 43v141h955v-141h-955zM850 727l-295 123l-494 223v164l955 -438v-148l-955 -438v162l492 221l297 123v8z" />
    <glyph glyph-name="lozenge" unicode="&#x25ca;" horiz-adv-x="1134" 
d="M893 713l-332 596h-2l-102 -187l-226 -401l218 -391l110 -205h2zM55 717l412 719h195l407 -719l-414 -717h-192z" />
    <glyph glyph-name="uni25CC" unicode="&#x25cc;" horiz-adv-x="1351" 
d="M526 1147q0 41 26 65.5t64.5 24.5t64.5 -24.5t26 -65.5t-26 -65.5t-64.5 -24.5t-64.5 24.5t-26 65.5zM784 1117q0 38 26 64.5t66 26.5t64.5 -25.5t24.5 -64.5t-26 -65.5t-63.5 -26.5t-64.5 26.5t-27 64.5zM979 977q0 39 25.5 65.5t64.5 26.5t64.5 -25.5t25.5 -65.5
t-25.5 -65.5t-64.5 -25.5t-64.5 25.5t-25.5 64.5zM1081 735q0 39 24.5 64.5t64.5 25.5t66 -25.5t26 -64.5t-26 -64.5t-66 -25.5t-64.5 25.5t-24.5 64.5zM1061 461q0 39 26.5 65.5t64.5 26.5t63.5 -26.5t25.5 -65.5t-25.5 -64.5t-63.5 -25.5t-64.5 25.5t-26.5 64.5zM911 260
q0 39 26 64.5t64.5 25.5t65.5 -25.5t27 -64.5t-27 -64.5t-65.5 -25.5t-64.5 25.5t-26 64.5zM664 152q0 41 24.5 65.5t65.5 24.5t66.5 -26t25.5 -64.5t-25.5 -64.5t-66.5 -26t-65.5 25t-24.5 66zM403 182q0 39 27 65.5t66 26.5t64.5 -26.5t25.5 -65.5t-25.5 -65.5
t-64.5 -26.5t-66 26.5t-27 65.5zM197 338q0 39 25.5 64.5t64.5 25.5t64.5 -25.5t25.5 -64.5t-25.5 -64.5t-65.5 -25.5t-64.5 25.5t-24.5 64.5zM90 575.5q0 38.5 25.5 65.5t64.5 27t64.5 -26t25.5 -66t-25.5 -64.5t-64.5 -24.5t-64.5 25t-25.5 63.5zM117 833.5
q0 38.5 26.5 64.5t65.5 26t65.5 -26t26.5 -64.5t-26.5 -64.5t-65.5 -26t-65.5 26t-26.5 64.5zM285 1058q0 40 25.5 65.5t64.5 25.5t64.5 -25.5t25.5 -65.5t-25.5 -65.5t-64.5 -25.5t-64.5 25.5t-25.5 65.5z" />
    <glyph glyph-name="bnK_SSA" horiz-adv-x="1783" 
d="M963 850h151v334h-313v-152q0 -182 162 -182zM1264 -6h-140q-35 137 -166 242.5t-301 121.5q-25 -82 -69.5 -119.5t-94.5 -37.5t-81 29.5t-31 82.5t42 99.5t114 66.5v43q0 106 -59.5 176t-151.5 90q-20 -78 -66.5 -117.5t-96.5 -39.5t-81 30.5t-31 84.5t41 99.5t113 65.5
q-2 162 -123 273h-123v131h1866v-131h-561v-334h84q166 0 263 -84t97 -223q0 -223 -199 -326l-96 111q150 63 150 215q0 86 -57.5 128t-153.5 42h-88v-719zM1114 655v58h-149q-137 0 -223.5 85t-86.5 236v150h-403q88 -125 88 -264q139 -18 238.5 -126t99.5 -268v-37
q145 -10 273 -87.5t177 -155.5q-14 172 -14 409z" />
    <glyph glyph-name="bnJ_NYA" horiz-adv-x="1697" 
d="M1438 813q0 115 -142 115q-74 0 -140 -80t-66 -233t61 -243.5t172 -90.5q63 0 100 37.5t37 97.5t-43 96.5t-121 36.5h-41v119h35q70 0 109 38.5t39 106.5zM1331 150q-168 0 -262 131q-43 -94 -134 -149.5t-222 -55.5q-264 0 -441.5 219t-187.5 526l141 41
q4 -268 140.5 -454.5t343.5 -186.5q119 0 186.5 60.5t67.5 137t-27 144.5l-236 12q-258 16 -258 226q0 156 150 383h-633v131h1780v-131h-821q8 -205 102 -330q90 203 301 203q113 0 183.5 -67.5t70.5 -155.5q0 -164 -133 -216v-8q63 -20 108 -73.5t45 -148t-71.5 -166.5
t-192.5 -72zM590 809q0 -88 127 -96l264 -19q-188 139 -207 490h-6q-68 -78 -123 -188.5t-55 -186.5z" />
    <glyph glyph-name="ITF" horiz-adv-x="3260" 
d="M2650 465v383h408v-383h-408zM2650 930v385h408v-385h-408zM2161 0v1315h407v-1315h-407zM1671 930v385h408v-385h-408zM1184 0v1315h405v-1315h-405zM694 930v385h406v-385h-406zM205 0v1315h405v-1315h-405z" />
    <glyph glyph-name="bnNull" 
 />
    <glyph glyph-name="bnReph" 
d="M-354 1538l557 389l76 -108l-558 -396z" />
    <glyph glyph-name="bnRAc2" 
d="M-352 184h147v-585h-139q-14 100 -60.5 159.5t-146.5 59.5l-223 -13q-326 0 -344 357l149 37q-2 -113 46.5 -183.5t148.5 -70.5l215 10q152 0 221 -117h8q-23 127 -22 234v112z" />
    <glyph glyph-name="bnYAc2" horiz-adv-x="518" 
d="M252 1184h-293v131h600v-131h-22q-101 0 -175 -69t-73 -212q0 -96 52 -279t52 -305q0 -244 -186 -391l-117 92q156 129 156 314q0 100 -56 281q-55 181 -55 296q0 168 117 265v8z" />
    <glyph glyph-name="bnBAc2" 
d="M-350 57v35q-221 -80 -416 -219l422 -221h8q-14 203 -14 405zM-350 268h145v-688l119 -61l-109 -103l-716 375v150q248 207 561 295v32z" />
    <glyph glyph-name="bnK" horiz-adv-x="1339" 
d="M664 575q-14 203 -15 394q-231 -43 -411 -209l417 -185h9zM1378 1184h-583v-74q213 -8 331 -103t119 -241q0 -223 -203 -326l-92 111q152 61 152 215q0 203 -307 213v-582l-88 2l-613 277v145q238 238 555 281v82h-690v131h1419v-131z" />
    <glyph glyph-name="bnKH" horiz-adv-x="1204" 
d="M555 1143q-89 -209 -305 -209q-102 0 -170 66q-66 66 -66 171q0 63 29 144h141q-35 -66 -34 -139q0 -119 118 -119q70 0 127 60t115 198h53q84 -51 133 -130t49 -167q0 -303 -417 -359v-8l553 -211l8 2q-12 186 -12 437v639h147v-203h221v-131h-221v-881h-125l-823 307
v146q260 4 397 64t137 198q0 84 -55 125z" />
    <glyph glyph-name="bnG" horiz-adv-x="1245" 
d="M504 778q0 134 -184 134q-96 0 -199 -54l-103 100q42 150 180 256t307 106t271 -72q102 -73 144 -150h8q-10 25 -20 131q-9 105 -9 178v111h141v-203h263v-131h-263v-791h-141v389q0 164 -107 285q-108 121 -280 121q-117 0 -201 -60t-125 -137q78 39 191 39t193 -70
t79 -184q0 -115 -79 -208t-203 -158l-99 108q236 121 236 260z" />
    <glyph glyph-name="bnGH" horiz-adv-x="1202" 
d="M854 807v377h-530q-74 -56 -74 -144q0 -166 188 -166q111 0 217 66l62 -119l-430 -258l575 -162h8q-16 180 -16 406zM-41 1184v131h1284v-131h-246v-920h-139l-739 213v144l102 63q31 20 168 88v8q-135 8 -207 74t-72 163t50 167h-201z" />
    <glyph glyph-name="bnNG" horiz-adv-x="1368" 
d="M-41 1184v131h389q43 -162 160 -264q2 139 76 213t198 74t207 -70q82 -70 82 -188t-84 -184t-219 -65q-66 0 -131 17v-45q0 -119 115 -119q145 0 366 190q58 -46 100 -126t42 -183q0 -186 -136 -297t-372 -110q-295 0 -476 191q-180 191 -196 474l139 35
q18 -272 168 -418t367 -147q172 0 266 75t94 193q0 82 -31 127q-178 -133 -340 -133q-113 0 -176 66t-63 176v106q-164 96 -252 281h-293zM637 1036v-63q61 -23 137 -23t120 38t44 98t-41 96q-41 37 -109 37q-151 -1 -151 -183z" />
    <glyph glyph-name="bnC" horiz-adv-x="972" 
d="M297 571q0 -121 127 -120q109 1 202 77t93 187q0 63 -33 101t-133 73l-102 37q-106 37 -154 98h-8l8 -307v-146zM1014 1184h-709q31 -68 160 -117l137 -51q136 -51 198 -118t62 -183q0 -156 -128 -277t-312 -121q-123 0 -195 67t-71 181v619h-197v131h1055v-131z" />
    <glyph glyph-name="bnCH" horiz-adv-x="1159" 
d="M393 662q85 0 137 55t52 115t-52 87t-131 51q-80 24 -116 54v-262q0 -100 110 -100zM1044 707q0 -389 -544 -410v-8q84 -23 272 -121l318 -166l-97 -102q-455 248 -592 309t-251 72v122h229q526 0 526 304q0 98 -59 154t-154 65q18 -37 19 -86q0 -119 -91 -210
q-92 -91 -216 -91t-190 60t-64 153v432h-191v131h1241v-131h-932q14 -33 58 -56q44 -22 120 -48t113 -42q55 16 121 17q156 1 260 -97t104 -251z" />
    <glyph glyph-name="bnJ" horiz-adv-x="1521" 
d="M645 334q115 0 177 55t62 127t-32 115l-174 14q-238 20 -238 205q0 100 83 179t216 155h-780v131h1604v-131h-641q23 -129 122 -226q100 -96 289 -96h39l66 -100q-96 -168 -97 -410v-186h-135v192q0 94 21 207t55 174q-176 5 -308 109t-159 239q-6 -4 -52 -31t-87 -60
t-50 -45q-8 -13 -24 -33t-16 -61q0 -80 135 -87l213 -16q43 -38 70 -98t26 -121q0 -143 -103 -239t-280 -97q-254 0 -427 209t-181 505l135 39q4 -260 137 -439t334 -179z" />
    <glyph glyph-name="bnJH" horiz-adv-x="1398" 
d="M803 377h-101l-577 305v149q252 182 543 299v54h-709v131h844v-522l291 -154v879h135v-203h211v-131h-211v-682l-103 -27l-323 172v-270zM668 930v55q-217 -96 -414 -227l420 -215h8q-14 186 -14 387z" />
    <glyph glyph-name="bnNY" horiz-adv-x="1536" 
d="M1333 1098q1 96 -119 96q-62 0 -121 -69t-59 -193t56 -202q56 -77 151 -77q51 0 81 30t30 73q0 106 -135 106h-46v129h39q55 0 89 31t34 76zM802 1317q156 0 204 -111q31 45 91 80q61 35 155 35t158 -59t65 -156q0 -123 -113 -170v-8q131 -43 131 -176q0 -98 -66 -162
t-178 -64q-61 0 -123 30t-102 67q14 -51 14 -150v-227h-133q0 100 -77 149t-290 52q-212 3 -330 87t-118 228q0 90 43 172l139 -35q-36 -63 -36 -145t74 -127t286 -48q210 -3 313 -90h9q-18 106 -19 297v289q0 111 -97 111t-179 -80t-82 -169t88 -89q72 0 112 41l58 -115
q-72 -55 -175 -55t-166 59q-62 59 -63 154q0 139 126 262q125 123 281 123z" />
    <glyph glyph-name="bnTT" horiz-adv-x="1048" 
d="M322 1184v-553q0 -158 172 -158q131 0 213 80t81 201q0 166 -141 166q-80 0 -125 -66l-82 119q80 88 208 88t207 -84t79 -223q0 -180 -125 -300t-320 -120q-137 0 -223 75t-86 207v568h-221v131h815q10 47 10 82q0 84 -54 122t-171 37h-237q-172 0 -246 73t-74 183
q0 39 4 58l135 28q-6 -61 -6 -65q0 -150 197 -150h248q156 1 250 -71t96 -207q0 -29 -8 -90h172v-131h-768z" />
    <glyph glyph-name="bnTTH" horiz-adv-x="1163" 
d="M615 272q130 0 206 82t76 205t-83 237q-83 115 -174 206q-3 2 -7 8t-8 10q11 -187 -71 -319q-34 -52 -96 -103t-149 -80q8 -82 92 -164t214 -82zM1038 555q0 -174 -116 -295t-309 -121t-327 136t-143 323q184 49 271 144q86 95 86 268v151l-23 23h-518v131h430
q-123 141 -123 280t98 223t242 76l29 -131q-97 8 -159 -40t-62 -134q0 -117 137 -274h651v-131h-557q188 -196 251 -274q64 -77 86 -123q56 -117 56 -232z" />
    <glyph glyph-name="bnDD" horiz-adv-x="1306" 
d="M692 391q162 0 263 89t102 222q0 80 -37 136q-160 -127 -309 -127q-104 0 -166 65q-61 66 -62 168v240h-524v131h1389v-131h-723v-234q0 -109 94 -108q133 0 325 172q58 -39 106 -119t48 -190q0 -203 -138 -326t-370 -123q-287 0 -454 208t-181 509l142 28
q10 -281 145 -445t350 -165z" />
    <glyph glyph-name="bnDDH" horiz-adv-x="1048" 
d="M322 1184v-553q0 -158 172 -158q131 0 213 80t81 201q0 166 -141 166q-80 0 -125 -66l-82 119q80 88 208 88t207 -84t79 -223q0 -180 -125 -300t-320 -120q-137 0 -223 75t-86 207v568h-221v131h1131v-131h-768z" />
    <glyph glyph-name="bnNN" horiz-adv-x="1179" 
d="M489 1202q-129 0 -201 -78t-71 -190q1 -114 61 -174t160 -62q100 0 185 95l55 -119q-96 -104 -248 -104t-253 100t-101 266t108 280t299 113q244 0 363 -213h8q-18 82 -18 301v101h139v-203h246v-131h-246v-672h-141v193q0 227 -88 362t-257 135z" />
    <glyph glyph-name="bnT" horiz-adv-x="1394" 
d="M1436 1315v-131h-1477v131h1477zM625 762q0 127 82 208q83 81 237 81t249 -122q95 -123 95 -323t-135 -340t-342 -139q-207 0 -354 114q-147 113 -231 291t-132 422l139 62q137 -756 568 -756q152 0 245 106t93 248q-1 144 -53 221t-152 76q-72 0 -116 -42t-44 -115
q0 -102 88 -154l-102 -88q-135 82 -135 250zM797 -80l465 -326l-80 -112l-465 323z" />
    <glyph glyph-name="bnTH" horiz-adv-x="1247" 
d="M115 1025q0 134 92 218t235 84q142 0 244 -83q102 -84 102 -234t-100 -249t-348 -130v-8l571 -230h9q-14 203 -15 404v721h142v-203h237v-131h-237v-928h-132l-784 317v156q514 10 514 281q0 86 -54 136q-53 50 -141 50t-140 -46t-52 -127t70 -138l-113 -68
q-100 74 -100 208z" />
    <glyph glyph-name="bnD" horiz-adv-x="1056" 
d="M1096 1184h-781v-453q91 97 227 199t257 151l133 -71q-68 -207 -68 -455v-129h-139v129q0 211 47 369q-258 -172 -455 -402l-145 78v584h-213v131h1137v-131z" />
    <glyph glyph-name="bnDH" horiz-adv-x="1140" 
d="M809 795v118l-547 -305l553 -209h8q-14 195 -14 396zM408 1204q-78 0 -118 -37t-40 -98q0 -141 215 -141q143 0 344 129v258h371v-131h-238v-910h-135l-692 263v127l110 65q97 59 156 78l22 10v8q-135 5 -216 69t-81 178t77 186t210 71q133 0 211 -67l-53 -107
q-66 49 -143 49z" />
    <glyph glyph-name="bnN" horiz-adv-x="1089" 
d="M397 897q-84 0 -127 -41t-43 -104q0 -106 113 -158l-107 -84q-152 70 -151 244q0 124 83 202t218 78t239 -81t154 -212h8q-25 172 -24 383v60h-801v131h1171v-131h-221v-711l-143 2q-47 195 -143 309t-226 113z" />
    <glyph glyph-name="bnP" horiz-adv-x="1341" 
d="M568 1327q175 0 288 -78t170 -186l6 2q-8 27 -19 143t-12 224v86h150v-203h231v-131h-231v-752h-147v236q0 125 -37 229l-621 -436l-76 114l199 140q-63 182 -272 196q-18 4 -56 9l-86 118q72 117 205 203t308 86zM578 1190q-115 0 -201 -48t-129 -106q111 -6 202 -65
t134 -176l321 225q-121 170 -327 170z" />
    <glyph glyph-name="bnPH" horiz-adv-x="1560" 
d="M979 266h-107l-692 266v152l301 201l-278 258v41h-244v131h1643v-131h-1233v-8l256 -236v-117l-301 -202l516 -197h8q-14 209 -14 405v189q111 47 266 47t272 -88t117 -252q0 -236 -242 -336l-90 115q186 68 186 219q0 92 -68 147q-69 56 -155 56t-141 -15v-645z" />
    <glyph glyph-name="bnB" horiz-adv-x="1019" 
d="M696 535h9q-16 233 -17 405v31q-223 -104 -420 -226zM1061 1184h-227v-809h-127l-580 289v159q240 162 561 301v60h-729v131h1102v-131z" />
    <glyph glyph-name="bnBH" horiz-adv-x="1425" 
d="M1466 1184h-1507v131h1507v-131zM688 888q0 -126 122 -126q62 0 122 64q59 64 125 221h106q158 -154 158 -359q0 -206 -129 -322t-356 -116q-154 0 -282 62q-228 111 -363 403q-58 127 -89 274l131 55q55 -287 215 -474t388 -187q164 0 256 84q92 85 92 201t-64 219h-8
q-111 -248 -311 -248q-113 0 -183 69t-70 159t42 151l139 -25q-41 -45 -41 -105z" />
    <glyph glyph-name="bnM" horiz-adv-x="1265" 
d="M371 938q-53 0 -86 -32t-33 -92t59 -103l-110 -80q-95 76 -95 182q-1 210 185 254q-23 70 -64 117h-268v131h1348v-131h-222q63 -76 63 -191t-70 -197q-71 -82 -220 -81q-82 0 -156 35q-74 34 -118 76t-102 77t-111 35zM855 858q71 0 107 45t36 116t-41 118
q-40 47 -121 47h-426q25 -47 34 -119q70 -15 141 -69t135 -96t135 -42z" />
    <glyph glyph-name="bnY" horiz-adv-x="1011" 
d="M260 1184v-8l244 -228v-108l-293 -197l502 -201h8q-14 201 -14 387v355h-447zM104 1184h-145v131h1092v-131h-207v-891h-107l-655 270v142l291 192l-269 248v39z" />
    <glyph glyph-name="bnR" horiz-adv-x="1019" 
d="M205 299q0 43 27 71q28 28 72 28t72 -28t28 -72t-28 -72t-72 -28t-72 29q-27 29 -27 72zM696 535h9q-16 233 -17 405v31q-223 -104 -420 -226zM1061 1184h-227v-809h-127l-580 289v159q240 162 561 301v60h-729v131h1102v-131z" />
    <glyph glyph-name="bnL" horiz-adv-x="1390" 
d="M1210 326h-143v491q-14 47 -60 85t-119 38t-119 -53t-46 -146v-77h-141v75q0 95 -50 145t-129 50q-80 0 -132 -53t-52 -164t69 -172t175 -62q33 0 47 4l14 -133q-31 -6 -65 -6q-162 0 -275 102q-112 102 -112 270q0 167 93 259t216 92t186 -52t82 -114h10q11 68 67 120
t160 52t173 -88h8v195h-1108v131h1473v-131h-222v-858z" />
    <glyph glyph-name="bnSH" horiz-adv-x="1308" 
d="M137 1184h-178v131h176q221 0 311 -156q90 154 276 154t263 -125h8q-20 123 -20 256v74h147v-203h230v-131h-230v-713h-149v424q0 281 -232 281q-98 0 -159 -56q-62 -56 -62 -170q0 -113 62 -171t150 -58q90 0 124 18v-137q-53 -14 -109 -14q-209 0 -305 151
q-86 -156 -293 -155q-53 0 -112 16v139q41 -18 112 -18q223 0 224 227q-1 236 -234 236z" />
    <glyph glyph-name="bnSS" horiz-adv-x="1050" 
d="M262 926q0 -117 73 -192t176 -75t173 50l-393 338q-29 -58 -29 -121zM538 1184q-104 0 -167 -45l391 -338q27 59 26 125q0 110 -74 184q-72 74 -176 74zM1092 1184h-248q96 -102 96 -275t-118 -275t-298 -104q-180 0 -297 106t-117 276t93 272h-244v131h1133v-131z" />
    <glyph glyph-name="bnS" horiz-adv-x="1314" 
d="M902 887q91 0 125 56q33 56 33 130t-18 111h-360q18 -125 74 -211t146 -86zM315 887q150 0 189 297h-545v131h1397v-131h-164q16 -53 16 -117q0 -137 -76 -222t-221 -85q-225 0 -317 244q-61 -244 -279 -244q-166 0 -276 155l96 93q88 -121 180 -121z" />
    <glyph glyph-name="bnH" horiz-adv-x="946" 
d="M987 1184h-1028v131h1028v-131zM109 485h129q229 0 327 67t99 196q0 94 -60 152t-154 58q-92 0 -146 -48t-54 -135t84 -132l-105 -76q-125 70 -125 226q0 127 96 212t250 85t256 -98t103 -253q0 -305 -397 -352v-8q57 -14 282 -139l240 -138l-94 -100q-393 226 -505 282
t-226 70v131z" />
    <glyph glyph-name="bnK_SS" horiz-adv-x="1820" 
d="M1153 -152l465 -325l-80 -113l-465 324zM963 850h151v334h-313v-152q0 -182 162 -182zM1264 -6h-140q-35 136 -166 242t-301 122q-25 -82 -69 -120t-95 -37q-50 -1 -81 29t-31 83t42 99t114 67v43q1 106 -59 176t-152 90q-20 -78 -66 -118t-97 -39q-50 0 -81 31
q-31 30 -31 84t41 100t113 65q-2 162 -123 273h-123v131h1866v-131h-561v-334h84q166 0 263 -84t97 -223q0 -223 -199 -326l-96 111q150 63 150 215q1 86 -57 128t-154 42h-88v-719zM1114 655v58h-149q-137 0 -224 85q-86 85 -86 236v150h-403q88 -125 88 -264
q138 -18 238 -126t100 -268v-37q145 -9 273 -87t177 -156q-14 172 -14 409z" />
    <glyph glyph-name="bnJ_NY" horiz-adv-x="1697" 
d="M870 -145l465 -326l-80 -113l-464 324zM1438 813q0 115 -142 115q-74 0 -141 -80q-65 -80 -65 -233t61 -243t172 -91q63 -1 100 37t37 98t-43 96t-121 37h-41v119h35q70 0 109 39t39 106zM1331 150q-168 0 -262 131q-43 -93 -134 -149t-222 -56q-264 0 -442 219
q-177 219 -187 526l141 41q5 -268 141 -454t343 -187q119 1 187 61t67 136q0 76 -27 145l-236 12q-258 16 -258 226q0 156 150 383h-633v131h1780v-131h-821q8 -205 102 -330q90 203 301 203q113 0 183 -68t71 -156q0 -163 -133 -215v-8q63 -20 108 -73t45 -148
q1 -95 -71 -167t-193 -72zM590 809q0 -88 127 -96l264 -19q-188 139 -207 490h-6q-68 -78 -123 -189t-55 -186z" />
    <glyph glyph-name="asR" horiz-adv-x="997" 
d="M666 969q-104 -37 -222 -109l220 -143q0 168 2 252zM223 700l447 -290h6q-8 121 -10 184l-314 209q-86 -60 -129 -103zM664 1184h-705v131h1077v-131h-239v-938h-115l-584 387v129q82 84 249 187t317 151v84z" />
    <glyph glyph-name="asW" horiz-adv-x="1038" 
d="M696 535h9q-16 233 -17 405v31q-223 -104 -420 -226zM127 377l88 106l293 -153l-88 -109zM1079 1184h-245v-809h-127l-580 289v159q240 162 561 301v60h-729v131h1120v-131z" />
    <glyph glyph-name="bnDDx" horiz-adv-x="1306" 
d="M563 35q0 43 28 71t71 29q42 0 70 -29q28 -30 28 -72t-28 -70t-70 -28t-71 28q-28 28 -28 71zM692 424q162 0 263 89t102 222q0 78 -37 133q-160 -125 -309 -125q-104 0 -166 66q-61 66 -62 168v207h-524v131h1389v-131h-723v-201q0 -109 94 -109q135 0 325 173
q58 -39 106 -120t48 -190q0 -203 -138 -325t-370 -123q-287 0 -454 207t-181 508l142 30q10 -282 145 -446t350 -164z" />
    <glyph glyph-name="bnDDHx" horiz-adv-x="1048" 
d="M389 90q0 43 28 72q29 28 71 28t71 -28t29 -72q0 -43 -29 -71q-29 -27 -72 -27t-71 28t-27 70zM322 1184v-553q0 -158 172 -158q131 0 213 80t81 201q0 166 -141 166q-80 0 -125 -66l-82 119q80 88 208 88t207 -84t79 -223q0 -180 -125 -300t-320 -120q-137 0 -223 75
t-86 207v568h-221v131h1131v-131h-768z" />
    <glyph glyph-name="bnYx" horiz-adv-x="1013" 
d="M201 201q-1 43 27 71t72 29q44 0 72 -29q28 -30 28 -72t-28 -70t-72 -28t-72 28q-27 28 -27 71zM258 1184v-8l246 -228v-108l-293 -197l502 -201h8q-14 201 -14 387v355h-449zM104 1184h-145v131h1092v-131h-207v-891h-107l-655 270v142l291 192l-269 248v39z" />
    <glyph glyph-name="bnK_KA" horiz-adv-x="1372" 
d="M670 362v35h-4l-4 -2h-3q-207 -49 -403 -213l420 -221h8q-14 201 -14 401zM670 950v19q-207 -45 -414 -217l420 -203h8q-14 201 -14 401zM1413 1184h-598v-62q213 -2 326.5 -107.5t113.5 -249.5t-88 -237l-127 76q72 66 72 164t-77 156.5t-220 60.5v-432
q213 -2 326.5 -108.5t113.5 -247.5q0 -215 -192 -316l-90 109q139 82 139 207q0 100 -77 157.5t-220 59.5v-525l92 -45l-108 -106l-684 356v154q158 154 362 237l-362 177v155q104 104 250.5 185t304.5 108v74h-711v131h1454v-131z" />
    <glyph glyph-name="bnNG_KA" horiz-adv-x="1415" 
d="M664 76q-14 203 -15 403v35q-211 -45 -413 -215l419 -223h9zM450 989q-176 0 -176 -170q0 -86 84 -135l-106 -80q-123 82 -123 219.5t81 218t232.5 80.5t250 -113.5t98.5 -287.5v-53q217 -2 330.5 -107.5t113.5 -251.5q0 -207 -193 -313l-90 110q139 78 140 207
q0 100 -79 158.5t-222 58.5v-522l92 -47l-107 -104l-682 354v151q104 104 251 185.5t304 107.5v68q0 127 -55.5 196.5t-143.5 69.5zM-41 1184v131h1497v-131h-139q14 -45 14 -111q0 -115 -66.5 -188.5t-195.5 -73.5t-218 95t-89 278h-803zM907 1184q0 -111 42 -178.5
t124 -67.5q125 0 125 152q0 57 -14 94h-277z" />
    <glyph glyph-name="bnL_KA" horiz-adv-x="1757" 
d="M1104 481v35q-211 -45 -414 -215l420 -221h8q-14 201 -14 401zM-41 1184v131h1839v-131h-549v-512q213 -2 327 -108.5t114 -248.5q0 -215 -193 -315l-90 109q139 82 139 206q0 100 -76.5 157.5t-220.5 59.5v-524l92 -45l-108 -106l-684 356v154q104 102 250.5 184
t304.5 108v119q-14 47 -60.5 85t-120 38t-120.5 -53t-47 -148v-77h-144v75q0 96 -50 145.5t-130 49.5t-133 -61.5t-53 -168t56 -170t147 -81.5l-52 -131q-139 29 -221 132t-82 260t97.5 258t232.5 101q199 0 258 -149h8q45 158 221 157q115 0 185 -75h8v219h-1145z" />
    <glyph glyph-name="bnSS_KA" horiz-adv-x="1296" 
d="M641 485v39q-211 -47 -416 -217l422 -223h8q-14 203 -14 401zM324 926q0 -115 72.5 -189.5t176 -74.5t172.5 47l-393 338q-28 -58 -28 -121zM600.5 1184q-102.5 0 -172.5 -47l395 -338q29 57 29 127q0 106 -74.5 182t-177 76zM1337 1184h-434q92 -102 92 -260t-90 -260
q158 -31 240 -127.5t82 -217.5q0 -209 -193 -315l-90 111q137 76 137 204q0 102 -77.5 161t-217.5 59v-525l91 -47l-107 -104l-684 356v152q125 125 291 207q-199 100 -199 348q0 162 90 258h-309v131h1378v-131z" />
    <glyph glyph-name="bnS_KA" horiz-adv-x="1380" 
d="M717 565v37q-215 -49 -416 -217l420 -221h10q-14 201 -14 401zM895 870q164 0 164 201q-1 52 -15 113h-380q4 -133 63 -223.5t168 -90.5zM322 872q160 0 184 312h-547v131h1462v-131h-231q12 -57 12 -119q0 -125 -58.5 -211t-168.5 -109q158 -31 241.5 -128t83.5 -218
q0 -213 -190 -317l-92 111q139 82 139 206q0 100 -75.5 157.5t-219.5 59.5v-524l90 -47l-108 -104l-684 356v152q119 117 285.5 203.5t345.5 101.5q-150 47 -205 200q-68 -215 -264 -215q-84 0 -156 44t-119 116l94 92q90 -119 181 -119z" />
    <glyph glyph-name="bnNG_KHA" horiz-adv-x="1511" 
d="M-41 1184v131h260q51 -127 143 -207q16 244 240 244q118 0 186 -68q68 -66 68 -162t-69.5 -159.5t-188.5 -63.5q-45 0 -100 10v-28q0 -88 100 -88q121 0 311 135q47 -35 79 -100.5t32 -141.5q0 -172 -141 -272q156 -123 155 -303q0 -147 -100 -239.5t-281 -119.5v-8
l512 -164l9 2q-12 176 -13 426v1510h146v-203h245v-131h-245v-1647l92 -29l-99 -112l-909 287v151q504 20 504 279q0 86 -47 133q-86 -270 -307 -271q-121 0 -186.5 68t-65.5 170q0 45 8 78h145q-12 -45 -12 -84t29.5 -70t95.5 -31t112 61.5t87 186.5q-76 -20 -156 -20
q-227 0 -373.5 143.5t-173.5 376.5l129 41q23 -201 133.5 -314.5t286.5 -113.5q135 0 210 64.5t75 156.5q0 43 -17 72q-127 -94 -256 -94t-192.5 58t-63.5 159v80q-137 76 -227 221h-170zM498 1094v-62q57 -14 111 -14t85 30.5t31 74.5t-29.5 77t-85.5 33q-112 0 -112 -139z
" />
    <glyph glyph-name="bnS_KHA" horiz-adv-x="1656" 
d="M849 870q93 0 134 55.5t41 130.5t-12 128h-377q4 -143 62.5 -228.5t151.5 -85.5zM1032 473q0 68 -49 121q-41 -100 -120 -160.5t-187.5 -60.5t-177 63.5t-68.5 175.5q0 55 12 101h150q-16 -45 -16.5 -94.5t27.5 -79t91.5 -29.5t113.5 57.5t95 175.5q-12 -2 -39 -2
q-119 0 -196.5 64.5t-116.5 165.5q-72 -227 -270 -228q-82 0 -155 44t-120 112l94 92q88 -121 181 -121q154 0 184 314h-506v131h1165q49 -131 50 -244q0 -227 -164 -301q168 -131 168 -291t-102.5 -250t-284.5 -116v-9l518 -188l8 2q-14 213 -14 436v1164h149v-203h246
v-131h-246v-1315l88 -29l-100 -116l-940 331v140q532 10 532 278z" />
    <glyph glyph-name="bnG_GA" horiz-adv-x="1339" 
d="M582 741q0 154 -198 154q-100 0 -200 -55l-108 110q51 162 191.5 267.5t318.5 105.5q289 0 422 -219h8q-31 102 -31 319v95h150v-203h245v-131h-245v-1477h-150v436q0 176 -104.5 296t-282.5 120q-119 0 -206 -55t-132 -142q74 37 189.5 37t199.5 -72.5t84 -203.5
q0 -238 -260 -406l-115 101q223 150 224 307q0 151 -198 151q-100 0 -200 -55l-108 107q41 156 182 262t315 110q8 18 9 41zM735 739q0 -27 -6 -55q166 -41 256 -166v248q0 174 -106.5 294t-286.5 120q-117 0 -204 -57.5t-128 -137.5q74 37 188.5 37t200.5 -76t86 -207z" />
    <glyph glyph-name="bnNG_GA" horiz-adv-x="1437" 
d="M879 1184q0 -111 43 -178.5t125 -67.5q125 0 124 152q0 57 -14 94h-278zM733 1184h-774v131h1520v-131h-189q14 -43 15 -111q0 -117 -68 -188.5t-195.5 -71.5t-218 95.5t-90.5 275.5zM1217 217v-319h-146v311q0 197 66 356l-379 -176q-39 -131 -123 -209t-205 -78
t-206 65.5t-113 143.5l112 80q66 -152 207 -151q102 0 157.5 97t55.5 245.5t-47 243t-154 94.5q-74 0 -115.5 -42t-41.5 -120t63 -127l-108 -78q-102 78 -102.5 209t79.5 210t234.5 79t243.5 -129t89 -330v-33l424 191l107 -97q-98 -197 -98 -436z" />
    <glyph glyph-name="bnDD_GA" horiz-adv-x="2326" 
d="M934 1184h-293v-283q0 -111 96 -110q59 0 152.5 40.5t185.5 126.5q45 139 164 236l-4 4q-86 -14 -301 -14zM713 305q170 0 272 93.5t102 244.5q0 90 -32 135q-147 -129 -328 -129q-111 0 -174.5 68.5t-63.5 177.5v289h-530v131h1610q189 0 289 -80t139 -148h8
q-12 29 -22.5 136.5t-10.5 183.5v111h152v-203h243v-131h-243v-1184h-152v758q0 170 -109.5 293t-287.5 123q-119 0 -204 -60.5t-128 -138.5q78 39 195 39t201.5 -76t84.5 -203t-77.5 -238.5t-208.5 -195.5l-117 109q248 145 248 323q0 78 -49.5 118t-140 40t-191.5 -47
q49 -94 49 -197q0 -221 -141.5 -352t-361.5 -131t-370 104q-288 200 -309 631l144 31q10 -291 150 -458t364 -167z" />
    <glyph glyph-name="bnD_GA" horiz-adv-x="2080" 
d="M1329 1174q-119 0 -205 -60.5t-129 -138.5q78 39 195 39t202 -76t85 -205t-83 -243.5t-218 -196.5l-117 106q264 154 264 334q0 78 -49 118t-136 40t-186 -41q-53 -203 -53 -432v-418h-154v422q0 195 58 393q-254 -166 -471 -469l-152 68v770h-221v131h1362
q189 0 291 -82t137 -146h8q-12 29 -22.5 136.5t-10.5 183.5v111h152v-203h246v-131h-246v-1184h-150v758q0 168 -109.5 292t-287.5 124zM330 1184v-611q84 109 231.5 235t269.5 177q45 117 156 207l-4 6q-86 -14 -283 -14h-370z" />
    <glyph glyph-name="bnDDx_GA" horiz-adv-x="2340" 
d="M948 1184h-295v-283q0 -111 97 -110q59 0 152 40.5t185 126.5q43 135 164 236l-4 4q-86 -14 -299 -14zM1583 733q0 158 -190 158q-92 0 -193 -47q49 -94 49 -197q0 -221 -141 -352t-383 -131q-295 0 -468 211t-189 524l145 31q10 -291 150.5 -458t363.5 -167
q168 0 271.5 93.5t103.5 244.5q0 86 -33 135q-152 -129 -330 -129q-111 0 -173 68.5t-62 177.5v289h-545v131h1622q189 0 291 -81.5t137 -146.5h8q-12 31 -22 137.5t-10 182.5v111h151v-203h246v-131h-246v-1184h-149v758q0 168 -110 292t-288 124q-119 0 -205 -60.5
t-129 -138.5q78 39 195 39t202 -76t85 -203t-78 -238.5t-207 -195.5l-117 109q248 147 248 323zM602 -137q0 45 28.5 73.5t74 28.5t74 -28.5t28.5 -73.5t-28.5 -74t-74 -29t-74 29t-28.5 74z" />
    <glyph glyph-name="bnL_GA" horiz-adv-x="1480" 
d="M-41 1184v131h1563v-131h-246v-1581h-152v338q0 174 -93 289.5t-271 115.5q-109 0 -191 -57.5t-120 -134.5q85 47 199 43t189.5 -71t76.5 -178t-70.5 -207.5t-186.5 -164.5l-104 109q106 66 158.5 125t50.5 131q0 139 -172 139q-104 0 -213 -62l-105 105
q45 154 177.5 256t304.5 104q252 0 370 -180v488q-14 47 -61 84.5t-120 37.5t-121 -54t-48 -146v-49h-145v45q0 88 -49.5 142t-132.5 54t-136 -49t-53 -141q0 -147 156 -209l-74 -115q-100 29 -168 119t-68 222t96.5 223.5t237.5 91.5q197 0 262 -156h9q16 68 71.5 115
t161.5 47t174 -74h8v205h-1165z" />
    <glyph glyph-name="bnNG_GHA" horiz-adv-x="2387" 
d="M1237 1000.5q0 109.5 63 183.5h-262q33 -61 33 -127q0 -123 -84 -192.5t-219 -69.5q-74 0 -135 20v-70q0 -117 115 -116q149 0 368 184q115 -88 137 -248l113 70q72 47 123 67.5t53 22.5v10q-145 10 -225 83t-80 182.5zM2034 610v574h-561q-88 -72 -88.5 -165t59 -140.5
t159 -47.5t212.5 66l63 -121l-459 -274l623 -305h8q-16 182 -16 413zM-41 1184v131h375q47 -166 166 -283q2 141 77.5 219t202.5 78q53 0 94 -14h1555v-131h-244v-1055l88 -43l-92 -113l-930 453q-27 -162 -160 -257t-341 -95q-297 0 -479.5 202.5t-198.5 491.5l137 31
q18 -274 170.5 -429t370.5 -155q172 0 268 81t96 200q0 82 -31 127q-182 -131 -319 -131t-203.5 67.5t-66.5 177.5v142q-172 113 -256 305h-279zM633 1018v-76q68 -27 135 -27q166 0 166 146q0 59 -38 102t-113 43q-150 0 -150 -188z" />
    <glyph glyph-name="bnD_GHA" horiz-adv-x="2082" 
d="M930 1004q0 106 63 180h-661v-561q98 115 238.5 233.5t256.5 169.5l105 -57q-2 12 -2 35zM1729 610v574h-560q-88 -72 -88 -165t59.5 -140.5t158.5 -47.5t208 66l66 -121l-459 -274l623 -305h6q-14 193 -14 413zM879 162h-150v276q0 254 68 418q-236 -168 -463 -457
l-152 93v692h-223v131h2165v-131h-246v-1055l88 -43l-92 -113l-926 451v141l109 68q79 52 126.5 71t49.5 21v8q-223 20 -285 168q-70 -217 -69 -461v-278z" />
    <glyph glyph-name="bnL_GHA" horiz-adv-x="2127" 
d="M1774 1184h-551q-96 -82 -97 -195q0 -53 27 -92q55 -82 190 -82q98 0 211 66l64 -121l-459 -275l623 -305l8 2q-16 182 -16 412v590zM92 601q0 173 94.5 275.5t239.5 102.5q109 0 173.5 -52.5t84.5 -115.5h8q14 70 69.5 123t147.5 53q27 0 68 -8v8q0 111 72 197h-1090
v131h2210v-131h-244v-1071l88 -43l-92 -113l-934 455v133l119 73q85 53 129.5 72t46.5 21v8q-141 8 -221 80h-2q-51 47 -129 47t-124 -53.5t-46 -147.5v-78h-146v76q0 92 -49 143.5t-133 51.5t-135 -63.5t-51 -179.5t67.5 -181.5t180.5 -65.5q72 0 122 23l23 -138
q-68 -25 -145 -24q-180 0 -291 109.5t-111 282.5z" />
    <glyph glyph-name="bnC_CA" horiz-adv-x="1742" 
d="M322 504q0 -125 131 -125q111 0 198.5 89t87.5 214q0 66 -37.5 112t-136.5 80l-90 33q-106 35 -158 105h-8q12 -123 13 -324v-184zM870 1184h-553q31 -82 179 -133l118 -43q211 -78 256 -224v400zM1018 541v-283q0 -123 131 -123q113 0 225.5 117t112.5 258q0 66 -39 113
t-139 84l-131 49q-106 39 -160 106h-8q8 -74 8 -321zM1636 508q0 -190 -148.5 -350t-340.5 -160q-129 0 -203 69.5t-74 186.5v315q-37 -143 -152.5 -236t-254.5 -93t-214 69.5t-75 188.5v686h-215v131h1825v-131h-772v-56q0 -158 180 -225l168 -63q139 -51 207.5 -130
t68.5 -202z" />
    <glyph glyph-name="bnNY_CA" horiz-adv-x="1568" 
d="M1153 1083q-104 0 -175 -99t-71 -278t71 -293t198 -114q78 0 119.5 47t41.5 120t-49 118t-141 45h-47v137h39q84 0 128 47t44 118.5t-42 111.5t-116 40zM225 924.5q0 -66.5 51 -125.5l-122 -56q-72 76 -72 193t82 195.5t217 78.5t233.5 -70.5t153.5 -189.5h8
q-18 129 -18 332v33h149v-19q0 -135 -12 -209l4 -2q92 133 270 134q129 0 208 -78t79 -197q0 -178 -149 -235v-9q76 -25 125 -87t49 -171.5t-79 -193.5t-212 -84q-186 0 -283 137v-209l92 -47l-104 -102l-733 348v172q276 197 545 332q-106 279 -312 278q-84 0 -127 -41
t-43 -107.5zM762 563v103q-203 -111 -467 -285l473 -223h8q-14 203 -14 405z" />
    <glyph glyph-name="bnSH_CA" horiz-adv-x="1918" 
d="M1194 541v-283q0 -123 131 -123q113 0 225.5 117t112.5 258q0 66 -39 113t-139 84l-133 49q-100 37 -160 106h-8q10 -47 10 -321zM-41 1184v131h191q227 0 335 -164q117 164 312 164h1163v-131h-772v-56q0 -158 180 -225l168 -63q139 -51 207.5 -130t68.5 -202
q0 -190 -148 -350t-341 -160q-129 0 -202.5 69.5t-73.5 186.5v930h-244q-100 0 -173 -72t-73 -185t74 -178t180 -65q55 0 109 23v-144q-53 -14 -133 -14t-167.5 45t-140.5 121q-100 -166 -317 -166q-61 0 -115 14v139q41 -18 113 -18q115 0 182.5 66.5t67.5 183.5t-72 183.5
t-188 66.5h-191z" />
    <glyph glyph-name="bnC_CHA" horiz-adv-x="1918" 
d="M322 512q0 -125 133 -125q109 0 194.5 88t85.5 213q0 66 -36.5 112t-135.5 81l-84 26q-113 41 -162 109h-8q12 -61 13 -322v-182zM872 1184h-553q40 -78 177 -129l116 -43q213 -76 260 -224v396zM1305 819.5q0 62.5 -49.5 91.5t-127 52.5t-114.5 54.5v-268
q0 -102 104 -103q76 0 131.5 55t55.5 117.5zM1798 692q0 -197 -141 -305t-416 -121v-8q92 -25 281 -121l319 -168l-100 -110q-440 238 -580.5 304t-245.5 81v137h195q541 0 541 311q0 104 -67.5 165t-160.5 61q18 -37 19 -91q0 -123 -91 -216t-231 -93q-186 0 -233 144
q-10 -170 -136 -291t-298 -121q-129 0 -204 69.5t-75 188.5v676h-215v131h2001v-131h-963q16 -35 60.5 -58.5t122 -49t114.5 -44.5q61 18 127 19q160 0 268.5 -99.5t108.5 -259.5z" />
    <glyph glyph-name="bnNY_CHA" horiz-adv-x="1431" 
d="M231 -94h244q393 0 393 182q0 66 -53 123q-123 -123 -304 -123t-287.5 83t-106.5 232q0 109 58 188t142 125t167 86q200 96 200 212q0 78 -58.5 125t-150.5 47t-145.5 -45t-53.5 -125t60 -135l-111 -74q-94 76 -94 212t95.5 220t244.5 84q207 0 299 -145q94 137 264 137
q117 0 194 -65.5t77 -184.5q0 -59 -30 -111.5t-85 -76.5v-9q133 -51 133 -200q0 -111 -71.5 -182.5t-209.5 -71.5t-230.5 96t-115.5 256q-43 -33 -127 -76q61 -160 213 -282q58 -46 112 -91q120 -100 120 -231t-100.5 -201.5t-268.5 -83.5v-8q106 -12 332 -104l264 -109
l-84 -119q-432 178 -611 239.5t-315 68.5v137zM1028 1182q-92 0 -154.5 -83t-62.5 -233t63.5 -233.5t169.5 -83.5q63 0 99.5 33.5t36.5 91.5q0 127 -170 127h-39v131h39q152 0 151 129q0 57 -36 89t-97 32zM500.5 227q112.5 0 206.5 74q-55 43 -92 78t-85.5 102.5
t-78.5 149.5q-90 -47 -138.5 -98.5t-48.5 -132.5t62 -127t174.5 -46z" />
    <glyph glyph-name="bnSH_CHA" horiz-adv-x="2062" 
d="M1448 819.5q0 62.5 -49 91.5t-127 52.5t-115 54.5v-268q0 -102 109 -103q78 0 130 55t52 117.5zM141 1184h-180v131h180q227 0 336 -164q119 164 311 164h1315v-131h-962q16 -33 60 -56.5t120 -49t113 -44.5q72 16 131 17q160 0 268.5 -99.5t108.5 -259.5
q0 -399 -558 -424v-8q90 -23 281 -123l324 -170l-103 -110q-469 256 -609 318.5t-259 74.5v131h237q539 0 539 311q0 102 -63.5 160.5t-163.5 65.5q18 -41 18 -91q0 -123 -91 -216t-220 -93t-193.5 63.5t-64.5 166.5v436h-221q-100 0 -173 -72t-73 -185t73.5 -178t180.5 -65
q59 0 108 23v-144q-53 -14 -131.5 -14t-167 45t-141.5 121q-100 -166 -317 -166q-61 0 -115 14v139q43 -18 113 -18q115 0 182 66.5t67 183.5t-71.5 183.5t-188.5 66.5z" />
    <glyph glyph-name="bnNY_JA" horiz-adv-x="1562" 
d="M1102 1186q-80 0 -142.5 -82t-62.5 -237t61.5 -248t174.5 -93q68 0 105.5 37t37.5 101t-44 99.5t-124 35.5h-43v123h37q152 0 151 139q0 125 -151 125zM1227 -236v363q0 160 43 291q-53 -25 -127 -25q-156 0 -245 97.5t-114 257.5q-16 -18 -60 -62q-44 -46 -62 -68
q-56 -68 -56 -126q0 -92 137 -109l215 -29q92 -82 92.5 -229.5t-91 -236.5t-269.5 -89q-260 0 -435 217t-185 525l143 41q4 -268 139 -454.5t338 -186.5q104 0 159.5 51t55.5 125t-28 112l-166 21q-117 14 -185.5 74.5t-68.5 151.5t48 167t106.5 126t106.5 115.5t48 136.5
t-57.5 118t-150.5 47t-146.5 -46t-53.5 -126t64 -140l-113 -75q-96 80 -96 219t96.5 221t243.5 82q211 0 301 -143q92 141 276 141q119 0 191 -69.5t72 -174.5q0 -154 -129 -203v-8q63 -23 107 -77t44 -128t-29 -131l60 -47q-76 -147 -76 -358v-359h-143z" />
    <glyph glyph-name="bnJ_JA" horiz-adv-x="2347" 
d="M1434 33q117 0 181 59.5t64 139.5t-32 118l-191 12q-111 8 -174 63.5t-63 154.5q0 129 153 272q-164 4 -286.5 58.5t-178.5 164.5q-98 -53 -179 -130t-81 -142q0 -84 113 -90l246 -21q43 -37 69.5 -102.5t26.5 -147t-49 -161.5q139 -248 381 -248zM2148 154v-328h-143
v336q0 201 90 395q-197 4 -326 61.5t-213 202.5q-180 -137 -180 -233q0 -82 113 -88l246 -21q43 -39 69.5 -106.5t26.5 -132.5q0 -150 -105.5 -249.5t-273.5 -99.5q-327 0 -510 283q-96 -61 -235 -61q-264 0 -442.5 217t-188.5 524l143 41q4 -268 141.5 -454.5t344.5 -186.5
q119 0 182 59.5t63 133t-32 116.5l-189 12q-111 10 -174 65.5t-63 157t96 206t237 180.5h-866v131h2429v-131h-1374q56 -158 241 -192q84 -16 213 -15h170q29 -66 55.5 -108t76.5 -89q101 -94 327 -94h96l68 -104q-113 -203 -113 -428z" />
    <glyph glyph-name="bnN_JA" horiz-adv-x="1789" 
d="M1839 1184h-973v-162q121 -96 311.5 -150.5t393.5 -54.5h82l67 -108q-106 -203 -106 -478v-381h-146v390q0 258 86 444q-418 4 -688 176v-252q0 -98 117 -108l213 -21q43 -41 69.5 -105.5t26.5 -125.5q0 -166 -107.5 -265.5t-321.5 -99.5t-384 145.5t-237 370.5l127 74
q53 -201 187 -324.5t314 -123.5q135 0 203 61q68 60 68 144t-33 120l-150 12q-193 16 -233 152q-74 172 -150.5 269.5t-191.5 97.5q-76 0 -118 -42t-42 -108t53 -131l-118 -57q-78 77 -78 197t81 199t218 79q225 0 350 -238h8q-18 129 -18 348v56h-760v131h1880v-131z" />
    <glyph glyph-name="bnB_JA" horiz-adv-x="1712" 
d="M639 590v385q-217 -88 -383 -217zM1753 1184h-967v-162q121 -96 311.5 -150.5t393.5 -54.5h82l67 -108q-106 -203 -106 -478v-381h-143v390q0 262 84 444q-414 4 -689 176v-252q0 -98 117 -108l213 -21q43 -41 69.5 -105.5t26.5 -125.5q0 -166 -106.5 -265.5t-320 -99.5
t-383 141.5t-234.5 362.5l125 76q53 -197 186 -317.5t314 -120.5q135 0 202.5 61t67.5 143.5t-35 120.5l-147 12q-72 6 -117 27l-649 279v151q84 74 227 162t297 141v62h-680v131h1794v-131z" />
    <glyph glyph-name="bnNY_JHA" horiz-adv-x="1753" 
d="M922 117v71q-213 -84 -410 -219l416 -219h8q-14 203 -14 367zM1454 1054q0 132 -158 132q-83 0 -159 -86t-76 -248t69.5 -258t192.5 -96q74 0 114 41t40 104.5t-46.5 101t-130.5 37.5h-47v125h37q76 0 120 42.5t44 104.5zM797 1319q98 0 158.5 -47t80.5 -119
q29 59 105 113.5t189.5 54.5t190 -70.5t76.5 -181.5q0 -76 -36.5 -131t-100.5 -82v-8q66 -20 113 -76.5t47 -142.5q0 -160 -135 -234v-538l-133 -64l-287 148v-260l92 -48l-106 -102l-684 354v158q188 150 464 260q-84 45 -305 71q-454 53 -454 345q0 121 67 221l129 -55
q-51 -74 -51 -164t83 -137t256 -70t255 -54.5t127 -84.5h8q-27 213 -26 401v258q0 150 -132 150q-123 0 -204.5 -86t-81.5 -201q0 -59 33.5 -92t101.5 -33t125 45l55 -112q-78 -61 -196.5 -61.5t-191.5 70t-73 183.5q0 168 125.5 295t315.5 127zM1346 356v4h-13
q-90 0 -170 47.5t-108 94.5q10 -45 10 -209v-195l285 -147h8q-12 139 -12 405z" />
    <glyph glyph-name="bnJ_JHA" horiz-adv-x="2048" 
d="M1262 330q0 227 77 395q-182 6 -317 111.5t-164 244.5q-72 -43 -106.5 -64.5t-80.5 -71.5t-46 -95q0 -78 137 -88l217 -19q45 -39 71.5 -101t26.5 -128q0 -147 -103.5 -243.5t-285.5 -96.5q-264 0 -442 215t-191 520l144 41q6 -268 142 -451.5t343 -183.5
q119 0 181.5 54.5t62.5 128t-33 116.5l-180 15q-246 25 -246 210t305 345h-815v131h2130v-131h-246v-1389l-137 -63l-299 157v-274l92 -45l-106 -105l-686 355v157q96 76 257.5 163t297.5 132v58zM1262 53v72q-197 -78 -410 -219l414 -219h8q-12 172 -12 366zM1702 301v883
h-729q23 -133 125 -230.5t297 -97.5h43l67 -106q-98 -176 -98 -426v-275l299 -160h8q-12 164 -12 412z" />
    <glyph glyph-name="bnC_NYA" horiz-adv-x="2129" 
d="M1837 712q0 134 -158 134q-83 0 -159 -87t-76 -248t70.5 -258t193.5 -97q72 0 112 41t40 104.5t-46.5 102t-130.5 38.5h-47v125h39q76 0 119 41.5t43 103.5zM1307 696q0 74 -31 111t-100 37q-125 0 -216.5 -86t-91.5 -199q0 -57 34 -90t102.5 -33t123.5 45l56 -114
q-72 -59 -209.5 -59.5t-206.5 102.5q-61 -74 -145 -117q66 -104 321 -135q176 -20 260 -50t121 -77h8q-27 160 -26 399v266zM315 711v-203q0 -121 127 -121q109 0 199 90t90 219q0 63 -37 110.5t-135 82.5l-90 31q-111 37 -158 104h-8q12 -111 12 -313zM-41 1184v131h2212
v-131h-1856q37 -78 166 -123l125 -45q180 -68 238 -180q137 141 340 141q98 0 157.5 -45t79.5 -117q29 59 105 112.5t188.5 53.5t189 -71.5t76.5 -182.5q0 -76 -38.5 -131t-104.5 -82v-8q68 -18 117 -75.5t49 -159t-79 -176.5t-208 -75q-90 0 -168 47.5t-108 94.5
q10 -41 10 -201v-162h-137q0 111 -87 159t-294 71q-367 41 -461 223q-10 -2 -31 -2q-125 0 -195.5 68.5t-70.5 183.5v682h-215z" />
    <glyph glyph-name="bnK_TTA" horiz-adv-x="1339" 
d="M655 553h9q-12 172 -13 401v21q-240 -45 -409 -205zM809 1694q158 0 256 -75t98 -212q0 -27 -8 -92h225v-131h-585v-68q213 -8 332.5 -102t119.5 -238q0 -223 -203 -325l-94 110q152 61 152 215q0 197 -307 209v-557q-403 -92 -404 -352q0 -111 85 -172.5t219 -61.5
t207 53.5t73 123t-37 104.5t-99.5 35t-109.5 -43l-78 118q76 66 193 66t197.5 -73.5t80.5 -209.5t-117.5 -225.5t-315.5 -89.5t-322.5 102.5t-124.5 270.5q0 268 272 397l-420 219v146q236 233 557 272v76h-692v131h1047q10 47 10 82q0 86 -55.5 125t-174.5 39h-337
q-178 0 -255 74.5t-77 189.5q0 18 4 59l143 31l-6 -68q0 -154 201 -153h350z" />
    <glyph glyph-name="bnTT_TTA" horiz-adv-x="1310" 
d="M475 1184v-670q0 -78 46 -120t128 -42q135 0 227.5 97.5t92.5 236.5q0 74 -36 119t-113 45t-124 -68l-82 121q76 88 209 88t215 -84t82 -206t-41 -216q103 -109 103 -291t-131 -301.5t-354 -119.5t-400.5 149.5t-259.5 394.5l119 86q72 -221 213 -356t333 -135
q152 0 241 82t89 219q0 90 -37 145q-133 -145 -346 -145q-145 0 -233 78t-88 213v680h-369v131h993q8 39 9 82q0 88 -54.5 126t-175.5 38h-334q-178 0 -254.5 74.5t-76.5 189.5q0 39 4 59l143 31l-6 -68q0 -154 201 -153h346q158 0 257 -75t99 -212q0 -37 -10 -92h252v-131
h-877z" />
    <glyph glyph-name="bnNN_TTA" horiz-adv-x="1765" 
d="M1493 602q1 184 -149 184q-78 0 -123 -65l-84 119q82 90 212 90t211.5 -91t81.5 -237q0 -193 -141 -344.5t-350 -151.5q-137 0 -219 80t-82 211v262q0 240 -82 379.5t-256 139.5q-133 0 -207 -77t-74 -195t68 -181t167 -63t163 49l49 -131q-78 -57 -209 -58
q-174 0 -281.5 107.5t-107.5 280.5t113.5 289t312.5 116q119 0 206 -48t130 -122h8v170h608q10 47 10 82q0 86 -55 125t-174 39h-338q-176 0 -253 74.5t-77 189.5q0 39 4 59l142 31l-6 -68q0 -154 200 -153h351q158 0 256 -75t98 -212q0 -49 -8 -92h198v-131h-807v-776
q0 -74 40 -118t118 -44q135 0 235.5 106.5t100.5 249.5z" />
    <glyph glyph-name="bnN_TTA" horiz-adv-x="1669" 
d="M1710 1184h-809v-781q0 -72 40 -115.5t118 -43.5q137 0 236.5 105.5t99.5 250.5q0 82 -36 133t-113 51t-124 -67l-84 119q78 90 210 90t214 -90.5t82 -235.5q0 -193 -141 -345.5t-348 -152.5q-137 0 -220 81t-83 210v15q-36 242 -174 368q-78 72 -172.5 72t-137.5 -41
t-43 -108t51 -128l-124 -53q-72 80 -72 195t83 193.5t224 78.5q252 0 375 -237h8q-20 143 -20 399v37h-791v131h1403q8 57 8 82q0 88 -54 126t-175 38h-338q-176 0 -253 74.5t-77 189.5q0 39 4 59l141 31l-6 -68q0 -154 203 -153h348q158 0 257.5 -75t99.5 -212
q0 -37 -11 -92h201v-131z" />
    <glyph glyph-name="bnL_TTA" horiz-adv-x="2045" 
d="M2087 1184h-807v-776q0 -74 40 -118t118 -44q135 0 235.5 106.5t100.5 249.5q0 82 -37 133t-113 51t-125 -65l-82 119q82 90 212 90t212 -91t82 -237q0 -193 -141.5 -344.5t-349.5 -151.5q-137 0 -219.5 80t-82.5 211v320q-14 47 -61 85t-121 38t-121 -53.5t-47 -147.5
v-80h-145v78q0 94 -49 144t-129 50t-134.5 -59t-54.5 -174t74 -186.5t172 -71.5t164 39l33 -135q-84 -39 -183 -39q-176 0 -294.5 113.5t-118.5 283.5t97 270.5t234 100.5q199 0 261 -150h8q18 68 73.5 112t161.5 44t172 -74h8v279h-1171v131h1780q10 47 10 82
q0 86 -55.5 125t-173.5 39h-338q-178 0 -255 74.5t-77 189.5q0 18 4 59l143 31l-6 -68q0 -154 201 -153h350q158 0 256 -75t98 -212q0 -27 -8 -92h199v-131z" />
    <glyph glyph-name="bnSS_TTA" horiz-adv-x="1138" 
d="M305 930q0 -113 73 -183.5t177 -70.5t168 43l-389 332q-29 -53 -29 -121zM580.5 1190q-101.5 0 -170.5 -49l391 -338q31 55 30 127q0 106 -74.5 183t-176 77zM-41 1184v131h879q10 47 10 82q0 86 -55.5 125t-174.5 39h-272q-178 0 -255 74.5t-77 189.5q0 18 4 59l144 31
l-6 -68q0 -154 200 -153h285q158 0 256 -75t98 -212q0 -27 -8 -92h193v-131h-293q90 -100 90 -246.5t-69.5 -241t-188.5 -131.5q-27 -10 -93.5 -34.5t-101.5 -38.5q-119 -49 -179 -115t-60 -174.5t85 -171t219 -62.5t206.5 56.5t72.5 126t-35.5 104.5t-98.5 35t-109 -43
l-78 119q74 66 191.5 65.5t197.5 -74t80 -211t-118 -229.5t-315.5 -92t-322.5 103.5t-125 275.5q0 254 250 370q-104 43 -164.5 134.5t-60.5 233t90 241.5h-291z" />
    <glyph glyph-name="bnP_TTA" horiz-adv-x="1892" 
d="M244 1028q129 -6 223 -80t127 -211l324 219q-109 225 -347 226q-115 0 -198.5 -48.5t-128.5 -105.5zM565 1319q303 0 432 -246l9 2q-27 68 -27 207v33h606q10 47 10 82q0 86 -55 125t-174 39h-338q-176 0 -253 74.5t-77 189.5q0 39 4 59l142 31l-6 -68q0 -154 200 -153
h351q158 0 256 -75t98 -212q0 -49 -8 -92h198v-131h-807v-803q0 -72 40 -116t118 -44q135 0 235.5 106.5t100.5 250.5q0 82 -37 133t-112.5 51t-124.5 -68l-82 119q78 90 210 90t213.5 -91t81.5 -234q0 -193 -141 -345.5t-350 -152.5q-135 0 -218 81t-83 210v288
q0 80 -16 162l-609 -413l-76 114l201 137q-51 250 -336 250l-84 125q72 115 204 200t304 85z" />
    <glyph glyph-name="bnPH_TTA" horiz-adv-x="1624" 
d="M1155 1694q158 0 256 -75t98 -212q0 -49 -8 -92h164v-131h-1374v-8l256 -236v-125l-289 -194l502 -259h8q-14 207 -14 404v252q111 47 269.5 47t274 -84t115.5 -248q0 -240 -254 -336l-78 121q184 68 185 211q0 90 -66.5 143.5t-156 53.5t-140.5 -15v-987
q0 -168 166 -168q135 0 231.5 84t96.5 209q0 70 -40 115t-113 45t-120 -66l-84 119q82 90 211 90t212 -82t83 -221q0 -178 -135 -305t-342 -127q-145 0 -229 81t-84 218v293l-654 336v139l304 201l-281 258v41h-166v131h1393q10 47 10 82q0 86 -55.5 125t-173.5 39h-338
q-178 0 -255 74.5t-77 189.5q0 18 4 59l143 31l-6 -68q0 -154 201 -153h350z" />
    <glyph glyph-name="bnS_TTA" horiz-adv-x="1333" 
d="M893 870q164 0 164 201q-1 64 -15 113h-380q4 -133 63 -223.5t168 -90.5zM825 1694q158 0 256.5 -75t98.5 -212q0 -27 -9 -92h203v-131h-184q12 -57 12 -143.5t-47 -167t-135 -115.5q-42 -16 -138 -48q-176 -58 -280 -123q-136 -84 -135 -241q0 -111 86 -175.5t219 -64.5
t207 54.5t74 124t-36 104.5t-97.5 35t-112.5 -43l-78 119q74 66 192 65.5t200.5 -74t82.5 -211t-119.5 -228.5t-317.5 -91t-327 107.5t-129 273.5q0 317 398 449q-86 59 -125 163q-74 -213 -265 -213q-166 0 -274 160l94 92q90 -119 180 -119q158 0 187 310h-547v131h1063
q10 47 10 82q0 86 -55 125t-174 39h-338q-178 0 -255 74.5t-77 189.5q0 18 4 59l144 31l-7 -68q0 -154 201 -153h350z" />
    <glyph glyph-name="bnNN_TTHA" horiz-adv-x="1648" 
d="M1113 156q138 0 215 84t77 208.5t-75 244.5t-204 257q4 -59 -4 -108q-14 -314 -317 -402q6 -115 88 -199.5t220 -84.5zM1554 436q0 -170 -118.5 -295t-327.5 -125t-337 140.5t-128 367.5q72 18 131 43q0 275 -51 409q-79 208 -272 208q-111 0 -173.5 -68.5t-62.5 -170
t57.5 -161t150.5 -59.5t155 39l43 -127q-84 -47 -195 -47q-164 0 -261 95t-97 257t99 269.5t284 107.5q217 0 342 -166t125 -463v-28q80 88 79 253v185q-123 133 -189.5 240.5t-78.5 157.5t-12 108q0 129 91 220t253 81l31 -135q-8 2 -31 2q-88 0 -141.5 -48.5t-53.5 -130.5
q0 -121 138 -280h686v-131h-586q236 -250 343 -414t107 -334z" />
    <glyph glyph-name="bnN_TTHA" horiz-adv-x="1460" 
d="M928 156q135 0 213 84t78 207.5t-75 242.5t-206 262q0 -76 -2 -98q-11 -320 -320 -414q6 -111 91.5 -197.5t220.5 -86.5zM922.5 16q-205.5 0 -343 140.5t-137.5 365.5q186 47 269 125q-139 244 -334 244q-80 0 -123 -41t-43 -111t49 -125l-127 -51q-68 78 -67.5 193
t81 193.5t222.5 78.5q258 0 419 -258q20 59 21 145v185l-72 84h-778v131h682q-113 156 -113 295t95.5 222t248.5 79l31 -139q-96 4 -160.5 -42.5t-64.5 -146t137 -268.5h686v-131h-577q124 -137 188 -216q64 -80 132 -178q122 -179 122 -351.5t-119 -297.5t-324.5 -125z" />
    <glyph glyph-name="bnSS_TTHA" horiz-adv-x="1388" 
d="M219 934q0 -117 70.5 -191.5t169 -74.5t166.5 47l-385 325q-21 -43 -21 -106zM731 934q0 109 -72.5 184.5t-177 75.5t-172.5 -57l391 -332q31 61 31 129zM842 193q137 0 215 83.5t78 204.5q0 82 -27 137.5t-39 81.5q-17 37 -104.5 137t-108.5 121q4 -116 -30 -200
q-36 -84 -96 -128q-109 -79 -214 -95q14 -154 101.5 -248t224.5 -94zM72 934q0 154 84 250h-197v131h610q-115 131 -114.5 280.5t95.5 235.5t245 80l30 -139q-100 10 -162.5 -38t-62.5 -139q0 -121 137 -280h693v-131h-594q318 -336 383 -460t65 -241q0 -180 -120 -304
t-320.5 -124t-335.5 130t-152 366q-129 31 -206.5 130t-77.5 253z" />
    <glyph glyph-name="bnDD_DDA" horiz-adv-x="2328" 
d="M2370 1184h-752v-332q0 -113 100 -113q55 0 151.5 44t194.5 135q59 -39 106.5 -126t47.5 -194q0 -217 -143.5 -350t-382.5 -133q-348 0 -531 295q-141 -193 -436 -193t-467 209t-186 522l143 31q10 -291 149.5 -457t362.5 -166q170 0 272.5 91.5t102.5 244.5
q0 84 -33 133q-150 -127 -330 -127q-111 0 -173 68t-62 176v242h-545v131h2411v-131zM1701 256q163 0 266.5 93t103.5 245q0 86 -33 135q-154 -131 -326 -131q-117 0 -181.5 67.5t-64.5 178.5v340h-813v-234q0 -111 97 -110q59 0 153 41t195 133q59 -43 105 -128t46 -168
t-12 -138q63 -156 182 -240t282 -84z" />
    <glyph glyph-name="bnNN_DDA" horiz-adv-x="1558" 
d="M143 955q0 163 101.5 262.5t285.5 99.5q256 0 357 -230q25 37 137 228h94q254 -154 254 -377q0 -168 -108 -289q139 -106 139 -300t-147.5 -308.5t-393 -114.5t-448.5 147.5t-334 409.5l123 86q248 -500 682 -499q168 0 267 80.5t99 204.5t-92 200q-74 -51 -164 -96
l-96 116q168 80 248 163t80 202t-127 211q-98 -168 -158 -246h-123q-53 274 -282 275q-117 0 -179.5 -61.5t-62.5 -170t61.5 -168t160.5 -59.5t167 45l49 -127q-82 -57 -215 -57q-172 0 -273.5 105t-101.5 268z" />
    <glyph glyph-name="bnN_DDA" horiz-adv-x="1564" 
d="M-41 1184v131h1647v-131h-734v-459q0 -113 97 -113q59 0 155.5 43t194.5 136q59 -39 106.5 -126t47.5 -194q0 -221 -141.5 -352t-379.5 -131t-398.5 133t-236.5 348l121 92q66 -203 198 -317.5t307 -114.5t278.5 93t103.5 245q0 86 -33 135q-154 -131 -322 -131t-225 131
q-150 311 -368 311q-84 0 -127 -41q-43 -42 -43 -108t51 -127l-123 -53q-72 76 -72 192t82 195.5t224 79.5q227 0 366 -199h8q-16 115 -18 332h-766z" />
    <glyph glyph-name="bnB_DDA" horiz-adv-x="1449" 
d="M831.5 61q174.5 0 277.5 92.5t103 245.5q0 84 -32 133q-156 -129 -330 -129q-55 0 -102 19l-644 264v158q96 86 242 172t266 129v39h-651v131h1530v-131h-731v-529q0 -111 96 -110q59 0 155.5 43t194.5 135q59 -39 106.5 -127t47.5 -195q0 -219 -141.5 -350t-372.5 -131
t-394 126t-237 329l119 98q61 -197 192 -304.5t305.5 -107.5zM612 627v368q-197 -82 -366 -219z" />
    <glyph glyph-name="bnL_DDA" horiz-adv-x="1939" 
d="M1336.5 156q160.5 0 264 93t103.5 245q0 86 -33 137q-154 -131 -328 -131q-115 0 -178 68.5t-63 176.5v17q-14 47 -61.5 85t-119 38t-117.5 -53.5t-46 -145.5v-78h-142v76q0 94 -49 143.5t-129 49.5t-132 -59.5t-52 -174.5t69.5 -184.5t163 -69.5t156.5 35l29 -131
q-74 -37 -168 -37q-172 0 -286 111.5t-114 280.5t95.5 268.5t230.5 99.5q195 0 254 -150h8q18 68 72.5 112t158 44t171.5 -74h8v236h-1143v131h2021v-131h-729v-432q0 -111 97 -111q59 0 155 43t197 135q57 -39 104 -127t47 -194q0 -219 -141 -350.5t-383 -131.5
q-197 0 -343 94.5t-228 260.5l118 102q63 -152 182.5 -234.5t280 -82.5z" />
    <glyph glyph-name="bnNN_DDHA" horiz-adv-x="1765" 
d="M1493 602q1 184 -149 184q-78 0 -123 -65l-84 119q82 90 212 90t211.5 -91t81.5 -237q0 -193 -141 -344.5t-350 -151.5q-137 0 -219 80t-82 211v262q0 240 -81 379.5t-255 139.5q-135 0 -209 -77t-74 -195t68 -181t167 -63t163 49l49 -131q-78 -57 -209 -58
q-174 0 -281.5 107.5t-107.5 280.5t113.5 289t312.5 116q119 0 206 -48t130 -122h8v170h956v-131h-807v-776q0 -74 40 -118t118 -44q135 0 235.5 106.5t100.5 249.5z" />
    <glyph glyph-name="bnN_DDHA" horiz-adv-x="1671" 
d="M-41 1184v131h1753v-131h-813v-785q0 -72 40 -115.5t120 -43.5q137 0 237.5 105.5t100.5 252.5q0 84 -36 135t-112 51t-127 -69l-82 119q80 92 211 92t214 -91.5t83 -236.5q0 -197 -141 -348.5t-348 -151.5q-141 0 -225 80t-84 211v10q-36 253 -176 381q-80 74 -175.5 74
t-138.5 -41t-43 -107.5t51 -127.5l-123 -54q-72 76 -71.5 193t82.5 195.5t223 78.5q260 0 383 -246h8q-20 123 -20 398v41h-791z" />
    <glyph glyph-name="bnB_DDHA" horiz-adv-x="1613" 
d="M698 446v519q-264 -106 -483 -275zM1655 1184h-811v-793q0 -74 45 -118t129 -44q135 0 229 105.5t94 253.5q0 84 -38.5 135t-117.5 51t-126 -37l-55 127q76 51 198 51t206.5 -91t84.5 -236q0 -197 -134 -348.5t-341 -151.5q-115 0 -194 49t-109 137l-637 330v160
q141 117 316 212t304 140v68h-739v131h1696v-131z" />
    <glyph glyph-name="bnNN_NNA" horiz-adv-x="1267" 
d="M559 1198q-135 0 -209 -77t-74 -184q0 -198 164 -253q57 10 111 10q250 0 373 -221h8q-17 112 -20 289.5t-92 306.5t-261 129zM1065 -111h-152v150q0 236 -89 377t-267 141q-133 0 -207 -77t-74 -194.5t68 -181t166 -63.5t166 49l49 -131q-82 -57 -209 -57
q-176 0 -282.5 107.5t-106.5 273.5q0 221 156 331q-156 100 -156 310q0 180 113.5 295.5t310.5 115.5q252 0 375 -221h8q-18 88 -19 311v93h150v-203h244v-131h-244v-1295z" />
    <glyph glyph-name="bnH_NNA" horiz-adv-x="1048" 
d="M-41 1184v131h1131v-131h-1131zM166 461h127q229 0 339.5 75.5t110.5 206.5q0 96 -63.5 153.5t-162.5 57.5t-156.5 -48t-57.5 -135t80 -132l-107 -80q-120 76 -120 216t99 227.5t261 87.5t267.5 -98.5t105.5 -257.5t-103.5 -251t-277.5 -112v-9q125 -33 280 -106
l277 -131l-88 -111q-66 33 -96 47v-628h-146v75q0 213 -77.5 341t-235.5 128q-98 0 -154.5 -55t-56.5 -146t55.5 -140.5t139.5 -49.5t141 29l37 -125q-78 -37 -176 -37q-152 0 -247 86q-95 87 -95 233t91 242.5t235 96.5t230.5 -57.5t125.5 -133.5h8q-12 59 -19 209
q-242 115 -347 148.5t-224 50.5v133z" />
    <glyph glyph-name="bnSS_NNA" horiz-adv-x="1622" 
d="M1194 1174q-102 0 -175 -99.5t-73 -280t69.5 -293t196.5 -112.5q78 0 120 47t42 120t-48 118t-140 45h-49v137h41q82 0 127 47t45 118.5t-40 112t-116 40.5zM104 1184h-145v131h985v-127q94 121 262 121q131 0 210 -78q79 -77 79 -181q0 -193 -149 -251v-8
q74 -25 123 -87.5t49 -172t-80 -193.5t-221 -84q-176 0 -273 133v-266l82 -49l-104 -101l-807 498v143l303 258l-314 273v41zM813 205q-10 172 -14 352l-267 227l-276 -237l549 -342h8zM266 1184v-6l533 -459v465h-533z" />
    <glyph glyph-name="bnK_SS_NNA" horiz-adv-x="1785" 
d="M956 850h152v334h-313v-152q-1 -182 161 -182zM1255 -573h-145v104q0 236 -80 372t-248 136q-113 0 -176 -61.5t-63 -163t57 -156.5t159.5 -55t184.5 90l51 -127q-98 -98 -248.5 -98t-251 93t-100.5 250t98.5 259t276.5 102q246 0 352 -203h8q-2 16 -6 47
q-49 131 -180 229.5t-293 112.5q-25 -82 -69.5 -119.5t-95 -37.5t-81 29.5t-30.5 82.5t42 99.5t113 66.5v43q0 106 -59 176t-152 90q-20 -78 -66 -117.5t-96 -39.5t-81 30.5t-31 84.5t41 99.5t113 65.5q-2 160 -123 273h-117v131h1868v-131h-572v-334h86q166 0 262.5 -83
t96.5 -224q0 -225 -199 -326l-94 111q150 63 149 215q0 86 -57 128t-153 42h-91v-1286zM1108 655v58h-150q-139 0 -225 85t-86 236v150h-403q90 -123 90 -266q137 -18 237.5 -125t100.5 -267v-37q145 -10 273 -87.5t177 -155.5q-14 172 -14 409z" />
    <glyph glyph-name="bnK_TA" horiz-adv-x="1880" 
d="M1471 514q73 0 124.5 52t51.5 142.5t-53.5 143.5t-135.5 53q-81 -1 -117 -27q-37 -26 -53 -40q-40 -33 -140 -214q-34 -63 -79 -108q88 -43 144.5 -120t56.5 -181q0 -158 -108 -258t-278 -100q-322 0 -518.5 266.5t-287.5 677.5l135 63q88 -410 256 -638t399 -228
q119 0 184.5 63.5t65.5 146.5t-43 139t-114 83q-55 -35 -132 -70l-100 107q154 68 232.5 144.5t78.5 179.5q0 66 -43 107.5t-125.5 41.5t-145 -57.5t-91.5 -134.5l-125 75q37 113 136 182.5t218 69.5t194 -47t107 -127q104 143 285 143q152 0 249 -91t97 -247.5t-92 -243.5
t-209.5 -87t-194.5 37l35 129q63 -27 136 -27zM-41 1184v131h1962v-131h-1962z" />
    <glyph glyph-name="bnT_TA" horiz-adv-x="1394" 
d="M1038 791q0 66 -43 107.5t-125.5 41.5t-145 -57.5t-91.5 -134.5l-125 75q37 111 136 181.5t235 70.5t220.5 -82t84.5 -219.5t-115 -255.5q88 -43 146.5 -119.5t58.5 -183.5q0 -158 -108 -258t-278 -100q-324 0 -528 276q-187 253 -278 668l133 63q88 -410 257 -638
t400 -228q117 0 182.5 63.5t65.5 146.5t-44 139t-115 85q-61 -39 -134 -72l-100 107q154 68 232.5 144.5t78.5 179.5zM-41 1184v131h1477v-131h-1477z" />
    <glyph glyph-name="bnN_TA" horiz-adv-x="1304" 
d="M388 922q-50 0 -84 -33t-34 -94.5t52 -120.5l-125 -56q-72 78 -72 190t68.5 181.5t189.5 69.5q79 0 145 -32q66 -33 105 -69q107 -100 195 -100t124.5 47t36.5 116t-41 116t-123 47h-866v131h1387v-131h-267q57 -70 57.5 -194t-87.5 -204q137 -106 137 -328t-129 -355.5
t-342 -133.5t-367.5 141.5t-243.5 364.5l121 88q68 -203 195 -331t288 -128q162 0 248 98q86 96 86 232q0 280 -198 281q-66 0 -108 -41t-42 -113q0 -104 86 -153l-100 -84q-131 78 -131 243q0 133 92 213q-25 16 -76 59.5t-89 63t-88 19.5z" />
    <glyph glyph-name="bnP_TA" horiz-adv-x="1456" 
d="M572 1327q175 0 288 -78t170 -186l8 2q-10 27 -21 140.5t-11 226.5v86h151v-203h291v-131h-291v-549q102 -41 156.5 -139.5t54.5 -231.5q0 -217 -130 -347t-342 -130t-374 139.5t-248 364.5l125 88q78 -215 205 -334t285 -119t246 93.5t88 246.5q0 113 -51.5 184.5
t-149.5 71.5q-66 0 -108 -41t-42 -112q0 -102 86 -154l-100 -84q-131 80 -131 244q0 121 75 199.5t206 84.5v9q0 106 -29 202l-631 -442l-76 115l209 145q-55 199 -248 225q-31 6 -88 7l-86 118q74 117 206 203t307 86zM582 1190q-115 0 -199 -48.5t-129 -105.5
q115 -6 209 -71.5t133 -194.5l328 227q-119 193 -342 193z" />
    <glyph glyph-name="bnM_TA" horiz-adv-x="1290" 
d="M851.5 858q66.5 0 103 47t36.5 116t-40 116t-124 47h-446q31 -59 43 -127q68 -6 128 -39t96 -68t86.5 -63.5t117 -28.5zM-41 1315h1372v-131h-250q57 -70 57.5 -197t-94.5 -207q129 -106 129.5 -325t-130 -352.5t-343.5 -133.5t-369.5 142.5t-242.5 369.5l123 88
q68 -205 194.5 -335t286.5 -130t248 97.5t88 253.5q0 115 -49 187.5t-150 72.5q-66 0 -107.5 -41t-41.5 -128t84 -140l-98 -82q-131 84 -131 233t98 229q-20 14 -56 45q-35 31 -57 47q-62 44 -121 44t-93 -33t-34 -94.5t52 -120.5l-125 -56q-72 78 -72 189q0 178 152 235
q-18 80 -70 142h-250v131z" />
    <glyph glyph-name="bnL_TA" horiz-adv-x="1591" 
d="M1038 -49q154 0 241 98q87 97 87 233q0 280 -199 281q-68 0 -109.5 -41t-41.5 -114q0 -100 88 -152l-100 -84q-131 78 -132 244q0 104 57.5 178t162.5 94v111q-12 45 -59.5 84t-118 39t-115.5 -53.5t-45 -147.5v-74h-144v74q0 92 -49 142t-129 50t-132 -59t-52 -173
t67.5 -180.5t156.5 -66.5t146 29l33 -135q-68 -33 -162 -33q-168 0 -278.5 110.5t-110.5 279.5t94.5 269.5t229.5 100.5q195 0 254 -146h8q51 152 215 152q121 0 182 -78h9v201h-1133v131h1673v-131h-393v-494q131 -23 200.5 -130t69.5 -261q0 -215 -129 -348t-342 -133
q-160 0 -296 88t-228 235l104 99q166 -289 420 -289z" />
    <glyph glyph-name="bnSH_TA" horiz-adv-x="1505" 
d="M152 1184h-193v131h193q225 0 313 -156q90 154 287 154q104 0 175.5 -41t98.5 -84h8q-23 68 -22 256v74h147v-203h387v-131h-387v-596q129 -25 201 -132.5t72 -256.5q0 -219 -130 -351q-132 -132 -362 -131.5t-399.5 178t-249.5 455.5l125 92q72 -274 211 -429.5
t327 -155.5q156 0 244 94t88 250q0 113 -51 185.5t-150 72.5q-66 0 -108.5 -43t-42.5 -113q0 -102 86 -153l-102 -89q-61 35 -97.5 102.5t-36.5 160.5t59.5 169t166.5 97v303q0 137 -66 209q-68 72 -174 72t-168.5 -59.5t-62.5 -169.5t61.5 -168t167.5 -58q63 0 98 14v-135
q-47 -14 -100 -14q-207 0 -305 153q-84 -158 -297 -157q-49 0 -115 16v141q41 -20 113 -20q113 0 171 61.5t58 173.5t-62 172t-177 60z" />
    <glyph glyph-name="bnS_TA" horiz-adv-x="1345" 
d="M903 870q164 0 164 201q0 52 -14 113h-381q4 -133 63.5 -223.5t167.5 -90.5zM729 121q162 0 250 98t88 254q0 113 -49 186.5t-152 73.5q-66 0 -107.5 -41t-41.5 -114q0 -100 86 -152l-98 -84q-61 37 -97.5 101.5t-36.5 142.5q0 152 115 231q-61 53 -92 137
q-72 -215 -264 -215q-84 0 -156 44t-119 116l95 92q90 -119 180 -119q160 0 184 312h-555v131h1427v-131h-188q12 -57 12 -119q0 -188 -120 -274q121 -109 120.5 -323t-129.5 -347t-346 -133t-373.5 146.5t-242.5 379.5l121 88q68 -211 197.5 -346t291.5 -135z" />
    <glyph glyph-name="bnT_THA" horiz-adv-x="1640" 
d="M977 881q0 162 -94 256q-66 -154 -117 -244h-148q0 301 -190 301q-88 0 -134 -60.5t-46 -156.5t49 -155.5t131 -59.5t127 26l33 -124q-66 -35 -162 -35q-150 0 -238 93t-88 254t85 260t239 99q115 0 190.5 -66.5t100.5 -166.5q57 115 98 213h94q225 -162 226 -434
q0 -477 -629 -553v-9l786 -258h8q-12 176 -12 414v1043h150v-203h245v-131h-245v-1170l94 -32l-103 -117l-1208 395v180q758 7 758 441z" />
    <glyph glyph-name="bnN_THA" horiz-adv-x="1218" 
d="M-41 1315h1301v-131h-207q59 -68 59 -183q0 -164 -123 -241q104 -100 104.5 -263t-103 -257.5t-288.5 -114.5v-8q74 -20 273 -140l162 -100l-105 -100q-332 207 -433 257t-224 66v129h133q436 0 436 275q0 96 -61.5 155.5t-156.5 59.5t-149.5 -48t-54.5 -136t86 -136
l-108 -82q-129 78 -129 234q0 92 49 164.5t135 109.5q-4 4 -12 11q-105 86 -167 86t-96 -33t-34 -94.5t51 -120.5l-125 -56q-72 78 -72 190t69 181.5t189 69.5q80 0 146 -32q66 -33 104 -69q107 -101 195 -100.5t125 48.5t37 116t-41 115t-123 47h-842v131z" />
    <glyph glyph-name="bnM_THA" horiz-adv-x="1218" 
d="M820.5 858q66.5 0 103.5 47t37 116t-40 116t-124 47h-443q31 -57 43 -127q68 -8 126.5 -41t94 -68t86 -62.5t117 -27.5zM-41 1315h1301v-131h-209q57 -70 57 -183q0 -164 -121 -239q106 -100 106.5 -264t-103 -258.5t-288.5 -114.5v-8q74 -20 273 -140l162 -100
l-105 -100q-332 207 -433 257t-224 66v129h133q436 0 436 275q0 96 -61.5 155.5t-156.5 59.5t-149.5 -48t-54.5 -136t86 -136l-108 -82q-129 78 -129 234q0 92 49 164.5t133 109.5q-90 74 -127 85t-77 11.5t-73.5 -32.5t-33.5 -94.5t51 -120.5l-125 -56q-72 78 -72 176
q0 193 156 248q-23 84 -70 142h-223v131z" />
    <glyph glyph-name="bnS_THA" horiz-adv-x="1345" 
d="M877 870q164 0 163 201q0 52 -14 113h-381q4 -133 63.5 -223.5t168.5 -90.5zM303 872q160 0 184 312h-528v131h1427v-131h-215q12 -57 13 -119q0 -182 -113 -270q137 -98 137 -274.5t-107.5 -270.5t-293.5 -115v-8q96 -29 283 -141l143 -88l-107 -105q-324 201 -419 248
t-218 63v134h132q438 0 438 278q0 96 -61.5 153.5t-156.5 57.5t-149.5 -48t-54.5 -133t86 -138l-113 -82q-123 76 -123 244.5t164 254.5q-53 47 -84 129q-72 -215 -264 -215q-84 0 -155.5 44t-118.5 116l94 92q90 -119 180 -119z" />
    <glyph glyph-name="bnG_DA" horiz-adv-x="1816" 
d="M887 1315h971v-131h-826v-611q84 109 231.5 235t272.5 177l137 -76q-72 -221 -71 -491v-418h-150v422q0 221 53 393q-254 -166 -471 -469l-153 68v356q0 170 -94.5 290t-260.5 120q-109 0 -190.5 -51.5t-122.5 -124.5q75 32 189 32t200 -73.5t86 -200.5q0 -223 -246 -389
l-110 100q205 133 205 293q0 72 -51.5 110.5t-141.5 38.5t-186 -41l-109 109q49 147 176 240.5t297 93.5q248 0 381 -213h8q-25 98 -24 201v10z" />
    <glyph glyph-name="bnD_DA" horiz-adv-x="1673" 
d="M891 449v-93q82 106 234.5 235.5t279.5 182.5l137 -78q-72 -221 -72 -491v-385h-149v391q0 244 49 389q-270 -176 -479 -465l-154 84v209q0 270 60 440q-246 -162 -467 -465l-152 82v699h-219v131h1755v-131h-1386v-553q86 109 233.5 234.5t269.5 176.5l140 -75
q-80 -250 -80 -518z" />
    <glyph glyph-name="bnN_DA" horiz-adv-x="1677" 
d="M1718 1184h-825v-611q84 109 231.5 235t272.5 177l137 -76q-72 -221 -72 -491v-418h-149v422q0 221 53 393q-254 -166 -471 -469l-154 68q-23 104 -57.5 192t-111 165t-168.5 77t-135.5 -41t-43.5 -108t51 -128l-122 -53q-72 76 -72 193t82 195.5t216 78.5t228 -67.5
t146 -180.5h8q-20 143 -21 400v47h-782v131h1759v-131z" />
    <glyph glyph-name="bnB_DA" horiz-adv-x="1585" 
d="M645 559v414q-227 -90 -387 -221zM1366 0h-147v428q0 209 49 379q-236 -156 -469 -477l-682 334v151q84 74 228 162t300 141v66h-686v131h1667v-131h-829v-625q84 111 231.5 239t269.5 179l140 -76q-72 -213 -72 -479v-422z" />
    <glyph glyph-name="bnM_DA" horiz-adv-x="1658" 
d="M790 858q66 0 103 47t37 116t-40 116t-124 47h-436q31 -57 43 -129q119 -14 213 -106q93 -91 204 -91zM-41 1315h1741v-131h-680q57 -70 57 -176.5t-54 -184.5t-163 -100v-209q94 104 242.5 218t263.5 159l137 -76q-72 -221 -71 -479v-365h-148v371q0 205 49 375
q-127 -84 -231.5 -180.5t-241.5 -243.5l-151 65v367q-88 18 -194.5 107.5t-171 89.5t-98.5 -33t-34 -94.5t51 -120.5l-123 -56q-71 76 -71 176q1 200 159 250q-23 84 -69 140h-199v131z" />
    <glyph glyph-name="bnL_DA" horiz-adv-x="2068" 
d="M1847 0h-147v436q0 209 49 379q-246 -162 -471 -469l-152 68v331q-14 47 -61 85t-119 38t-118 -53t-46 -147v-78h-147v76q0 96 -49 146t-129 50q-79 0 -133 -60t-54 -176t71 -185.5t169 -69.5t164 37l31 -136q-84 -39 -181 -39q-178 0 -292.5 113t-114.5 285t96 271
t233 99q197 0 261 -147h8q47 156 219 156q115 0 184 -76h8v250h-1167v131h2150v-131h-831v-611q82 109 229.5 235t272.5 177l139 -76q-72 -213 -72 -479v-430z" />
    </font>
</defs>
</svg>
